G04 #@! TF.GenerationSoftware,KiCad,Pcbnew,5.0.2-bee76a0~70~ubuntu18.04.1*
G04 #@! TF.CreationDate,2019-02-27T20:57:34-05:00*
G04 #@! TF.ProjectId,Stepper Motor Prototype,53746570-7065-4722-904d-6f746f722050,rev?*
G04 #@! TF.SameCoordinates,Original*
G04 #@! TF.FileFunction,Copper,L1,Top*
G04 #@! TF.FilePolarity,Positive*
%FSLAX46Y46*%
G04 Gerber Fmt 4.6, Leading zero omitted, Abs format (unit mm)*
G04 Created by KiCad (PCBNEW 5.0.2-bee76a0~70~ubuntu18.04.1) date Wed 27 Feb 2019 08:57:34 PM EST*
%MOMM*%
%LPD*%
G01*
G04 APERTURE LIST*
G04 #@! TA.AperFunction,ComponentPad*
%ADD10C,3.000000*%
G04 #@! TD*
G04 #@! TA.AperFunction,ComponentPad*
%ADD11R,3.000000X3.000000*%
G04 #@! TD*
G04 #@! TA.AperFunction,SMDPad,CuDef*
%ADD12R,2.200000X1.200000*%
G04 #@! TD*
G04 #@! TA.AperFunction,SMDPad,CuDef*
%ADD13R,6.400000X5.800000*%
G04 #@! TD*
G04 #@! TA.AperFunction,SMDPad,CuDef*
%ADD14R,3.050000X2.750000*%
G04 #@! TD*
G04 #@! TA.AperFunction,SMDPad,CuDef*
%ADD15R,0.750000X1.200000*%
G04 #@! TD*
G04 #@! TA.AperFunction,SMDPad,CuDef*
%ADD16R,1.200000X0.750000*%
G04 #@! TD*
G04 #@! TA.AperFunction,SMDPad,CuDef*
%ADD17R,1.000000X3.200000*%
G04 #@! TD*
G04 #@! TA.AperFunction,ComponentPad*
%ADD18C,1.600000*%
G04 #@! TD*
G04 #@! TA.AperFunction,ComponentPad*
%ADD19R,1.600000X1.600000*%
G04 #@! TD*
G04 #@! TA.AperFunction,ComponentPad*
%ADD20C,2.800000*%
G04 #@! TD*
G04 #@! TA.AperFunction,SMDPad,CuDef*
%ADD21R,1.100000X0.285000*%
G04 #@! TD*
G04 #@! TA.AperFunction,SMDPad,CuDef*
%ADD22R,2.900000X4.480000*%
G04 #@! TD*
G04 #@! TA.AperFunction,ComponentPad*
%ADD23O,1.000000X1.000000*%
G04 #@! TD*
G04 #@! TA.AperFunction,ComponentPad*
%ADD24R,1.000000X1.000000*%
G04 #@! TD*
G04 #@! TA.AperFunction,SMDPad,CuDef*
%ADD25R,0.900000X1.200000*%
G04 #@! TD*
G04 #@! TA.AperFunction,SMDPad,CuDef*
%ADD26R,1.100000X0.400000*%
G04 #@! TD*
G04 #@! TA.AperFunction,ViaPad*
%ADD27C,0.800000*%
G04 #@! TD*
G04 #@! TA.AperFunction,Conductor*
%ADD28C,0.250000*%
G04 #@! TD*
G04 #@! TA.AperFunction,Conductor*
%ADD29C,1.500000*%
G04 #@! TD*
G04 #@! TA.AperFunction,Conductor*
%ADD30C,0.254000*%
G04 #@! TD*
G04 APERTURE END LIST*
D10*
G04 #@! TO.P,J2,2*
G04 #@! TO.N,+24V*
X174000000Y-72080000D03*
D11*
G04 #@! TO.P,J2,1*
G04 #@! TO.N,GND*
X174000000Y-67000000D03*
G04 #@! TD*
D10*
G04 #@! TO.P,J3,4*
G04 #@! TO.N,Net-(J3-Pad4)*
X173200000Y-98440000D03*
D11*
G04 #@! TO.P,J3,1*
G04 #@! TO.N,/AOUT1*
X173200000Y-83200000D03*
D10*
G04 #@! TO.P,J3,3*
G04 #@! TO.N,Net-(J3-Pad3)*
X173200000Y-93360000D03*
G04 #@! TO.P,J3,2*
G04 #@! TO.N,/AOUT2*
X173200000Y-88280000D03*
G04 #@! TD*
D12*
G04 #@! TO.P,Q4,1*
G04 #@! TO.N,/A2HS*
X138550000Y-79720000D03*
G04 #@! TO.P,Q4,3*
G04 #@! TO.N,/AOUT2*
X138550000Y-84280000D03*
D13*
G04 #@! TO.P,Q4,2*
G04 #@! TO.N,+24V*
X144850000Y-82000000D03*
D14*
X146525000Y-83525000D03*
X143175000Y-80475000D03*
X146525000Y-80475000D03*
X143175000Y-83525000D03*
G04 #@! TD*
G04 #@! TO.P,Q3,2*
G04 #@! TO.N,/AOUT2*
X160175000Y-83525000D03*
X163525000Y-80475000D03*
X160175000Y-80475000D03*
X163525000Y-83525000D03*
D13*
X161850000Y-82000000D03*
D12*
G04 #@! TO.P,Q3,3*
G04 #@! TO.N,/A1SENP*
X155550000Y-84280000D03*
G04 #@! TO.P,Q3,1*
G04 #@! TO.N,/A2LS*
X155550000Y-79720000D03*
G04 #@! TD*
G04 #@! TO.P,Q2,1*
G04 #@! TO.N,/A1LS*
X155550000Y-55220000D03*
G04 #@! TO.P,Q2,3*
G04 #@! TO.N,/A1SENP*
X155550000Y-59780000D03*
D13*
G04 #@! TO.P,Q2,2*
G04 #@! TO.N,/AOUT1*
X161850000Y-57500000D03*
D14*
X163525000Y-59025000D03*
X160175000Y-55975000D03*
X163525000Y-55975000D03*
X160175000Y-59025000D03*
G04 #@! TD*
G04 #@! TO.P,Q1,2*
G04 #@! TO.N,+24V*
X143175000Y-59025000D03*
X146525000Y-55975000D03*
X143175000Y-55975000D03*
X146525000Y-59025000D03*
D13*
X144850000Y-57500000D03*
D12*
G04 #@! TO.P,Q1,3*
G04 #@! TO.N,/AOUT1*
X138550000Y-59780000D03*
G04 #@! TO.P,Q1,1*
G04 #@! TO.N,/A1HS*
X138550000Y-55220000D03*
G04 #@! TD*
G04 #@! TO.P,Q5,1*
G04 #@! TO.N,Net-(Q5-Pad1)*
X138550000Y-94720000D03*
G04 #@! TO.P,Q5,3*
G04 #@! TO.N,Net-(J3-Pad3)*
X138550000Y-99280000D03*
D13*
G04 #@! TO.P,Q5,2*
G04 #@! TO.N,+24V*
X144850000Y-97000000D03*
D14*
X146525000Y-98525000D03*
X143175000Y-95475000D03*
X146525000Y-95475000D03*
X143175000Y-98525000D03*
G04 #@! TD*
G04 #@! TO.P,Q6,2*
G04 #@! TO.N,Net-(J3-Pad3)*
X160175000Y-98525000D03*
X163525000Y-95475000D03*
X160175000Y-95475000D03*
X163525000Y-98525000D03*
D13*
X161850000Y-97000000D03*
D12*
G04 #@! TO.P,Q6,3*
G04 #@! TO.N,Net-(Q6-Pad3)*
X155550000Y-99280000D03*
G04 #@! TO.P,Q6,1*
G04 #@! TO.N,Net-(Q6-Pad1)*
X155550000Y-94720000D03*
G04 #@! TD*
G04 #@! TO.P,Q7,1*
G04 #@! TO.N,Net-(Q7-Pad1)*
X155050000Y-119220000D03*
G04 #@! TO.P,Q7,3*
G04 #@! TO.N,Net-(Q6-Pad3)*
X155050000Y-123780000D03*
D13*
G04 #@! TO.P,Q7,2*
G04 #@! TO.N,Net-(J3-Pad4)*
X161350000Y-121500000D03*
D14*
X163025000Y-123025000D03*
X159675000Y-119975000D03*
X163025000Y-119975000D03*
X159675000Y-123025000D03*
G04 #@! TD*
G04 #@! TO.P,Q8,2*
G04 #@! TO.N,+24V*
X143175000Y-123025000D03*
X146525000Y-119975000D03*
X143175000Y-119975000D03*
X146525000Y-123025000D03*
D13*
X144850000Y-121500000D03*
D12*
G04 #@! TO.P,Q8,3*
G04 #@! TO.N,Net-(J3-Pad4)*
X138550000Y-123780000D03*
G04 #@! TO.P,Q8,1*
G04 #@! TO.N,Net-(Q8-Pad1)*
X138550000Y-119220000D03*
G04 #@! TD*
D15*
G04 #@! TO.P,C3,2*
G04 #@! TO.N,+24V*
X119500000Y-84050000D03*
G04 #@! TO.P,C3,1*
G04 #@! TO.N,Net-(C3-Pad1)*
X119500000Y-85950000D03*
G04 #@! TD*
G04 #@! TO.P,C4,1*
G04 #@! TO.N,Net-(C4-Pad1)*
X117500000Y-87850000D03*
G04 #@! TO.P,C4,2*
G04 #@! TO.N,GND*
X117500000Y-89750000D03*
G04 #@! TD*
G04 #@! TO.P,C5,2*
G04 #@! TO.N,GND*
X119500000Y-87850000D03*
G04 #@! TO.P,C5,1*
G04 #@! TO.N,Net-(C5-Pad1)*
X119500000Y-89750000D03*
G04 #@! TD*
D16*
G04 #@! TO.P,C6,1*
G04 #@! TO.N,Net-(C6-Pad1)*
X119400000Y-80000000D03*
G04 #@! TO.P,C6,2*
G04 #@! TO.N,Net-(C6-Pad2)*
X117500000Y-80000000D03*
G04 #@! TD*
D15*
G04 #@! TO.P,C2,2*
G04 #@! TO.N,GND*
X117500000Y-86000000D03*
G04 #@! TO.P,C2,1*
G04 #@! TO.N,+24V*
X117500000Y-84100000D03*
G04 #@! TD*
D17*
G04 #@! TO.P,R7,2*
G04 #@! TO.N,GND*
X146100000Y-71500000D03*
G04 #@! TO.P,R7,1*
G04 #@! TO.N,/A1SENP*
X139900000Y-71500000D03*
G04 #@! TD*
G04 #@! TO.P,R8,2*
G04 #@! TO.N,GND*
X145600000Y-111250000D03*
G04 #@! TO.P,R8,1*
G04 #@! TO.N,Net-(Q6-Pad3)*
X139400000Y-111250000D03*
G04 #@! TD*
D18*
G04 #@! TO.P,C1,2*
G04 #@! TO.N,GND*
X175750000Y-123000000D03*
D19*
G04 #@! TO.P,C1,1*
G04 #@! TO.N,+24V*
X172250000Y-123000000D03*
G04 #@! TD*
D20*
G04 #@! TO.P,TP1,1*
G04 #@! TO.N,GND*
X115500000Y-55750000D03*
G04 #@! TD*
G04 #@! TO.P,TP2,1*
G04 #@! TO.N,GND*
X176000000Y-60750000D03*
G04 #@! TD*
G04 #@! TO.P,TP3,1*
G04 #@! TO.N,GND*
X126000000Y-121750000D03*
G04 #@! TD*
G04 #@! TO.P,TP4,1*
G04 #@! TO.N,GND*
X176500000Y-115000000D03*
G04 #@! TD*
D21*
G04 #@! TO.P,U7,38*
G04 #@! TO.N,GND*
X129550000Y-81700000D03*
G04 #@! TO.P,U7,37*
G04 #@! TO.N,/AOUT1*
X129550000Y-82200000D03*
G04 #@! TO.P,U7,36*
G04 #@! TO.N,/A1HS*
X129550000Y-82700000D03*
G04 #@! TO.P,U7,35*
G04 #@! TO.N,/A1LS*
X129550000Y-83200000D03*
G04 #@! TO.P,U7,34*
G04 #@! TO.N,/A1SENP*
X129550000Y-83700000D03*
G04 #@! TO.P,U7,33*
G04 #@! TO.N,GND*
X129550000Y-84200000D03*
G04 #@! TO.P,U7,32*
G04 #@! TO.N,/A2LS*
X129550000Y-84700000D03*
G04 #@! TO.P,U7,31*
G04 #@! TO.N,/A2HS*
X129550000Y-85200000D03*
G04 #@! TO.P,U7,30*
G04 #@! TO.N,/AOUT2*
X129550000Y-85700000D03*
G04 #@! TO.P,U7,29*
G04 #@! TO.N,GND*
X129550000Y-86200000D03*
G04 #@! TO.P,U7,28*
G04 #@! TO.N,Net-(J3-Pad3)*
X129550000Y-86700000D03*
G04 #@! TO.P,U7,27*
G04 #@! TO.N,Net-(Q5-Pad1)*
X129550000Y-87200000D03*
G04 #@! TO.P,U7,26*
G04 #@! TO.N,Net-(Q6-Pad1)*
X129550000Y-87700000D03*
G04 #@! TO.P,U7,25*
G04 #@! TO.N,Net-(Q6-Pad3)*
X129550000Y-88200000D03*
G04 #@! TO.P,U7,24*
G04 #@! TO.N,GND*
X129550000Y-88700000D03*
G04 #@! TO.P,U7,23*
G04 #@! TO.N,Net-(Q7-Pad1)*
X129550000Y-89200000D03*
G04 #@! TO.P,U7,22*
G04 #@! TO.N,Net-(Q8-Pad1)*
X129550000Y-89700000D03*
G04 #@! TO.P,U7,21*
G04 #@! TO.N,Net-(J3-Pad4)*
X129550000Y-90200000D03*
G04 #@! TO.P,U7,20*
G04 #@! TO.N,Net-(C15-Pad1)*
X129550000Y-90700000D03*
G04 #@! TO.P,U7,19*
G04 #@! TO.N,Net-(R6-Pad2)*
X123850000Y-90700000D03*
G04 #@! TO.P,U7,18*
G04 #@! TO.N,Net-(R9-Pad2)*
X123850000Y-90200000D03*
G04 #@! TO.P,U7,17*
G04 #@! TO.N,Net-(U3-Pad18)*
X123850000Y-89700000D03*
G04 #@! TO.P,U7,16*
G04 #@! TO.N,Net-(U3-Pad19)*
X123850000Y-89200000D03*
G04 #@! TO.P,U7,15*
G04 #@! TO.N,Net-(U3-Pad20)*
X123850000Y-88700000D03*
G04 #@! TO.P,U7,14*
G04 #@! TO.N,Net-(U3-Pad21)*
X123850000Y-88200000D03*
G04 #@! TO.P,U7,13*
G04 #@! TO.N,Net-(U2-Pad16)*
X123850000Y-87700000D03*
G04 #@! TO.P,U7,12*
G04 #@! TO.N,Net-(U2-Pad17)*
X123850000Y-87200000D03*
G04 #@! TO.P,U7,11*
G04 #@! TO.N,Net-(U2-Pad18)*
X123850000Y-86700000D03*
G04 #@! TO.P,U7,10*
G04 #@! TO.N,Net-(U2-Pad19)*
X123850000Y-86200000D03*
G04 #@! TO.P,U7,9*
G04 #@! TO.N,Net-(U2-Pad20)*
X123850000Y-85700000D03*
G04 #@! TO.P,U7,8*
G04 #@! TO.N,Net-(U2-Pad21)*
X123850000Y-85200000D03*
G04 #@! TO.P,U7,7*
G04 #@! TO.N,Net-(C5-Pad1)*
X123850000Y-84700000D03*
G04 #@! TO.P,U7,6*
G04 #@! TO.N,Net-(C4-Pad1)*
X123850000Y-84200000D03*
G04 #@! TO.P,U7,5*
G04 #@! TO.N,GND*
X123850000Y-83700000D03*
G04 #@! TO.P,U7,4*
G04 #@! TO.N,+24V*
X123850000Y-83200000D03*
G04 #@! TO.P,U7,3*
G04 #@! TO.N,Net-(C3-Pad1)*
X123850000Y-82700000D03*
G04 #@! TO.P,U7,2*
G04 #@! TO.N,Net-(C6-Pad2)*
X123850000Y-82200000D03*
G04 #@! TO.P,U7,1*
G04 #@! TO.N,Net-(C6-Pad1)*
X123850000Y-81700000D03*
D22*
G04 #@! TO.P,U7,39*
G04 #@! TO.N,GND*
X126700000Y-86200000D03*
G04 #@! TD*
D23*
G04 #@! TO.P,J1,15*
G04 #@! TO.N,Net-(J1-Pad15)*
X113000000Y-79220000D03*
G04 #@! TO.P,J1,14*
G04 #@! TO.N,Net-(J1-Pad14)*
X113000000Y-80490000D03*
G04 #@! TO.P,J1,13*
G04 #@! TO.N,Net-(J1-Pad13)*
X113000000Y-81760000D03*
G04 #@! TO.P,J1,12*
G04 #@! TO.N,Net-(J1-Pad12)*
X113000000Y-83030000D03*
G04 #@! TO.P,J1,11*
G04 #@! TO.N,Net-(J1-Pad11)*
X113000000Y-84300000D03*
G04 #@! TO.P,J1,10*
G04 #@! TO.N,Net-(J1-Pad10)*
X113000000Y-85570000D03*
G04 #@! TO.P,J1,9*
G04 #@! TO.N,Net-(J1-Pad9)*
X113000000Y-86840000D03*
G04 #@! TO.P,J1,8*
G04 #@! TO.N,Net-(J1-Pad8)*
X113000000Y-88110000D03*
G04 #@! TO.P,J1,7*
G04 #@! TO.N,Net-(J1-Pad7)*
X113000000Y-89380000D03*
G04 #@! TO.P,J1,6*
G04 #@! TO.N,Net-(J1-Pad6)*
X113000000Y-90650000D03*
G04 #@! TO.P,J1,5*
G04 #@! TO.N,Net-(J1-Pad5)*
X113000000Y-91920000D03*
G04 #@! TO.P,J1,4*
G04 #@! TO.N,Net-(J1-Pad4)*
X113000000Y-93190000D03*
G04 #@! TO.P,J1,3*
G04 #@! TO.N,+3V3*
X113000000Y-94460000D03*
G04 #@! TO.P,J1,2*
G04 #@! TO.N,+1V8*
X113000000Y-95730000D03*
D24*
G04 #@! TO.P,J1,1*
G04 #@! TO.N,GND*
X113000000Y-97000000D03*
G04 #@! TD*
D16*
G04 #@! TO.P,C7,1*
G04 #@! TO.N,GND*
X120200000Y-62750000D03*
G04 #@! TO.P,C7,2*
G04 #@! TO.N,+3V3*
X118300000Y-62750000D03*
G04 #@! TD*
G04 #@! TO.P,C8,1*
G04 #@! TO.N,GND*
X117400000Y-101250000D03*
G04 #@! TO.P,C8,2*
G04 #@! TO.N,+3V3*
X115500000Y-101250000D03*
G04 #@! TD*
D19*
G04 #@! TO.P,C9,1*
G04 #@! TO.N,+24V*
X161500000Y-69500000D03*
D18*
G04 #@! TO.P,C9,2*
G04 #@! TO.N,GND*
X165000000Y-69500000D03*
G04 #@! TD*
D16*
G04 #@! TO.P,C10,2*
G04 #@! TO.N,+1V8*
X127700000Y-62750000D03*
G04 #@! TO.P,C10,1*
G04 #@! TO.N,GND*
X125800000Y-62750000D03*
G04 #@! TD*
G04 #@! TO.P,C11,2*
G04 #@! TO.N,+1V8*
X123000000Y-101250000D03*
G04 #@! TO.P,C11,1*
G04 #@! TO.N,GND*
X121100000Y-101250000D03*
G04 #@! TD*
D18*
G04 #@! TO.P,C12,2*
G04 #@! TO.N,GND*
X165000000Y-109250000D03*
D19*
G04 #@! TO.P,C12,1*
G04 #@! TO.N,+24V*
X161500000Y-109250000D03*
G04 #@! TD*
D16*
G04 #@! TO.P,C15,2*
G04 #@! TO.N,GND*
X129750000Y-92750000D03*
G04 #@! TO.P,C15,1*
G04 #@! TO.N,Net-(C15-Pad1)*
X131650000Y-92750000D03*
G04 #@! TD*
D25*
G04 #@! TO.P,R1,2*
G04 #@! TO.N,+3V3*
X116250000Y-63500000D03*
G04 #@! TO.P,R1,1*
G04 #@! TO.N,Net-(R1-Pad1)*
X116250000Y-65700000D03*
G04 #@! TD*
G04 #@! TO.P,R3,2*
G04 #@! TO.N,+3V3*
X113250000Y-101650000D03*
G04 #@! TO.P,R3,1*
G04 #@! TO.N,Net-(R3-Pad1)*
X113250000Y-103850000D03*
G04 #@! TD*
G04 #@! TO.P,R4,1*
G04 #@! TO.N,Net-(R4-Pad1)*
X131250000Y-65500000D03*
G04 #@! TO.P,R4,2*
G04 #@! TO.N,+3V3*
X131250000Y-63300000D03*
G04 #@! TD*
G04 #@! TO.P,R5,1*
G04 #@! TO.N,Net-(R5-Pad1)*
X127250000Y-103950000D03*
G04 #@! TO.P,R5,2*
G04 #@! TO.N,+3V3*
X127250000Y-101750000D03*
G04 #@! TD*
G04 #@! TO.P,R6,2*
G04 #@! TO.N,Net-(R6-Pad2)*
X131250000Y-103950000D03*
G04 #@! TO.P,R6,1*
G04 #@! TO.N,+1V8*
X131250000Y-101750000D03*
G04 #@! TD*
G04 #@! TO.P,R9,1*
G04 #@! TO.N,+1V8*
X129250000Y-101750000D03*
G04 #@! TO.P,R9,2*
G04 #@! TO.N,Net-(R9-Pad2)*
X129250000Y-103950000D03*
G04 #@! TD*
D26*
G04 #@! TO.P,U2,24*
G04 #@! TO.N,+1V8*
X125950000Y-64900000D03*
G04 #@! TO.P,U2,23*
X125950000Y-65550000D03*
G04 #@! TO.P,U2,22*
G04 #@! TO.N,Net-(R4-Pad1)*
X125950000Y-66200000D03*
G04 #@! TO.P,U2,21*
G04 #@! TO.N,Net-(U2-Pad21)*
X125950000Y-66850000D03*
G04 #@! TO.P,U2,20*
G04 #@! TO.N,Net-(U2-Pad20)*
X125950000Y-67500000D03*
G04 #@! TO.P,U2,19*
G04 #@! TO.N,Net-(U2-Pad19)*
X125950000Y-68150000D03*
G04 #@! TO.P,U2,18*
G04 #@! TO.N,Net-(U2-Pad18)*
X125950000Y-68800000D03*
G04 #@! TO.P,U2,17*
G04 #@! TO.N,Net-(U2-Pad17)*
X125950000Y-69450000D03*
G04 #@! TO.P,U2,16*
G04 #@! TO.N,Net-(U2-Pad16)*
X125950000Y-70100000D03*
G04 #@! TO.P,U2,15*
G04 #@! TO.N,N/C*
X125950000Y-70750000D03*
G04 #@! TO.P,U2,14*
X125950000Y-71400000D03*
G04 #@! TO.P,U2,13*
G04 #@! TO.N,GND*
X125950000Y-72050000D03*
G04 #@! TO.P,U2,12*
X120250000Y-72050000D03*
G04 #@! TO.P,U2,11*
X120250000Y-71400000D03*
G04 #@! TO.P,U2,10*
G04 #@! TO.N,N/C*
X120250000Y-70750000D03*
G04 #@! TO.P,U2,9*
X120250000Y-70100000D03*
G04 #@! TO.P,U2,8*
G04 #@! TO.N,Net-(J1-Pad11)*
X120250000Y-69450000D03*
G04 #@! TO.P,U2,7*
G04 #@! TO.N,Net-(J1-Pad12)*
X120250000Y-68800000D03*
G04 #@! TO.P,U2,6*
G04 #@! TO.N,Net-(J1-Pad13)*
X120250000Y-68150000D03*
G04 #@! TO.P,U2,5*
G04 #@! TO.N,Net-(J1-Pad14)*
X120250000Y-67500000D03*
G04 #@! TO.P,U2,4*
G04 #@! TO.N,Net-(J1-Pad15)*
X120250000Y-66850000D03*
G04 #@! TO.P,U2,3*
G04 #@! TO.N,N/C*
X120250000Y-66200000D03*
G04 #@! TO.P,U2,2*
G04 #@! TO.N,Net-(R1-Pad1)*
X120250000Y-65550000D03*
G04 #@! TO.P,U2,1*
G04 #@! TO.N,+3V3*
X120250000Y-64900000D03*
G04 #@! TD*
G04 #@! TO.P,U3,1*
G04 #@! TO.N,+3V3*
X116250000Y-103150000D03*
G04 #@! TO.P,U3,2*
G04 #@! TO.N,Net-(R3-Pad1)*
X116250000Y-103800000D03*
G04 #@! TO.P,U3,3*
G04 #@! TO.N,Net-(J1-Pad10)*
X116250000Y-104450000D03*
G04 #@! TO.P,U3,4*
G04 #@! TO.N,Net-(J1-Pad9)*
X116250000Y-105100000D03*
G04 #@! TO.P,U3,5*
G04 #@! TO.N,Net-(J1-Pad8)*
X116250000Y-105750000D03*
G04 #@! TO.P,U3,6*
G04 #@! TO.N,Net-(J1-Pad7)*
X116250000Y-106400000D03*
G04 #@! TO.P,U3,7*
G04 #@! TO.N,Net-(J1-Pad6)*
X116250000Y-107050000D03*
G04 #@! TO.P,U3,8*
G04 #@! TO.N,Net-(J1-Pad5)*
X116250000Y-107700000D03*
G04 #@! TO.P,U3,9*
G04 #@! TO.N,Net-(J1-Pad4)*
X116250000Y-108350000D03*
G04 #@! TO.P,U3,10*
G04 #@! TO.N,N/C*
X116250000Y-109000000D03*
G04 #@! TO.P,U3,11*
G04 #@! TO.N,GND*
X116250000Y-109650000D03*
G04 #@! TO.P,U3,12*
X116250000Y-110300000D03*
G04 #@! TO.P,U3,13*
X121950000Y-110300000D03*
G04 #@! TO.P,U3,14*
G04 #@! TO.N,N/C*
X121950000Y-109650000D03*
G04 #@! TO.P,U3,15*
G04 #@! TO.N,Net-(C15-Pad1)*
X121950000Y-109000000D03*
G04 #@! TO.P,U3,16*
G04 #@! TO.N,Net-(R6-Pad2)*
X121950000Y-108350000D03*
G04 #@! TO.P,U3,17*
G04 #@! TO.N,Net-(R9-Pad2)*
X121950000Y-107700000D03*
G04 #@! TO.P,U3,18*
G04 #@! TO.N,Net-(U3-Pad18)*
X121950000Y-107050000D03*
G04 #@! TO.P,U3,19*
G04 #@! TO.N,Net-(U3-Pad19)*
X121950000Y-106400000D03*
G04 #@! TO.P,U3,20*
G04 #@! TO.N,Net-(U3-Pad20)*
X121950000Y-105750000D03*
G04 #@! TO.P,U3,21*
G04 #@! TO.N,Net-(U3-Pad21)*
X121950000Y-105100000D03*
G04 #@! TO.P,U3,22*
G04 #@! TO.N,Net-(R5-Pad1)*
X121950000Y-104450000D03*
G04 #@! TO.P,U3,23*
G04 #@! TO.N,+1V8*
X121950000Y-103800000D03*
G04 #@! TO.P,U3,24*
X121950000Y-103150000D03*
G04 #@! TD*
D27*
G04 #@! TO.N,GND*
X125750000Y-92750000D03*
X126750000Y-92750000D03*
X125750000Y-91750000D03*
X126750000Y-91750000D03*
X127750000Y-91750000D03*
X127750000Y-92750000D03*
X127750000Y-90750000D03*
X126750000Y-90750000D03*
X125750000Y-90750000D03*
X125750000Y-89750000D03*
X126750000Y-89750000D03*
X127750000Y-89750000D03*
X125750000Y-79500000D03*
X127750000Y-82500000D03*
X127750000Y-81500000D03*
X126750000Y-82500000D03*
X125750000Y-81500000D03*
X125750000Y-80500000D03*
X126750000Y-81500000D03*
X127750000Y-80500000D03*
X127750000Y-79500000D03*
X125750000Y-82500000D03*
X126750000Y-80500000D03*
X126750000Y-79500000D03*
X131251654Y-81474990D03*
X147500000Y-69000000D03*
X148500000Y-69000000D03*
X149500000Y-69000000D03*
X149500000Y-70000000D03*
X148500000Y-70000000D03*
X147500000Y-70000000D03*
X147500000Y-71000000D03*
X148500000Y-70000000D03*
X148500000Y-70000000D03*
X148500000Y-71000000D03*
X149500000Y-71000000D03*
X149500000Y-72000000D03*
X148500000Y-72000000D03*
X147500000Y-72000000D03*
X147500000Y-73000000D03*
X148500000Y-73000000D03*
X149500000Y-73000000D03*
X148500000Y-74000000D03*
X147500000Y-74000000D03*
X149500000Y-74000000D03*
X147500000Y-110750000D03*
X148500000Y-113750000D03*
X149500000Y-113750000D03*
X149500000Y-108750000D03*
X147500000Y-112750000D03*
X149500000Y-111750000D03*
X147500000Y-113750000D03*
X148500000Y-111750000D03*
X148500000Y-108750000D03*
X147500000Y-108750000D03*
X148500000Y-109750000D03*
X147500000Y-111750000D03*
X149500000Y-110750000D03*
X148500000Y-110750000D03*
X147500000Y-109750000D03*
X148500000Y-112750000D03*
X148500000Y-109750000D03*
X149500000Y-112750000D03*
X148500000Y-109750000D03*
X149500000Y-109750000D03*
G04 #@! TO.N,+24V*
X141750000Y-117500000D03*
X141750000Y-117500000D03*
X141750000Y-117500000D03*
X142750000Y-117500000D03*
X143750000Y-117500000D03*
X144750000Y-117500000D03*
X145750000Y-117500000D03*
X146750000Y-117500000D03*
X147750000Y-117500000D03*
X148750000Y-117500000D03*
X149750000Y-118500000D03*
X149750000Y-119500000D03*
X149750000Y-120500000D03*
X149750000Y-121500000D03*
X149750000Y-122500000D03*
X149750000Y-123500000D03*
X149750000Y-124500000D03*
X149600000Y-125400000D03*
X148750000Y-125500000D03*
X147750000Y-125500000D03*
X146750000Y-125500000D03*
X145750000Y-125500000D03*
X144750000Y-125500000D03*
X143750000Y-125500000D03*
X142750000Y-125500000D03*
X141750000Y-125500000D03*
X149750000Y-117500000D03*
X149750000Y-97000000D03*
X149750000Y-99000000D03*
X147750000Y-93000000D03*
X141750000Y-93000000D03*
X149750000Y-95000000D03*
X149750000Y-94000000D03*
X141750000Y-93000000D03*
X149750000Y-101000000D03*
X146750000Y-93000000D03*
X142750000Y-93000000D03*
X146750000Y-101000000D03*
X147750000Y-101000000D03*
X149750000Y-100000000D03*
X148750000Y-93000000D03*
X144750000Y-101000000D03*
X149750000Y-96000000D03*
X141750000Y-93000000D03*
X143750000Y-101000000D03*
X142750000Y-101000000D03*
X149750000Y-98000000D03*
X145750000Y-101000000D03*
X148750000Y-101000000D03*
X145750000Y-93000000D03*
X144750000Y-93000000D03*
X141750000Y-101000000D03*
X143750000Y-93000000D03*
X149750000Y-93000000D03*
X148750000Y-86000000D03*
X144750000Y-78000000D03*
X141750000Y-86000000D03*
X141750000Y-78000000D03*
X147750000Y-86000000D03*
X149750000Y-82000000D03*
X149750000Y-79000000D03*
X149750000Y-80000000D03*
X143750000Y-86000000D03*
X148750000Y-78000000D03*
X144750000Y-86000000D03*
X145750000Y-86000000D03*
X149750000Y-78000000D03*
X149750000Y-86000000D03*
X141750000Y-78000000D03*
X146750000Y-86000000D03*
X149750000Y-85000000D03*
X141750000Y-78000000D03*
X149750000Y-81000000D03*
X149750000Y-83000000D03*
X149750000Y-84000000D03*
X143750000Y-78000000D03*
X147750000Y-78000000D03*
X146750000Y-78000000D03*
X142750000Y-86000000D03*
X142750000Y-78000000D03*
X145750000Y-78000000D03*
X149250000Y-53500000D03*
X149250000Y-55500000D03*
X147250000Y-61500000D03*
X143250000Y-61500000D03*
X146250000Y-61500000D03*
X148250000Y-53500000D03*
X144250000Y-61500000D03*
X149250000Y-58500000D03*
X142250000Y-53500000D03*
X149250000Y-54500000D03*
X144250000Y-53500000D03*
X149250000Y-61500000D03*
X149250000Y-60500000D03*
X145250000Y-61500000D03*
X149250000Y-59500000D03*
X147250000Y-53500000D03*
X141250000Y-53500000D03*
X141250000Y-53500000D03*
X149250000Y-57500000D03*
X145250000Y-53500000D03*
X148250000Y-61500000D03*
X142250000Y-61500000D03*
X141250000Y-53500000D03*
X141250000Y-61500000D03*
X149250000Y-56500000D03*
X146250000Y-53500000D03*
X143250000Y-53500000D03*
X121050000Y-83200000D03*
G04 #@! TO.N,Net-(J3-Pad4)*
X158250000Y-117500000D03*
X159250000Y-117500000D03*
X160250000Y-117500000D03*
X161250000Y-117500000D03*
X162250000Y-117500000D03*
X163250000Y-117500000D03*
X164250000Y-117500000D03*
X165250000Y-117500000D03*
X166250000Y-117500000D03*
X166250000Y-118500000D03*
X165250000Y-118500000D03*
X165250000Y-119500000D03*
X166250000Y-119500000D03*
X166250000Y-123500000D03*
X165250000Y-123500000D03*
X165250000Y-124500000D03*
X166250000Y-124500000D03*
X166250000Y-125500000D03*
X165250000Y-125500000D03*
X164250000Y-125500000D03*
X163250000Y-125500000D03*
X159500000Y-125500000D03*
X158500000Y-125500000D03*
G04 #@! TO.N,Net-(J3-Pad3)*
X158750000Y-92750000D03*
X159750000Y-92750000D03*
X166750000Y-92750000D03*
X165750000Y-92750000D03*
X165750000Y-93750000D03*
X166750000Y-93750000D03*
X165750000Y-94750000D03*
X165750000Y-95750000D03*
X164750000Y-92750000D03*
X163750000Y-92750000D03*
X166750000Y-101000000D03*
X165750000Y-101000000D03*
X164750000Y-101000000D03*
X163750000Y-101000000D03*
X162750000Y-101000000D03*
X161750000Y-101000000D03*
X160750000Y-101000000D03*
X159750000Y-101000000D03*
X158750000Y-101000000D03*
X165750000Y-100000000D03*
X166750000Y-100000000D03*
X166750000Y-99000000D03*
X165750000Y-99000000D03*
G04 #@! TO.N,/AOUT1*
X158750000Y-53500000D03*
X159750000Y-53500000D03*
X160750000Y-53500000D03*
X161750000Y-53500000D03*
X162750000Y-53500000D03*
X163750000Y-53500000D03*
X164750000Y-53500000D03*
X165750000Y-53500000D03*
X166750000Y-53500000D03*
X166750000Y-54500000D03*
X165750000Y-54500000D03*
X165750000Y-55500000D03*
X166750000Y-55500000D03*
X166750000Y-61750000D03*
X165750000Y-61750000D03*
X165750000Y-61750000D03*
X165750000Y-61750000D03*
X165750000Y-60750000D03*
X166750000Y-60750000D03*
X166750000Y-59750000D03*
X165750000Y-59750000D03*
X165750000Y-58750000D03*
X166750000Y-58750000D03*
X164750000Y-61750000D03*
X163750000Y-61750000D03*
X162750000Y-61750000D03*
X161750000Y-61750000D03*
X160750000Y-61750000D03*
X159750000Y-61750000D03*
X158750000Y-61750000D03*
G04 #@! TO.N,/AOUT2*
X158750000Y-78000000D03*
X159750000Y-78000000D03*
X160750000Y-78000000D03*
X161750000Y-78000000D03*
X162750000Y-78000000D03*
X163750000Y-78000000D03*
X164750000Y-78000000D03*
X165750000Y-78000000D03*
X166750000Y-78000000D03*
X166750000Y-79000000D03*
X165750000Y-79000000D03*
X165750000Y-80000000D03*
X166750000Y-80000000D03*
X166750000Y-81000000D03*
X165750000Y-81000000D03*
X165750000Y-82000000D03*
X166750000Y-82000000D03*
X166750000Y-83000000D03*
X165750000Y-83000000D03*
X165750000Y-84000000D03*
X166750000Y-84000000D03*
X166750000Y-85000000D03*
X165750000Y-85000000D03*
X165750000Y-86000000D03*
X166750000Y-86000000D03*
X164750000Y-86000000D03*
X163750000Y-86000000D03*
X160500000Y-86000000D03*
X159500000Y-86000000D03*
G04 #@! TD*
D28*
G04 #@! TO.N,GND*
X123850000Y-83700000D02*
X122050000Y-83700000D01*
X122050000Y-83700000D02*
X122000000Y-83750000D01*
X131026644Y-81700000D02*
X131251654Y-81474990D01*
X129550000Y-81700000D02*
X131026644Y-81700000D01*
X129550000Y-86200000D02*
X126700000Y-86200000D01*
X129750000Y-92750000D02*
X127750000Y-92750000D01*
X134250000Y-79750000D02*
X138000000Y-76000000D01*
X138000000Y-76000000D02*
X145250000Y-76000000D01*
X146100000Y-75150000D02*
X146100000Y-71500000D01*
X145250000Y-76000000D02*
X146100000Y-75150000D01*
X129550000Y-84200000D02*
X132800000Y-84200000D01*
X134250000Y-82750000D02*
X134250000Y-79750000D01*
X132800000Y-84200000D02*
X134250000Y-82750000D01*
X140600000Y-115500000D02*
X144850000Y-111250000D01*
X133700000Y-88700000D02*
X135900022Y-90900022D01*
X144850000Y-111250000D02*
X145600000Y-111250000D01*
X135900022Y-111650022D02*
X139750000Y-115500000D01*
X129550000Y-88700000D02*
X133700000Y-88700000D01*
X135900022Y-90900022D02*
X135900022Y-111650022D01*
X139750000Y-115500000D02*
X140600000Y-115500000D01*
G04 #@! TO.N,+24V*
X123850000Y-83200000D02*
X121050000Y-83200000D01*
X120200000Y-84050000D02*
X119500000Y-84050000D01*
X121050000Y-83200000D02*
X120200000Y-84050000D01*
X119450000Y-84100000D02*
X119500000Y-84050000D01*
X117500000Y-84100000D02*
X119450000Y-84100000D01*
G04 #@! TO.N,Net-(C6-Pad1)*
X119625000Y-80000000D02*
X119400000Y-80000000D01*
X121325000Y-81700000D02*
X119625000Y-80000000D01*
X123850000Y-81700000D02*
X121325000Y-81700000D01*
G04 #@! TO.N,Net-(C6-Pad2)*
X118700000Y-82200000D02*
X123850000Y-82200000D01*
X117500000Y-80000000D02*
X117500000Y-81000000D01*
X117500000Y-81000000D02*
X118700000Y-82200000D01*
D29*
G04 #@! TO.N,Net-(J3-Pad4)*
X138550000Y-124630000D02*
X138500000Y-124680000D01*
X138550000Y-123780000D02*
X138550000Y-124630000D01*
X138500000Y-124680000D02*
X138500000Y-125750000D01*
X138500000Y-125750000D02*
X140250000Y-127500000D01*
X140250000Y-127500000D02*
X158000000Y-127500000D01*
X173200000Y-115550000D02*
X173200000Y-98440000D01*
X167250000Y-121500000D02*
X173200000Y-115550000D01*
X159250000Y-127500000D02*
X158000000Y-127500000D01*
X167250000Y-121500000D02*
X161350000Y-121500000D01*
X161350000Y-125400000D02*
X161350000Y-121500000D01*
X159250000Y-127500000D02*
X161350000Y-125400000D01*
D28*
X137200000Y-123780000D02*
X137170000Y-123750000D01*
X138550000Y-123780000D02*
X137200000Y-123780000D01*
X129550000Y-90200000D02*
X132950000Y-90200000D01*
X134549991Y-91799991D02*
X134549991Y-122549991D01*
X132950000Y-90200000D02*
X134549991Y-91799991D01*
X134549991Y-122549991D02*
X135750000Y-123750000D01*
X137170000Y-123750000D02*
X135750000Y-123750000D01*
D29*
G04 #@! TO.N,Net-(J3-Pad3)*
X173200000Y-93360000D02*
X169890000Y-93360000D01*
X166250000Y-97000000D02*
X159850000Y-97000000D01*
X169890000Y-93360000D02*
X166250000Y-97000000D01*
X138550000Y-101300000D02*
X138550000Y-99280000D01*
X140750000Y-103500000D02*
X138550000Y-101300000D01*
X152000000Y-92750000D02*
X152000000Y-102000000D01*
X161850000Y-93850000D02*
X161750000Y-93750000D01*
X161750000Y-91750000D02*
X160250000Y-90250000D01*
X161850000Y-97000000D02*
X161850000Y-93850000D01*
X161750000Y-93750000D02*
X161750000Y-91750000D01*
X150500000Y-103500000D02*
X140750000Y-103500000D01*
X152000000Y-102000000D02*
X150500000Y-103500000D01*
X160250000Y-90250000D02*
X154500000Y-90250000D01*
X154500000Y-90250000D02*
X152000000Y-92750000D01*
D28*
X140500000Y-95250000D02*
X138550000Y-97200000D01*
X129550000Y-86700000D02*
X134950000Y-86700000D01*
X138550000Y-97200000D02*
X138550000Y-99280000D01*
X140500000Y-92250000D02*
X140500000Y-95250000D01*
X134950000Y-86700000D02*
X140500000Y-92250000D01*
G04 #@! TO.N,Net-(Q5-Pad1)*
X129550000Y-87200000D02*
X134450000Y-87200000D01*
X138550000Y-91300000D02*
X138550000Y-94720000D01*
X134450000Y-87200000D02*
X138550000Y-91300000D01*
G04 #@! TO.N,Net-(Q6-Pad1)*
X129550000Y-87700000D02*
X134200000Y-87700000D01*
X136800044Y-90300044D02*
X136800044Y-104050044D01*
X153750000Y-97370000D02*
X155550000Y-95570000D01*
X138000000Y-105250000D02*
X152000000Y-105250000D01*
X153750000Y-103500000D02*
X153750000Y-97370000D01*
X152000000Y-105250000D02*
X153750000Y-103500000D01*
X155550000Y-95570000D02*
X155550000Y-94720000D01*
X134200000Y-87700000D02*
X136800044Y-90300044D01*
X136800044Y-104050044D02*
X138000000Y-105250000D01*
G04 #@! TO.N,Net-(Q7-Pad1)*
X133336411Y-89200000D02*
X135450011Y-91313600D01*
X156250000Y-125750000D02*
X157000000Y-125000000D01*
X139000000Y-116250000D02*
X150750000Y-116250000D01*
X135450011Y-91313600D02*
X135450011Y-112700011D01*
X155050000Y-120070000D02*
X155050000Y-119220000D01*
X151250000Y-116750000D02*
X151250000Y-125250000D01*
X151250000Y-125250000D02*
X151750000Y-125750000D01*
X157000000Y-125000000D02*
X157000000Y-122020000D01*
X157000000Y-122020000D02*
X155050000Y-120070000D01*
X150750000Y-116250000D02*
X151250000Y-116750000D01*
X129550000Y-89200000D02*
X133336411Y-89200000D01*
X135450011Y-112700011D02*
X139000000Y-116250000D01*
X151750000Y-125750000D02*
X156250000Y-125750000D01*
G04 #@! TO.N,Net-(Q8-Pad1)*
X129550000Y-89700000D02*
X133200000Y-89700000D01*
X133200000Y-89700000D02*
X135000000Y-91500000D01*
X135000000Y-91500000D02*
X135000000Y-118500000D01*
X135720000Y-119220000D02*
X137250000Y-119220000D01*
X135000000Y-118500000D02*
X135720000Y-119220000D01*
X138550000Y-119220000D02*
X137250000Y-119220000D01*
X137250000Y-119220000D02*
X137200000Y-119220000D01*
G04 #@! TO.N,Net-(C15-Pad1)*
X131650000Y-92392500D02*
X131650000Y-92750000D01*
X129957500Y-90700000D02*
X131650000Y-92392500D01*
X129550000Y-90700000D02*
X129957500Y-90700000D01*
D29*
G04 #@! TO.N,/AOUT1*
X173200000Y-81450000D02*
X169000000Y-77250000D01*
X173200000Y-83200000D02*
X173200000Y-81450000D01*
X169000000Y-77250000D02*
X169000000Y-59000000D01*
X167500000Y-57500000D02*
X161850000Y-57500000D01*
X169000000Y-59000000D02*
X167500000Y-57500000D01*
X137200000Y-59780000D02*
X137170000Y-59750000D01*
X138550000Y-59780000D02*
X137200000Y-59780000D01*
X137170000Y-59750000D02*
X135250000Y-59750000D01*
X135250000Y-59750000D02*
X134500000Y-59000000D01*
X134500000Y-59000000D02*
X134500000Y-52500000D01*
X134500000Y-52500000D02*
X135750000Y-51250000D01*
X135750000Y-51250000D02*
X161250000Y-51250000D01*
X161850000Y-51850000D02*
X161850000Y-57500000D01*
X161250000Y-51250000D02*
X161850000Y-51850000D01*
D28*
X132250000Y-78500000D02*
X136500000Y-74250000D01*
X129550000Y-82200000D02*
X132027180Y-82200000D01*
X136500000Y-64250000D02*
X138550000Y-62200000D01*
X138550000Y-60630000D02*
X138550000Y-59780000D01*
X132250000Y-81977180D02*
X132250000Y-78500000D01*
X136500000Y-74250000D02*
X136500000Y-64250000D01*
X132027180Y-82200000D02*
X132250000Y-81977180D01*
X138550000Y-62200000D02*
X138550000Y-60630000D01*
D29*
G04 #@! TO.N,/AOUT2*
X161850000Y-82000000D02*
X161850000Y-86850000D01*
X138550000Y-85130000D02*
X141670000Y-88250000D01*
X138550000Y-84280000D02*
X138550000Y-85130000D01*
X141670000Y-88250000D02*
X161500000Y-88250000D01*
X161850000Y-87900000D02*
X161850000Y-86850000D01*
X161500000Y-88250000D02*
X161850000Y-87900000D01*
X171700001Y-86780001D02*
X170530001Y-86780001D01*
X173200000Y-88280000D02*
X171700001Y-86780001D01*
X170530001Y-86780001D02*
X170000000Y-86250000D01*
X170000000Y-86250000D02*
X170000000Y-83250000D01*
X168750000Y-82000000D02*
X161850000Y-82000000D01*
X170000000Y-83250000D02*
X168750000Y-82000000D01*
D28*
X129550000Y-85700000D02*
X134050000Y-85700000D01*
X135470000Y-84280000D02*
X138550000Y-84280000D01*
X134050000Y-85700000D02*
X135470000Y-84280000D01*
G04 #@! TO.N,/A1HS*
X138550000Y-56070000D02*
X140250000Y-57770000D01*
X138550000Y-55220000D02*
X138550000Y-56070000D01*
X140250000Y-57770000D02*
X140250000Y-61000000D01*
X140250000Y-61000000D02*
X139500000Y-61750000D01*
X132750000Y-78750000D02*
X137250000Y-74250000D01*
X137250000Y-74250000D02*
X137250000Y-66000000D01*
X139500000Y-63750000D02*
X139500000Y-61750000D01*
X137250000Y-66000000D02*
X139500000Y-63750000D01*
X132750000Y-81250000D02*
X132750000Y-81000000D01*
X132750000Y-81000000D02*
X132750000Y-78750000D01*
X132750000Y-82113590D02*
X132750000Y-81000000D01*
X132163590Y-82700000D02*
X132750000Y-82113590D01*
X129550000Y-82700000D02*
X132163590Y-82700000D01*
G04 #@! TO.N,/A1LS*
X152530000Y-55220000D02*
X155550000Y-55220000D01*
X150750000Y-57000000D02*
X152530000Y-55220000D01*
X150750000Y-62750000D02*
X150750000Y-57000000D01*
X149750000Y-63750000D02*
X150750000Y-62750000D01*
X132300000Y-83200000D02*
X133250000Y-82250000D01*
X138000000Y-74500000D02*
X138000000Y-66750000D01*
X141000000Y-63750000D02*
X149750000Y-63750000D01*
X129550000Y-83200000D02*
X132300000Y-83200000D01*
X133250000Y-82250000D02*
X133250000Y-79250000D01*
X138000000Y-66750000D02*
X141000000Y-63750000D01*
X133250000Y-79250000D02*
X138000000Y-74500000D01*
D29*
G04 #@! TO.N,/A1SENP*
X155550000Y-84280000D02*
X153280000Y-84280000D01*
X153280000Y-84280000D02*
X152500000Y-83500000D01*
X153470000Y-59780000D02*
X155550000Y-59780000D01*
X152500000Y-60750000D02*
X153470000Y-59780000D01*
X152500000Y-83500000D02*
X152500000Y-74500000D01*
X139900000Y-71500000D02*
X139900000Y-67850000D01*
X142000000Y-65750000D02*
X152500000Y-65750000D01*
X139900000Y-67850000D02*
X142000000Y-65750000D01*
X152500000Y-74500000D02*
X152500000Y-65750000D01*
X152500000Y-65750000D02*
X152500000Y-60750000D01*
D28*
X132550000Y-83700000D02*
X133750000Y-82500000D01*
X129550000Y-83700000D02*
X132550000Y-83700000D01*
X133750000Y-82500000D02*
X133750000Y-79500000D01*
X133750000Y-79500000D02*
X138000000Y-75250000D01*
X139900000Y-74350000D02*
X139900000Y-71500000D01*
X139000000Y-75250000D02*
X139900000Y-74350000D01*
X138000000Y-75250000D02*
X139000000Y-75250000D01*
G04 #@! TO.N,/A2LS*
X157500000Y-82750000D02*
X155550000Y-80800000D01*
X157500000Y-86000000D02*
X157500000Y-82750000D01*
X157000000Y-86500000D02*
X157500000Y-86000000D01*
X153000000Y-86500000D02*
X157000000Y-86500000D01*
X151000000Y-84500000D02*
X153000000Y-86500000D01*
X155550000Y-80800000D02*
X155550000Y-79720000D01*
X151000000Y-77250000D02*
X151000000Y-84500000D01*
X150500000Y-76750000D02*
X151000000Y-77250000D01*
X134750000Y-80250000D02*
X138250000Y-76750000D01*
X138250000Y-76750000D02*
X150500000Y-76750000D01*
X129550000Y-84700000D02*
X133050000Y-84700000D01*
X134750000Y-83000000D02*
X134750000Y-80250000D01*
X133050000Y-84700000D02*
X134750000Y-83000000D01*
G04 #@! TO.N,/A2HS*
X136030000Y-79720000D02*
X138550000Y-79720000D01*
X135250000Y-80500000D02*
X136030000Y-79720000D01*
X129550000Y-85200000D02*
X133550000Y-85200000D01*
X135250000Y-83500000D02*
X135250000Y-80500000D01*
X133550000Y-85200000D02*
X135250000Y-83500000D01*
D29*
G04 #@! TO.N,Net-(Q6-Pad3)*
X153700000Y-123780000D02*
X152500000Y-122580000D01*
X155050000Y-123780000D02*
X153700000Y-123780000D01*
X152500000Y-122580000D02*
X152500000Y-109500000D01*
X139400000Y-109400000D02*
X141800000Y-107000000D01*
X141800000Y-107000000D02*
X152500000Y-107000000D01*
X152500000Y-109500000D02*
X152500000Y-107000000D01*
X152500000Y-107000000D02*
X152750000Y-107000000D01*
X155550000Y-104200000D02*
X155550000Y-99280000D01*
X152750000Y-107000000D02*
X155550000Y-104200000D01*
D28*
X133950000Y-88200000D02*
X136350033Y-90600033D01*
X139400000Y-109400000D02*
X139400000Y-111250000D01*
X136350033Y-106350033D02*
X139400000Y-109400000D01*
X136350033Y-90600033D02*
X136350033Y-106350033D01*
X129550000Y-88200000D02*
X133950000Y-88200000D01*
G04 #@! TD*
D30*
G04 #@! TO.N,GND*
G36*
X127833130Y-79195752D02*
X128115545Y-79384455D01*
X128304248Y-79666870D01*
X128373000Y-80012509D01*
X128373000Y-81411876D01*
X128365000Y-81431190D01*
X128365000Y-81470000D01*
X128373000Y-81478000D01*
X128373000Y-81922000D01*
X128365000Y-81930000D01*
X128365000Y-81968810D01*
X128368514Y-81977293D01*
X128352560Y-82057500D01*
X128352560Y-82342500D01*
X128373000Y-82445259D01*
X128373000Y-82454741D01*
X128352560Y-82557500D01*
X128352560Y-82842500D01*
X128373000Y-82945259D01*
X128373000Y-82954741D01*
X128352560Y-83057500D01*
X128352560Y-83342500D01*
X128355613Y-83357849D01*
X128276309Y-83325000D01*
X126985750Y-83325000D01*
X126827000Y-83483750D01*
X126827000Y-86073000D01*
X126847000Y-86073000D01*
X126847000Y-86327000D01*
X126827000Y-86327000D01*
X126827000Y-88916250D01*
X126985750Y-89075000D01*
X128276309Y-89075000D01*
X128355613Y-89042151D01*
X128352560Y-89057500D01*
X128352560Y-89342500D01*
X128373000Y-89445259D01*
X128373000Y-89454741D01*
X128352560Y-89557500D01*
X128352560Y-89842500D01*
X128373000Y-89945259D01*
X128373000Y-89954741D01*
X128352560Y-90057500D01*
X128352560Y-90342500D01*
X128373000Y-90445259D01*
X128373000Y-90454741D01*
X128352560Y-90557500D01*
X128352560Y-90842500D01*
X128373000Y-90945260D01*
X128373000Y-92487491D01*
X128304248Y-92833130D01*
X128115545Y-93115545D01*
X127833130Y-93304248D01*
X127487491Y-93373000D01*
X126012509Y-93373000D01*
X125666870Y-93304248D01*
X125384455Y-93115545D01*
X125195752Y-92833130D01*
X125127000Y-92487491D01*
X125127000Y-89075000D01*
X126414250Y-89075000D01*
X126573000Y-88916250D01*
X126573000Y-86327000D01*
X126553000Y-86327000D01*
X126553000Y-86073000D01*
X126573000Y-86073000D01*
X126573000Y-83483750D01*
X126414250Y-83325000D01*
X125127000Y-83325000D01*
X125127000Y-80012509D01*
X125195752Y-79666870D01*
X125384455Y-79384455D01*
X125666870Y-79195752D01*
X126012509Y-79127000D01*
X127487491Y-79127000D01*
X127833130Y-79195752D01*
X127833130Y-79195752D01*
G37*
X127833130Y-79195752D02*
X128115545Y-79384455D01*
X128304248Y-79666870D01*
X128373000Y-80012509D01*
X128373000Y-81411876D01*
X128365000Y-81431190D01*
X128365000Y-81470000D01*
X128373000Y-81478000D01*
X128373000Y-81922000D01*
X128365000Y-81930000D01*
X128365000Y-81968810D01*
X128368514Y-81977293D01*
X128352560Y-82057500D01*
X128352560Y-82342500D01*
X128373000Y-82445259D01*
X128373000Y-82454741D01*
X128352560Y-82557500D01*
X128352560Y-82842500D01*
X128373000Y-82945259D01*
X128373000Y-82954741D01*
X128352560Y-83057500D01*
X128352560Y-83342500D01*
X128355613Y-83357849D01*
X128276309Y-83325000D01*
X126985750Y-83325000D01*
X126827000Y-83483750D01*
X126827000Y-86073000D01*
X126847000Y-86073000D01*
X126847000Y-86327000D01*
X126827000Y-86327000D01*
X126827000Y-88916250D01*
X126985750Y-89075000D01*
X128276309Y-89075000D01*
X128355613Y-89042151D01*
X128352560Y-89057500D01*
X128352560Y-89342500D01*
X128373000Y-89445259D01*
X128373000Y-89454741D01*
X128352560Y-89557500D01*
X128352560Y-89842500D01*
X128373000Y-89945259D01*
X128373000Y-89954741D01*
X128352560Y-90057500D01*
X128352560Y-90342500D01*
X128373000Y-90445259D01*
X128373000Y-90454741D01*
X128352560Y-90557500D01*
X128352560Y-90842500D01*
X128373000Y-90945260D01*
X128373000Y-92487491D01*
X128304248Y-92833130D01*
X128115545Y-93115545D01*
X127833130Y-93304248D01*
X127487491Y-93373000D01*
X126012509Y-93373000D01*
X125666870Y-93304248D01*
X125384455Y-93115545D01*
X125195752Y-92833130D01*
X125127000Y-92487491D01*
X125127000Y-89075000D01*
X126414250Y-89075000D01*
X126573000Y-88916250D01*
X126573000Y-86327000D01*
X126553000Y-86327000D01*
X126553000Y-86073000D01*
X126573000Y-86073000D01*
X126573000Y-83483750D01*
X126414250Y-83325000D01*
X125127000Y-83325000D01*
X125127000Y-80012509D01*
X125195752Y-79666870D01*
X125384455Y-79384455D01*
X125666870Y-79195752D01*
X126012509Y-79127000D01*
X127487491Y-79127000D01*
X127833130Y-79195752D01*
G36*
X178333130Y-51195752D02*
X178615545Y-51384455D01*
X178804248Y-51666870D01*
X178873000Y-52012509D01*
X178873000Y-127487491D01*
X178804248Y-127833130D01*
X178615545Y-128115545D01*
X178492142Y-128198000D01*
X160640793Y-128198000D01*
X162087661Y-126751132D01*
X165750000Y-126751132D01*
X165891830Y-126737163D01*
X166274513Y-126661043D01*
X166356700Y-126627000D01*
X166474174Y-126627000D01*
X166888394Y-126455424D01*
X167205424Y-126138394D01*
X167377000Y-125724174D01*
X167377000Y-125572572D01*
X167386911Y-125548645D01*
X167463031Y-125165962D01*
X167477000Y-125024132D01*
X167477000Y-122960783D01*
X167826297Y-122891303D01*
X168314858Y-122564858D01*
X168397263Y-122441530D01*
X168638793Y-122200000D01*
X170708758Y-122200000D01*
X170708758Y-123800000D01*
X170765182Y-124083661D01*
X170925863Y-124324137D01*
X171166339Y-124484818D01*
X171450000Y-124541242D01*
X173050000Y-124541242D01*
X173333661Y-124484818D01*
X173574137Y-124324137D01*
X173734818Y-124083661D01*
X173749918Y-124007745D01*
X174921861Y-124007745D01*
X174995995Y-124253864D01*
X175533223Y-124446965D01*
X176103454Y-124419778D01*
X176504005Y-124253864D01*
X176578139Y-124007745D01*
X175750000Y-123179605D01*
X174921861Y-124007745D01*
X173749918Y-124007745D01*
X173791242Y-123800000D01*
X173791242Y-122783223D01*
X174303035Y-122783223D01*
X174330222Y-123353454D01*
X174496136Y-123754005D01*
X174742255Y-123828139D01*
X175570395Y-123000000D01*
X175929605Y-123000000D01*
X176757745Y-123828139D01*
X177003864Y-123754005D01*
X177196965Y-123216777D01*
X177169778Y-122646546D01*
X177003864Y-122245995D01*
X176757745Y-122171861D01*
X175929605Y-123000000D01*
X175570395Y-123000000D01*
X174742255Y-122171861D01*
X174496136Y-122245995D01*
X174303035Y-122783223D01*
X173791242Y-122783223D01*
X173791242Y-122200000D01*
X173749919Y-121992255D01*
X174921861Y-121992255D01*
X175750000Y-122820395D01*
X176578139Y-121992255D01*
X176504005Y-121746136D01*
X175966777Y-121553035D01*
X175396546Y-121580222D01*
X174995995Y-121746136D01*
X174921861Y-121992255D01*
X173749919Y-121992255D01*
X173734818Y-121916339D01*
X173574137Y-121675863D01*
X173333661Y-121515182D01*
X173050000Y-121458758D01*
X171450000Y-121458758D01*
X171166339Y-121515182D01*
X170925863Y-121675863D01*
X170765182Y-121916339D01*
X170708758Y-122200000D01*
X168638793Y-122200000D01*
X174141531Y-116697262D01*
X174264858Y-116614858D01*
X174380542Y-116441724D01*
X175237882Y-116441724D01*
X175385455Y-116750106D01*
X176140031Y-117043405D01*
X176949409Y-117025614D01*
X177614545Y-116750106D01*
X177762118Y-116441724D01*
X176500000Y-115179605D01*
X175237882Y-116441724D01*
X174380542Y-116441724D01*
X174591303Y-116126297D01*
X174644333Y-115859698D01*
X174749894Y-116114545D01*
X175058276Y-116262118D01*
X176320395Y-115000000D01*
X176679605Y-115000000D01*
X177941724Y-116262118D01*
X178250106Y-116114545D01*
X178543405Y-115359969D01*
X178525614Y-114550591D01*
X178250106Y-113885455D01*
X177941724Y-113737882D01*
X176679605Y-115000000D01*
X176320395Y-115000000D01*
X175058276Y-113737882D01*
X174749894Y-113885455D01*
X174677000Y-114072991D01*
X174677000Y-113558276D01*
X175237882Y-113558276D01*
X176500000Y-114820395D01*
X177762118Y-113558276D01*
X177614545Y-113249894D01*
X176859969Y-112956595D01*
X176050591Y-112974386D01*
X175385455Y-113249894D01*
X175237882Y-113558276D01*
X174677000Y-113558276D01*
X174677000Y-100112454D01*
X175087960Y-99701494D01*
X175427000Y-98882978D01*
X175427000Y-97997022D01*
X175087960Y-97178506D01*
X174461494Y-96552040D01*
X173642978Y-96213000D01*
X172757022Y-96213000D01*
X171938506Y-96552040D01*
X171312040Y-97178506D01*
X170973000Y-97997022D01*
X170973000Y-98882978D01*
X171312040Y-99701494D01*
X171723001Y-100112455D01*
X171723000Y-114938207D01*
X167477000Y-119184207D01*
X167477000Y-118024132D01*
X167463031Y-117882302D01*
X167386911Y-117499619D01*
X167377000Y-117475692D01*
X167377000Y-117275826D01*
X167205424Y-116861606D01*
X166888394Y-116544576D01*
X166474174Y-116373000D01*
X166203019Y-116373000D01*
X165891830Y-116311101D01*
X165750000Y-116297132D01*
X158750000Y-116297132D01*
X158608170Y-116311101D01*
X158296981Y-116373000D01*
X158025826Y-116373000D01*
X157611606Y-116544576D01*
X157294576Y-116861606D01*
X157123000Y-117275826D01*
X157123000Y-117475692D01*
X157113089Y-117499619D01*
X157036969Y-117882302D01*
X157023000Y-118024132D01*
X157023000Y-120838090D01*
X156587162Y-120402252D01*
X156674137Y-120344137D01*
X156834818Y-120103661D01*
X156891242Y-119820000D01*
X156891242Y-118620000D01*
X156834818Y-118336339D01*
X156674137Y-118095863D01*
X156433661Y-117935182D01*
X156150000Y-117878758D01*
X153977000Y-117878758D01*
X153977000Y-108450000D01*
X159958758Y-108450000D01*
X159958758Y-110050000D01*
X160015182Y-110333661D01*
X160175863Y-110574137D01*
X160416339Y-110734818D01*
X160700000Y-110791242D01*
X162300000Y-110791242D01*
X162583661Y-110734818D01*
X162824137Y-110574137D01*
X162984818Y-110333661D01*
X162999918Y-110257745D01*
X164171861Y-110257745D01*
X164245995Y-110503864D01*
X164783223Y-110696965D01*
X165353454Y-110669778D01*
X165754005Y-110503864D01*
X165828139Y-110257745D01*
X165000000Y-109429605D01*
X164171861Y-110257745D01*
X162999918Y-110257745D01*
X163041242Y-110050000D01*
X163041242Y-109033223D01*
X163553035Y-109033223D01*
X163580222Y-109603454D01*
X163746136Y-110004005D01*
X163992255Y-110078139D01*
X164820395Y-109250000D01*
X165179605Y-109250000D01*
X166007745Y-110078139D01*
X166253864Y-110004005D01*
X166446965Y-109466777D01*
X166419778Y-108896546D01*
X166253864Y-108495995D01*
X166007745Y-108421861D01*
X165179605Y-109250000D01*
X164820395Y-109250000D01*
X163992255Y-108421861D01*
X163746136Y-108495995D01*
X163553035Y-109033223D01*
X163041242Y-109033223D01*
X163041242Y-108450000D01*
X162999919Y-108242255D01*
X164171861Y-108242255D01*
X165000000Y-109070395D01*
X165828139Y-108242255D01*
X165754005Y-107996136D01*
X165216777Y-107803035D01*
X164646546Y-107830222D01*
X164245995Y-107996136D01*
X164171861Y-108242255D01*
X162999919Y-108242255D01*
X162984818Y-108166339D01*
X162824137Y-107925863D01*
X162583661Y-107765182D01*
X162300000Y-107708758D01*
X160700000Y-107708758D01*
X160416339Y-107765182D01*
X160175863Y-107925863D01*
X160015182Y-108166339D01*
X159958758Y-108450000D01*
X153977000Y-108450000D01*
X153977000Y-107861793D01*
X156491534Y-105347260D01*
X156614858Y-105264858D01*
X156941303Y-104776297D01*
X157027000Y-104345471D01*
X157027000Y-104345470D01*
X157055936Y-104200000D01*
X157027000Y-104054530D01*
X157027000Y-100502451D01*
X157174137Y-100404137D01*
X157334818Y-100163661D01*
X157391242Y-99880000D01*
X157391242Y-98680000D01*
X157334818Y-98396339D01*
X157174137Y-98155863D01*
X156933661Y-97995182D01*
X156650000Y-97938758D01*
X156201219Y-97938758D01*
X156126297Y-97888697D01*
X155550000Y-97774064D01*
X154973704Y-97888697D01*
X154898782Y-97938758D01*
X154602000Y-97938758D01*
X154602000Y-97722909D01*
X156093122Y-96231788D01*
X156164257Y-96184257D01*
X156246453Y-96061242D01*
X156650000Y-96061242D01*
X156933661Y-96004818D01*
X157174137Y-95844137D01*
X157334818Y-95603661D01*
X157391242Y-95320000D01*
X157391242Y-94120000D01*
X157334818Y-93836339D01*
X157174137Y-93595863D01*
X156933661Y-93435182D01*
X156650000Y-93378758D01*
X154450000Y-93378758D01*
X154166339Y-93435182D01*
X153925863Y-93595863D01*
X153765182Y-93836339D01*
X153708758Y-94120000D01*
X153708758Y-95320000D01*
X153765182Y-95603661D01*
X153925863Y-95844137D01*
X154012838Y-95902252D01*
X153477000Y-96438091D01*
X153477000Y-93361793D01*
X155111794Y-91727000D01*
X158274748Y-91727000D01*
X158111606Y-91794576D01*
X157794576Y-92111606D01*
X157623000Y-92525826D01*
X157623000Y-92701560D01*
X157613089Y-92725487D01*
X157536969Y-93108170D01*
X157523000Y-93250000D01*
X157523000Y-100500000D01*
X157536969Y-100641830D01*
X157613089Y-101024513D01*
X157623000Y-101048440D01*
X157623000Y-101224174D01*
X157794576Y-101638394D01*
X158111606Y-101955424D01*
X158525826Y-102127000D01*
X158701560Y-102127000D01*
X158725487Y-102136911D01*
X159108170Y-102213031D01*
X159250000Y-102227000D01*
X166250000Y-102227000D01*
X166391830Y-102213031D01*
X166774513Y-102136911D01*
X166798440Y-102127000D01*
X166974174Y-102127000D01*
X167388394Y-101955424D01*
X167705424Y-101638394D01*
X167877000Y-101224174D01*
X167877000Y-101048440D01*
X167886911Y-101024513D01*
X167963031Y-100641830D01*
X167977000Y-100500000D01*
X167977000Y-97361793D01*
X170501793Y-94837000D01*
X171527546Y-94837000D01*
X171938506Y-95247960D01*
X172757022Y-95587000D01*
X173642978Y-95587000D01*
X174461494Y-95247960D01*
X175087960Y-94621494D01*
X175427000Y-93802978D01*
X175427000Y-92917022D01*
X175087960Y-92098506D01*
X174461494Y-91472040D01*
X173642978Y-91133000D01*
X172757022Y-91133000D01*
X171938506Y-91472040D01*
X171527546Y-91883000D01*
X170035470Y-91883000D01*
X169889999Y-91854064D01*
X169465945Y-91938414D01*
X169313703Y-91968697D01*
X168825142Y-92295142D01*
X168742737Y-92418470D01*
X167971101Y-93190106D01*
X167963031Y-93108170D01*
X167886911Y-92725487D01*
X167877000Y-92701560D01*
X167877000Y-92525826D01*
X167705424Y-92111606D01*
X167388394Y-91794576D01*
X166974174Y-91623000D01*
X166798440Y-91623000D01*
X166774513Y-91613089D01*
X166391830Y-91536969D01*
X166250000Y-91523000D01*
X163210783Y-91523000D01*
X163141303Y-91173703D01*
X162897260Y-90808466D01*
X162814858Y-90685142D01*
X162691533Y-90602739D01*
X161787535Y-89698742D01*
X162076297Y-89641303D01*
X162564858Y-89314858D01*
X162647263Y-89191530D01*
X162791531Y-89047262D01*
X162914858Y-88964858D01*
X163241303Y-88476297D01*
X163327000Y-88045471D01*
X163327000Y-88045470D01*
X163355936Y-87900000D01*
X163327000Y-87754530D01*
X163327000Y-87477000D01*
X166250000Y-87477000D01*
X166391830Y-87463031D01*
X166774513Y-87386911D01*
X167036582Y-87278359D01*
X167361006Y-87061586D01*
X167561586Y-86861006D01*
X167778359Y-86536582D01*
X167886911Y-86274513D01*
X167963031Y-85891830D01*
X167977000Y-85750000D01*
X167977000Y-83477000D01*
X168138207Y-83477000D01*
X168523001Y-83861794D01*
X168523000Y-86104529D01*
X168494064Y-86250000D01*
X168557456Y-86568690D01*
X168608697Y-86826296D01*
X168935142Y-87314858D01*
X169058470Y-87397263D01*
X169382737Y-87721529D01*
X169465143Y-87844859D01*
X169953704Y-88171304D01*
X170384530Y-88257001D01*
X170384531Y-88257001D01*
X170530001Y-88285937D01*
X170675471Y-88257001D01*
X170973000Y-88257001D01*
X170973000Y-88722978D01*
X171312040Y-89541494D01*
X171938506Y-90167960D01*
X172757022Y-90507000D01*
X173642978Y-90507000D01*
X174461494Y-90167960D01*
X175087960Y-89541494D01*
X175427000Y-88722978D01*
X175427000Y-87837022D01*
X175087960Y-87018506D01*
X174461494Y-86392040D01*
X173642978Y-86053000D01*
X173061793Y-86053000D01*
X172847263Y-85838470D01*
X172764859Y-85715143D01*
X172354936Y-85441242D01*
X174700000Y-85441242D01*
X174983661Y-85384818D01*
X175224137Y-85224137D01*
X175384818Y-84983661D01*
X175441242Y-84700000D01*
X175441242Y-81700000D01*
X175384818Y-81416339D01*
X175224137Y-81175863D01*
X174983661Y-81015182D01*
X174700000Y-80958758D01*
X174608222Y-80958758D01*
X174591303Y-80873703D01*
X174264858Y-80385142D01*
X174141533Y-80302739D01*
X170477000Y-76638207D01*
X170477000Y-71637022D01*
X171773000Y-71637022D01*
X171773000Y-72522978D01*
X172112040Y-73341494D01*
X172738506Y-73967960D01*
X173557022Y-74307000D01*
X174442978Y-74307000D01*
X175261494Y-73967960D01*
X175887960Y-73341494D01*
X176227000Y-72522978D01*
X176227000Y-71637022D01*
X175887960Y-70818506D01*
X175261494Y-70192040D01*
X174442978Y-69853000D01*
X173557022Y-69853000D01*
X172738506Y-70192040D01*
X172112040Y-70818506D01*
X171773000Y-71637022D01*
X170477000Y-71637022D01*
X170477000Y-67285750D01*
X171865000Y-67285750D01*
X171865000Y-68626309D01*
X171961673Y-68859698D01*
X172140301Y-69038327D01*
X172373690Y-69135000D01*
X173714250Y-69135000D01*
X173873000Y-68976250D01*
X173873000Y-67127000D01*
X174127000Y-67127000D01*
X174127000Y-68976250D01*
X174285750Y-69135000D01*
X175626310Y-69135000D01*
X175859699Y-69038327D01*
X176038327Y-68859698D01*
X176135000Y-68626309D01*
X176135000Y-67285750D01*
X175976250Y-67127000D01*
X174127000Y-67127000D01*
X173873000Y-67127000D01*
X172023750Y-67127000D01*
X171865000Y-67285750D01*
X170477000Y-67285750D01*
X170477000Y-65373691D01*
X171865000Y-65373691D01*
X171865000Y-66714250D01*
X172023750Y-66873000D01*
X173873000Y-66873000D01*
X173873000Y-65023750D01*
X174127000Y-65023750D01*
X174127000Y-66873000D01*
X175976250Y-66873000D01*
X176135000Y-66714250D01*
X176135000Y-65373691D01*
X176038327Y-65140302D01*
X175859699Y-64961673D01*
X175626310Y-64865000D01*
X174285750Y-64865000D01*
X174127000Y-65023750D01*
X173873000Y-65023750D01*
X173714250Y-64865000D01*
X172373690Y-64865000D01*
X172140301Y-64961673D01*
X171961673Y-65140302D01*
X171865000Y-65373691D01*
X170477000Y-65373691D01*
X170477000Y-62191724D01*
X174737882Y-62191724D01*
X174885455Y-62500106D01*
X175640031Y-62793405D01*
X176449409Y-62775614D01*
X177114545Y-62500106D01*
X177262118Y-62191724D01*
X176000000Y-60929605D01*
X174737882Y-62191724D01*
X170477000Y-62191724D01*
X170477000Y-60390031D01*
X173956595Y-60390031D01*
X173974386Y-61199409D01*
X174249894Y-61864545D01*
X174558276Y-62012118D01*
X175820395Y-60750000D01*
X176179605Y-60750000D01*
X177441724Y-62012118D01*
X177750106Y-61864545D01*
X178043405Y-61109969D01*
X178025614Y-60300591D01*
X177750106Y-59635455D01*
X177441724Y-59487882D01*
X176179605Y-60750000D01*
X175820395Y-60750000D01*
X174558276Y-59487882D01*
X174249894Y-59635455D01*
X173956595Y-60390031D01*
X170477000Y-60390031D01*
X170477000Y-59308276D01*
X174737882Y-59308276D01*
X176000000Y-60570395D01*
X177262118Y-59308276D01*
X177114545Y-58999894D01*
X176359969Y-58706595D01*
X175550591Y-58724386D01*
X174885455Y-58999894D01*
X174737882Y-59308276D01*
X170477000Y-59308276D01*
X170477000Y-59145470D01*
X170505936Y-58999999D01*
X170391303Y-58423703D01*
X170357424Y-58373000D01*
X170064858Y-57935142D01*
X169941533Y-57852739D01*
X168647262Y-56558469D01*
X168564858Y-56435142D01*
X168076297Y-56108697D01*
X167977000Y-56088946D01*
X167977000Y-54000000D01*
X167963031Y-53858170D01*
X167886911Y-53475487D01*
X167877000Y-53451560D01*
X167877000Y-53275826D01*
X167705424Y-52861606D01*
X167388394Y-52544576D01*
X166974174Y-52373000D01*
X166798440Y-52373000D01*
X166774513Y-52363089D01*
X166391830Y-52286969D01*
X166250000Y-52273000D01*
X163327000Y-52273000D01*
X163327000Y-51995470D01*
X163355936Y-51849999D01*
X163241303Y-51273703D01*
X163225465Y-51250000D01*
X163143279Y-51127000D01*
X177987491Y-51127000D01*
X178333130Y-51195752D01*
X178333130Y-51195752D01*
G37*
X178333130Y-51195752D02*
X178615545Y-51384455D01*
X178804248Y-51666870D01*
X178873000Y-52012509D01*
X178873000Y-127487491D01*
X178804248Y-127833130D01*
X178615545Y-128115545D01*
X178492142Y-128198000D01*
X160640793Y-128198000D01*
X162087661Y-126751132D01*
X165750000Y-126751132D01*
X165891830Y-126737163D01*
X166274513Y-126661043D01*
X166356700Y-126627000D01*
X166474174Y-126627000D01*
X166888394Y-126455424D01*
X167205424Y-126138394D01*
X167377000Y-125724174D01*
X167377000Y-125572572D01*
X167386911Y-125548645D01*
X167463031Y-125165962D01*
X167477000Y-125024132D01*
X167477000Y-122960783D01*
X167826297Y-122891303D01*
X168314858Y-122564858D01*
X168397263Y-122441530D01*
X168638793Y-122200000D01*
X170708758Y-122200000D01*
X170708758Y-123800000D01*
X170765182Y-124083661D01*
X170925863Y-124324137D01*
X171166339Y-124484818D01*
X171450000Y-124541242D01*
X173050000Y-124541242D01*
X173333661Y-124484818D01*
X173574137Y-124324137D01*
X173734818Y-124083661D01*
X173749918Y-124007745D01*
X174921861Y-124007745D01*
X174995995Y-124253864D01*
X175533223Y-124446965D01*
X176103454Y-124419778D01*
X176504005Y-124253864D01*
X176578139Y-124007745D01*
X175750000Y-123179605D01*
X174921861Y-124007745D01*
X173749918Y-124007745D01*
X173791242Y-123800000D01*
X173791242Y-122783223D01*
X174303035Y-122783223D01*
X174330222Y-123353454D01*
X174496136Y-123754005D01*
X174742255Y-123828139D01*
X175570395Y-123000000D01*
X175929605Y-123000000D01*
X176757745Y-123828139D01*
X177003864Y-123754005D01*
X177196965Y-123216777D01*
X177169778Y-122646546D01*
X177003864Y-122245995D01*
X176757745Y-122171861D01*
X175929605Y-123000000D01*
X175570395Y-123000000D01*
X174742255Y-122171861D01*
X174496136Y-122245995D01*
X174303035Y-122783223D01*
X173791242Y-122783223D01*
X173791242Y-122200000D01*
X173749919Y-121992255D01*
X174921861Y-121992255D01*
X175750000Y-122820395D01*
X176578139Y-121992255D01*
X176504005Y-121746136D01*
X175966777Y-121553035D01*
X175396546Y-121580222D01*
X174995995Y-121746136D01*
X174921861Y-121992255D01*
X173749919Y-121992255D01*
X173734818Y-121916339D01*
X173574137Y-121675863D01*
X173333661Y-121515182D01*
X173050000Y-121458758D01*
X171450000Y-121458758D01*
X171166339Y-121515182D01*
X170925863Y-121675863D01*
X170765182Y-121916339D01*
X170708758Y-122200000D01*
X168638793Y-122200000D01*
X174141531Y-116697262D01*
X174264858Y-116614858D01*
X174380542Y-116441724D01*
X175237882Y-116441724D01*
X175385455Y-116750106D01*
X176140031Y-117043405D01*
X176949409Y-117025614D01*
X177614545Y-116750106D01*
X177762118Y-116441724D01*
X176500000Y-115179605D01*
X175237882Y-116441724D01*
X174380542Y-116441724D01*
X174591303Y-116126297D01*
X174644333Y-115859698D01*
X174749894Y-116114545D01*
X175058276Y-116262118D01*
X176320395Y-115000000D01*
X176679605Y-115000000D01*
X177941724Y-116262118D01*
X178250106Y-116114545D01*
X178543405Y-115359969D01*
X178525614Y-114550591D01*
X178250106Y-113885455D01*
X177941724Y-113737882D01*
X176679605Y-115000000D01*
X176320395Y-115000000D01*
X175058276Y-113737882D01*
X174749894Y-113885455D01*
X174677000Y-114072991D01*
X174677000Y-113558276D01*
X175237882Y-113558276D01*
X176500000Y-114820395D01*
X177762118Y-113558276D01*
X177614545Y-113249894D01*
X176859969Y-112956595D01*
X176050591Y-112974386D01*
X175385455Y-113249894D01*
X175237882Y-113558276D01*
X174677000Y-113558276D01*
X174677000Y-100112454D01*
X175087960Y-99701494D01*
X175427000Y-98882978D01*
X175427000Y-97997022D01*
X175087960Y-97178506D01*
X174461494Y-96552040D01*
X173642978Y-96213000D01*
X172757022Y-96213000D01*
X171938506Y-96552040D01*
X171312040Y-97178506D01*
X170973000Y-97997022D01*
X170973000Y-98882978D01*
X171312040Y-99701494D01*
X171723001Y-100112455D01*
X171723000Y-114938207D01*
X167477000Y-119184207D01*
X167477000Y-118024132D01*
X167463031Y-117882302D01*
X167386911Y-117499619D01*
X167377000Y-117475692D01*
X167377000Y-117275826D01*
X167205424Y-116861606D01*
X166888394Y-116544576D01*
X166474174Y-116373000D01*
X166203019Y-116373000D01*
X165891830Y-116311101D01*
X165750000Y-116297132D01*
X158750000Y-116297132D01*
X158608170Y-116311101D01*
X158296981Y-116373000D01*
X158025826Y-116373000D01*
X157611606Y-116544576D01*
X157294576Y-116861606D01*
X157123000Y-117275826D01*
X157123000Y-117475692D01*
X157113089Y-117499619D01*
X157036969Y-117882302D01*
X157023000Y-118024132D01*
X157023000Y-120838090D01*
X156587162Y-120402252D01*
X156674137Y-120344137D01*
X156834818Y-120103661D01*
X156891242Y-119820000D01*
X156891242Y-118620000D01*
X156834818Y-118336339D01*
X156674137Y-118095863D01*
X156433661Y-117935182D01*
X156150000Y-117878758D01*
X153977000Y-117878758D01*
X153977000Y-108450000D01*
X159958758Y-108450000D01*
X159958758Y-110050000D01*
X160015182Y-110333661D01*
X160175863Y-110574137D01*
X160416339Y-110734818D01*
X160700000Y-110791242D01*
X162300000Y-110791242D01*
X162583661Y-110734818D01*
X162824137Y-110574137D01*
X162984818Y-110333661D01*
X162999918Y-110257745D01*
X164171861Y-110257745D01*
X164245995Y-110503864D01*
X164783223Y-110696965D01*
X165353454Y-110669778D01*
X165754005Y-110503864D01*
X165828139Y-110257745D01*
X165000000Y-109429605D01*
X164171861Y-110257745D01*
X162999918Y-110257745D01*
X163041242Y-110050000D01*
X163041242Y-109033223D01*
X163553035Y-109033223D01*
X163580222Y-109603454D01*
X163746136Y-110004005D01*
X163992255Y-110078139D01*
X164820395Y-109250000D01*
X165179605Y-109250000D01*
X166007745Y-110078139D01*
X166253864Y-110004005D01*
X166446965Y-109466777D01*
X166419778Y-108896546D01*
X166253864Y-108495995D01*
X166007745Y-108421861D01*
X165179605Y-109250000D01*
X164820395Y-109250000D01*
X163992255Y-108421861D01*
X163746136Y-108495995D01*
X163553035Y-109033223D01*
X163041242Y-109033223D01*
X163041242Y-108450000D01*
X162999919Y-108242255D01*
X164171861Y-108242255D01*
X165000000Y-109070395D01*
X165828139Y-108242255D01*
X165754005Y-107996136D01*
X165216777Y-107803035D01*
X164646546Y-107830222D01*
X164245995Y-107996136D01*
X164171861Y-108242255D01*
X162999919Y-108242255D01*
X162984818Y-108166339D01*
X162824137Y-107925863D01*
X162583661Y-107765182D01*
X162300000Y-107708758D01*
X160700000Y-107708758D01*
X160416339Y-107765182D01*
X160175863Y-107925863D01*
X160015182Y-108166339D01*
X159958758Y-108450000D01*
X153977000Y-108450000D01*
X153977000Y-107861793D01*
X156491534Y-105347260D01*
X156614858Y-105264858D01*
X156941303Y-104776297D01*
X157027000Y-104345471D01*
X157027000Y-104345470D01*
X157055936Y-104200000D01*
X157027000Y-104054530D01*
X157027000Y-100502451D01*
X157174137Y-100404137D01*
X157334818Y-100163661D01*
X157391242Y-99880000D01*
X157391242Y-98680000D01*
X157334818Y-98396339D01*
X157174137Y-98155863D01*
X156933661Y-97995182D01*
X156650000Y-97938758D01*
X156201219Y-97938758D01*
X156126297Y-97888697D01*
X155550000Y-97774064D01*
X154973704Y-97888697D01*
X154898782Y-97938758D01*
X154602000Y-97938758D01*
X154602000Y-97722909D01*
X156093122Y-96231788D01*
X156164257Y-96184257D01*
X156246453Y-96061242D01*
X156650000Y-96061242D01*
X156933661Y-96004818D01*
X157174137Y-95844137D01*
X157334818Y-95603661D01*
X157391242Y-95320000D01*
X157391242Y-94120000D01*
X157334818Y-93836339D01*
X157174137Y-93595863D01*
X156933661Y-93435182D01*
X156650000Y-93378758D01*
X154450000Y-93378758D01*
X154166339Y-93435182D01*
X153925863Y-93595863D01*
X153765182Y-93836339D01*
X153708758Y-94120000D01*
X153708758Y-95320000D01*
X153765182Y-95603661D01*
X153925863Y-95844137D01*
X154012838Y-95902252D01*
X153477000Y-96438091D01*
X153477000Y-93361793D01*
X155111794Y-91727000D01*
X158274748Y-91727000D01*
X158111606Y-91794576D01*
X157794576Y-92111606D01*
X157623000Y-92525826D01*
X157623000Y-92701560D01*
X157613089Y-92725487D01*
X157536969Y-93108170D01*
X157523000Y-93250000D01*
X157523000Y-100500000D01*
X157536969Y-100641830D01*
X157613089Y-101024513D01*
X157623000Y-101048440D01*
X157623000Y-101224174D01*
X157794576Y-101638394D01*
X158111606Y-101955424D01*
X158525826Y-102127000D01*
X158701560Y-102127000D01*
X158725487Y-102136911D01*
X159108170Y-102213031D01*
X159250000Y-102227000D01*
X166250000Y-102227000D01*
X166391830Y-102213031D01*
X166774513Y-102136911D01*
X166798440Y-102127000D01*
X166974174Y-102127000D01*
X167388394Y-101955424D01*
X167705424Y-101638394D01*
X167877000Y-101224174D01*
X167877000Y-101048440D01*
X167886911Y-101024513D01*
X167963031Y-100641830D01*
X167977000Y-100500000D01*
X167977000Y-97361793D01*
X170501793Y-94837000D01*
X171527546Y-94837000D01*
X171938506Y-95247960D01*
X172757022Y-95587000D01*
X173642978Y-95587000D01*
X174461494Y-95247960D01*
X175087960Y-94621494D01*
X175427000Y-93802978D01*
X175427000Y-92917022D01*
X175087960Y-92098506D01*
X174461494Y-91472040D01*
X173642978Y-91133000D01*
X172757022Y-91133000D01*
X171938506Y-91472040D01*
X171527546Y-91883000D01*
X170035470Y-91883000D01*
X169889999Y-91854064D01*
X169465945Y-91938414D01*
X169313703Y-91968697D01*
X168825142Y-92295142D01*
X168742737Y-92418470D01*
X167971101Y-93190106D01*
X167963031Y-93108170D01*
X167886911Y-92725487D01*
X167877000Y-92701560D01*
X167877000Y-92525826D01*
X167705424Y-92111606D01*
X167388394Y-91794576D01*
X166974174Y-91623000D01*
X166798440Y-91623000D01*
X166774513Y-91613089D01*
X166391830Y-91536969D01*
X166250000Y-91523000D01*
X163210783Y-91523000D01*
X163141303Y-91173703D01*
X162897260Y-90808466D01*
X162814858Y-90685142D01*
X162691533Y-90602739D01*
X161787535Y-89698742D01*
X162076297Y-89641303D01*
X162564858Y-89314858D01*
X162647263Y-89191530D01*
X162791531Y-89047262D01*
X162914858Y-88964858D01*
X163241303Y-88476297D01*
X163327000Y-88045471D01*
X163327000Y-88045470D01*
X163355936Y-87900000D01*
X163327000Y-87754530D01*
X163327000Y-87477000D01*
X166250000Y-87477000D01*
X166391830Y-87463031D01*
X166774513Y-87386911D01*
X167036582Y-87278359D01*
X167361006Y-87061586D01*
X167561586Y-86861006D01*
X167778359Y-86536582D01*
X167886911Y-86274513D01*
X167963031Y-85891830D01*
X167977000Y-85750000D01*
X167977000Y-83477000D01*
X168138207Y-83477000D01*
X168523001Y-83861794D01*
X168523000Y-86104529D01*
X168494064Y-86250000D01*
X168557456Y-86568690D01*
X168608697Y-86826296D01*
X168935142Y-87314858D01*
X169058470Y-87397263D01*
X169382737Y-87721529D01*
X169465143Y-87844859D01*
X169953704Y-88171304D01*
X170384530Y-88257001D01*
X170384531Y-88257001D01*
X170530001Y-88285937D01*
X170675471Y-88257001D01*
X170973000Y-88257001D01*
X170973000Y-88722978D01*
X171312040Y-89541494D01*
X171938506Y-90167960D01*
X172757022Y-90507000D01*
X173642978Y-90507000D01*
X174461494Y-90167960D01*
X175087960Y-89541494D01*
X175427000Y-88722978D01*
X175427000Y-87837022D01*
X175087960Y-87018506D01*
X174461494Y-86392040D01*
X173642978Y-86053000D01*
X173061793Y-86053000D01*
X172847263Y-85838470D01*
X172764859Y-85715143D01*
X172354936Y-85441242D01*
X174700000Y-85441242D01*
X174983661Y-85384818D01*
X175224137Y-85224137D01*
X175384818Y-84983661D01*
X175441242Y-84700000D01*
X175441242Y-81700000D01*
X175384818Y-81416339D01*
X175224137Y-81175863D01*
X174983661Y-81015182D01*
X174700000Y-80958758D01*
X174608222Y-80958758D01*
X174591303Y-80873703D01*
X174264858Y-80385142D01*
X174141533Y-80302739D01*
X170477000Y-76638207D01*
X170477000Y-71637022D01*
X171773000Y-71637022D01*
X171773000Y-72522978D01*
X172112040Y-73341494D01*
X172738506Y-73967960D01*
X173557022Y-74307000D01*
X174442978Y-74307000D01*
X175261494Y-73967960D01*
X175887960Y-73341494D01*
X176227000Y-72522978D01*
X176227000Y-71637022D01*
X175887960Y-70818506D01*
X175261494Y-70192040D01*
X174442978Y-69853000D01*
X173557022Y-69853000D01*
X172738506Y-70192040D01*
X172112040Y-70818506D01*
X171773000Y-71637022D01*
X170477000Y-71637022D01*
X170477000Y-67285750D01*
X171865000Y-67285750D01*
X171865000Y-68626309D01*
X171961673Y-68859698D01*
X172140301Y-69038327D01*
X172373690Y-69135000D01*
X173714250Y-69135000D01*
X173873000Y-68976250D01*
X173873000Y-67127000D01*
X174127000Y-67127000D01*
X174127000Y-68976250D01*
X174285750Y-69135000D01*
X175626310Y-69135000D01*
X175859699Y-69038327D01*
X176038327Y-68859698D01*
X176135000Y-68626309D01*
X176135000Y-67285750D01*
X175976250Y-67127000D01*
X174127000Y-67127000D01*
X173873000Y-67127000D01*
X172023750Y-67127000D01*
X171865000Y-67285750D01*
X170477000Y-67285750D01*
X170477000Y-65373691D01*
X171865000Y-65373691D01*
X171865000Y-66714250D01*
X172023750Y-66873000D01*
X173873000Y-66873000D01*
X173873000Y-65023750D01*
X174127000Y-65023750D01*
X174127000Y-66873000D01*
X175976250Y-66873000D01*
X176135000Y-66714250D01*
X176135000Y-65373691D01*
X176038327Y-65140302D01*
X175859699Y-64961673D01*
X175626310Y-64865000D01*
X174285750Y-64865000D01*
X174127000Y-65023750D01*
X173873000Y-65023750D01*
X173714250Y-64865000D01*
X172373690Y-64865000D01*
X172140301Y-64961673D01*
X171961673Y-65140302D01*
X171865000Y-65373691D01*
X170477000Y-65373691D01*
X170477000Y-62191724D01*
X174737882Y-62191724D01*
X174885455Y-62500106D01*
X175640031Y-62793405D01*
X176449409Y-62775614D01*
X177114545Y-62500106D01*
X177262118Y-62191724D01*
X176000000Y-60929605D01*
X174737882Y-62191724D01*
X170477000Y-62191724D01*
X170477000Y-60390031D01*
X173956595Y-60390031D01*
X173974386Y-61199409D01*
X174249894Y-61864545D01*
X174558276Y-62012118D01*
X175820395Y-60750000D01*
X176179605Y-60750000D01*
X177441724Y-62012118D01*
X177750106Y-61864545D01*
X178043405Y-61109969D01*
X178025614Y-60300591D01*
X177750106Y-59635455D01*
X177441724Y-59487882D01*
X176179605Y-60750000D01*
X175820395Y-60750000D01*
X174558276Y-59487882D01*
X174249894Y-59635455D01*
X173956595Y-60390031D01*
X170477000Y-60390031D01*
X170477000Y-59308276D01*
X174737882Y-59308276D01*
X176000000Y-60570395D01*
X177262118Y-59308276D01*
X177114545Y-58999894D01*
X176359969Y-58706595D01*
X175550591Y-58724386D01*
X174885455Y-58999894D01*
X174737882Y-59308276D01*
X170477000Y-59308276D01*
X170477000Y-59145470D01*
X170505936Y-58999999D01*
X170391303Y-58423703D01*
X170357424Y-58373000D01*
X170064858Y-57935142D01*
X169941533Y-57852739D01*
X168647262Y-56558469D01*
X168564858Y-56435142D01*
X168076297Y-56108697D01*
X167977000Y-56088946D01*
X167977000Y-54000000D01*
X167963031Y-53858170D01*
X167886911Y-53475487D01*
X167877000Y-53451560D01*
X167877000Y-53275826D01*
X167705424Y-52861606D01*
X167388394Y-52544576D01*
X166974174Y-52373000D01*
X166798440Y-52373000D01*
X166774513Y-52363089D01*
X166391830Y-52286969D01*
X166250000Y-52273000D01*
X163327000Y-52273000D01*
X163327000Y-51995470D01*
X163355936Y-51849999D01*
X163241303Y-51273703D01*
X163225465Y-51250000D01*
X163143279Y-51127000D01*
X177987491Y-51127000D01*
X178333130Y-51195752D01*
G36*
X137944008Y-109148917D02*
X137894064Y-109400000D01*
X138008697Y-109976296D01*
X138158758Y-110200878D01*
X138158758Y-112850000D01*
X138215182Y-113133661D01*
X138375863Y-113374137D01*
X138616339Y-113534818D01*
X138900000Y-113591242D01*
X139900000Y-113591242D01*
X140183661Y-113534818D01*
X140424137Y-113374137D01*
X140584818Y-113133661D01*
X140641242Y-112850000D01*
X140641242Y-110247551D01*
X142411793Y-108477000D01*
X144434180Y-108477000D01*
X144220523Y-108796760D01*
X144201560Y-108842541D01*
X144125440Y-109225224D01*
X144123000Y-109250000D01*
X144123000Y-113250000D01*
X144125440Y-113274776D01*
X144201560Y-113657459D01*
X144220523Y-113703240D01*
X144437296Y-114027664D01*
X144472336Y-114062704D01*
X144796760Y-114279477D01*
X144842541Y-114298440D01*
X145225224Y-114374560D01*
X145250000Y-114377000D01*
X149250000Y-114377000D01*
X149274776Y-114374560D01*
X149657459Y-114298440D01*
X149703240Y-114279477D01*
X150027664Y-114062704D01*
X150062704Y-114027664D01*
X150279477Y-113703240D01*
X150298440Y-113657459D01*
X150374560Y-113274776D01*
X150377000Y-113250000D01*
X150377000Y-109250000D01*
X150374560Y-109225224D01*
X150298440Y-108842541D01*
X150279477Y-108796760D01*
X150065820Y-108477000D01*
X151023000Y-108477000D01*
X151023000Y-109645470D01*
X151023001Y-109645475D01*
X151023001Y-115435612D01*
X150833912Y-115398000D01*
X150833908Y-115398000D01*
X150750000Y-115381310D01*
X150666092Y-115398000D01*
X139352910Y-115398000D01*
X136302011Y-112347102D01*
X136302011Y-107506920D01*
X137944008Y-109148917D01*
X137944008Y-109148917D01*
G37*
X137944008Y-109148917D02*
X137894064Y-109400000D01*
X138008697Y-109976296D01*
X138158758Y-110200878D01*
X138158758Y-112850000D01*
X138215182Y-113133661D01*
X138375863Y-113374137D01*
X138616339Y-113534818D01*
X138900000Y-113591242D01*
X139900000Y-113591242D01*
X140183661Y-113534818D01*
X140424137Y-113374137D01*
X140584818Y-113133661D01*
X140641242Y-112850000D01*
X140641242Y-110247551D01*
X142411793Y-108477000D01*
X144434180Y-108477000D01*
X144220523Y-108796760D01*
X144201560Y-108842541D01*
X144125440Y-109225224D01*
X144123000Y-109250000D01*
X144123000Y-113250000D01*
X144125440Y-113274776D01*
X144201560Y-113657459D01*
X144220523Y-113703240D01*
X144437296Y-114027664D01*
X144472336Y-114062704D01*
X144796760Y-114279477D01*
X144842541Y-114298440D01*
X145225224Y-114374560D01*
X145250000Y-114377000D01*
X149250000Y-114377000D01*
X149274776Y-114374560D01*
X149657459Y-114298440D01*
X149703240Y-114279477D01*
X150027664Y-114062704D01*
X150062704Y-114027664D01*
X150279477Y-113703240D01*
X150298440Y-113657459D01*
X150374560Y-113274776D01*
X150377000Y-113250000D01*
X150377000Y-109250000D01*
X150374560Y-109225224D01*
X150298440Y-108842541D01*
X150279477Y-108796760D01*
X150065820Y-108477000D01*
X151023000Y-108477000D01*
X151023000Y-109645470D01*
X151023001Y-109645475D01*
X151023001Y-115435612D01*
X150833912Y-115398000D01*
X150833908Y-115398000D01*
X150750000Y-115381310D01*
X150666092Y-115398000D01*
X139352910Y-115398000D01*
X136302011Y-112347102D01*
X136302011Y-107506920D01*
X137944008Y-109148917D01*
G36*
X157794576Y-52861606D02*
X157623000Y-53275826D01*
X157623000Y-53451560D01*
X157613089Y-53475487D01*
X157536969Y-53858170D01*
X157523000Y-54000000D01*
X157523000Y-61250000D01*
X157536969Y-61391830D01*
X157613089Y-61774513D01*
X157623000Y-61798440D01*
X157623000Y-61974174D01*
X157794576Y-62388394D01*
X158111606Y-62705424D01*
X158525826Y-62877000D01*
X158701560Y-62877000D01*
X158725487Y-62886911D01*
X159108170Y-62963031D01*
X159250000Y-62977000D01*
X166250000Y-62977000D01*
X166391830Y-62963031D01*
X166774513Y-62886911D01*
X166798440Y-62877000D01*
X166974174Y-62877000D01*
X167388394Y-62705424D01*
X167523001Y-62570817D01*
X167523000Y-77104530D01*
X167510614Y-77166796D01*
X167388394Y-77044576D01*
X166974174Y-76873000D01*
X166798440Y-76873000D01*
X166774513Y-76863089D01*
X166391830Y-76786969D01*
X166250000Y-76773000D01*
X159250000Y-76773000D01*
X159108170Y-76786969D01*
X158725487Y-76863089D01*
X158701560Y-76873000D01*
X158525826Y-76873000D01*
X158111606Y-77044576D01*
X157794576Y-77361606D01*
X157623000Y-77775826D01*
X157623000Y-77951560D01*
X157613089Y-77975487D01*
X157536969Y-78358170D01*
X157523000Y-78500000D01*
X157523000Y-81568090D01*
X156949287Y-80994377D01*
X157174137Y-80844137D01*
X157334818Y-80603661D01*
X157391242Y-80320000D01*
X157391242Y-79120000D01*
X157334818Y-78836339D01*
X157174137Y-78595863D01*
X156933661Y-78435182D01*
X156650000Y-78378758D01*
X154450000Y-78378758D01*
X154166339Y-78435182D01*
X153977000Y-78561694D01*
X153977000Y-68700000D01*
X159958758Y-68700000D01*
X159958758Y-70300000D01*
X160015182Y-70583661D01*
X160175863Y-70824137D01*
X160416339Y-70984818D01*
X160700000Y-71041242D01*
X162300000Y-71041242D01*
X162583661Y-70984818D01*
X162824137Y-70824137D01*
X162984818Y-70583661D01*
X162999918Y-70507745D01*
X164171861Y-70507745D01*
X164245995Y-70753864D01*
X164783223Y-70946965D01*
X165353454Y-70919778D01*
X165754005Y-70753864D01*
X165828139Y-70507745D01*
X165000000Y-69679605D01*
X164171861Y-70507745D01*
X162999918Y-70507745D01*
X163041242Y-70300000D01*
X163041242Y-69283223D01*
X163553035Y-69283223D01*
X163580222Y-69853454D01*
X163746136Y-70254005D01*
X163992255Y-70328139D01*
X164820395Y-69500000D01*
X165179605Y-69500000D01*
X166007745Y-70328139D01*
X166253864Y-70254005D01*
X166446965Y-69716777D01*
X166419778Y-69146546D01*
X166253864Y-68745995D01*
X166007745Y-68671861D01*
X165179605Y-69500000D01*
X164820395Y-69500000D01*
X163992255Y-68671861D01*
X163746136Y-68745995D01*
X163553035Y-69283223D01*
X163041242Y-69283223D01*
X163041242Y-68700000D01*
X162999919Y-68492255D01*
X164171861Y-68492255D01*
X165000000Y-69320395D01*
X165828139Y-68492255D01*
X165754005Y-68246136D01*
X165216777Y-68053035D01*
X164646546Y-68080222D01*
X164245995Y-68246136D01*
X164171861Y-68492255D01*
X162999919Y-68492255D01*
X162984818Y-68416339D01*
X162824137Y-68175863D01*
X162583661Y-68015182D01*
X162300000Y-67958758D01*
X160700000Y-67958758D01*
X160416339Y-68015182D01*
X160175863Y-68175863D01*
X160015182Y-68416339D01*
X159958758Y-68700000D01*
X153977000Y-68700000D01*
X153977000Y-65895470D01*
X154005936Y-65750000D01*
X153977000Y-65604529D01*
X153977000Y-61361793D01*
X154081794Y-61257000D01*
X155695471Y-61257000D01*
X156126297Y-61171303D01*
X156201219Y-61121242D01*
X156650000Y-61121242D01*
X156933661Y-61064818D01*
X157174137Y-60904137D01*
X157334818Y-60663661D01*
X157391242Y-60380000D01*
X157391242Y-59180000D01*
X157334818Y-58896339D01*
X157174137Y-58655863D01*
X156933661Y-58495182D01*
X156650000Y-58438758D01*
X156201219Y-58438758D01*
X156126297Y-58388697D01*
X155695471Y-58303000D01*
X153615470Y-58303000D01*
X153469999Y-58274064D01*
X152972617Y-58373000D01*
X152893703Y-58388697D01*
X152405142Y-58715142D01*
X152322739Y-58838467D01*
X151602000Y-59559207D01*
X151602000Y-57352909D01*
X152882910Y-56072000D01*
X153758884Y-56072000D01*
X153765182Y-56103661D01*
X153925863Y-56344137D01*
X154166339Y-56504818D01*
X154450000Y-56561242D01*
X156650000Y-56561242D01*
X156933661Y-56504818D01*
X157174137Y-56344137D01*
X157334818Y-56103661D01*
X157391242Y-55820000D01*
X157391242Y-54620000D01*
X157334818Y-54336339D01*
X157174137Y-54095863D01*
X156933661Y-53935182D01*
X156650000Y-53878758D01*
X154450000Y-53878758D01*
X154166339Y-53935182D01*
X153925863Y-54095863D01*
X153765182Y-54336339D01*
X153758884Y-54368000D01*
X152613907Y-54368000D01*
X152529999Y-54351310D01*
X152446091Y-54368000D01*
X152446088Y-54368000D01*
X152197566Y-54417434D01*
X151915743Y-54605743D01*
X151868212Y-54676879D01*
X150477000Y-56068091D01*
X150477000Y-53913621D01*
X150463031Y-53771791D01*
X150386911Y-53389108D01*
X150377000Y-53365181D01*
X150377000Y-53275826D01*
X150205424Y-52861606D01*
X150070818Y-52727000D01*
X157929182Y-52727000D01*
X157794576Y-52861606D01*
X157794576Y-52861606D01*
G37*
X157794576Y-52861606D02*
X157623000Y-53275826D01*
X157623000Y-53451560D01*
X157613089Y-53475487D01*
X157536969Y-53858170D01*
X157523000Y-54000000D01*
X157523000Y-61250000D01*
X157536969Y-61391830D01*
X157613089Y-61774513D01*
X157623000Y-61798440D01*
X157623000Y-61974174D01*
X157794576Y-62388394D01*
X158111606Y-62705424D01*
X158525826Y-62877000D01*
X158701560Y-62877000D01*
X158725487Y-62886911D01*
X159108170Y-62963031D01*
X159250000Y-62977000D01*
X166250000Y-62977000D01*
X166391830Y-62963031D01*
X166774513Y-62886911D01*
X166798440Y-62877000D01*
X166974174Y-62877000D01*
X167388394Y-62705424D01*
X167523001Y-62570817D01*
X167523000Y-77104530D01*
X167510614Y-77166796D01*
X167388394Y-77044576D01*
X166974174Y-76873000D01*
X166798440Y-76873000D01*
X166774513Y-76863089D01*
X166391830Y-76786969D01*
X166250000Y-76773000D01*
X159250000Y-76773000D01*
X159108170Y-76786969D01*
X158725487Y-76863089D01*
X158701560Y-76873000D01*
X158525826Y-76873000D01*
X158111606Y-77044576D01*
X157794576Y-77361606D01*
X157623000Y-77775826D01*
X157623000Y-77951560D01*
X157613089Y-77975487D01*
X157536969Y-78358170D01*
X157523000Y-78500000D01*
X157523000Y-81568090D01*
X156949287Y-80994377D01*
X157174137Y-80844137D01*
X157334818Y-80603661D01*
X157391242Y-80320000D01*
X157391242Y-79120000D01*
X157334818Y-78836339D01*
X157174137Y-78595863D01*
X156933661Y-78435182D01*
X156650000Y-78378758D01*
X154450000Y-78378758D01*
X154166339Y-78435182D01*
X153977000Y-78561694D01*
X153977000Y-68700000D01*
X159958758Y-68700000D01*
X159958758Y-70300000D01*
X160015182Y-70583661D01*
X160175863Y-70824137D01*
X160416339Y-70984818D01*
X160700000Y-71041242D01*
X162300000Y-71041242D01*
X162583661Y-70984818D01*
X162824137Y-70824137D01*
X162984818Y-70583661D01*
X162999918Y-70507745D01*
X164171861Y-70507745D01*
X164245995Y-70753864D01*
X164783223Y-70946965D01*
X165353454Y-70919778D01*
X165754005Y-70753864D01*
X165828139Y-70507745D01*
X165000000Y-69679605D01*
X164171861Y-70507745D01*
X162999918Y-70507745D01*
X163041242Y-70300000D01*
X163041242Y-69283223D01*
X163553035Y-69283223D01*
X163580222Y-69853454D01*
X163746136Y-70254005D01*
X163992255Y-70328139D01*
X164820395Y-69500000D01*
X165179605Y-69500000D01*
X166007745Y-70328139D01*
X166253864Y-70254005D01*
X166446965Y-69716777D01*
X166419778Y-69146546D01*
X166253864Y-68745995D01*
X166007745Y-68671861D01*
X165179605Y-69500000D01*
X164820395Y-69500000D01*
X163992255Y-68671861D01*
X163746136Y-68745995D01*
X163553035Y-69283223D01*
X163041242Y-69283223D01*
X163041242Y-68700000D01*
X162999919Y-68492255D01*
X164171861Y-68492255D01*
X165000000Y-69320395D01*
X165828139Y-68492255D01*
X165754005Y-68246136D01*
X165216777Y-68053035D01*
X164646546Y-68080222D01*
X164245995Y-68246136D01*
X164171861Y-68492255D01*
X162999919Y-68492255D01*
X162984818Y-68416339D01*
X162824137Y-68175863D01*
X162583661Y-68015182D01*
X162300000Y-67958758D01*
X160700000Y-67958758D01*
X160416339Y-68015182D01*
X160175863Y-68175863D01*
X160015182Y-68416339D01*
X159958758Y-68700000D01*
X153977000Y-68700000D01*
X153977000Y-65895470D01*
X154005936Y-65750000D01*
X153977000Y-65604529D01*
X153977000Y-61361793D01*
X154081794Y-61257000D01*
X155695471Y-61257000D01*
X156126297Y-61171303D01*
X156201219Y-61121242D01*
X156650000Y-61121242D01*
X156933661Y-61064818D01*
X157174137Y-60904137D01*
X157334818Y-60663661D01*
X157391242Y-60380000D01*
X157391242Y-59180000D01*
X157334818Y-58896339D01*
X157174137Y-58655863D01*
X156933661Y-58495182D01*
X156650000Y-58438758D01*
X156201219Y-58438758D01*
X156126297Y-58388697D01*
X155695471Y-58303000D01*
X153615470Y-58303000D01*
X153469999Y-58274064D01*
X152972617Y-58373000D01*
X152893703Y-58388697D01*
X152405142Y-58715142D01*
X152322739Y-58838467D01*
X151602000Y-59559207D01*
X151602000Y-57352909D01*
X152882910Y-56072000D01*
X153758884Y-56072000D01*
X153765182Y-56103661D01*
X153925863Y-56344137D01*
X154166339Y-56504818D01*
X154450000Y-56561242D01*
X156650000Y-56561242D01*
X156933661Y-56504818D01*
X157174137Y-56344137D01*
X157334818Y-56103661D01*
X157391242Y-55820000D01*
X157391242Y-54620000D01*
X157334818Y-54336339D01*
X157174137Y-54095863D01*
X156933661Y-53935182D01*
X156650000Y-53878758D01*
X154450000Y-53878758D01*
X154166339Y-53935182D01*
X153925863Y-54095863D01*
X153765182Y-54336339D01*
X153758884Y-54368000D01*
X152613907Y-54368000D01*
X152529999Y-54351310D01*
X152446091Y-54368000D01*
X152446088Y-54368000D01*
X152197566Y-54417434D01*
X151915743Y-54605743D01*
X151868212Y-54676879D01*
X150477000Y-56068091D01*
X150477000Y-53913621D01*
X150463031Y-53771791D01*
X150386911Y-53389108D01*
X150377000Y-53365181D01*
X150377000Y-53275826D01*
X150205424Y-52861606D01*
X150070818Y-52727000D01*
X157929182Y-52727000D01*
X157794576Y-52861606D01*
G36*
X151023000Y-74645470D02*
X151023001Y-74645475D01*
X151023001Y-76074767D01*
X150832434Y-75947434D01*
X150583912Y-75898000D01*
X150583908Y-75898000D01*
X150500000Y-75881310D01*
X150416092Y-75898000D01*
X139563757Y-75898000D01*
X139614257Y-75864257D01*
X139661790Y-75793119D01*
X140443122Y-75011788D01*
X140514257Y-74964257D01*
X140602340Y-74832433D01*
X140702566Y-74682434D01*
X140709918Y-74645471D01*
X140752000Y-74433912D01*
X140752000Y-74433909D01*
X140768690Y-74350001D01*
X140752000Y-74266093D01*
X140752000Y-73739155D01*
X140924137Y-73624137D01*
X141084818Y-73383661D01*
X141141242Y-73100000D01*
X141141242Y-72300880D01*
X141291303Y-72076297D01*
X141377000Y-71645471D01*
X141377000Y-69500000D01*
X144123000Y-69500000D01*
X144123000Y-73500000D01*
X144125440Y-73524776D01*
X144201560Y-73907459D01*
X144220523Y-73953240D01*
X144437296Y-74277664D01*
X144472336Y-74312704D01*
X144796760Y-74529477D01*
X144842541Y-74548440D01*
X145225224Y-74624560D01*
X145250000Y-74627000D01*
X149250000Y-74627000D01*
X149274776Y-74624560D01*
X149657459Y-74548440D01*
X149703240Y-74529477D01*
X150027664Y-74312704D01*
X150062704Y-74277664D01*
X150279477Y-73953240D01*
X150298440Y-73907459D01*
X150374560Y-73524776D01*
X150377000Y-73500000D01*
X150377000Y-69500000D01*
X150374560Y-69475224D01*
X150298440Y-69092541D01*
X150279477Y-69046760D01*
X150062704Y-68722336D01*
X150027664Y-68687296D01*
X149703240Y-68470523D01*
X149657459Y-68451560D01*
X149274776Y-68375440D01*
X149250000Y-68373000D01*
X145250000Y-68373000D01*
X145225224Y-68375440D01*
X144842541Y-68451560D01*
X144796760Y-68470523D01*
X144472336Y-68687296D01*
X144437296Y-68722336D01*
X144220523Y-69046760D01*
X144201560Y-69092541D01*
X144125440Y-69475224D01*
X144123000Y-69500000D01*
X141377000Y-69500000D01*
X141377000Y-68461793D01*
X142611793Y-67227000D01*
X151023001Y-67227000D01*
X151023000Y-74645470D01*
X151023000Y-74645470D01*
G37*
X151023000Y-74645470D02*
X151023001Y-74645475D01*
X151023001Y-76074767D01*
X150832434Y-75947434D01*
X150583912Y-75898000D01*
X150583908Y-75898000D01*
X150500000Y-75881310D01*
X150416092Y-75898000D01*
X139563757Y-75898000D01*
X139614257Y-75864257D01*
X139661790Y-75793119D01*
X140443122Y-75011788D01*
X140514257Y-74964257D01*
X140602340Y-74832433D01*
X140702566Y-74682434D01*
X140709918Y-74645471D01*
X140752000Y-74433912D01*
X140752000Y-74433909D01*
X140768690Y-74350001D01*
X140752000Y-74266093D01*
X140752000Y-73739155D01*
X140924137Y-73624137D01*
X141084818Y-73383661D01*
X141141242Y-73100000D01*
X141141242Y-72300880D01*
X141291303Y-72076297D01*
X141377000Y-71645471D01*
X141377000Y-69500000D01*
X144123000Y-69500000D01*
X144123000Y-73500000D01*
X144125440Y-73524776D01*
X144201560Y-73907459D01*
X144220523Y-73953240D01*
X144437296Y-74277664D01*
X144472336Y-74312704D01*
X144796760Y-74529477D01*
X144842541Y-74548440D01*
X145225224Y-74624560D01*
X145250000Y-74627000D01*
X149250000Y-74627000D01*
X149274776Y-74624560D01*
X149657459Y-74548440D01*
X149703240Y-74529477D01*
X150027664Y-74312704D01*
X150062704Y-74277664D01*
X150279477Y-73953240D01*
X150298440Y-73907459D01*
X150374560Y-73524776D01*
X150377000Y-73500000D01*
X150377000Y-69500000D01*
X150374560Y-69475224D01*
X150298440Y-69092541D01*
X150279477Y-69046760D01*
X150062704Y-68722336D01*
X150027664Y-68687296D01*
X149703240Y-68470523D01*
X149657459Y-68451560D01*
X149274776Y-68375440D01*
X149250000Y-68373000D01*
X145250000Y-68373000D01*
X145225224Y-68375440D01*
X144842541Y-68451560D01*
X144796760Y-68470523D01*
X144472336Y-68687296D01*
X144437296Y-68722336D01*
X144220523Y-69046760D01*
X144201560Y-69092541D01*
X144125440Y-69475224D01*
X144123000Y-69500000D01*
X141377000Y-69500000D01*
X141377000Y-68461793D01*
X142611793Y-67227000D01*
X151023001Y-67227000D01*
X151023000Y-74645470D01*
G36*
X149583130Y-68695752D02*
X149865545Y-68884455D01*
X150054248Y-69166870D01*
X150123000Y-69512509D01*
X150123000Y-73487491D01*
X150054248Y-73833130D01*
X149865545Y-74115545D01*
X149583130Y-74304248D01*
X149237491Y-74373000D01*
X145262509Y-74373000D01*
X144916870Y-74304248D01*
X144634455Y-74115545D01*
X144445752Y-73833130D01*
X144377000Y-73487491D01*
X144377000Y-71785750D01*
X144965000Y-71785750D01*
X144965000Y-73226310D01*
X145061673Y-73459699D01*
X145240302Y-73638327D01*
X145473691Y-73735000D01*
X145814250Y-73735000D01*
X145973000Y-73576250D01*
X145973000Y-71627000D01*
X146227000Y-71627000D01*
X146227000Y-73576250D01*
X146385750Y-73735000D01*
X146726309Y-73735000D01*
X146959698Y-73638327D01*
X147138327Y-73459699D01*
X147235000Y-73226310D01*
X147235000Y-71785750D01*
X147076250Y-71627000D01*
X146227000Y-71627000D01*
X145973000Y-71627000D01*
X145123750Y-71627000D01*
X144965000Y-71785750D01*
X144377000Y-71785750D01*
X144377000Y-69773690D01*
X144965000Y-69773690D01*
X144965000Y-71214250D01*
X145123750Y-71373000D01*
X145973000Y-71373000D01*
X145973000Y-69423750D01*
X146227000Y-69423750D01*
X146227000Y-71373000D01*
X147076250Y-71373000D01*
X147235000Y-71214250D01*
X147235000Y-69773690D01*
X147138327Y-69540301D01*
X146959698Y-69361673D01*
X146726309Y-69265000D01*
X146385750Y-69265000D01*
X146227000Y-69423750D01*
X145973000Y-69423750D01*
X145814250Y-69265000D01*
X145473691Y-69265000D01*
X145240302Y-69361673D01*
X145061673Y-69540301D01*
X144965000Y-69773690D01*
X144377000Y-69773690D01*
X144377000Y-69512509D01*
X144445752Y-69166870D01*
X144634455Y-68884455D01*
X144916870Y-68695752D01*
X145262509Y-68627000D01*
X149237491Y-68627000D01*
X149583130Y-68695752D01*
X149583130Y-68695752D01*
G37*
X149583130Y-68695752D02*
X149865545Y-68884455D01*
X150054248Y-69166870D01*
X150123000Y-69512509D01*
X150123000Y-73487491D01*
X150054248Y-73833130D01*
X149865545Y-74115545D01*
X149583130Y-74304248D01*
X149237491Y-74373000D01*
X145262509Y-74373000D01*
X144916870Y-74304248D01*
X144634455Y-74115545D01*
X144445752Y-73833130D01*
X144377000Y-73487491D01*
X144377000Y-71785750D01*
X144965000Y-71785750D01*
X144965000Y-73226310D01*
X145061673Y-73459699D01*
X145240302Y-73638327D01*
X145473691Y-73735000D01*
X145814250Y-73735000D01*
X145973000Y-73576250D01*
X145973000Y-71627000D01*
X146227000Y-71627000D01*
X146227000Y-73576250D01*
X146385750Y-73735000D01*
X146726309Y-73735000D01*
X146959698Y-73638327D01*
X147138327Y-73459699D01*
X147235000Y-73226310D01*
X147235000Y-71785750D01*
X147076250Y-71627000D01*
X146227000Y-71627000D01*
X145973000Y-71627000D01*
X145123750Y-71627000D01*
X144965000Y-71785750D01*
X144377000Y-71785750D01*
X144377000Y-69773690D01*
X144965000Y-69773690D01*
X144965000Y-71214250D01*
X145123750Y-71373000D01*
X145973000Y-71373000D01*
X145973000Y-69423750D01*
X146227000Y-69423750D01*
X146227000Y-71373000D01*
X147076250Y-71373000D01*
X147235000Y-71214250D01*
X147235000Y-69773690D01*
X147138327Y-69540301D01*
X146959698Y-69361673D01*
X146726309Y-69265000D01*
X146385750Y-69265000D01*
X146227000Y-69423750D01*
X145973000Y-69423750D01*
X145814250Y-69265000D01*
X145473691Y-69265000D01*
X145240302Y-69361673D01*
X145061673Y-69540301D01*
X144965000Y-69773690D01*
X144377000Y-69773690D01*
X144377000Y-69512509D01*
X144445752Y-69166870D01*
X144634455Y-68884455D01*
X144916870Y-68695752D01*
X145262509Y-68627000D01*
X149237491Y-68627000D01*
X149583130Y-68695752D01*
G04 #@! TO.N,Net-(J3-Pad4)*
G36*
X166083130Y-117219884D02*
X166365545Y-117408587D01*
X166554248Y-117691002D01*
X166623000Y-118036641D01*
X166623000Y-125011623D01*
X166554248Y-125357262D01*
X166365545Y-125639677D01*
X166083130Y-125828380D01*
X165737491Y-125897132D01*
X158762509Y-125897132D01*
X158416870Y-125828380D01*
X158134455Y-125639677D01*
X157945752Y-125357262D01*
X157877000Y-125011623D01*
X157877000Y-118036641D01*
X157945752Y-117691002D01*
X158134455Y-117408587D01*
X158416870Y-117219884D01*
X158762509Y-117151132D01*
X165737491Y-117151132D01*
X166083130Y-117219884D01*
X166083130Y-117219884D01*
G37*
X166083130Y-117219884D02*
X166365545Y-117408587D01*
X166554248Y-117691002D01*
X166623000Y-118036641D01*
X166623000Y-125011623D01*
X166554248Y-125357262D01*
X166365545Y-125639677D01*
X166083130Y-125828380D01*
X165737491Y-125897132D01*
X158762509Y-125897132D01*
X158416870Y-125828380D01*
X158134455Y-125639677D01*
X157945752Y-125357262D01*
X157877000Y-125011623D01*
X157877000Y-118036641D01*
X157945752Y-117691002D01*
X158134455Y-117408587D01*
X158416870Y-117219884D01*
X158762509Y-117151132D01*
X165737491Y-117151132D01*
X166083130Y-117219884D01*
G04 #@! TO.N,+24V*
G36*
X149583130Y-117219884D02*
X149865545Y-117408587D01*
X150054248Y-117691002D01*
X150123000Y-118036641D01*
X150123000Y-125011623D01*
X150054248Y-125357262D01*
X149865545Y-125639677D01*
X149583130Y-125828380D01*
X149237491Y-125897132D01*
X142262509Y-125897132D01*
X141916870Y-125828380D01*
X141634455Y-125639677D01*
X141445752Y-125357262D01*
X141377000Y-125011623D01*
X141377000Y-118036641D01*
X141445752Y-117691002D01*
X141634455Y-117408587D01*
X141916870Y-117219884D01*
X142262509Y-117151132D01*
X149237491Y-117151132D01*
X149583130Y-117219884D01*
X149583130Y-117219884D01*
G37*
X149583130Y-117219884D02*
X149865545Y-117408587D01*
X150054248Y-117691002D01*
X150123000Y-118036641D01*
X150123000Y-125011623D01*
X150054248Y-125357262D01*
X149865545Y-125639677D01*
X149583130Y-125828380D01*
X149237491Y-125897132D01*
X142262509Y-125897132D01*
X141916870Y-125828380D01*
X141634455Y-125639677D01*
X141445752Y-125357262D01*
X141377000Y-125011623D01*
X141377000Y-118036641D01*
X141445752Y-117691002D01*
X141634455Y-117408587D01*
X141916870Y-117219884D01*
X142262509Y-117151132D01*
X149237491Y-117151132D01*
X149583130Y-117219884D01*
G36*
X149583130Y-92609373D02*
X149865545Y-92798076D01*
X150054248Y-93080491D01*
X150123000Y-93426130D01*
X150123000Y-100401112D01*
X150054248Y-100746751D01*
X149865545Y-101029166D01*
X149583130Y-101217869D01*
X149237491Y-101286621D01*
X142262509Y-101286621D01*
X141916870Y-101217869D01*
X141634455Y-101029166D01*
X141445752Y-100746751D01*
X141377000Y-100401112D01*
X141377000Y-93426130D01*
X141445752Y-93080491D01*
X141634455Y-92798076D01*
X141916870Y-92609373D01*
X142262509Y-92540621D01*
X149237491Y-92540621D01*
X149583130Y-92609373D01*
X149583130Y-92609373D01*
G37*
X149583130Y-92609373D02*
X149865545Y-92798076D01*
X150054248Y-93080491D01*
X150123000Y-93426130D01*
X150123000Y-100401112D01*
X150054248Y-100746751D01*
X149865545Y-101029166D01*
X149583130Y-101217869D01*
X149237491Y-101286621D01*
X142262509Y-101286621D01*
X141916870Y-101217869D01*
X141634455Y-101029166D01*
X141445752Y-100746751D01*
X141377000Y-100401112D01*
X141377000Y-93426130D01*
X141445752Y-93080491D01*
X141634455Y-92798076D01*
X141916870Y-92609373D01*
X142262509Y-92540621D01*
X149237491Y-92540621D01*
X149583130Y-92609373D01*
G04 #@! TO.N,GND*
G36*
X149583130Y-108445752D02*
X149865545Y-108634455D01*
X150054248Y-108916870D01*
X150123000Y-109262509D01*
X150123000Y-113237491D01*
X150054248Y-113583130D01*
X149865545Y-113865545D01*
X149583130Y-114054248D01*
X149237491Y-114123000D01*
X145262509Y-114123000D01*
X144916870Y-114054248D01*
X144634455Y-113865545D01*
X144445752Y-113583130D01*
X144377000Y-113237491D01*
X144377000Y-111535750D01*
X144465000Y-111535750D01*
X144465000Y-112976310D01*
X144561673Y-113209699D01*
X144740302Y-113388327D01*
X144973691Y-113485000D01*
X145314250Y-113485000D01*
X145473000Y-113326250D01*
X145473000Y-111377000D01*
X145727000Y-111377000D01*
X145727000Y-113326250D01*
X145885750Y-113485000D01*
X146226309Y-113485000D01*
X146459698Y-113388327D01*
X146638327Y-113209699D01*
X146735000Y-112976310D01*
X146735000Y-111535750D01*
X146576250Y-111377000D01*
X145727000Y-111377000D01*
X145473000Y-111377000D01*
X144623750Y-111377000D01*
X144465000Y-111535750D01*
X144377000Y-111535750D01*
X144377000Y-109523690D01*
X144465000Y-109523690D01*
X144465000Y-110964250D01*
X144623750Y-111123000D01*
X145473000Y-111123000D01*
X145473000Y-109173750D01*
X145727000Y-109173750D01*
X145727000Y-111123000D01*
X146576250Y-111123000D01*
X146735000Y-110964250D01*
X146735000Y-109523690D01*
X146638327Y-109290301D01*
X146459698Y-109111673D01*
X146226309Y-109015000D01*
X145885750Y-109015000D01*
X145727000Y-109173750D01*
X145473000Y-109173750D01*
X145314250Y-109015000D01*
X144973691Y-109015000D01*
X144740302Y-109111673D01*
X144561673Y-109290301D01*
X144465000Y-109523690D01*
X144377000Y-109523690D01*
X144377000Y-109262509D01*
X144445752Y-108916870D01*
X144634455Y-108634455D01*
X144916870Y-108445752D01*
X145222290Y-108385000D01*
X149277710Y-108385000D01*
X149583130Y-108445752D01*
X149583130Y-108445752D01*
G37*
X149583130Y-108445752D02*
X149865545Y-108634455D01*
X150054248Y-108916870D01*
X150123000Y-109262509D01*
X150123000Y-113237491D01*
X150054248Y-113583130D01*
X149865545Y-113865545D01*
X149583130Y-114054248D01*
X149237491Y-114123000D01*
X145262509Y-114123000D01*
X144916870Y-114054248D01*
X144634455Y-113865545D01*
X144445752Y-113583130D01*
X144377000Y-113237491D01*
X144377000Y-111535750D01*
X144465000Y-111535750D01*
X144465000Y-112976310D01*
X144561673Y-113209699D01*
X144740302Y-113388327D01*
X144973691Y-113485000D01*
X145314250Y-113485000D01*
X145473000Y-113326250D01*
X145473000Y-111377000D01*
X145727000Y-111377000D01*
X145727000Y-113326250D01*
X145885750Y-113485000D01*
X146226309Y-113485000D01*
X146459698Y-113388327D01*
X146638327Y-113209699D01*
X146735000Y-112976310D01*
X146735000Y-111535750D01*
X146576250Y-111377000D01*
X145727000Y-111377000D01*
X145473000Y-111377000D01*
X144623750Y-111377000D01*
X144465000Y-111535750D01*
X144377000Y-111535750D01*
X144377000Y-109523690D01*
X144465000Y-109523690D01*
X144465000Y-110964250D01*
X144623750Y-111123000D01*
X145473000Y-111123000D01*
X145473000Y-109173750D01*
X145727000Y-109173750D01*
X145727000Y-111123000D01*
X146576250Y-111123000D01*
X146735000Y-110964250D01*
X146735000Y-109523690D01*
X146638327Y-109290301D01*
X146459698Y-109111673D01*
X146226309Y-109015000D01*
X145885750Y-109015000D01*
X145727000Y-109173750D01*
X145473000Y-109173750D01*
X145314250Y-109015000D01*
X144973691Y-109015000D01*
X144740302Y-109111673D01*
X144561673Y-109290301D01*
X144465000Y-109523690D01*
X144377000Y-109523690D01*
X144377000Y-109262509D01*
X144445752Y-108916870D01*
X144634455Y-108634455D01*
X144916870Y-108445752D01*
X145222290Y-108385000D01*
X149277710Y-108385000D01*
X149583130Y-108445752D01*
G04 #@! TO.N,Net-(J3-Pad3)*
G36*
X166583130Y-92445752D02*
X166865545Y-92634455D01*
X167054248Y-92916870D01*
X167123000Y-93262509D01*
X167123000Y-100487491D01*
X167054248Y-100833130D01*
X166865545Y-101115545D01*
X166583130Y-101304248D01*
X166237491Y-101373000D01*
X159262509Y-101373000D01*
X158916870Y-101304248D01*
X158634455Y-101115545D01*
X158445752Y-100833130D01*
X158377000Y-100487491D01*
X158377000Y-93262509D01*
X158445752Y-92916870D01*
X158634455Y-92634455D01*
X158916870Y-92445752D01*
X159262509Y-92377000D01*
X166237491Y-92377000D01*
X166583130Y-92445752D01*
X166583130Y-92445752D01*
G37*
X166583130Y-92445752D02*
X166865545Y-92634455D01*
X167054248Y-92916870D01*
X167123000Y-93262509D01*
X167123000Y-100487491D01*
X167054248Y-100833130D01*
X166865545Y-101115545D01*
X166583130Y-101304248D01*
X166237491Y-101373000D01*
X159262509Y-101373000D01*
X158916870Y-101304248D01*
X158634455Y-101115545D01*
X158445752Y-100833130D01*
X158377000Y-100487491D01*
X158377000Y-93262509D01*
X158445752Y-92916870D01*
X158634455Y-92634455D01*
X158916870Y-92445752D01*
X159262509Y-92377000D01*
X166237491Y-92377000D01*
X166583130Y-92445752D01*
G04 #@! TO.N,+24V*
G36*
X149583130Y-77609373D02*
X149865545Y-77798076D01*
X150054248Y-78080491D01*
X150123000Y-78426130D01*
X150123000Y-85401112D01*
X150054248Y-85746751D01*
X149865545Y-86029166D01*
X149583130Y-86217869D01*
X149237491Y-86286621D01*
X142262509Y-86286621D01*
X141916870Y-86217869D01*
X141634455Y-86029166D01*
X141445752Y-85746751D01*
X141377000Y-85401112D01*
X141377000Y-78426130D01*
X141445752Y-78080491D01*
X141634455Y-77798076D01*
X141916870Y-77609373D01*
X142262509Y-77540621D01*
X149237491Y-77540621D01*
X149583130Y-77609373D01*
X149583130Y-77609373D01*
G37*
X149583130Y-77609373D02*
X149865545Y-77798076D01*
X150054248Y-78080491D01*
X150123000Y-78426130D01*
X150123000Y-85401112D01*
X150054248Y-85746751D01*
X149865545Y-86029166D01*
X149583130Y-86217869D01*
X149237491Y-86286621D01*
X142262509Y-86286621D01*
X141916870Y-86217869D01*
X141634455Y-86029166D01*
X141445752Y-85746751D01*
X141377000Y-85401112D01*
X141377000Y-78426130D01*
X141445752Y-78080491D01*
X141634455Y-77798076D01*
X141916870Y-77609373D01*
X142262509Y-77540621D01*
X149237491Y-77540621D01*
X149583130Y-77609373D01*
G36*
X149083130Y-53109373D02*
X149365545Y-53298076D01*
X149554248Y-53580491D01*
X149623000Y-53926130D01*
X149623000Y-60901112D01*
X149554248Y-61246751D01*
X149365545Y-61529166D01*
X149083130Y-61717869D01*
X148737491Y-61786621D01*
X141762509Y-61786621D01*
X141416870Y-61717869D01*
X141134455Y-61529166D01*
X140968912Y-61281413D01*
X141010000Y-61074852D01*
X141010000Y-61074848D01*
X141024888Y-61000001D01*
X141010000Y-60925154D01*
X141010000Y-57844846D01*
X141024888Y-57769999D01*
X141010000Y-57695152D01*
X141010000Y-57695148D01*
X140965904Y-57473463D01*
X140877000Y-57340409D01*
X140877000Y-53926130D01*
X140945752Y-53580491D01*
X141134455Y-53298076D01*
X141416870Y-53109373D01*
X141762509Y-53040621D01*
X148737491Y-53040621D01*
X149083130Y-53109373D01*
X149083130Y-53109373D01*
G37*
X149083130Y-53109373D02*
X149365545Y-53298076D01*
X149554248Y-53580491D01*
X149623000Y-53926130D01*
X149623000Y-60901112D01*
X149554248Y-61246751D01*
X149365545Y-61529166D01*
X149083130Y-61717869D01*
X148737491Y-61786621D01*
X141762509Y-61786621D01*
X141416870Y-61717869D01*
X141134455Y-61529166D01*
X140968912Y-61281413D01*
X141010000Y-61074852D01*
X141010000Y-61074848D01*
X141024888Y-61000001D01*
X141010000Y-60925154D01*
X141010000Y-57844846D01*
X141024888Y-57769999D01*
X141010000Y-57695152D01*
X141010000Y-57695148D01*
X140965904Y-57473463D01*
X140877000Y-57340409D01*
X140877000Y-53926130D01*
X140945752Y-53580491D01*
X141134455Y-53298076D01*
X141416870Y-53109373D01*
X141762509Y-53040621D01*
X148737491Y-53040621D01*
X149083130Y-53109373D01*
G04 #@! TO.N,/AOUT2*
G36*
X166583130Y-77695752D02*
X166865545Y-77884455D01*
X167054248Y-78166870D01*
X167123000Y-78512509D01*
X167123000Y-85737491D01*
X167054248Y-86083130D01*
X166865545Y-86365545D01*
X166583130Y-86554248D01*
X166237491Y-86623000D01*
X159262509Y-86623000D01*
X158916870Y-86554248D01*
X158634455Y-86365545D01*
X158445752Y-86083130D01*
X158377000Y-85737491D01*
X158377000Y-78512509D01*
X158445752Y-78166870D01*
X158634455Y-77884455D01*
X158916870Y-77695752D01*
X159262509Y-77627000D01*
X166237491Y-77627000D01*
X166583130Y-77695752D01*
X166583130Y-77695752D01*
G37*
X166583130Y-77695752D02*
X166865545Y-77884455D01*
X167054248Y-78166870D01*
X167123000Y-78512509D01*
X167123000Y-85737491D01*
X167054248Y-86083130D01*
X166865545Y-86365545D01*
X166583130Y-86554248D01*
X166237491Y-86623000D01*
X159262509Y-86623000D01*
X158916870Y-86554248D01*
X158634455Y-86365545D01*
X158445752Y-86083130D01*
X158377000Y-85737491D01*
X158377000Y-78512509D01*
X158445752Y-78166870D01*
X158634455Y-77884455D01*
X158916870Y-77695752D01*
X159262509Y-77627000D01*
X166237491Y-77627000D01*
X166583130Y-77695752D01*
G04 #@! TO.N,/AOUT1*
G36*
X166583130Y-53195752D02*
X166865545Y-53384455D01*
X167054248Y-53666870D01*
X167123000Y-54012509D01*
X167123000Y-61237491D01*
X167054248Y-61583130D01*
X166865545Y-61865545D01*
X166583130Y-62054248D01*
X166237491Y-62123000D01*
X159262509Y-62123000D01*
X158916870Y-62054248D01*
X158634455Y-61865545D01*
X158445752Y-61583130D01*
X158377000Y-61237491D01*
X158377000Y-54012509D01*
X158445752Y-53666870D01*
X158634455Y-53384455D01*
X158916870Y-53195752D01*
X159262509Y-53127000D01*
X166237491Y-53127000D01*
X166583130Y-53195752D01*
X166583130Y-53195752D01*
G37*
X166583130Y-53195752D02*
X166865545Y-53384455D01*
X167054248Y-53666870D01*
X167123000Y-54012509D01*
X167123000Y-61237491D01*
X167054248Y-61583130D01*
X166865545Y-61865545D01*
X166583130Y-62054248D01*
X166237491Y-62123000D01*
X159262509Y-62123000D01*
X158916870Y-62054248D01*
X158634455Y-61865545D01*
X158445752Y-61583130D01*
X158377000Y-61237491D01*
X158377000Y-54012509D01*
X158445752Y-53666870D01*
X158634455Y-53384455D01*
X158916870Y-53195752D01*
X159262509Y-53127000D01*
X166237491Y-53127000D01*
X166583130Y-53195752D01*
G04 #@! TD*
M02*
