G04 #@! TF.GenerationSoftware,KiCad,Pcbnew,5.0.2-bee76a0~70~ubuntu18.04.1*
G04 #@! TF.CreationDate,2019-02-27T20:57:34-05:00*
G04 #@! TF.ProjectId,Stepper Motor Prototype,53746570-7065-4722-904d-6f746f722050,rev?*
G04 #@! TF.SameCoordinates,Original*
G04 #@! TF.FileFunction,Soldermask,Top*
G04 #@! TF.FilePolarity,Negative*
%FSLAX46Y46*%
G04 Gerber Fmt 4.6, Leading zero omitted, Abs format (unit mm)*
G04 Created by KiCad (PCBNEW 5.0.2-bee76a0~70~ubuntu18.04.1) date Wed 27 Feb 2019 08:57:34 PM EST*
%MOMM*%
%LPD*%
G01*
G04 APERTURE LIST*
%ADD10C,0.100000*%
G04 APERTURE END LIST*
D10*
G36*
X164550000Y-124400000D02*
X158150000Y-124400000D01*
X158150000Y-118600000D01*
X164550000Y-118600000D01*
X164550000Y-124400000D01*
X164550000Y-124400000D01*
G37*
G36*
X148050000Y-124400000D02*
X141650000Y-124400000D01*
X141650000Y-118600000D01*
X148050000Y-118600000D01*
X148050000Y-124400000D01*
X148050000Y-124400000D01*
G37*
G36*
X139650000Y-124380000D02*
X137450000Y-124380000D01*
X137450000Y-123180000D01*
X139650000Y-123180000D01*
X139650000Y-124380000D01*
X139650000Y-124380000D01*
G37*
G36*
X156150000Y-124380000D02*
X153950000Y-124380000D01*
X153950000Y-123180000D01*
X156150000Y-123180000D01*
X156150000Y-124380000D01*
X156150000Y-124380000D01*
G37*
G36*
X173050000Y-123800000D02*
X171450000Y-123800000D01*
X171450000Y-122200000D01*
X173050000Y-122200000D01*
X173050000Y-123800000D01*
X173050000Y-123800000D01*
G37*
G36*
X175983352Y-122230743D02*
X176128941Y-122291048D01*
X176259973Y-122378601D01*
X176371399Y-122490027D01*
X176458952Y-122621059D01*
X176519257Y-122766648D01*
X176550000Y-122921205D01*
X176550000Y-123078795D01*
X176519257Y-123233352D01*
X176458952Y-123378941D01*
X176371399Y-123509973D01*
X176259973Y-123621399D01*
X176128941Y-123708952D01*
X175983352Y-123769257D01*
X175828795Y-123800000D01*
X175671205Y-123800000D01*
X175516648Y-123769257D01*
X175371059Y-123708952D01*
X175240027Y-123621399D01*
X175128601Y-123509973D01*
X175041048Y-123378941D01*
X174980743Y-123233352D01*
X174950000Y-123078795D01*
X174950000Y-122921205D01*
X174980743Y-122766648D01*
X175041048Y-122621059D01*
X175128601Y-122490027D01*
X175240027Y-122378601D01*
X175371059Y-122291048D01*
X175516648Y-122230743D01*
X175671205Y-122200000D01*
X175828795Y-122200000D01*
X175983352Y-122230743D01*
X175983352Y-122230743D01*
G37*
G36*
X126273126Y-120376900D02*
X126408365Y-120403801D01*
X126663149Y-120509336D01*
X126889397Y-120660511D01*
X126892451Y-120662551D01*
X127087449Y-120857549D01*
X127087451Y-120857552D01*
X127240664Y-121086851D01*
X127346199Y-121341635D01*
X127400000Y-121612112D01*
X127400000Y-121887888D01*
X127346199Y-122158365D01*
X127240664Y-122413149D01*
X127101743Y-122621058D01*
X127087449Y-122642451D01*
X126892451Y-122837449D01*
X126892448Y-122837451D01*
X126663149Y-122990664D01*
X126408365Y-123096199D01*
X126273126Y-123123100D01*
X126137889Y-123150000D01*
X125862111Y-123150000D01*
X125726874Y-123123100D01*
X125591635Y-123096199D01*
X125336851Y-122990664D01*
X125107552Y-122837451D01*
X125107549Y-122837449D01*
X124912551Y-122642451D01*
X124898257Y-122621058D01*
X124759336Y-122413149D01*
X124653801Y-122158365D01*
X124600000Y-121887888D01*
X124600000Y-121612112D01*
X124653801Y-121341635D01*
X124759336Y-121086851D01*
X124912549Y-120857552D01*
X124912551Y-120857549D01*
X125107549Y-120662551D01*
X125110603Y-120660511D01*
X125336851Y-120509336D01*
X125591635Y-120403801D01*
X125726874Y-120376900D01*
X125862111Y-120350000D01*
X126137889Y-120350000D01*
X126273126Y-120376900D01*
X126273126Y-120376900D01*
G37*
G36*
X156150000Y-119820000D02*
X153950000Y-119820000D01*
X153950000Y-118620000D01*
X156150000Y-118620000D01*
X156150000Y-119820000D01*
X156150000Y-119820000D01*
G37*
G36*
X139650000Y-119820000D02*
X137450000Y-119820000D01*
X137450000Y-118620000D01*
X139650000Y-118620000D01*
X139650000Y-119820000D01*
X139650000Y-119820000D01*
G37*
G36*
X176773127Y-113626901D02*
X176908365Y-113653801D01*
X177163149Y-113759336D01*
X177389397Y-113910511D01*
X177392451Y-113912551D01*
X177587449Y-114107549D01*
X177740665Y-114336853D01*
X177846199Y-114591636D01*
X177900000Y-114862111D01*
X177900000Y-115137889D01*
X177846199Y-115408364D01*
X177740665Y-115663147D01*
X177587449Y-115892451D01*
X177392451Y-116087449D01*
X177392448Y-116087451D01*
X177163149Y-116240664D01*
X176908365Y-116346199D01*
X176773127Y-116373099D01*
X176637889Y-116400000D01*
X176362111Y-116400000D01*
X176226873Y-116373099D01*
X176091635Y-116346199D01*
X175836851Y-116240664D01*
X175607552Y-116087451D01*
X175607549Y-116087449D01*
X175412551Y-115892451D01*
X175259335Y-115663147D01*
X175153801Y-115408364D01*
X175100000Y-115137889D01*
X175100000Y-114862111D01*
X175153801Y-114591636D01*
X175259335Y-114336853D01*
X175412551Y-114107549D01*
X175607549Y-113912551D01*
X175610603Y-113910511D01*
X175836851Y-113759336D01*
X176091635Y-113653801D01*
X176226873Y-113626901D01*
X176362111Y-113600000D01*
X176637889Y-113600000D01*
X176773127Y-113626901D01*
X176773127Y-113626901D01*
G37*
G36*
X146100000Y-112850000D02*
X145100000Y-112850000D01*
X145100000Y-109650000D01*
X146100000Y-109650000D01*
X146100000Y-112850000D01*
X146100000Y-112850000D01*
G37*
G36*
X139900000Y-112850000D02*
X138900000Y-112850000D01*
X138900000Y-109650000D01*
X139900000Y-109650000D01*
X139900000Y-112850000D01*
X139900000Y-112850000D01*
G37*
G36*
X116800000Y-110500000D02*
X115700000Y-110500000D01*
X115700000Y-102950000D01*
X116800000Y-102950000D01*
X116800000Y-110500000D01*
X116800000Y-110500000D01*
G37*
G36*
X122500000Y-110500000D02*
X121400000Y-110500000D01*
X121400000Y-102950000D01*
X122500000Y-102950000D01*
X122500000Y-110500000D01*
X122500000Y-110500000D01*
G37*
G36*
X165233352Y-108480743D02*
X165378941Y-108541048D01*
X165509973Y-108628601D01*
X165621399Y-108740027D01*
X165708952Y-108871059D01*
X165769257Y-109016648D01*
X165800000Y-109171205D01*
X165800000Y-109328795D01*
X165769257Y-109483352D01*
X165708952Y-109628941D01*
X165621399Y-109759973D01*
X165509973Y-109871399D01*
X165378941Y-109958952D01*
X165233352Y-110019257D01*
X165078795Y-110050000D01*
X164921205Y-110050000D01*
X164766648Y-110019257D01*
X164621059Y-109958952D01*
X164490027Y-109871399D01*
X164378601Y-109759973D01*
X164291048Y-109628941D01*
X164230743Y-109483352D01*
X164200000Y-109328795D01*
X164200000Y-109171205D01*
X164230743Y-109016648D01*
X164291048Y-108871059D01*
X164378601Y-108740027D01*
X164490027Y-108628601D01*
X164621059Y-108541048D01*
X164766648Y-108480743D01*
X164921205Y-108450000D01*
X165078795Y-108450000D01*
X165233352Y-108480743D01*
X165233352Y-108480743D01*
G37*
G36*
X162300000Y-110050000D02*
X160700000Y-110050000D01*
X160700000Y-108450000D01*
X162300000Y-108450000D01*
X162300000Y-110050000D01*
X162300000Y-110050000D01*
G37*
G36*
X129700000Y-104550000D02*
X128800000Y-104550000D01*
X128800000Y-103350000D01*
X129700000Y-103350000D01*
X129700000Y-104550000D01*
X129700000Y-104550000D01*
G37*
G36*
X127700000Y-104550000D02*
X126800000Y-104550000D01*
X126800000Y-103350000D01*
X127700000Y-103350000D01*
X127700000Y-104550000D01*
X127700000Y-104550000D01*
G37*
G36*
X131700000Y-104550000D02*
X130800000Y-104550000D01*
X130800000Y-103350000D01*
X131700000Y-103350000D01*
X131700000Y-104550000D01*
X131700000Y-104550000D01*
G37*
G36*
X113700000Y-104450000D02*
X112800000Y-104450000D01*
X112800000Y-103250000D01*
X113700000Y-103250000D01*
X113700000Y-104450000D01*
X113700000Y-104450000D01*
G37*
G36*
X131700000Y-102350000D02*
X130800000Y-102350000D01*
X130800000Y-101150000D01*
X131700000Y-101150000D01*
X131700000Y-102350000D01*
X131700000Y-102350000D01*
G37*
G36*
X127700000Y-102350000D02*
X126800000Y-102350000D01*
X126800000Y-101150000D01*
X127700000Y-101150000D01*
X127700000Y-102350000D01*
X127700000Y-102350000D01*
G37*
G36*
X129700000Y-102350000D02*
X128800000Y-102350000D01*
X128800000Y-101150000D01*
X129700000Y-101150000D01*
X129700000Y-102350000D01*
X129700000Y-102350000D01*
G37*
G36*
X113700000Y-102250000D02*
X112800000Y-102250000D01*
X112800000Y-101050000D01*
X113700000Y-101050000D01*
X113700000Y-102250000D01*
X113700000Y-102250000D01*
G37*
G36*
X118000000Y-101625000D02*
X116800000Y-101625000D01*
X116800000Y-100875000D01*
X118000000Y-100875000D01*
X118000000Y-101625000D01*
X118000000Y-101625000D01*
G37*
G36*
X116100000Y-101625000D02*
X114900000Y-101625000D01*
X114900000Y-100875000D01*
X116100000Y-100875000D01*
X116100000Y-101625000D01*
X116100000Y-101625000D01*
G37*
G36*
X123600000Y-101625000D02*
X122400000Y-101625000D01*
X122400000Y-100875000D01*
X123600000Y-100875000D01*
X123600000Y-101625000D01*
X123600000Y-101625000D01*
G37*
G36*
X121700000Y-101625000D02*
X120500000Y-101625000D01*
X120500000Y-100875000D01*
X121700000Y-100875000D01*
X121700000Y-101625000D01*
X121700000Y-101625000D01*
G37*
G36*
X173540935Y-96978429D02*
X173637534Y-96997644D01*
X173910517Y-97110717D01*
X174152920Y-97272687D01*
X174156197Y-97274876D01*
X174365124Y-97483803D01*
X174529284Y-97729485D01*
X174642356Y-98002467D01*
X174700000Y-98292261D01*
X174700000Y-98587739D01*
X174642356Y-98877533D01*
X174529284Y-99150515D01*
X174365124Y-99396197D01*
X174156197Y-99605124D01*
X174156194Y-99605126D01*
X173910517Y-99769283D01*
X173637534Y-99882356D01*
X173548831Y-99900000D01*
X173347739Y-99940000D01*
X173052261Y-99940000D01*
X172851169Y-99900000D01*
X172762466Y-99882356D01*
X172489483Y-99769283D01*
X172243806Y-99605126D01*
X172243803Y-99605124D01*
X172034876Y-99396197D01*
X171870716Y-99150515D01*
X171757644Y-98877533D01*
X171700000Y-98587739D01*
X171700000Y-98292261D01*
X171757644Y-98002467D01*
X171870716Y-97729485D01*
X172034876Y-97483803D01*
X172243803Y-97274876D01*
X172247080Y-97272687D01*
X172489483Y-97110717D01*
X172762466Y-96997644D01*
X172859065Y-96978429D01*
X173052261Y-96940000D01*
X173347739Y-96940000D01*
X173540935Y-96978429D01*
X173540935Y-96978429D01*
G37*
G36*
X148050000Y-99900000D02*
X141650000Y-99900000D01*
X141650000Y-94100000D01*
X148050000Y-94100000D01*
X148050000Y-99900000D01*
X148050000Y-99900000D01*
G37*
G36*
X165050000Y-99900000D02*
X158650000Y-99900000D01*
X158650000Y-94100000D01*
X165050000Y-94100000D01*
X165050000Y-99900000D01*
X165050000Y-99900000D01*
G37*
G36*
X139650000Y-99880000D02*
X137450000Y-99880000D01*
X137450000Y-98680000D01*
X139650000Y-98680000D01*
X139650000Y-99880000D01*
X139650000Y-99880000D01*
G37*
G36*
X156650000Y-99880000D02*
X154450000Y-99880000D01*
X154450000Y-98680000D01*
X156650000Y-98680000D01*
X156650000Y-99880000D01*
X156650000Y-99880000D01*
G37*
G36*
X113500000Y-97500000D02*
X112500000Y-97500000D01*
X112500000Y-96500000D01*
X113500000Y-96500000D01*
X113500000Y-97500000D01*
X113500000Y-97500000D01*
G37*
G36*
X113098015Y-95237234D02*
X113192268Y-95265825D01*
X113238697Y-95290643D01*
X113279129Y-95312254D01*
X113355264Y-95374736D01*
X113417745Y-95450870D01*
X113464175Y-95537732D01*
X113492766Y-95631985D01*
X113502419Y-95730000D01*
X113492766Y-95828015D01*
X113464175Y-95922268D01*
X113439357Y-95968697D01*
X113417746Y-96009129D01*
X113355264Y-96085264D01*
X113279129Y-96147746D01*
X113238697Y-96169357D01*
X113192268Y-96194175D01*
X113098015Y-96222766D01*
X113024564Y-96230000D01*
X112975436Y-96230000D01*
X112901985Y-96222766D01*
X112807732Y-96194175D01*
X112761303Y-96169357D01*
X112720871Y-96147746D01*
X112644736Y-96085264D01*
X112582254Y-96009129D01*
X112560643Y-95968697D01*
X112535825Y-95922268D01*
X112507234Y-95828015D01*
X112497581Y-95730000D01*
X112507234Y-95631985D01*
X112535825Y-95537732D01*
X112582255Y-95450870D01*
X112644736Y-95374736D01*
X112720871Y-95312254D01*
X112761303Y-95290643D01*
X112807732Y-95265825D01*
X112901985Y-95237234D01*
X112975436Y-95230000D01*
X113024564Y-95230000D01*
X113098015Y-95237234D01*
X113098015Y-95237234D01*
G37*
G36*
X139650000Y-95320000D02*
X137450000Y-95320000D01*
X137450000Y-94120000D01*
X139650000Y-94120000D01*
X139650000Y-95320000D01*
X139650000Y-95320000D01*
G37*
G36*
X156650000Y-95320000D02*
X154450000Y-95320000D01*
X154450000Y-94120000D01*
X156650000Y-94120000D01*
X156650000Y-95320000D01*
X156650000Y-95320000D01*
G37*
G36*
X113098015Y-93967234D02*
X113192268Y-93995825D01*
X113238697Y-94020643D01*
X113279129Y-94042254D01*
X113279131Y-94042255D01*
X113279130Y-94042255D01*
X113355264Y-94104736D01*
X113417745Y-94180870D01*
X113464175Y-94267732D01*
X113492766Y-94361985D01*
X113502419Y-94460000D01*
X113492766Y-94558015D01*
X113464175Y-94652268D01*
X113444389Y-94689284D01*
X113417746Y-94739129D01*
X113355264Y-94815264D01*
X113279129Y-94877746D01*
X113238697Y-94899357D01*
X113192268Y-94924175D01*
X113098015Y-94952766D01*
X113024564Y-94960000D01*
X112975436Y-94960000D01*
X112901985Y-94952766D01*
X112807732Y-94924175D01*
X112761303Y-94899357D01*
X112720871Y-94877746D01*
X112644736Y-94815264D01*
X112582254Y-94739129D01*
X112555611Y-94689284D01*
X112535825Y-94652268D01*
X112507234Y-94558015D01*
X112497581Y-94460000D01*
X112507234Y-94361985D01*
X112535825Y-94267732D01*
X112582255Y-94180870D01*
X112644736Y-94104736D01*
X112720870Y-94042255D01*
X112720869Y-94042255D01*
X112720871Y-94042254D01*
X112761303Y-94020643D01*
X112807732Y-93995825D01*
X112901985Y-93967234D01*
X112975436Y-93960000D01*
X113024564Y-93960000D01*
X113098015Y-93967234D01*
X113098015Y-93967234D01*
G37*
G36*
X173540935Y-91898429D02*
X173637534Y-91917644D01*
X173830560Y-91997598D01*
X173879857Y-92018017D01*
X173910517Y-92030717D01*
X174032566Y-92112268D01*
X174156197Y-92194876D01*
X174365124Y-92403803D01*
X174529284Y-92649485D01*
X174560905Y-92725825D01*
X174637553Y-92910870D01*
X174642356Y-92922467D01*
X174700000Y-93212261D01*
X174700000Y-93507739D01*
X174680107Y-93607745D01*
X174642356Y-93797534D01*
X174572064Y-93967234D01*
X174529284Y-94070515D01*
X174365124Y-94316197D01*
X174156197Y-94525124D01*
X174156194Y-94525126D01*
X173910517Y-94689283D01*
X173637534Y-94802356D01*
X173572641Y-94815264D01*
X173347739Y-94860000D01*
X173052261Y-94860000D01*
X172827359Y-94815264D01*
X172762466Y-94802356D01*
X172489483Y-94689283D01*
X172243806Y-94525126D01*
X172243803Y-94525124D01*
X172034876Y-94316197D01*
X171870716Y-94070515D01*
X171827936Y-93967234D01*
X171757644Y-93797534D01*
X171719893Y-93607745D01*
X171700000Y-93507739D01*
X171700000Y-93212261D01*
X171757644Y-92922467D01*
X171762448Y-92910870D01*
X171839095Y-92725825D01*
X171870716Y-92649485D01*
X172034876Y-92403803D01*
X172243803Y-92194876D01*
X172367434Y-92112268D01*
X172489483Y-92030717D01*
X172520144Y-92018017D01*
X172569440Y-91997598D01*
X172762466Y-91917644D01*
X172859065Y-91898429D01*
X173052261Y-91860000D01*
X173347739Y-91860000D01*
X173540935Y-91898429D01*
X173540935Y-91898429D01*
G37*
G36*
X113098015Y-92697234D02*
X113192268Y-92725825D01*
X113238697Y-92750643D01*
X113279129Y-92772254D01*
X113355264Y-92834736D01*
X113417746Y-92910871D01*
X113423944Y-92922467D01*
X113464175Y-92997732D01*
X113492766Y-93091985D01*
X113502419Y-93190000D01*
X113492766Y-93288015D01*
X113464175Y-93382268D01*
X113439357Y-93428697D01*
X113417746Y-93469129D01*
X113355264Y-93545264D01*
X113279129Y-93607746D01*
X113238697Y-93629357D01*
X113192268Y-93654175D01*
X113098015Y-93682766D01*
X113024564Y-93690000D01*
X112975436Y-93690000D01*
X112901985Y-93682766D01*
X112807732Y-93654175D01*
X112761303Y-93629357D01*
X112720871Y-93607746D01*
X112644736Y-93545264D01*
X112582254Y-93469129D01*
X112560643Y-93428697D01*
X112535825Y-93382268D01*
X112507234Y-93288015D01*
X112497581Y-93190000D01*
X112507234Y-93091985D01*
X112535825Y-92997732D01*
X112576056Y-92922467D01*
X112582254Y-92910871D01*
X112644736Y-92834736D01*
X112720871Y-92772254D01*
X112761303Y-92750643D01*
X112807732Y-92725825D01*
X112901985Y-92697234D01*
X112975436Y-92690000D01*
X113024564Y-92690000D01*
X113098015Y-92697234D01*
X113098015Y-92697234D01*
G37*
G36*
X132250000Y-93125000D02*
X131050000Y-93125000D01*
X131050000Y-92375000D01*
X132250000Y-92375000D01*
X132250000Y-93125000D01*
X132250000Y-93125000D01*
G37*
G36*
X130350000Y-93125000D02*
X129150000Y-93125000D01*
X129150000Y-92375000D01*
X130350000Y-92375000D01*
X130350000Y-93125000D01*
X130350000Y-93125000D01*
G37*
G36*
X113098015Y-91427234D02*
X113192268Y-91455825D01*
X113238697Y-91480643D01*
X113279129Y-91502254D01*
X113279131Y-91502255D01*
X113279130Y-91502255D01*
X113355264Y-91564736D01*
X113417745Y-91640870D01*
X113464175Y-91727732D01*
X113492766Y-91821985D01*
X113502419Y-91920000D01*
X113492766Y-92018015D01*
X113464175Y-92112268D01*
X113439357Y-92158697D01*
X113417746Y-92199129D01*
X113355264Y-92275264D01*
X113279129Y-92337746D01*
X113238697Y-92359357D01*
X113192268Y-92384175D01*
X113098015Y-92412766D01*
X113024564Y-92420000D01*
X112975436Y-92420000D01*
X112901985Y-92412766D01*
X112807732Y-92384175D01*
X112761303Y-92359357D01*
X112720871Y-92337746D01*
X112644736Y-92275264D01*
X112582254Y-92199129D01*
X112560643Y-92158697D01*
X112535825Y-92112268D01*
X112507234Y-92018015D01*
X112497581Y-91920000D01*
X112507234Y-91821985D01*
X112535825Y-91727732D01*
X112582255Y-91640870D01*
X112644736Y-91564736D01*
X112720870Y-91502255D01*
X112720869Y-91502255D01*
X112720871Y-91502254D01*
X112761303Y-91480643D01*
X112807732Y-91455825D01*
X112901985Y-91427234D01*
X112975436Y-91420000D01*
X113024564Y-91420000D01*
X113098015Y-91427234D01*
X113098015Y-91427234D01*
G37*
G36*
X113098015Y-90157234D02*
X113192268Y-90185825D01*
X113238697Y-90210643D01*
X113279129Y-90232254D01*
X113279131Y-90232255D01*
X113279130Y-90232255D01*
X113355264Y-90294736D01*
X113417745Y-90370870D01*
X113464175Y-90457732D01*
X113492766Y-90551985D01*
X113502419Y-90650000D01*
X113492766Y-90748015D01*
X113464175Y-90842268D01*
X113439357Y-90888697D01*
X113417746Y-90929129D01*
X113355264Y-91005264D01*
X113279129Y-91067746D01*
X113238697Y-91089357D01*
X113192268Y-91114175D01*
X113098015Y-91142766D01*
X113024564Y-91150000D01*
X112975436Y-91150000D01*
X112901985Y-91142766D01*
X112807732Y-91114175D01*
X112761303Y-91089357D01*
X112720871Y-91067746D01*
X112644736Y-91005264D01*
X112582254Y-90929129D01*
X112560643Y-90888697D01*
X112535825Y-90842268D01*
X112507234Y-90748015D01*
X112497581Y-90650000D01*
X112507234Y-90551985D01*
X112535825Y-90457732D01*
X112582255Y-90370870D01*
X112644736Y-90294736D01*
X112720870Y-90232255D01*
X112720869Y-90232255D01*
X112720871Y-90232254D01*
X112761303Y-90210643D01*
X112807732Y-90185825D01*
X112901985Y-90157234D01*
X112975436Y-90150000D01*
X113024564Y-90150000D01*
X113098015Y-90157234D01*
X113098015Y-90157234D01*
G37*
G36*
X130100000Y-90842500D02*
X129000000Y-90842500D01*
X129000000Y-81557500D01*
X130100000Y-81557500D01*
X130100000Y-90842500D01*
X130100000Y-90842500D01*
G37*
G36*
X124400000Y-90842500D02*
X123300000Y-90842500D01*
X123300000Y-81557500D01*
X124400000Y-81557500D01*
X124400000Y-90842500D01*
X124400000Y-90842500D01*
G37*
G36*
X117875000Y-90350000D02*
X117125000Y-90350000D01*
X117125000Y-89150000D01*
X117875000Y-89150000D01*
X117875000Y-90350000D01*
X117875000Y-90350000D01*
G37*
G36*
X119875000Y-90350000D02*
X119125000Y-90350000D01*
X119125000Y-89150000D01*
X119875000Y-89150000D01*
X119875000Y-90350000D01*
X119875000Y-90350000D01*
G37*
G36*
X113098015Y-88887234D02*
X113192268Y-88915825D01*
X113238697Y-88940643D01*
X113279129Y-88962254D01*
X113355264Y-89024736D01*
X113382153Y-89057500D01*
X113417745Y-89100870D01*
X113464175Y-89187732D01*
X113492766Y-89281985D01*
X113502419Y-89380000D01*
X113492766Y-89478015D01*
X113464175Y-89572268D01*
X113444389Y-89609284D01*
X113417746Y-89659129D01*
X113355264Y-89735264D01*
X113279129Y-89797746D01*
X113238697Y-89819357D01*
X113192268Y-89844175D01*
X113098015Y-89872766D01*
X113024564Y-89880000D01*
X112975436Y-89880000D01*
X112901985Y-89872766D01*
X112807732Y-89844175D01*
X112761303Y-89819357D01*
X112720871Y-89797746D01*
X112644736Y-89735264D01*
X112582254Y-89659129D01*
X112555611Y-89609284D01*
X112535825Y-89572268D01*
X112507234Y-89478015D01*
X112497581Y-89380000D01*
X112507234Y-89281985D01*
X112535825Y-89187732D01*
X112582255Y-89100870D01*
X112617848Y-89057500D01*
X112644736Y-89024736D01*
X112720871Y-88962254D01*
X112761303Y-88940643D01*
X112807732Y-88915825D01*
X112901985Y-88887234D01*
X112975436Y-88880000D01*
X113024564Y-88880000D01*
X113098015Y-88887234D01*
X113098015Y-88887234D01*
G37*
G36*
X173540935Y-86818429D02*
X173637534Y-86837644D01*
X173649257Y-86842500D01*
X173879857Y-86938017D01*
X173910517Y-86950717D01*
X174032566Y-87032268D01*
X174156197Y-87114876D01*
X174365124Y-87323803D01*
X174529284Y-87569485D01*
X174560905Y-87645825D01*
X174637553Y-87830870D01*
X174642356Y-87842467D01*
X174700000Y-88132261D01*
X174700000Y-88427739D01*
X174680107Y-88527745D01*
X174642356Y-88717534D01*
X174572064Y-88887234D01*
X174529284Y-88990515D01*
X174365124Y-89236197D01*
X174156197Y-89445124D01*
X174156194Y-89445126D01*
X173910517Y-89609283D01*
X173637534Y-89722356D01*
X173572641Y-89735264D01*
X173347739Y-89780000D01*
X173052261Y-89780000D01*
X172827359Y-89735264D01*
X172762466Y-89722356D01*
X172489483Y-89609283D01*
X172243806Y-89445126D01*
X172243803Y-89445124D01*
X172034876Y-89236197D01*
X171870716Y-88990515D01*
X171827936Y-88887234D01*
X171757644Y-88717534D01*
X171719893Y-88527745D01*
X171700000Y-88427739D01*
X171700000Y-88132261D01*
X171757644Y-87842467D01*
X171762448Y-87830870D01*
X171839095Y-87645825D01*
X171870716Y-87569485D01*
X172034876Y-87323803D01*
X172243803Y-87114876D01*
X172367434Y-87032268D01*
X172489483Y-86950717D01*
X172520144Y-86938017D01*
X172750743Y-86842500D01*
X172762466Y-86837644D01*
X172859065Y-86818429D01*
X173052261Y-86780000D01*
X173347739Y-86780000D01*
X173540935Y-86818429D01*
X173540935Y-86818429D01*
G37*
G36*
X113098015Y-87617234D02*
X113192268Y-87645825D01*
X113238697Y-87670643D01*
X113279129Y-87692254D01*
X113355264Y-87754736D01*
X113417746Y-87830871D01*
X113423944Y-87842467D01*
X113464175Y-87917732D01*
X113492766Y-88011985D01*
X113502419Y-88110000D01*
X113492766Y-88208015D01*
X113464175Y-88302268D01*
X113442670Y-88342500D01*
X113417746Y-88389129D01*
X113355264Y-88465264D01*
X113279129Y-88527746D01*
X113238697Y-88549357D01*
X113192268Y-88574175D01*
X113098015Y-88602766D01*
X113024564Y-88610000D01*
X112975436Y-88610000D01*
X112901985Y-88602766D01*
X112807732Y-88574175D01*
X112761303Y-88549357D01*
X112720871Y-88527746D01*
X112644736Y-88465264D01*
X112582254Y-88389129D01*
X112557330Y-88342500D01*
X112535825Y-88302268D01*
X112507234Y-88208015D01*
X112497581Y-88110000D01*
X112507234Y-88011985D01*
X112535825Y-87917732D01*
X112576056Y-87842467D01*
X112582254Y-87830871D01*
X112644736Y-87754736D01*
X112720871Y-87692254D01*
X112761303Y-87670643D01*
X112807732Y-87645825D01*
X112901985Y-87617234D01*
X112975436Y-87610000D01*
X113024564Y-87610000D01*
X113098015Y-87617234D01*
X113098015Y-87617234D01*
G37*
G36*
X117875000Y-88450000D02*
X117125000Y-88450000D01*
X117125000Y-87250000D01*
X117875000Y-87250000D01*
X117875000Y-88450000D01*
X117875000Y-88450000D01*
G37*
G36*
X119875000Y-88450000D02*
X119125000Y-88450000D01*
X119125000Y-87250000D01*
X119875000Y-87250000D01*
X119875000Y-88450000D01*
X119875000Y-88450000D01*
G37*
G36*
X128150000Y-88440000D02*
X125250000Y-88440000D01*
X125250000Y-83960000D01*
X128150000Y-83960000D01*
X128150000Y-88440000D01*
X128150000Y-88440000D01*
G37*
G36*
X113098015Y-86347234D02*
X113192268Y-86375825D01*
X113238697Y-86400643D01*
X113279129Y-86422254D01*
X113355264Y-86484736D01*
X113414980Y-86557500D01*
X113417745Y-86560870D01*
X113464175Y-86647732D01*
X113492766Y-86741985D01*
X113502419Y-86840000D01*
X113492766Y-86938015D01*
X113464175Y-87032268D01*
X113450688Y-87057500D01*
X113417746Y-87119129D01*
X113355264Y-87195264D01*
X113279129Y-87257746D01*
X113238697Y-87279357D01*
X113192268Y-87304175D01*
X113098015Y-87332766D01*
X113024564Y-87340000D01*
X112975436Y-87340000D01*
X112901985Y-87332766D01*
X112807732Y-87304175D01*
X112761303Y-87279357D01*
X112720871Y-87257746D01*
X112644736Y-87195264D01*
X112582254Y-87119129D01*
X112549312Y-87057500D01*
X112535825Y-87032268D01*
X112507234Y-86938015D01*
X112497581Y-86840000D01*
X112507234Y-86741985D01*
X112535825Y-86647732D01*
X112582255Y-86560870D01*
X112585021Y-86557500D01*
X112644736Y-86484736D01*
X112720871Y-86422254D01*
X112761303Y-86400643D01*
X112807732Y-86375825D01*
X112901985Y-86347234D01*
X112975436Y-86340000D01*
X113024564Y-86340000D01*
X113098015Y-86347234D01*
X113098015Y-86347234D01*
G37*
G36*
X117875000Y-86600000D02*
X117125000Y-86600000D01*
X117125000Y-85400000D01*
X117875000Y-85400000D01*
X117875000Y-86600000D01*
X117875000Y-86600000D01*
G37*
G36*
X119875000Y-86550000D02*
X119125000Y-86550000D01*
X119125000Y-85350000D01*
X119875000Y-85350000D01*
X119875000Y-86550000D01*
X119875000Y-86550000D01*
G37*
G36*
X113098015Y-85077234D02*
X113192268Y-85105825D01*
X113238697Y-85130643D01*
X113279129Y-85152254D01*
X113279131Y-85152255D01*
X113279130Y-85152255D01*
X113355264Y-85214736D01*
X113417745Y-85290870D01*
X113464175Y-85377732D01*
X113492766Y-85471985D01*
X113502419Y-85570000D01*
X113492766Y-85668015D01*
X113464175Y-85762268D01*
X113439357Y-85808697D01*
X113417746Y-85849129D01*
X113355264Y-85925264D01*
X113279129Y-85987746D01*
X113238697Y-86009357D01*
X113192268Y-86034175D01*
X113098015Y-86062766D01*
X113024564Y-86070000D01*
X112975436Y-86070000D01*
X112901985Y-86062766D01*
X112807732Y-86034175D01*
X112761303Y-86009357D01*
X112720871Y-85987746D01*
X112644736Y-85925264D01*
X112582254Y-85849129D01*
X112560643Y-85808697D01*
X112535825Y-85762268D01*
X112507234Y-85668015D01*
X112497581Y-85570000D01*
X112507234Y-85471985D01*
X112535825Y-85377732D01*
X112582255Y-85290870D01*
X112644736Y-85214736D01*
X112720870Y-85152255D01*
X112720869Y-85152255D01*
X112720871Y-85152254D01*
X112761303Y-85130643D01*
X112807732Y-85105825D01*
X112901985Y-85077234D01*
X112975436Y-85070000D01*
X113024564Y-85070000D01*
X113098015Y-85077234D01*
X113098015Y-85077234D01*
G37*
G36*
X165050000Y-84900000D02*
X158650000Y-84900000D01*
X158650000Y-79100000D01*
X165050000Y-79100000D01*
X165050000Y-84900000D01*
X165050000Y-84900000D01*
G37*
G36*
X148050000Y-84900000D02*
X141650000Y-84900000D01*
X141650000Y-79100000D01*
X148050000Y-79100000D01*
X148050000Y-84900000D01*
X148050000Y-84900000D01*
G37*
G36*
X156650000Y-84880000D02*
X154450000Y-84880000D01*
X154450000Y-83680000D01*
X156650000Y-83680000D01*
X156650000Y-84880000D01*
X156650000Y-84880000D01*
G37*
G36*
X139650000Y-84880000D02*
X137450000Y-84880000D01*
X137450000Y-83680000D01*
X139650000Y-83680000D01*
X139650000Y-84880000D01*
X139650000Y-84880000D01*
G37*
G36*
X113098015Y-83807234D02*
X113192268Y-83835825D01*
X113238697Y-83860643D01*
X113279129Y-83882254D01*
X113279131Y-83882255D01*
X113279130Y-83882255D01*
X113355264Y-83944736D01*
X113417745Y-84020870D01*
X113464175Y-84107732D01*
X113492766Y-84201985D01*
X113502419Y-84300000D01*
X113492766Y-84398015D01*
X113464175Y-84492268D01*
X113439357Y-84538697D01*
X113417746Y-84579129D01*
X113355264Y-84655264D01*
X113279129Y-84717746D01*
X113238697Y-84739357D01*
X113192268Y-84764175D01*
X113098015Y-84792766D01*
X113024564Y-84800000D01*
X112975436Y-84800000D01*
X112901985Y-84792766D01*
X112807732Y-84764175D01*
X112761303Y-84739357D01*
X112720871Y-84717746D01*
X112644736Y-84655264D01*
X112582254Y-84579129D01*
X112560643Y-84538697D01*
X112535825Y-84492268D01*
X112507234Y-84398015D01*
X112497581Y-84300000D01*
X112507234Y-84201985D01*
X112535825Y-84107732D01*
X112582255Y-84020870D01*
X112644736Y-83944736D01*
X112720870Y-83882255D01*
X112720869Y-83882255D01*
X112720871Y-83882254D01*
X112761303Y-83860643D01*
X112807732Y-83835825D01*
X112901985Y-83807234D01*
X112975436Y-83800000D01*
X113024564Y-83800000D01*
X113098015Y-83807234D01*
X113098015Y-83807234D01*
G37*
G36*
X174700000Y-84700000D02*
X171700000Y-84700000D01*
X171700000Y-81700000D01*
X174700000Y-81700000D01*
X174700000Y-84700000D01*
X174700000Y-84700000D01*
G37*
G36*
X117875000Y-84700000D02*
X117125000Y-84700000D01*
X117125000Y-83500000D01*
X117875000Y-83500000D01*
X117875000Y-84700000D01*
X117875000Y-84700000D01*
G37*
G36*
X119875000Y-84650000D02*
X119125000Y-84650000D01*
X119125000Y-83450000D01*
X119875000Y-83450000D01*
X119875000Y-84650000D01*
X119875000Y-84650000D01*
G37*
G36*
X113098015Y-82537234D02*
X113192268Y-82565825D01*
X113238697Y-82590643D01*
X113279129Y-82612254D01*
X113279131Y-82612255D01*
X113279130Y-82612255D01*
X113355264Y-82674736D01*
X113417745Y-82750870D01*
X113464175Y-82837732D01*
X113492766Y-82931985D01*
X113502419Y-83030000D01*
X113492766Y-83128015D01*
X113464175Y-83222268D01*
X113439357Y-83268697D01*
X113417746Y-83309129D01*
X113355264Y-83385264D01*
X113279129Y-83447746D01*
X113238697Y-83469357D01*
X113192268Y-83494175D01*
X113098015Y-83522766D01*
X113024564Y-83530000D01*
X112975436Y-83530000D01*
X112901985Y-83522766D01*
X112807732Y-83494175D01*
X112761303Y-83469357D01*
X112720871Y-83447746D01*
X112644736Y-83385264D01*
X112582254Y-83309129D01*
X112560643Y-83268697D01*
X112535825Y-83222268D01*
X112507234Y-83128015D01*
X112497581Y-83030000D01*
X112507234Y-82931985D01*
X112535825Y-82837732D01*
X112582255Y-82750870D01*
X112644736Y-82674736D01*
X112720870Y-82612255D01*
X112720869Y-82612255D01*
X112720871Y-82612254D01*
X112761303Y-82590643D01*
X112807732Y-82565825D01*
X112901985Y-82537234D01*
X112975436Y-82530000D01*
X113024564Y-82530000D01*
X113098015Y-82537234D01*
X113098015Y-82537234D01*
G37*
G36*
X113098015Y-81267234D02*
X113192268Y-81295825D01*
X113238697Y-81320643D01*
X113279129Y-81342254D01*
X113279131Y-81342255D01*
X113279130Y-81342255D01*
X113355264Y-81404736D01*
X113417745Y-81480870D01*
X113464175Y-81567732D01*
X113492766Y-81661985D01*
X113502419Y-81760000D01*
X113492766Y-81858015D01*
X113464175Y-81952268D01*
X113439357Y-81998697D01*
X113417746Y-82039129D01*
X113355264Y-82115264D01*
X113279129Y-82177746D01*
X113238697Y-82199357D01*
X113192268Y-82224175D01*
X113098015Y-82252766D01*
X113024564Y-82260000D01*
X112975436Y-82260000D01*
X112901985Y-82252766D01*
X112807732Y-82224175D01*
X112761303Y-82199357D01*
X112720871Y-82177746D01*
X112644736Y-82115264D01*
X112582254Y-82039129D01*
X112560643Y-81998697D01*
X112535825Y-81952268D01*
X112507234Y-81858015D01*
X112497581Y-81760000D01*
X112507234Y-81661985D01*
X112535825Y-81567732D01*
X112582255Y-81480870D01*
X112644736Y-81404736D01*
X112720870Y-81342255D01*
X112720869Y-81342255D01*
X112720871Y-81342254D01*
X112761303Y-81320643D01*
X112807732Y-81295825D01*
X112901985Y-81267234D01*
X112975436Y-81260000D01*
X113024564Y-81260000D01*
X113098015Y-81267234D01*
X113098015Y-81267234D01*
G37*
G36*
X113098015Y-79997234D02*
X113192268Y-80025825D01*
X113238697Y-80050643D01*
X113279129Y-80072254D01*
X113279131Y-80072255D01*
X113279130Y-80072255D01*
X113355264Y-80134736D01*
X113417745Y-80210870D01*
X113464175Y-80297732D01*
X113492766Y-80391985D01*
X113502419Y-80490000D01*
X113492766Y-80588015D01*
X113464175Y-80682268D01*
X113439357Y-80728697D01*
X113417746Y-80769129D01*
X113355264Y-80845264D01*
X113279129Y-80907746D01*
X113238697Y-80929357D01*
X113192268Y-80954175D01*
X113098015Y-80982766D01*
X113024564Y-80990000D01*
X112975436Y-80990000D01*
X112901985Y-80982766D01*
X112807732Y-80954175D01*
X112761303Y-80929357D01*
X112720871Y-80907746D01*
X112644736Y-80845264D01*
X112582254Y-80769129D01*
X112560643Y-80728697D01*
X112535825Y-80682268D01*
X112507234Y-80588015D01*
X112497581Y-80490000D01*
X112507234Y-80391985D01*
X112535825Y-80297732D01*
X112582255Y-80210870D01*
X112644736Y-80134736D01*
X112720870Y-80072255D01*
X112720869Y-80072255D01*
X112720871Y-80072254D01*
X112761303Y-80050643D01*
X112807732Y-80025825D01*
X112901985Y-79997234D01*
X112975436Y-79990000D01*
X113024564Y-79990000D01*
X113098015Y-79997234D01*
X113098015Y-79997234D01*
G37*
G36*
X120000000Y-80375000D02*
X118800000Y-80375000D01*
X118800000Y-79625000D01*
X120000000Y-79625000D01*
X120000000Y-80375000D01*
X120000000Y-80375000D01*
G37*
G36*
X118100000Y-80375000D02*
X116900000Y-80375000D01*
X116900000Y-79625000D01*
X118100000Y-79625000D01*
X118100000Y-80375000D01*
X118100000Y-80375000D01*
G37*
G36*
X156650000Y-80320000D02*
X154450000Y-80320000D01*
X154450000Y-79120000D01*
X156650000Y-79120000D01*
X156650000Y-80320000D01*
X156650000Y-80320000D01*
G37*
G36*
X139650000Y-80320000D02*
X137450000Y-80320000D01*
X137450000Y-79120000D01*
X139650000Y-79120000D01*
X139650000Y-80320000D01*
X139650000Y-80320000D01*
G37*
G36*
X113098015Y-78727234D02*
X113192268Y-78755825D01*
X113238697Y-78780643D01*
X113279129Y-78802254D01*
X113279131Y-78802255D01*
X113279130Y-78802255D01*
X113355264Y-78864736D01*
X113417745Y-78940870D01*
X113464175Y-79027732D01*
X113492766Y-79121985D01*
X113502419Y-79220000D01*
X113492766Y-79318015D01*
X113464175Y-79412268D01*
X113439357Y-79458697D01*
X113417746Y-79499129D01*
X113355264Y-79575264D01*
X113279129Y-79637746D01*
X113238697Y-79659357D01*
X113192268Y-79684175D01*
X113098015Y-79712766D01*
X113024564Y-79720000D01*
X112975436Y-79720000D01*
X112901985Y-79712766D01*
X112807732Y-79684175D01*
X112761303Y-79659357D01*
X112720871Y-79637746D01*
X112644736Y-79575264D01*
X112582254Y-79499129D01*
X112560643Y-79458697D01*
X112535825Y-79412268D01*
X112507234Y-79318015D01*
X112497581Y-79220000D01*
X112507234Y-79121985D01*
X112535825Y-79027732D01*
X112582255Y-78940870D01*
X112644736Y-78864736D01*
X112720870Y-78802255D01*
X112720869Y-78802255D01*
X112720871Y-78802254D01*
X112761303Y-78780643D01*
X112807732Y-78755825D01*
X112901985Y-78727234D01*
X112975436Y-78720000D01*
X113024564Y-78720000D01*
X113098015Y-78727234D01*
X113098015Y-78727234D01*
G37*
G36*
X174340935Y-70618429D02*
X174437534Y-70637644D01*
X174710517Y-70750717D01*
X174952920Y-70912687D01*
X174956197Y-70914876D01*
X175165124Y-71123803D01*
X175329284Y-71369485D01*
X175442356Y-71642467D01*
X175500000Y-71932261D01*
X175500000Y-72227739D01*
X175442356Y-72517533D01*
X175329284Y-72790515D01*
X175165124Y-73036197D01*
X174956197Y-73245124D01*
X174956194Y-73245126D01*
X174710517Y-73409283D01*
X174437534Y-73522356D01*
X174340935Y-73541571D01*
X174147739Y-73580000D01*
X173852261Y-73580000D01*
X173659065Y-73541571D01*
X173562466Y-73522356D01*
X173289483Y-73409283D01*
X173043806Y-73245126D01*
X173043803Y-73245124D01*
X172834876Y-73036197D01*
X172670716Y-72790515D01*
X172557644Y-72517533D01*
X172500000Y-72227739D01*
X172500000Y-71932261D01*
X172557644Y-71642467D01*
X172670716Y-71369485D01*
X172834876Y-71123803D01*
X173043803Y-70914876D01*
X173047080Y-70912687D01*
X173289483Y-70750717D01*
X173562466Y-70637644D01*
X173659065Y-70618429D01*
X173852261Y-70580000D01*
X174147739Y-70580000D01*
X174340935Y-70618429D01*
X174340935Y-70618429D01*
G37*
G36*
X146600000Y-73100000D02*
X145600000Y-73100000D01*
X145600000Y-69900000D01*
X146600000Y-69900000D01*
X146600000Y-73100000D01*
X146600000Y-73100000D01*
G37*
G36*
X140400000Y-73100000D02*
X139400000Y-73100000D01*
X139400000Y-69900000D01*
X140400000Y-69900000D01*
X140400000Y-73100000D01*
X140400000Y-73100000D01*
G37*
G36*
X120800000Y-72250000D02*
X119700000Y-72250000D01*
X119700000Y-64700000D01*
X120800000Y-64700000D01*
X120800000Y-72250000D01*
X120800000Y-72250000D01*
G37*
G36*
X126500000Y-72250000D02*
X125400000Y-72250000D01*
X125400000Y-64700000D01*
X126500000Y-64700000D01*
X126500000Y-72250000D01*
X126500000Y-72250000D01*
G37*
G36*
X162300000Y-70300000D02*
X160700000Y-70300000D01*
X160700000Y-68700000D01*
X162300000Y-68700000D01*
X162300000Y-70300000D01*
X162300000Y-70300000D01*
G37*
G36*
X165233352Y-68730743D02*
X165378941Y-68791048D01*
X165509973Y-68878601D01*
X165621399Y-68990027D01*
X165708952Y-69121059D01*
X165769257Y-69266648D01*
X165800000Y-69421205D01*
X165800000Y-69578795D01*
X165769257Y-69733352D01*
X165708952Y-69878941D01*
X165621399Y-70009973D01*
X165509973Y-70121399D01*
X165378941Y-70208952D01*
X165233352Y-70269257D01*
X165078795Y-70300000D01*
X164921205Y-70300000D01*
X164766648Y-70269257D01*
X164621059Y-70208952D01*
X164490027Y-70121399D01*
X164378601Y-70009973D01*
X164291048Y-69878941D01*
X164230743Y-69733352D01*
X164200000Y-69578795D01*
X164200000Y-69421205D01*
X164230743Y-69266648D01*
X164291048Y-69121059D01*
X164378601Y-68990027D01*
X164490027Y-68878601D01*
X164621059Y-68791048D01*
X164766648Y-68730743D01*
X164921205Y-68700000D01*
X165078795Y-68700000D01*
X165233352Y-68730743D01*
X165233352Y-68730743D01*
G37*
G36*
X175500000Y-68500000D02*
X172500000Y-68500000D01*
X172500000Y-65500000D01*
X175500000Y-65500000D01*
X175500000Y-68500000D01*
X175500000Y-68500000D01*
G37*
G36*
X116700000Y-66300000D02*
X115800000Y-66300000D01*
X115800000Y-65100000D01*
X116700000Y-65100000D01*
X116700000Y-66300000D01*
X116700000Y-66300000D01*
G37*
G36*
X131700000Y-66100000D02*
X130800000Y-66100000D01*
X130800000Y-64900000D01*
X131700000Y-64900000D01*
X131700000Y-66100000D01*
X131700000Y-66100000D01*
G37*
G36*
X116700000Y-64100000D02*
X115800000Y-64100000D01*
X115800000Y-62900000D01*
X116700000Y-62900000D01*
X116700000Y-64100000D01*
X116700000Y-64100000D01*
G37*
G36*
X131700000Y-63900000D02*
X130800000Y-63900000D01*
X130800000Y-62700000D01*
X131700000Y-62700000D01*
X131700000Y-63900000D01*
X131700000Y-63900000D01*
G37*
G36*
X126400000Y-63125000D02*
X125200000Y-63125000D01*
X125200000Y-62375000D01*
X126400000Y-62375000D01*
X126400000Y-63125000D01*
X126400000Y-63125000D01*
G37*
G36*
X128300000Y-63125000D02*
X127100000Y-63125000D01*
X127100000Y-62375000D01*
X128300000Y-62375000D01*
X128300000Y-63125000D01*
X128300000Y-63125000D01*
G37*
G36*
X118900000Y-63125000D02*
X117700000Y-63125000D01*
X117700000Y-62375000D01*
X118900000Y-62375000D01*
X118900000Y-63125000D01*
X118900000Y-63125000D01*
G37*
G36*
X120800000Y-63125000D02*
X119600000Y-63125000D01*
X119600000Y-62375000D01*
X120800000Y-62375000D01*
X120800000Y-63125000D01*
X120800000Y-63125000D01*
G37*
G36*
X176273126Y-59376900D02*
X176408365Y-59403801D01*
X176663149Y-59509336D01*
X176889397Y-59660511D01*
X176892451Y-59662551D01*
X177087449Y-59857549D01*
X177240665Y-60086853D01*
X177346199Y-60341636D01*
X177400000Y-60612111D01*
X177400000Y-60887889D01*
X177346199Y-61158364D01*
X177240665Y-61413147D01*
X177087449Y-61642451D01*
X176892451Y-61837449D01*
X176892448Y-61837451D01*
X176663149Y-61990664D01*
X176408365Y-62096199D01*
X176273127Y-62123099D01*
X176137889Y-62150000D01*
X175862111Y-62150000D01*
X175726873Y-62123099D01*
X175591635Y-62096199D01*
X175336851Y-61990664D01*
X175107552Y-61837451D01*
X175107549Y-61837449D01*
X174912551Y-61642451D01*
X174759335Y-61413147D01*
X174653801Y-61158364D01*
X174600000Y-60887889D01*
X174600000Y-60612111D01*
X174653801Y-60341636D01*
X174759335Y-60086853D01*
X174912551Y-59857549D01*
X175107549Y-59662551D01*
X175110603Y-59660511D01*
X175336851Y-59509336D01*
X175591635Y-59403801D01*
X175726874Y-59376900D01*
X175862111Y-59350000D01*
X176137889Y-59350000D01*
X176273126Y-59376900D01*
X176273126Y-59376900D01*
G37*
G36*
X165050000Y-60400000D02*
X158650000Y-60400000D01*
X158650000Y-54600000D01*
X165050000Y-54600000D01*
X165050000Y-60400000D01*
X165050000Y-60400000D01*
G37*
G36*
X148050000Y-60400000D02*
X141650000Y-60400000D01*
X141650000Y-54600000D01*
X148050000Y-54600000D01*
X148050000Y-60400000D01*
X148050000Y-60400000D01*
G37*
G36*
X139650000Y-60380000D02*
X137450000Y-60380000D01*
X137450000Y-59180000D01*
X139650000Y-59180000D01*
X139650000Y-60380000D01*
X139650000Y-60380000D01*
G37*
G36*
X156650000Y-60380000D02*
X154450000Y-60380000D01*
X154450000Y-59180000D01*
X156650000Y-59180000D01*
X156650000Y-60380000D01*
X156650000Y-60380000D01*
G37*
G36*
X115773126Y-54376900D02*
X115908365Y-54403801D01*
X116163149Y-54509336D01*
X116298837Y-54600000D01*
X116392451Y-54662551D01*
X116587449Y-54857549D01*
X116740665Y-55086853D01*
X116846199Y-55341636D01*
X116900000Y-55612111D01*
X116900000Y-55887889D01*
X116846199Y-56158364D01*
X116740665Y-56413147D01*
X116587449Y-56642451D01*
X116392451Y-56837449D01*
X116392448Y-56837451D01*
X116163149Y-56990664D01*
X115908365Y-57096199D01*
X115773126Y-57123100D01*
X115637889Y-57150000D01*
X115362111Y-57150000D01*
X115226874Y-57123100D01*
X115091635Y-57096199D01*
X114836851Y-56990664D01*
X114607552Y-56837451D01*
X114607549Y-56837449D01*
X114412551Y-56642451D01*
X114259335Y-56413147D01*
X114153801Y-56158364D01*
X114100000Y-55887889D01*
X114100000Y-55612111D01*
X114153801Y-55341636D01*
X114259335Y-55086853D01*
X114412551Y-54857549D01*
X114607549Y-54662551D01*
X114701163Y-54600000D01*
X114836851Y-54509336D01*
X115091635Y-54403801D01*
X115226874Y-54376900D01*
X115362111Y-54350000D01*
X115637889Y-54350000D01*
X115773126Y-54376900D01*
X115773126Y-54376900D01*
G37*
G36*
X156650000Y-55820000D02*
X154450000Y-55820000D01*
X154450000Y-54620000D01*
X156650000Y-54620000D01*
X156650000Y-55820000D01*
X156650000Y-55820000D01*
G37*
G36*
X139650000Y-55820000D02*
X137450000Y-55820000D01*
X137450000Y-54620000D01*
X139650000Y-54620000D01*
X139650000Y-55820000D01*
X139650000Y-55820000D01*
G37*
M02*
