G04 #@! TF.GenerationSoftware,KiCad,Pcbnew,5.0.2-bee76a0~70~ubuntu18.04.1*
G04 #@! TF.CreationDate,2019-02-27T20:57:34-05:00*
G04 #@! TF.ProjectId,Stepper Motor Prototype,53746570-7065-4722-904d-6f746f722050,rev?*
G04 #@! TF.SameCoordinates,Original*
G04 #@! TF.FileFunction,Copper,L4,Bot*
G04 #@! TF.FilePolarity,Positive*
%FSLAX46Y46*%
G04 Gerber Fmt 4.6, Leading zero omitted, Abs format (unit mm)*
G04 Created by KiCad (PCBNEW 5.0.2-bee76a0~70~ubuntu18.04.1) date Wed 27 Feb 2019 08:57:34 PM EST*
%MOMM*%
%LPD*%
G01*
G04 APERTURE LIST*
G04 #@! TA.AperFunction,ComponentPad*
%ADD10C,3.000000*%
G04 #@! TD*
G04 #@! TA.AperFunction,ComponentPad*
%ADD11R,3.000000X3.000000*%
G04 #@! TD*
G04 #@! TA.AperFunction,ComponentPad*
%ADD12C,1.600000*%
G04 #@! TD*
G04 #@! TA.AperFunction,ComponentPad*
%ADD13R,1.600000X1.600000*%
G04 #@! TD*
G04 #@! TA.AperFunction,ComponentPad*
%ADD14C,2.800000*%
G04 #@! TD*
G04 #@! TA.AperFunction,ComponentPad*
%ADD15O,1.000000X1.000000*%
G04 #@! TD*
G04 #@! TA.AperFunction,ComponentPad*
%ADD16R,1.000000X1.000000*%
G04 #@! TD*
G04 #@! TA.AperFunction,ViaPad*
%ADD17C,0.800000*%
G04 #@! TD*
G04 #@! TA.AperFunction,Conductor*
%ADD18C,0.254000*%
G04 #@! TD*
G04 APERTURE END LIST*
D10*
G04 #@! TO.P,J2,2*
G04 #@! TO.N,+24V*
X174000000Y-72080000D03*
D11*
G04 #@! TO.P,J2,1*
G04 #@! TO.N,GND*
X174000000Y-67000000D03*
G04 #@! TD*
D10*
G04 #@! TO.P,J3,4*
G04 #@! TO.N,Net-(J3-Pad4)*
X173200000Y-98440000D03*
D11*
G04 #@! TO.P,J3,1*
G04 #@! TO.N,/AOUT1*
X173200000Y-83200000D03*
D10*
G04 #@! TO.P,J3,3*
G04 #@! TO.N,Net-(J3-Pad3)*
X173200000Y-93360000D03*
G04 #@! TO.P,J3,2*
G04 #@! TO.N,/AOUT2*
X173200000Y-88280000D03*
G04 #@! TD*
D12*
G04 #@! TO.P,C1,2*
G04 #@! TO.N,GND*
X175750000Y-123000000D03*
D13*
G04 #@! TO.P,C1,1*
G04 #@! TO.N,+24V*
X172250000Y-123000000D03*
G04 #@! TD*
D14*
G04 #@! TO.P,TP1,1*
G04 #@! TO.N,GND*
X115500000Y-55750000D03*
G04 #@! TD*
G04 #@! TO.P,TP2,1*
G04 #@! TO.N,GND*
X176000000Y-60750000D03*
G04 #@! TD*
G04 #@! TO.P,TP3,1*
G04 #@! TO.N,GND*
X126000000Y-121750000D03*
G04 #@! TD*
G04 #@! TO.P,TP4,1*
G04 #@! TO.N,GND*
X176500000Y-115000000D03*
G04 #@! TD*
D15*
G04 #@! TO.P,J1,15*
G04 #@! TO.N,Net-(J1-Pad15)*
X113000000Y-79220000D03*
G04 #@! TO.P,J1,14*
G04 #@! TO.N,Net-(J1-Pad14)*
X113000000Y-80490000D03*
G04 #@! TO.P,J1,13*
G04 #@! TO.N,Net-(J1-Pad13)*
X113000000Y-81760000D03*
G04 #@! TO.P,J1,12*
G04 #@! TO.N,Net-(J1-Pad12)*
X113000000Y-83030000D03*
G04 #@! TO.P,J1,11*
G04 #@! TO.N,Net-(J1-Pad11)*
X113000000Y-84300000D03*
G04 #@! TO.P,J1,10*
G04 #@! TO.N,Net-(J1-Pad10)*
X113000000Y-85570000D03*
G04 #@! TO.P,J1,9*
G04 #@! TO.N,Net-(J1-Pad9)*
X113000000Y-86840000D03*
G04 #@! TO.P,J1,8*
G04 #@! TO.N,Net-(J1-Pad8)*
X113000000Y-88110000D03*
G04 #@! TO.P,J1,7*
G04 #@! TO.N,Net-(J1-Pad7)*
X113000000Y-89380000D03*
G04 #@! TO.P,J1,6*
G04 #@! TO.N,Net-(J1-Pad6)*
X113000000Y-90650000D03*
G04 #@! TO.P,J1,5*
G04 #@! TO.N,Net-(J1-Pad5)*
X113000000Y-91920000D03*
G04 #@! TO.P,J1,4*
G04 #@! TO.N,Net-(J1-Pad4)*
X113000000Y-93190000D03*
G04 #@! TO.P,J1,3*
G04 #@! TO.N,+3V3*
X113000000Y-94460000D03*
G04 #@! TO.P,J1,2*
G04 #@! TO.N,+1V8*
X113000000Y-95730000D03*
D16*
G04 #@! TO.P,J1,1*
G04 #@! TO.N,GND*
X113000000Y-97000000D03*
G04 #@! TD*
D13*
G04 #@! TO.P,C9,1*
G04 #@! TO.N,+24V*
X161500000Y-69500000D03*
D12*
G04 #@! TO.P,C9,2*
G04 #@! TO.N,GND*
X165000000Y-69500000D03*
G04 #@! TD*
G04 #@! TO.P,C12,2*
G04 #@! TO.N,GND*
X165000000Y-109250000D03*
D13*
G04 #@! TO.P,C12,1*
G04 #@! TO.N,+24V*
X161500000Y-109250000D03*
G04 #@! TD*
D17*
G04 #@! TO.N,GND*
X125750000Y-92750000D03*
X126750000Y-92750000D03*
X125750000Y-91750000D03*
X126750000Y-91750000D03*
X127750000Y-91750000D03*
X127750000Y-92750000D03*
X127750000Y-90750000D03*
X126750000Y-90750000D03*
X125750000Y-90750000D03*
X125750000Y-89750000D03*
X126750000Y-89750000D03*
X127750000Y-89750000D03*
X125750000Y-79500000D03*
X127750000Y-82500000D03*
X127750000Y-81500000D03*
X126750000Y-82500000D03*
X125750000Y-81500000D03*
X125750000Y-80500000D03*
X126750000Y-81500000D03*
X127750000Y-80500000D03*
X127750000Y-79500000D03*
X125750000Y-82500000D03*
X126750000Y-80500000D03*
X126750000Y-79500000D03*
X131251654Y-81474990D03*
X147500000Y-69000000D03*
X148500000Y-69000000D03*
X149500000Y-69000000D03*
X149500000Y-70000000D03*
X148500000Y-70000000D03*
X147500000Y-70000000D03*
X147500000Y-71000000D03*
X148500000Y-70000000D03*
X148500000Y-70000000D03*
X148500000Y-71000000D03*
X149500000Y-71000000D03*
X149500000Y-72000000D03*
X148500000Y-72000000D03*
X147500000Y-72000000D03*
X147500000Y-73000000D03*
X148500000Y-73000000D03*
X149500000Y-73000000D03*
X148500000Y-74000000D03*
X147500000Y-74000000D03*
X149500000Y-74000000D03*
X147500000Y-110750000D03*
X148500000Y-113750000D03*
X149500000Y-113750000D03*
X149500000Y-108750000D03*
X147500000Y-112750000D03*
X149500000Y-111750000D03*
X147500000Y-113750000D03*
X148500000Y-111750000D03*
X148500000Y-108750000D03*
X147500000Y-108750000D03*
X148500000Y-109750000D03*
X147500000Y-111750000D03*
X149500000Y-110750000D03*
X148500000Y-110750000D03*
X147500000Y-109750000D03*
X148500000Y-112750000D03*
X148500000Y-109750000D03*
X149500000Y-112750000D03*
X148500000Y-109750000D03*
X149500000Y-109750000D03*
G04 #@! TO.N,+24V*
X141750000Y-117500000D03*
X141750000Y-117500000D03*
X141750000Y-117500000D03*
X142750000Y-117500000D03*
X143750000Y-117500000D03*
X144750000Y-117500000D03*
X145750000Y-117500000D03*
X146750000Y-117500000D03*
X147750000Y-117500000D03*
X148750000Y-117500000D03*
X149750000Y-118500000D03*
X149750000Y-119500000D03*
X149750000Y-120500000D03*
X149750000Y-121500000D03*
X149750000Y-122500000D03*
X149750000Y-123500000D03*
X149750000Y-124500000D03*
X149600000Y-125400000D03*
X148750000Y-125500000D03*
X147750000Y-125500000D03*
X146750000Y-125500000D03*
X145750000Y-125500000D03*
X144750000Y-125500000D03*
X143750000Y-125500000D03*
X142750000Y-125500000D03*
X141750000Y-125500000D03*
X149750000Y-117500000D03*
X149750000Y-97000000D03*
X149750000Y-99000000D03*
X147750000Y-93000000D03*
X141750000Y-93000000D03*
X149750000Y-95000000D03*
X149750000Y-94000000D03*
X141750000Y-93000000D03*
X149750000Y-101000000D03*
X146750000Y-93000000D03*
X142750000Y-93000000D03*
X146750000Y-101000000D03*
X147750000Y-101000000D03*
X149750000Y-100000000D03*
X148750000Y-93000000D03*
X144750000Y-101000000D03*
X149750000Y-96000000D03*
X141750000Y-93000000D03*
X143750000Y-101000000D03*
X142750000Y-101000000D03*
X149750000Y-98000000D03*
X145750000Y-101000000D03*
X148750000Y-101000000D03*
X145750000Y-93000000D03*
X144750000Y-93000000D03*
X141750000Y-101000000D03*
X143750000Y-93000000D03*
X149750000Y-93000000D03*
X148750000Y-86000000D03*
X144750000Y-78000000D03*
X141750000Y-86000000D03*
X141750000Y-78000000D03*
X147750000Y-86000000D03*
X149750000Y-82000000D03*
X149750000Y-79000000D03*
X149750000Y-80000000D03*
X143750000Y-86000000D03*
X148750000Y-78000000D03*
X144750000Y-86000000D03*
X145750000Y-86000000D03*
X149750000Y-78000000D03*
X149750000Y-86000000D03*
X141750000Y-78000000D03*
X146750000Y-86000000D03*
X149750000Y-85000000D03*
X141750000Y-78000000D03*
X149750000Y-81000000D03*
X149750000Y-83000000D03*
X149750000Y-84000000D03*
X143750000Y-78000000D03*
X147750000Y-78000000D03*
X146750000Y-78000000D03*
X142750000Y-86000000D03*
X142750000Y-78000000D03*
X145750000Y-78000000D03*
X149250000Y-53500000D03*
X149250000Y-55500000D03*
X147250000Y-61500000D03*
X143250000Y-61500000D03*
X146250000Y-61500000D03*
X148250000Y-53500000D03*
X144250000Y-61500000D03*
X149250000Y-58500000D03*
X142250000Y-53500000D03*
X149250000Y-54500000D03*
X144250000Y-53500000D03*
X149250000Y-61500000D03*
X149250000Y-60500000D03*
X145250000Y-61500000D03*
X149250000Y-59500000D03*
X147250000Y-53500000D03*
X141250000Y-53500000D03*
X141250000Y-53500000D03*
X149250000Y-57500000D03*
X145250000Y-53500000D03*
X148250000Y-61500000D03*
X142250000Y-61500000D03*
X141250000Y-53500000D03*
X141250000Y-61500000D03*
X149250000Y-56500000D03*
X146250000Y-53500000D03*
X143250000Y-53500000D03*
X121050000Y-83200000D03*
G04 #@! TO.N,Net-(J3-Pad4)*
X158250000Y-117500000D03*
X159250000Y-117500000D03*
X160250000Y-117500000D03*
X161250000Y-117500000D03*
X162250000Y-117500000D03*
X163250000Y-117500000D03*
X164250000Y-117500000D03*
X165250000Y-117500000D03*
X166250000Y-117500000D03*
X166250000Y-118500000D03*
X165250000Y-118500000D03*
X165250000Y-119500000D03*
X166250000Y-119500000D03*
X166250000Y-123500000D03*
X165250000Y-123500000D03*
X165250000Y-124500000D03*
X166250000Y-124500000D03*
X166250000Y-125500000D03*
X165250000Y-125500000D03*
X164250000Y-125500000D03*
X163250000Y-125500000D03*
X159500000Y-125500000D03*
X158500000Y-125500000D03*
G04 #@! TO.N,Net-(J3-Pad3)*
X158750000Y-92750000D03*
X159750000Y-92750000D03*
X166750000Y-92750000D03*
X165750000Y-92750000D03*
X165750000Y-93750000D03*
X166750000Y-93750000D03*
X165750000Y-94750000D03*
X165750000Y-95750000D03*
X164750000Y-92750000D03*
X163750000Y-92750000D03*
X166750000Y-101000000D03*
X165750000Y-101000000D03*
X164750000Y-101000000D03*
X163750000Y-101000000D03*
X162750000Y-101000000D03*
X161750000Y-101000000D03*
X160750000Y-101000000D03*
X159750000Y-101000000D03*
X158750000Y-101000000D03*
X165750000Y-100000000D03*
X166750000Y-100000000D03*
X166750000Y-99000000D03*
X165750000Y-99000000D03*
G04 #@! TO.N,/AOUT1*
X158750000Y-53500000D03*
X159750000Y-53500000D03*
X160750000Y-53500000D03*
X161750000Y-53500000D03*
X162750000Y-53500000D03*
X163750000Y-53500000D03*
X164750000Y-53500000D03*
X165750000Y-53500000D03*
X166750000Y-53500000D03*
X166750000Y-54500000D03*
X165750000Y-54500000D03*
X165750000Y-55500000D03*
X166750000Y-55500000D03*
X166750000Y-61750000D03*
X165750000Y-61750000D03*
X165750000Y-61750000D03*
X165750000Y-61750000D03*
X165750000Y-60750000D03*
X166750000Y-60750000D03*
X166750000Y-59750000D03*
X165750000Y-59750000D03*
X165750000Y-58750000D03*
X166750000Y-58750000D03*
X164750000Y-61750000D03*
X163750000Y-61750000D03*
X162750000Y-61750000D03*
X161750000Y-61750000D03*
X160750000Y-61750000D03*
X159750000Y-61750000D03*
X158750000Y-61750000D03*
G04 #@! TO.N,/AOUT2*
X158750000Y-78000000D03*
X159750000Y-78000000D03*
X160750000Y-78000000D03*
X161750000Y-78000000D03*
X162750000Y-78000000D03*
X163750000Y-78000000D03*
X164750000Y-78000000D03*
X165750000Y-78000000D03*
X166750000Y-78000000D03*
X166750000Y-79000000D03*
X165750000Y-79000000D03*
X165750000Y-80000000D03*
X166750000Y-80000000D03*
X166750000Y-81000000D03*
X165750000Y-81000000D03*
X165750000Y-82000000D03*
X166750000Y-82000000D03*
X166750000Y-83000000D03*
X165750000Y-83000000D03*
X165750000Y-84000000D03*
X166750000Y-84000000D03*
X166750000Y-85000000D03*
X165750000Y-85000000D03*
X165750000Y-86000000D03*
X166750000Y-86000000D03*
X164750000Y-86000000D03*
X163750000Y-86000000D03*
X160500000Y-86000000D03*
X159500000Y-86000000D03*
G04 #@! TD*
D18*
G04 #@! TO.N,GND*
G36*
X178873000Y-127873000D02*
X110127000Y-127873000D01*
X110127000Y-123191724D01*
X124737882Y-123191724D01*
X124885455Y-123500106D01*
X125640031Y-123793405D01*
X126449409Y-123775614D01*
X127114545Y-123500106D01*
X127262118Y-123191724D01*
X126000000Y-121929605D01*
X124737882Y-123191724D01*
X110127000Y-123191724D01*
X110127000Y-121390031D01*
X123956595Y-121390031D01*
X123974386Y-122199409D01*
X124249894Y-122864545D01*
X124558276Y-123012118D01*
X125820395Y-121750000D01*
X126179605Y-121750000D01*
X127441724Y-123012118D01*
X127750106Y-122864545D01*
X128043405Y-122109969D01*
X128025614Y-121300591D01*
X127750106Y-120635455D01*
X127441724Y-120487882D01*
X126179605Y-121750000D01*
X125820395Y-121750000D01*
X124558276Y-120487882D01*
X124249894Y-120635455D01*
X123956595Y-121390031D01*
X110127000Y-121390031D01*
X110127000Y-120308276D01*
X124737882Y-120308276D01*
X126000000Y-121570395D01*
X127262118Y-120308276D01*
X127114545Y-119999894D01*
X126359969Y-119706595D01*
X125550591Y-119724386D01*
X124885455Y-119999894D01*
X124737882Y-120308276D01*
X110127000Y-120308276D01*
X110127000Y-117294126D01*
X140715000Y-117294126D01*
X140715000Y-117705874D01*
X140872569Y-118086280D01*
X141163720Y-118377431D01*
X141544126Y-118535000D01*
X141955874Y-118535000D01*
X142250000Y-118413169D01*
X142544126Y-118535000D01*
X142955874Y-118535000D01*
X143250000Y-118413169D01*
X143544126Y-118535000D01*
X143955874Y-118535000D01*
X144250000Y-118413169D01*
X144544126Y-118535000D01*
X144955874Y-118535000D01*
X145250000Y-118413169D01*
X145544126Y-118535000D01*
X145955874Y-118535000D01*
X146250000Y-118413169D01*
X146544126Y-118535000D01*
X146955874Y-118535000D01*
X147250000Y-118413169D01*
X147544126Y-118535000D01*
X147955874Y-118535000D01*
X148250000Y-118413169D01*
X148544126Y-118535000D01*
X148715000Y-118535000D01*
X148715000Y-118705874D01*
X148836831Y-119000000D01*
X148715000Y-119294126D01*
X148715000Y-119705874D01*
X148836831Y-120000000D01*
X148715000Y-120294126D01*
X148715000Y-120705874D01*
X148836831Y-121000000D01*
X148715000Y-121294126D01*
X148715000Y-121705874D01*
X148836831Y-122000000D01*
X148715000Y-122294126D01*
X148715000Y-122705874D01*
X148836831Y-123000000D01*
X148715000Y-123294126D01*
X148715000Y-123705874D01*
X148836831Y-124000000D01*
X148715000Y-124294126D01*
X148715000Y-124465000D01*
X148544126Y-124465000D01*
X148250000Y-124586831D01*
X147955874Y-124465000D01*
X147544126Y-124465000D01*
X147250000Y-124586831D01*
X146955874Y-124465000D01*
X146544126Y-124465000D01*
X146250000Y-124586831D01*
X145955874Y-124465000D01*
X145544126Y-124465000D01*
X145250000Y-124586831D01*
X144955874Y-124465000D01*
X144544126Y-124465000D01*
X144250000Y-124586831D01*
X143955874Y-124465000D01*
X143544126Y-124465000D01*
X143250000Y-124586831D01*
X142955874Y-124465000D01*
X142544126Y-124465000D01*
X142250000Y-124586831D01*
X141955874Y-124465000D01*
X141544126Y-124465000D01*
X141163720Y-124622569D01*
X140872569Y-124913720D01*
X140715000Y-125294126D01*
X140715000Y-125705874D01*
X140872569Y-126086280D01*
X141163720Y-126377431D01*
X141544126Y-126535000D01*
X141955874Y-126535000D01*
X142250000Y-126413169D01*
X142544126Y-126535000D01*
X142955874Y-126535000D01*
X143250000Y-126413169D01*
X143544126Y-126535000D01*
X143955874Y-126535000D01*
X144250000Y-126413169D01*
X144544126Y-126535000D01*
X144955874Y-126535000D01*
X145250000Y-126413169D01*
X145544126Y-126535000D01*
X145955874Y-126535000D01*
X146250000Y-126413169D01*
X146544126Y-126535000D01*
X146955874Y-126535000D01*
X147250000Y-126413169D01*
X147544126Y-126535000D01*
X147955874Y-126535000D01*
X148250000Y-126413169D01*
X148544126Y-126535000D01*
X148955874Y-126535000D01*
X149295711Y-126394235D01*
X149394126Y-126435000D01*
X149805874Y-126435000D01*
X150186280Y-126277431D01*
X150477431Y-125986280D01*
X150635000Y-125605874D01*
X150635000Y-125194126D01*
X150601196Y-125112515D01*
X150627431Y-125086280D01*
X150785000Y-124705874D01*
X150785000Y-124294126D01*
X150663169Y-124000000D01*
X150785000Y-123705874D01*
X150785000Y-123294126D01*
X150663169Y-123000000D01*
X150785000Y-122705874D01*
X150785000Y-122294126D01*
X150663169Y-122000000D01*
X150785000Y-121705874D01*
X150785000Y-121294126D01*
X150663169Y-121000000D01*
X150785000Y-120705874D01*
X150785000Y-120294126D01*
X150663169Y-120000000D01*
X150785000Y-119705874D01*
X150785000Y-119294126D01*
X150663169Y-119000000D01*
X150785000Y-118705874D01*
X150785000Y-118294126D01*
X150673165Y-118024132D01*
X157115000Y-118024132D01*
X157115000Y-125024132D01*
X157127201Y-125148014D01*
X157203321Y-125530697D01*
X157298137Y-125759602D01*
X157514910Y-126084026D01*
X157690106Y-126259222D01*
X158014530Y-126475995D01*
X158243435Y-126570811D01*
X158626118Y-126646931D01*
X158750000Y-126659132D01*
X165750000Y-126659132D01*
X165873882Y-126646931D01*
X166256565Y-126570811D01*
X166343020Y-126535000D01*
X166455874Y-126535000D01*
X166836280Y-126377431D01*
X167127431Y-126086280D01*
X167285000Y-125705874D01*
X167285000Y-125558892D01*
X167296679Y-125530697D01*
X167372799Y-125148014D01*
X167385000Y-125024132D01*
X167385000Y-122200000D01*
X170802560Y-122200000D01*
X170802560Y-123800000D01*
X170851843Y-124047765D01*
X170992191Y-124257809D01*
X171202235Y-124398157D01*
X171450000Y-124447440D01*
X173050000Y-124447440D01*
X173297765Y-124398157D01*
X173507809Y-124257809D01*
X173648157Y-124047765D01*
X173656117Y-124007745D01*
X174921861Y-124007745D01*
X174995995Y-124253864D01*
X175533223Y-124446965D01*
X176103454Y-124419778D01*
X176504005Y-124253864D01*
X176578139Y-124007745D01*
X175750000Y-123179605D01*
X174921861Y-124007745D01*
X173656117Y-124007745D01*
X173697440Y-123800000D01*
X173697440Y-122783223D01*
X174303035Y-122783223D01*
X174330222Y-123353454D01*
X174496136Y-123754005D01*
X174742255Y-123828139D01*
X175570395Y-123000000D01*
X175929605Y-123000000D01*
X176757745Y-123828139D01*
X177003864Y-123754005D01*
X177196965Y-123216777D01*
X177169778Y-122646546D01*
X177003864Y-122245995D01*
X176757745Y-122171861D01*
X175929605Y-123000000D01*
X175570395Y-123000000D01*
X174742255Y-122171861D01*
X174496136Y-122245995D01*
X174303035Y-122783223D01*
X173697440Y-122783223D01*
X173697440Y-122200000D01*
X173656118Y-121992255D01*
X174921861Y-121992255D01*
X175750000Y-122820395D01*
X176578139Y-121992255D01*
X176504005Y-121746136D01*
X175966777Y-121553035D01*
X175396546Y-121580222D01*
X174995995Y-121746136D01*
X174921861Y-121992255D01*
X173656118Y-121992255D01*
X173648157Y-121952235D01*
X173507809Y-121742191D01*
X173297765Y-121601843D01*
X173050000Y-121552560D01*
X171450000Y-121552560D01*
X171202235Y-121601843D01*
X170992191Y-121742191D01*
X170851843Y-121952235D01*
X170802560Y-122200000D01*
X167385000Y-122200000D01*
X167385000Y-118024132D01*
X167372799Y-117900250D01*
X167296679Y-117517567D01*
X167285000Y-117489372D01*
X167285000Y-117294126D01*
X167127431Y-116913720D01*
X166836280Y-116622569D01*
X166455874Y-116465000D01*
X166193959Y-116465000D01*
X166076943Y-116441724D01*
X175237882Y-116441724D01*
X175385455Y-116750106D01*
X176140031Y-117043405D01*
X176949409Y-117025614D01*
X177614545Y-116750106D01*
X177762118Y-116441724D01*
X176500000Y-115179605D01*
X175237882Y-116441724D01*
X166076943Y-116441724D01*
X165873882Y-116401333D01*
X165750000Y-116389132D01*
X158750000Y-116389132D01*
X158626118Y-116401333D01*
X158306041Y-116465000D01*
X158044126Y-116465000D01*
X157663720Y-116622569D01*
X157372569Y-116913720D01*
X157215000Y-117294126D01*
X157215000Y-117489372D01*
X157203321Y-117517567D01*
X157127201Y-117900250D01*
X157115000Y-118024132D01*
X150673165Y-118024132D01*
X150663169Y-118000000D01*
X150785000Y-117705874D01*
X150785000Y-117294126D01*
X150627431Y-116913720D01*
X150336280Y-116622569D01*
X149955874Y-116465000D01*
X149544126Y-116465000D01*
X149250000Y-116586831D01*
X148955874Y-116465000D01*
X148544126Y-116465000D01*
X148250000Y-116586831D01*
X147955874Y-116465000D01*
X147544126Y-116465000D01*
X147250000Y-116586831D01*
X146955874Y-116465000D01*
X146544126Y-116465000D01*
X146250000Y-116586831D01*
X145955874Y-116465000D01*
X145544126Y-116465000D01*
X145250000Y-116586831D01*
X144955874Y-116465000D01*
X144544126Y-116465000D01*
X144250000Y-116586831D01*
X143955874Y-116465000D01*
X143544126Y-116465000D01*
X143250000Y-116586831D01*
X142955874Y-116465000D01*
X142544126Y-116465000D01*
X142250000Y-116586831D01*
X141955874Y-116465000D01*
X141544126Y-116465000D01*
X141163720Y-116622569D01*
X140872569Y-116913720D01*
X140715000Y-117294126D01*
X110127000Y-117294126D01*
X110127000Y-114640031D01*
X174456595Y-114640031D01*
X174474386Y-115449409D01*
X174749894Y-116114545D01*
X175058276Y-116262118D01*
X176320395Y-115000000D01*
X176679605Y-115000000D01*
X177941724Y-116262118D01*
X178250106Y-116114545D01*
X178543405Y-115359969D01*
X178525614Y-114550591D01*
X178250106Y-113885455D01*
X177941724Y-113737882D01*
X176679605Y-115000000D01*
X176320395Y-115000000D01*
X175058276Y-113737882D01*
X174749894Y-113885455D01*
X174456595Y-114640031D01*
X110127000Y-114640031D01*
X110127000Y-113558276D01*
X175237882Y-113558276D01*
X176500000Y-114820395D01*
X177762118Y-113558276D01*
X177614545Y-113249894D01*
X176859969Y-112956595D01*
X176050591Y-112974386D01*
X175385455Y-113249894D01*
X175237882Y-113558276D01*
X110127000Y-113558276D01*
X110127000Y-108450000D01*
X160052560Y-108450000D01*
X160052560Y-110050000D01*
X160101843Y-110297765D01*
X160242191Y-110507809D01*
X160452235Y-110648157D01*
X160700000Y-110697440D01*
X162300000Y-110697440D01*
X162547765Y-110648157D01*
X162757809Y-110507809D01*
X162898157Y-110297765D01*
X162906117Y-110257745D01*
X164171861Y-110257745D01*
X164245995Y-110503864D01*
X164783223Y-110696965D01*
X165353454Y-110669778D01*
X165754005Y-110503864D01*
X165828139Y-110257745D01*
X165000000Y-109429605D01*
X164171861Y-110257745D01*
X162906117Y-110257745D01*
X162947440Y-110050000D01*
X162947440Y-109033223D01*
X163553035Y-109033223D01*
X163580222Y-109603454D01*
X163746136Y-110004005D01*
X163992255Y-110078139D01*
X164820395Y-109250000D01*
X165179605Y-109250000D01*
X166007745Y-110078139D01*
X166253864Y-110004005D01*
X166446965Y-109466777D01*
X166419778Y-108896546D01*
X166253864Y-108495995D01*
X166007745Y-108421861D01*
X165179605Y-109250000D01*
X164820395Y-109250000D01*
X163992255Y-108421861D01*
X163746136Y-108495995D01*
X163553035Y-109033223D01*
X162947440Y-109033223D01*
X162947440Y-108450000D01*
X162906118Y-108242255D01*
X164171861Y-108242255D01*
X165000000Y-109070395D01*
X165828139Y-108242255D01*
X165754005Y-107996136D01*
X165216777Y-107803035D01*
X164646546Y-107830222D01*
X164245995Y-107996136D01*
X164171861Y-108242255D01*
X162906118Y-108242255D01*
X162898157Y-108202235D01*
X162757809Y-107992191D01*
X162547765Y-107851843D01*
X162300000Y-107802560D01*
X160700000Y-107802560D01*
X160452235Y-107851843D01*
X160242191Y-107992191D01*
X160101843Y-108202235D01*
X160052560Y-108450000D01*
X110127000Y-108450000D01*
X110127000Y-97285750D01*
X111865000Y-97285750D01*
X111865000Y-97626310D01*
X111961673Y-97859699D01*
X112140302Y-98038327D01*
X112373691Y-98135000D01*
X112714250Y-98135000D01*
X112873000Y-97976250D01*
X112873000Y-97127000D01*
X113127000Y-97127000D01*
X113127000Y-97976250D01*
X113285750Y-98135000D01*
X113626309Y-98135000D01*
X113859698Y-98038327D01*
X114038327Y-97859699D01*
X114135000Y-97626310D01*
X114135000Y-97285750D01*
X113976250Y-97127000D01*
X113127000Y-97127000D01*
X112873000Y-97127000D01*
X112023750Y-97127000D01*
X111865000Y-97285750D01*
X110127000Y-97285750D01*
X110127000Y-79220000D01*
X111842765Y-79220000D01*
X111930854Y-79662855D01*
X112059241Y-79855000D01*
X111930854Y-80047145D01*
X111842765Y-80490000D01*
X111930854Y-80932855D01*
X112059241Y-81125000D01*
X111930854Y-81317145D01*
X111842765Y-81760000D01*
X111930854Y-82202855D01*
X112059241Y-82395000D01*
X111930854Y-82587145D01*
X111842765Y-83030000D01*
X111930854Y-83472855D01*
X112059241Y-83665000D01*
X111930854Y-83857145D01*
X111842765Y-84300000D01*
X111930854Y-84742855D01*
X112059241Y-84935000D01*
X111930854Y-85127145D01*
X111842765Y-85570000D01*
X111930854Y-86012855D01*
X112059241Y-86205000D01*
X111930854Y-86397145D01*
X111842765Y-86840000D01*
X111930854Y-87282855D01*
X112059241Y-87475000D01*
X111930854Y-87667145D01*
X111842765Y-88110000D01*
X111930854Y-88552855D01*
X112059241Y-88745000D01*
X111930854Y-88937145D01*
X111842765Y-89380000D01*
X111930854Y-89822855D01*
X112059241Y-90015000D01*
X111930854Y-90207145D01*
X111842765Y-90650000D01*
X111930854Y-91092855D01*
X112059241Y-91285000D01*
X111930854Y-91477145D01*
X111842765Y-91920000D01*
X111930854Y-92362855D01*
X112059241Y-92555000D01*
X111930854Y-92747145D01*
X111842765Y-93190000D01*
X111930854Y-93632855D01*
X112059241Y-93825000D01*
X111930854Y-94017145D01*
X111842765Y-94460000D01*
X111930854Y-94902855D01*
X112059241Y-95095000D01*
X111930854Y-95287145D01*
X111842765Y-95730000D01*
X111930854Y-96172855D01*
X111941555Y-96188870D01*
X111865000Y-96373690D01*
X111865000Y-96714250D01*
X112023750Y-96873000D01*
X112873000Y-96873000D01*
X112873000Y-96861973D01*
X112888217Y-96865000D01*
X113111783Y-96865000D01*
X113127000Y-96861973D01*
X113127000Y-96873000D01*
X113976250Y-96873000D01*
X114135000Y-96714250D01*
X114135000Y-96373690D01*
X114058445Y-96188870D01*
X114069146Y-96172855D01*
X114157235Y-95730000D01*
X114069146Y-95287145D01*
X113940759Y-95095000D01*
X114069146Y-94902855D01*
X114157235Y-94460000D01*
X114069146Y-94017145D01*
X113940759Y-93825000D01*
X114069146Y-93632855D01*
X114157235Y-93190000D01*
X114078492Y-92794126D01*
X140715000Y-92794126D01*
X140715000Y-93205874D01*
X140872569Y-93586280D01*
X141163720Y-93877431D01*
X141544126Y-94035000D01*
X141955874Y-94035000D01*
X142250000Y-93913169D01*
X142544126Y-94035000D01*
X142955874Y-94035000D01*
X143250000Y-93913169D01*
X143544126Y-94035000D01*
X143955874Y-94035000D01*
X144250000Y-93913169D01*
X144544126Y-94035000D01*
X144955874Y-94035000D01*
X145250000Y-93913169D01*
X145544126Y-94035000D01*
X145955874Y-94035000D01*
X146250000Y-93913169D01*
X146544126Y-94035000D01*
X146955874Y-94035000D01*
X147250000Y-93913169D01*
X147544126Y-94035000D01*
X147955874Y-94035000D01*
X148250000Y-93913169D01*
X148544126Y-94035000D01*
X148715000Y-94035000D01*
X148715000Y-94205874D01*
X148836831Y-94500000D01*
X148715000Y-94794126D01*
X148715000Y-95205874D01*
X148836831Y-95500000D01*
X148715000Y-95794126D01*
X148715000Y-96205874D01*
X148836831Y-96500000D01*
X148715000Y-96794126D01*
X148715000Y-97205874D01*
X148836831Y-97500000D01*
X148715000Y-97794126D01*
X148715000Y-98205874D01*
X148836831Y-98500000D01*
X148715000Y-98794126D01*
X148715000Y-99205874D01*
X148836831Y-99500000D01*
X148715000Y-99794126D01*
X148715000Y-99965000D01*
X148544126Y-99965000D01*
X148250000Y-100086831D01*
X147955874Y-99965000D01*
X147544126Y-99965000D01*
X147250000Y-100086831D01*
X146955874Y-99965000D01*
X146544126Y-99965000D01*
X146250000Y-100086831D01*
X145955874Y-99965000D01*
X145544126Y-99965000D01*
X145250000Y-100086831D01*
X144955874Y-99965000D01*
X144544126Y-99965000D01*
X144250000Y-100086831D01*
X143955874Y-99965000D01*
X143544126Y-99965000D01*
X143250000Y-100086831D01*
X142955874Y-99965000D01*
X142544126Y-99965000D01*
X142250000Y-100086831D01*
X141955874Y-99965000D01*
X141544126Y-99965000D01*
X141163720Y-100122569D01*
X140872569Y-100413720D01*
X140715000Y-100794126D01*
X140715000Y-101205874D01*
X140872569Y-101586280D01*
X141163720Y-101877431D01*
X141544126Y-102035000D01*
X141955874Y-102035000D01*
X142250000Y-101913169D01*
X142544126Y-102035000D01*
X142955874Y-102035000D01*
X143250000Y-101913169D01*
X143544126Y-102035000D01*
X143955874Y-102035000D01*
X144250000Y-101913169D01*
X144544126Y-102035000D01*
X144955874Y-102035000D01*
X145250000Y-101913169D01*
X145544126Y-102035000D01*
X145955874Y-102035000D01*
X146250000Y-101913169D01*
X146544126Y-102035000D01*
X146955874Y-102035000D01*
X147250000Y-101913169D01*
X147544126Y-102035000D01*
X147955874Y-102035000D01*
X148250000Y-101913169D01*
X148544126Y-102035000D01*
X148955874Y-102035000D01*
X149250000Y-101913169D01*
X149544126Y-102035000D01*
X149955874Y-102035000D01*
X150336280Y-101877431D01*
X150627431Y-101586280D01*
X150785000Y-101205874D01*
X150785000Y-100794126D01*
X150663169Y-100500000D01*
X150785000Y-100205874D01*
X150785000Y-99794126D01*
X150663169Y-99500000D01*
X150785000Y-99205874D01*
X150785000Y-98794126D01*
X150663169Y-98500000D01*
X150785000Y-98205874D01*
X150785000Y-97794126D01*
X150663169Y-97500000D01*
X150785000Y-97205874D01*
X150785000Y-96794126D01*
X150663169Y-96500000D01*
X150785000Y-96205874D01*
X150785000Y-95794126D01*
X150663169Y-95500000D01*
X150785000Y-95205874D01*
X150785000Y-94794126D01*
X150663169Y-94500000D01*
X150785000Y-94205874D01*
X150785000Y-93794126D01*
X150663169Y-93500000D01*
X150766722Y-93250000D01*
X157615000Y-93250000D01*
X157615000Y-100500000D01*
X157627201Y-100623882D01*
X157703321Y-101006565D01*
X157715000Y-101034760D01*
X157715000Y-101205874D01*
X157872569Y-101586280D01*
X158163720Y-101877431D01*
X158544126Y-102035000D01*
X158715240Y-102035000D01*
X158743435Y-102046679D01*
X159126118Y-102122799D01*
X159250000Y-102135000D01*
X166250000Y-102135000D01*
X166373882Y-102122799D01*
X166756565Y-102046679D01*
X166784760Y-102035000D01*
X166955874Y-102035000D01*
X167336280Y-101877431D01*
X167627431Y-101586280D01*
X167785000Y-101205874D01*
X167785000Y-101034760D01*
X167796679Y-101006565D01*
X167872799Y-100623882D01*
X167885000Y-100500000D01*
X167885000Y-98015322D01*
X171065000Y-98015322D01*
X171065000Y-98864678D01*
X171390034Y-99649380D01*
X171990620Y-100249966D01*
X172775322Y-100575000D01*
X173624678Y-100575000D01*
X174409380Y-100249966D01*
X175009966Y-99649380D01*
X175335000Y-98864678D01*
X175335000Y-98015322D01*
X175009966Y-97230620D01*
X174409380Y-96630034D01*
X173624678Y-96305000D01*
X172775322Y-96305000D01*
X171990620Y-96630034D01*
X171390034Y-97230620D01*
X171065000Y-98015322D01*
X167885000Y-98015322D01*
X167885000Y-93250000D01*
X167872799Y-93126118D01*
X167834848Y-92935322D01*
X171065000Y-92935322D01*
X171065000Y-93784678D01*
X171390034Y-94569380D01*
X171990620Y-95169966D01*
X172775322Y-95495000D01*
X173624678Y-95495000D01*
X174409380Y-95169966D01*
X175009966Y-94569380D01*
X175335000Y-93784678D01*
X175335000Y-92935322D01*
X175009966Y-92150620D01*
X174409380Y-91550034D01*
X173624678Y-91225000D01*
X172775322Y-91225000D01*
X171990620Y-91550034D01*
X171390034Y-92150620D01*
X171065000Y-92935322D01*
X167834848Y-92935322D01*
X167796679Y-92743435D01*
X167785000Y-92715240D01*
X167785000Y-92544126D01*
X167627431Y-92163720D01*
X167336280Y-91872569D01*
X166955874Y-91715000D01*
X166784760Y-91715000D01*
X166756565Y-91703321D01*
X166373882Y-91627201D01*
X166250000Y-91615000D01*
X159250000Y-91615000D01*
X159126118Y-91627201D01*
X158743435Y-91703321D01*
X158715240Y-91715000D01*
X158544126Y-91715000D01*
X158163720Y-91872569D01*
X157872569Y-92163720D01*
X157715000Y-92544126D01*
X157715000Y-92715240D01*
X157703321Y-92743435D01*
X157627201Y-93126118D01*
X157615000Y-93250000D01*
X150766722Y-93250000D01*
X150785000Y-93205874D01*
X150785000Y-92794126D01*
X150627431Y-92413720D01*
X150336280Y-92122569D01*
X149955874Y-91965000D01*
X149544126Y-91965000D01*
X149250000Y-92086831D01*
X148955874Y-91965000D01*
X148544126Y-91965000D01*
X148250000Y-92086831D01*
X147955874Y-91965000D01*
X147544126Y-91965000D01*
X147250000Y-92086831D01*
X146955874Y-91965000D01*
X146544126Y-91965000D01*
X146250000Y-92086831D01*
X145955874Y-91965000D01*
X145544126Y-91965000D01*
X145250000Y-92086831D01*
X144955874Y-91965000D01*
X144544126Y-91965000D01*
X144250000Y-92086831D01*
X143955874Y-91965000D01*
X143544126Y-91965000D01*
X143250000Y-92086831D01*
X142955874Y-91965000D01*
X142544126Y-91965000D01*
X142250000Y-92086831D01*
X141955874Y-91965000D01*
X141544126Y-91965000D01*
X141163720Y-92122569D01*
X140872569Y-92413720D01*
X140715000Y-92794126D01*
X114078492Y-92794126D01*
X114069146Y-92747145D01*
X113940759Y-92555000D01*
X114069146Y-92362855D01*
X114157235Y-91920000D01*
X114069146Y-91477145D01*
X113940759Y-91285000D01*
X114069146Y-91092855D01*
X114157235Y-90650000D01*
X114069146Y-90207145D01*
X113940759Y-90015000D01*
X114069146Y-89822855D01*
X114157235Y-89380000D01*
X114069146Y-88937145D01*
X113940759Y-88745000D01*
X114069146Y-88552855D01*
X114157235Y-88110000D01*
X114106577Y-87855322D01*
X171065000Y-87855322D01*
X171065000Y-88704678D01*
X171390034Y-89489380D01*
X171990620Y-90089966D01*
X172775322Y-90415000D01*
X173624678Y-90415000D01*
X174409380Y-90089966D01*
X175009966Y-89489380D01*
X175335000Y-88704678D01*
X175335000Y-87855322D01*
X175009966Y-87070620D01*
X174409380Y-86470034D01*
X173624678Y-86145000D01*
X172775322Y-86145000D01*
X171990620Y-86470034D01*
X171390034Y-87070620D01*
X171065000Y-87855322D01*
X114106577Y-87855322D01*
X114069146Y-87667145D01*
X113940759Y-87475000D01*
X114069146Y-87282855D01*
X114157235Y-86840000D01*
X114069146Y-86397145D01*
X113940759Y-86205000D01*
X114069146Y-86012855D01*
X114157235Y-85570000D01*
X114069146Y-85127145D01*
X113940759Y-84935000D01*
X114069146Y-84742855D01*
X114157235Y-84300000D01*
X114069146Y-83857145D01*
X113940759Y-83665000D01*
X114069146Y-83472855D01*
X114157235Y-83030000D01*
X114150100Y-82994126D01*
X120015000Y-82994126D01*
X120015000Y-83405874D01*
X120172569Y-83786280D01*
X120463720Y-84077431D01*
X120844126Y-84235000D01*
X121255874Y-84235000D01*
X121636280Y-84077431D01*
X121927431Y-83786280D01*
X122085000Y-83405874D01*
X122085000Y-82994126D01*
X121927431Y-82613720D01*
X121636280Y-82322569D01*
X121255874Y-82165000D01*
X120844126Y-82165000D01*
X120463720Y-82322569D01*
X120172569Y-82613720D01*
X120015000Y-82994126D01*
X114150100Y-82994126D01*
X114069146Y-82587145D01*
X113940759Y-82395000D01*
X114069146Y-82202855D01*
X114157235Y-81760000D01*
X114069146Y-81317145D01*
X113940759Y-81125000D01*
X114069146Y-80932855D01*
X114157235Y-80490000D01*
X114069146Y-80047145D01*
X113940759Y-79855000D01*
X114069146Y-79662855D01*
X114157235Y-79220000D01*
X114069146Y-78777145D01*
X113818289Y-78401711D01*
X113442855Y-78150854D01*
X113111783Y-78085000D01*
X112888217Y-78085000D01*
X112557145Y-78150854D01*
X112181711Y-78401711D01*
X111930854Y-78777145D01*
X111842765Y-79220000D01*
X110127000Y-79220000D01*
X110127000Y-77794126D01*
X140715000Y-77794126D01*
X140715000Y-78205874D01*
X140872569Y-78586280D01*
X141163720Y-78877431D01*
X141544126Y-79035000D01*
X141955874Y-79035000D01*
X142250000Y-78913169D01*
X142544126Y-79035000D01*
X142955874Y-79035000D01*
X143250000Y-78913169D01*
X143544126Y-79035000D01*
X143955874Y-79035000D01*
X144250000Y-78913169D01*
X144544126Y-79035000D01*
X144955874Y-79035000D01*
X145250000Y-78913169D01*
X145544126Y-79035000D01*
X145955874Y-79035000D01*
X146250000Y-78913169D01*
X146544126Y-79035000D01*
X146955874Y-79035000D01*
X147250000Y-78913169D01*
X147544126Y-79035000D01*
X147955874Y-79035000D01*
X148250000Y-78913169D01*
X148544126Y-79035000D01*
X148715000Y-79035000D01*
X148715000Y-79205874D01*
X148836831Y-79500000D01*
X148715000Y-79794126D01*
X148715000Y-80205874D01*
X148836831Y-80500000D01*
X148715000Y-80794126D01*
X148715000Y-81205874D01*
X148836831Y-81500000D01*
X148715000Y-81794126D01*
X148715000Y-82205874D01*
X148836831Y-82500000D01*
X148715000Y-82794126D01*
X148715000Y-83205874D01*
X148836831Y-83500000D01*
X148715000Y-83794126D01*
X148715000Y-84205874D01*
X148836831Y-84500000D01*
X148715000Y-84794126D01*
X148715000Y-84965000D01*
X148544126Y-84965000D01*
X148250000Y-85086831D01*
X147955874Y-84965000D01*
X147544126Y-84965000D01*
X147250000Y-85086831D01*
X146955874Y-84965000D01*
X146544126Y-84965000D01*
X146250000Y-85086831D01*
X145955874Y-84965000D01*
X145544126Y-84965000D01*
X145250000Y-85086831D01*
X144955874Y-84965000D01*
X144544126Y-84965000D01*
X144250000Y-85086831D01*
X143955874Y-84965000D01*
X143544126Y-84965000D01*
X143250000Y-85086831D01*
X142955874Y-84965000D01*
X142544126Y-84965000D01*
X142250000Y-85086831D01*
X141955874Y-84965000D01*
X141544126Y-84965000D01*
X141163720Y-85122569D01*
X140872569Y-85413720D01*
X140715000Y-85794126D01*
X140715000Y-86205874D01*
X140872569Y-86586280D01*
X141163720Y-86877431D01*
X141544126Y-87035000D01*
X141955874Y-87035000D01*
X142250000Y-86913169D01*
X142544126Y-87035000D01*
X142955874Y-87035000D01*
X143250000Y-86913169D01*
X143544126Y-87035000D01*
X143955874Y-87035000D01*
X144250000Y-86913169D01*
X144544126Y-87035000D01*
X144955874Y-87035000D01*
X145250000Y-86913169D01*
X145544126Y-87035000D01*
X145955874Y-87035000D01*
X146250000Y-86913169D01*
X146544126Y-87035000D01*
X146955874Y-87035000D01*
X147250000Y-86913169D01*
X147544126Y-87035000D01*
X147955874Y-87035000D01*
X148250000Y-86913169D01*
X148544126Y-87035000D01*
X148955874Y-87035000D01*
X149250000Y-86913169D01*
X149544126Y-87035000D01*
X149955874Y-87035000D01*
X150336280Y-86877431D01*
X150627431Y-86586280D01*
X150785000Y-86205874D01*
X150785000Y-85794126D01*
X150663169Y-85500000D01*
X150785000Y-85205874D01*
X150785000Y-84794126D01*
X150663169Y-84500000D01*
X150785000Y-84205874D01*
X150785000Y-83794126D01*
X150663169Y-83500000D01*
X150785000Y-83205874D01*
X150785000Y-82794126D01*
X150663169Y-82500000D01*
X150785000Y-82205874D01*
X150785000Y-81794126D01*
X150663169Y-81500000D01*
X150785000Y-81205874D01*
X150785000Y-80794126D01*
X150663169Y-80500000D01*
X150785000Y-80205874D01*
X150785000Y-79794126D01*
X150663169Y-79500000D01*
X150785000Y-79205874D01*
X150785000Y-78794126D01*
X150663169Y-78500000D01*
X157615000Y-78500000D01*
X157615000Y-85750000D01*
X157627201Y-85873882D01*
X157703321Y-86256565D01*
X157798137Y-86485470D01*
X158014910Y-86809894D01*
X158190106Y-86985090D01*
X158514530Y-87201863D01*
X158743435Y-87296679D01*
X159126118Y-87372799D01*
X159250000Y-87385000D01*
X166250000Y-87385000D01*
X166373882Y-87372799D01*
X166756565Y-87296679D01*
X166985470Y-87201863D01*
X167309894Y-86985090D01*
X167485090Y-86809894D01*
X167701863Y-86485470D01*
X167796679Y-86256565D01*
X167872799Y-85873882D01*
X167885000Y-85750000D01*
X167885000Y-81700000D01*
X171052560Y-81700000D01*
X171052560Y-84700000D01*
X171101843Y-84947765D01*
X171242191Y-85157809D01*
X171452235Y-85298157D01*
X171700000Y-85347440D01*
X174700000Y-85347440D01*
X174947765Y-85298157D01*
X175157809Y-85157809D01*
X175298157Y-84947765D01*
X175347440Y-84700000D01*
X175347440Y-81700000D01*
X175298157Y-81452235D01*
X175157809Y-81242191D01*
X174947765Y-81101843D01*
X174700000Y-81052560D01*
X171700000Y-81052560D01*
X171452235Y-81101843D01*
X171242191Y-81242191D01*
X171101843Y-81452235D01*
X171052560Y-81700000D01*
X167885000Y-81700000D01*
X167885000Y-78500000D01*
X167872799Y-78376118D01*
X167796679Y-77993435D01*
X167785000Y-77965240D01*
X167785000Y-77794126D01*
X167627431Y-77413720D01*
X167336280Y-77122569D01*
X166955874Y-76965000D01*
X166784760Y-76965000D01*
X166756565Y-76953321D01*
X166373882Y-76877201D01*
X166250000Y-76865000D01*
X159250000Y-76865000D01*
X159126118Y-76877201D01*
X158743435Y-76953321D01*
X158715240Y-76965000D01*
X158544126Y-76965000D01*
X158163720Y-77122569D01*
X157872569Y-77413720D01*
X157715000Y-77794126D01*
X157715000Y-77965240D01*
X157703321Y-77993435D01*
X157627201Y-78376118D01*
X157615000Y-78500000D01*
X150663169Y-78500000D01*
X150785000Y-78205874D01*
X150785000Y-77794126D01*
X150627431Y-77413720D01*
X150336280Y-77122569D01*
X149955874Y-76965000D01*
X149544126Y-76965000D01*
X149250000Y-77086831D01*
X148955874Y-76965000D01*
X148544126Y-76965000D01*
X148250000Y-77086831D01*
X147955874Y-76965000D01*
X147544126Y-76965000D01*
X147250000Y-77086831D01*
X146955874Y-76965000D01*
X146544126Y-76965000D01*
X146250000Y-77086831D01*
X145955874Y-76965000D01*
X145544126Y-76965000D01*
X145250000Y-77086831D01*
X144955874Y-76965000D01*
X144544126Y-76965000D01*
X144250000Y-77086831D01*
X143955874Y-76965000D01*
X143544126Y-76965000D01*
X143250000Y-77086831D01*
X142955874Y-76965000D01*
X142544126Y-76965000D01*
X142250000Y-77086831D01*
X141955874Y-76965000D01*
X141544126Y-76965000D01*
X141163720Y-77122569D01*
X140872569Y-77413720D01*
X140715000Y-77794126D01*
X110127000Y-77794126D01*
X110127000Y-71655322D01*
X171865000Y-71655322D01*
X171865000Y-72504678D01*
X172190034Y-73289380D01*
X172790620Y-73889966D01*
X173575322Y-74215000D01*
X174424678Y-74215000D01*
X175209380Y-73889966D01*
X175809966Y-73289380D01*
X176135000Y-72504678D01*
X176135000Y-71655322D01*
X175809966Y-70870620D01*
X175209380Y-70270034D01*
X174424678Y-69945000D01*
X173575322Y-69945000D01*
X172790620Y-70270034D01*
X172190034Y-70870620D01*
X171865000Y-71655322D01*
X110127000Y-71655322D01*
X110127000Y-68700000D01*
X160052560Y-68700000D01*
X160052560Y-70300000D01*
X160101843Y-70547765D01*
X160242191Y-70757809D01*
X160452235Y-70898157D01*
X160700000Y-70947440D01*
X162300000Y-70947440D01*
X162547765Y-70898157D01*
X162757809Y-70757809D01*
X162898157Y-70547765D01*
X162906117Y-70507745D01*
X164171861Y-70507745D01*
X164245995Y-70753864D01*
X164783223Y-70946965D01*
X165353454Y-70919778D01*
X165754005Y-70753864D01*
X165828139Y-70507745D01*
X165000000Y-69679605D01*
X164171861Y-70507745D01*
X162906117Y-70507745D01*
X162947440Y-70300000D01*
X162947440Y-69283223D01*
X163553035Y-69283223D01*
X163580222Y-69853454D01*
X163746136Y-70254005D01*
X163992255Y-70328139D01*
X164820395Y-69500000D01*
X165179605Y-69500000D01*
X166007745Y-70328139D01*
X166253864Y-70254005D01*
X166446965Y-69716777D01*
X166419778Y-69146546D01*
X166253864Y-68745995D01*
X166007745Y-68671861D01*
X165179605Y-69500000D01*
X164820395Y-69500000D01*
X163992255Y-68671861D01*
X163746136Y-68745995D01*
X163553035Y-69283223D01*
X162947440Y-69283223D01*
X162947440Y-68700000D01*
X162906118Y-68492255D01*
X164171861Y-68492255D01*
X165000000Y-69320395D01*
X165828139Y-68492255D01*
X165754005Y-68246136D01*
X165216777Y-68053035D01*
X164646546Y-68080222D01*
X164245995Y-68246136D01*
X164171861Y-68492255D01*
X162906118Y-68492255D01*
X162898157Y-68452235D01*
X162757809Y-68242191D01*
X162547765Y-68101843D01*
X162300000Y-68052560D01*
X160700000Y-68052560D01*
X160452235Y-68101843D01*
X160242191Y-68242191D01*
X160101843Y-68452235D01*
X160052560Y-68700000D01*
X110127000Y-68700000D01*
X110127000Y-67285750D01*
X171865000Y-67285750D01*
X171865000Y-68626309D01*
X171961673Y-68859698D01*
X172140301Y-69038327D01*
X172373690Y-69135000D01*
X173714250Y-69135000D01*
X173873000Y-68976250D01*
X173873000Y-67127000D01*
X174127000Y-67127000D01*
X174127000Y-68976250D01*
X174285750Y-69135000D01*
X175626310Y-69135000D01*
X175859699Y-69038327D01*
X176038327Y-68859698D01*
X176135000Y-68626309D01*
X176135000Y-67285750D01*
X175976250Y-67127000D01*
X174127000Y-67127000D01*
X173873000Y-67127000D01*
X172023750Y-67127000D01*
X171865000Y-67285750D01*
X110127000Y-67285750D01*
X110127000Y-65373691D01*
X171865000Y-65373691D01*
X171865000Y-66714250D01*
X172023750Y-66873000D01*
X173873000Y-66873000D01*
X173873000Y-65023750D01*
X174127000Y-65023750D01*
X174127000Y-66873000D01*
X175976250Y-66873000D01*
X176135000Y-66714250D01*
X176135000Y-65373691D01*
X176038327Y-65140302D01*
X175859699Y-64961673D01*
X175626310Y-64865000D01*
X174285750Y-64865000D01*
X174127000Y-65023750D01*
X173873000Y-65023750D01*
X173714250Y-64865000D01*
X172373690Y-64865000D01*
X172140301Y-64961673D01*
X171961673Y-65140302D01*
X171865000Y-65373691D01*
X110127000Y-65373691D01*
X110127000Y-57191724D01*
X114237882Y-57191724D01*
X114385455Y-57500106D01*
X115140031Y-57793405D01*
X115949409Y-57775614D01*
X116614545Y-57500106D01*
X116762118Y-57191724D01*
X115500000Y-55929605D01*
X114237882Y-57191724D01*
X110127000Y-57191724D01*
X110127000Y-55390031D01*
X113456595Y-55390031D01*
X113474386Y-56199409D01*
X113749894Y-56864545D01*
X114058276Y-57012118D01*
X115320395Y-55750000D01*
X115679605Y-55750000D01*
X116941724Y-57012118D01*
X117250106Y-56864545D01*
X117543405Y-56109969D01*
X117525614Y-55300591D01*
X117250106Y-54635455D01*
X116941724Y-54487882D01*
X115679605Y-55750000D01*
X115320395Y-55750000D01*
X114058276Y-54487882D01*
X113749894Y-54635455D01*
X113456595Y-55390031D01*
X110127000Y-55390031D01*
X110127000Y-54308276D01*
X114237882Y-54308276D01*
X115500000Y-55570395D01*
X116762118Y-54308276D01*
X116614545Y-53999894D01*
X115859969Y-53706595D01*
X115050591Y-53724386D01*
X114385455Y-53999894D01*
X114237882Y-54308276D01*
X110127000Y-54308276D01*
X110127000Y-53294126D01*
X140215000Y-53294126D01*
X140215000Y-53705874D01*
X140372569Y-54086280D01*
X140663720Y-54377431D01*
X141044126Y-54535000D01*
X141455874Y-54535000D01*
X141750000Y-54413169D01*
X142044126Y-54535000D01*
X142455874Y-54535000D01*
X142750000Y-54413169D01*
X143044126Y-54535000D01*
X143455874Y-54535000D01*
X143750000Y-54413169D01*
X144044126Y-54535000D01*
X144455874Y-54535000D01*
X144750000Y-54413169D01*
X145044126Y-54535000D01*
X145455874Y-54535000D01*
X145750000Y-54413169D01*
X146044126Y-54535000D01*
X146455874Y-54535000D01*
X146750000Y-54413169D01*
X147044126Y-54535000D01*
X147455874Y-54535000D01*
X147750000Y-54413169D01*
X148044126Y-54535000D01*
X148215000Y-54535000D01*
X148215000Y-54705874D01*
X148336831Y-55000000D01*
X148215000Y-55294126D01*
X148215000Y-55705874D01*
X148336831Y-56000000D01*
X148215000Y-56294126D01*
X148215000Y-56705874D01*
X148336831Y-57000000D01*
X148215000Y-57294126D01*
X148215000Y-57705874D01*
X148336831Y-58000000D01*
X148215000Y-58294126D01*
X148215000Y-58705874D01*
X148336831Y-59000000D01*
X148215000Y-59294126D01*
X148215000Y-59705874D01*
X148336831Y-60000000D01*
X148215000Y-60294126D01*
X148215000Y-60465000D01*
X148044126Y-60465000D01*
X147750000Y-60586831D01*
X147455874Y-60465000D01*
X147044126Y-60465000D01*
X146750000Y-60586831D01*
X146455874Y-60465000D01*
X146044126Y-60465000D01*
X145750000Y-60586831D01*
X145455874Y-60465000D01*
X145044126Y-60465000D01*
X144750000Y-60586831D01*
X144455874Y-60465000D01*
X144044126Y-60465000D01*
X143750000Y-60586831D01*
X143455874Y-60465000D01*
X143044126Y-60465000D01*
X142750000Y-60586831D01*
X142455874Y-60465000D01*
X142044126Y-60465000D01*
X141750000Y-60586831D01*
X141455874Y-60465000D01*
X141044126Y-60465000D01*
X140663720Y-60622569D01*
X140372569Y-60913720D01*
X140215000Y-61294126D01*
X140215000Y-61705874D01*
X140372569Y-62086280D01*
X140663720Y-62377431D01*
X141044126Y-62535000D01*
X141455874Y-62535000D01*
X141750000Y-62413169D01*
X142044126Y-62535000D01*
X142455874Y-62535000D01*
X142750000Y-62413169D01*
X143044126Y-62535000D01*
X143455874Y-62535000D01*
X143750000Y-62413169D01*
X144044126Y-62535000D01*
X144455874Y-62535000D01*
X144750000Y-62413169D01*
X145044126Y-62535000D01*
X145455874Y-62535000D01*
X145750000Y-62413169D01*
X146044126Y-62535000D01*
X146455874Y-62535000D01*
X146750000Y-62413169D01*
X147044126Y-62535000D01*
X147455874Y-62535000D01*
X147750000Y-62413169D01*
X148044126Y-62535000D01*
X148455874Y-62535000D01*
X148750000Y-62413169D01*
X149044126Y-62535000D01*
X149455874Y-62535000D01*
X149836280Y-62377431D01*
X150127431Y-62086280D01*
X150285000Y-61705874D01*
X150285000Y-61294126D01*
X150163169Y-61000000D01*
X150285000Y-60705874D01*
X150285000Y-60294126D01*
X150163169Y-60000000D01*
X150285000Y-59705874D01*
X150285000Y-59294126D01*
X150163169Y-59000000D01*
X150285000Y-58705874D01*
X150285000Y-58294126D01*
X150163169Y-58000000D01*
X150285000Y-57705874D01*
X150285000Y-57294126D01*
X150163169Y-57000000D01*
X150285000Y-56705874D01*
X150285000Y-56294126D01*
X150163169Y-56000000D01*
X150285000Y-55705874D01*
X150285000Y-55294126D01*
X150163169Y-55000000D01*
X150285000Y-54705874D01*
X150285000Y-54294126D01*
X150163169Y-54000000D01*
X157615000Y-54000000D01*
X157615000Y-61250000D01*
X157627201Y-61373882D01*
X157703321Y-61756565D01*
X157715000Y-61784760D01*
X157715000Y-61955874D01*
X157872569Y-62336280D01*
X158163720Y-62627431D01*
X158544126Y-62785000D01*
X158715240Y-62785000D01*
X158743435Y-62796679D01*
X159126118Y-62872799D01*
X159250000Y-62885000D01*
X166250000Y-62885000D01*
X166373882Y-62872799D01*
X166756565Y-62796679D01*
X166784760Y-62785000D01*
X166955874Y-62785000D01*
X167336280Y-62627431D01*
X167627431Y-62336280D01*
X167687307Y-62191724D01*
X174737882Y-62191724D01*
X174885455Y-62500106D01*
X175640031Y-62793405D01*
X176449409Y-62775614D01*
X177114545Y-62500106D01*
X177262118Y-62191724D01*
X176000000Y-60929605D01*
X174737882Y-62191724D01*
X167687307Y-62191724D01*
X167785000Y-61955874D01*
X167785000Y-61784760D01*
X167796679Y-61756565D01*
X167872799Y-61373882D01*
X167885000Y-61250000D01*
X167885000Y-60390031D01*
X173956595Y-60390031D01*
X173974386Y-61199409D01*
X174249894Y-61864545D01*
X174558276Y-62012118D01*
X175820395Y-60750000D01*
X176179605Y-60750000D01*
X177441724Y-62012118D01*
X177750106Y-61864545D01*
X178043405Y-61109969D01*
X178025614Y-60300591D01*
X177750106Y-59635455D01*
X177441724Y-59487882D01*
X176179605Y-60750000D01*
X175820395Y-60750000D01*
X174558276Y-59487882D01*
X174249894Y-59635455D01*
X173956595Y-60390031D01*
X167885000Y-60390031D01*
X167885000Y-59308276D01*
X174737882Y-59308276D01*
X176000000Y-60570395D01*
X177262118Y-59308276D01*
X177114545Y-58999894D01*
X176359969Y-58706595D01*
X175550591Y-58724386D01*
X174885455Y-58999894D01*
X174737882Y-59308276D01*
X167885000Y-59308276D01*
X167885000Y-54000000D01*
X167872799Y-53876118D01*
X167796679Y-53493435D01*
X167785000Y-53465240D01*
X167785000Y-53294126D01*
X167627431Y-52913720D01*
X167336280Y-52622569D01*
X166955874Y-52465000D01*
X166784760Y-52465000D01*
X166756565Y-52453321D01*
X166373882Y-52377201D01*
X166250000Y-52365000D01*
X159250000Y-52365000D01*
X159126118Y-52377201D01*
X158743435Y-52453321D01*
X158715240Y-52465000D01*
X158544126Y-52465000D01*
X158163720Y-52622569D01*
X157872569Y-52913720D01*
X157715000Y-53294126D01*
X157715000Y-53465240D01*
X157703321Y-53493435D01*
X157627201Y-53876118D01*
X157615000Y-54000000D01*
X150163169Y-54000000D01*
X150285000Y-53705874D01*
X150285000Y-53294126D01*
X150127431Y-52913720D01*
X149836280Y-52622569D01*
X149455874Y-52465000D01*
X149044126Y-52465000D01*
X148750000Y-52586831D01*
X148455874Y-52465000D01*
X148044126Y-52465000D01*
X147750000Y-52586831D01*
X147455874Y-52465000D01*
X147044126Y-52465000D01*
X146750000Y-52586831D01*
X146455874Y-52465000D01*
X146044126Y-52465000D01*
X145750000Y-52586831D01*
X145455874Y-52465000D01*
X145044126Y-52465000D01*
X144750000Y-52586831D01*
X144455874Y-52465000D01*
X144044126Y-52465000D01*
X143750000Y-52586831D01*
X143455874Y-52465000D01*
X143044126Y-52465000D01*
X142750000Y-52586831D01*
X142455874Y-52465000D01*
X142044126Y-52465000D01*
X141750000Y-52586831D01*
X141455874Y-52465000D01*
X141044126Y-52465000D01*
X140663720Y-52622569D01*
X140372569Y-52913720D01*
X140215000Y-53294126D01*
X110127000Y-53294126D01*
X110127000Y-51127000D01*
X178873000Y-51127000D01*
X178873000Y-127873000D01*
X178873000Y-127873000D01*
G37*
X178873000Y-127873000D02*
X110127000Y-127873000D01*
X110127000Y-123191724D01*
X124737882Y-123191724D01*
X124885455Y-123500106D01*
X125640031Y-123793405D01*
X126449409Y-123775614D01*
X127114545Y-123500106D01*
X127262118Y-123191724D01*
X126000000Y-121929605D01*
X124737882Y-123191724D01*
X110127000Y-123191724D01*
X110127000Y-121390031D01*
X123956595Y-121390031D01*
X123974386Y-122199409D01*
X124249894Y-122864545D01*
X124558276Y-123012118D01*
X125820395Y-121750000D01*
X126179605Y-121750000D01*
X127441724Y-123012118D01*
X127750106Y-122864545D01*
X128043405Y-122109969D01*
X128025614Y-121300591D01*
X127750106Y-120635455D01*
X127441724Y-120487882D01*
X126179605Y-121750000D01*
X125820395Y-121750000D01*
X124558276Y-120487882D01*
X124249894Y-120635455D01*
X123956595Y-121390031D01*
X110127000Y-121390031D01*
X110127000Y-120308276D01*
X124737882Y-120308276D01*
X126000000Y-121570395D01*
X127262118Y-120308276D01*
X127114545Y-119999894D01*
X126359969Y-119706595D01*
X125550591Y-119724386D01*
X124885455Y-119999894D01*
X124737882Y-120308276D01*
X110127000Y-120308276D01*
X110127000Y-117294126D01*
X140715000Y-117294126D01*
X140715000Y-117705874D01*
X140872569Y-118086280D01*
X141163720Y-118377431D01*
X141544126Y-118535000D01*
X141955874Y-118535000D01*
X142250000Y-118413169D01*
X142544126Y-118535000D01*
X142955874Y-118535000D01*
X143250000Y-118413169D01*
X143544126Y-118535000D01*
X143955874Y-118535000D01*
X144250000Y-118413169D01*
X144544126Y-118535000D01*
X144955874Y-118535000D01*
X145250000Y-118413169D01*
X145544126Y-118535000D01*
X145955874Y-118535000D01*
X146250000Y-118413169D01*
X146544126Y-118535000D01*
X146955874Y-118535000D01*
X147250000Y-118413169D01*
X147544126Y-118535000D01*
X147955874Y-118535000D01*
X148250000Y-118413169D01*
X148544126Y-118535000D01*
X148715000Y-118535000D01*
X148715000Y-118705874D01*
X148836831Y-119000000D01*
X148715000Y-119294126D01*
X148715000Y-119705874D01*
X148836831Y-120000000D01*
X148715000Y-120294126D01*
X148715000Y-120705874D01*
X148836831Y-121000000D01*
X148715000Y-121294126D01*
X148715000Y-121705874D01*
X148836831Y-122000000D01*
X148715000Y-122294126D01*
X148715000Y-122705874D01*
X148836831Y-123000000D01*
X148715000Y-123294126D01*
X148715000Y-123705874D01*
X148836831Y-124000000D01*
X148715000Y-124294126D01*
X148715000Y-124465000D01*
X148544126Y-124465000D01*
X148250000Y-124586831D01*
X147955874Y-124465000D01*
X147544126Y-124465000D01*
X147250000Y-124586831D01*
X146955874Y-124465000D01*
X146544126Y-124465000D01*
X146250000Y-124586831D01*
X145955874Y-124465000D01*
X145544126Y-124465000D01*
X145250000Y-124586831D01*
X144955874Y-124465000D01*
X144544126Y-124465000D01*
X144250000Y-124586831D01*
X143955874Y-124465000D01*
X143544126Y-124465000D01*
X143250000Y-124586831D01*
X142955874Y-124465000D01*
X142544126Y-124465000D01*
X142250000Y-124586831D01*
X141955874Y-124465000D01*
X141544126Y-124465000D01*
X141163720Y-124622569D01*
X140872569Y-124913720D01*
X140715000Y-125294126D01*
X140715000Y-125705874D01*
X140872569Y-126086280D01*
X141163720Y-126377431D01*
X141544126Y-126535000D01*
X141955874Y-126535000D01*
X142250000Y-126413169D01*
X142544126Y-126535000D01*
X142955874Y-126535000D01*
X143250000Y-126413169D01*
X143544126Y-126535000D01*
X143955874Y-126535000D01*
X144250000Y-126413169D01*
X144544126Y-126535000D01*
X144955874Y-126535000D01*
X145250000Y-126413169D01*
X145544126Y-126535000D01*
X145955874Y-126535000D01*
X146250000Y-126413169D01*
X146544126Y-126535000D01*
X146955874Y-126535000D01*
X147250000Y-126413169D01*
X147544126Y-126535000D01*
X147955874Y-126535000D01*
X148250000Y-126413169D01*
X148544126Y-126535000D01*
X148955874Y-126535000D01*
X149295711Y-126394235D01*
X149394126Y-126435000D01*
X149805874Y-126435000D01*
X150186280Y-126277431D01*
X150477431Y-125986280D01*
X150635000Y-125605874D01*
X150635000Y-125194126D01*
X150601196Y-125112515D01*
X150627431Y-125086280D01*
X150785000Y-124705874D01*
X150785000Y-124294126D01*
X150663169Y-124000000D01*
X150785000Y-123705874D01*
X150785000Y-123294126D01*
X150663169Y-123000000D01*
X150785000Y-122705874D01*
X150785000Y-122294126D01*
X150663169Y-122000000D01*
X150785000Y-121705874D01*
X150785000Y-121294126D01*
X150663169Y-121000000D01*
X150785000Y-120705874D01*
X150785000Y-120294126D01*
X150663169Y-120000000D01*
X150785000Y-119705874D01*
X150785000Y-119294126D01*
X150663169Y-119000000D01*
X150785000Y-118705874D01*
X150785000Y-118294126D01*
X150673165Y-118024132D01*
X157115000Y-118024132D01*
X157115000Y-125024132D01*
X157127201Y-125148014D01*
X157203321Y-125530697D01*
X157298137Y-125759602D01*
X157514910Y-126084026D01*
X157690106Y-126259222D01*
X158014530Y-126475995D01*
X158243435Y-126570811D01*
X158626118Y-126646931D01*
X158750000Y-126659132D01*
X165750000Y-126659132D01*
X165873882Y-126646931D01*
X166256565Y-126570811D01*
X166343020Y-126535000D01*
X166455874Y-126535000D01*
X166836280Y-126377431D01*
X167127431Y-126086280D01*
X167285000Y-125705874D01*
X167285000Y-125558892D01*
X167296679Y-125530697D01*
X167372799Y-125148014D01*
X167385000Y-125024132D01*
X167385000Y-122200000D01*
X170802560Y-122200000D01*
X170802560Y-123800000D01*
X170851843Y-124047765D01*
X170992191Y-124257809D01*
X171202235Y-124398157D01*
X171450000Y-124447440D01*
X173050000Y-124447440D01*
X173297765Y-124398157D01*
X173507809Y-124257809D01*
X173648157Y-124047765D01*
X173656117Y-124007745D01*
X174921861Y-124007745D01*
X174995995Y-124253864D01*
X175533223Y-124446965D01*
X176103454Y-124419778D01*
X176504005Y-124253864D01*
X176578139Y-124007745D01*
X175750000Y-123179605D01*
X174921861Y-124007745D01*
X173656117Y-124007745D01*
X173697440Y-123800000D01*
X173697440Y-122783223D01*
X174303035Y-122783223D01*
X174330222Y-123353454D01*
X174496136Y-123754005D01*
X174742255Y-123828139D01*
X175570395Y-123000000D01*
X175929605Y-123000000D01*
X176757745Y-123828139D01*
X177003864Y-123754005D01*
X177196965Y-123216777D01*
X177169778Y-122646546D01*
X177003864Y-122245995D01*
X176757745Y-122171861D01*
X175929605Y-123000000D01*
X175570395Y-123000000D01*
X174742255Y-122171861D01*
X174496136Y-122245995D01*
X174303035Y-122783223D01*
X173697440Y-122783223D01*
X173697440Y-122200000D01*
X173656118Y-121992255D01*
X174921861Y-121992255D01*
X175750000Y-122820395D01*
X176578139Y-121992255D01*
X176504005Y-121746136D01*
X175966777Y-121553035D01*
X175396546Y-121580222D01*
X174995995Y-121746136D01*
X174921861Y-121992255D01*
X173656118Y-121992255D01*
X173648157Y-121952235D01*
X173507809Y-121742191D01*
X173297765Y-121601843D01*
X173050000Y-121552560D01*
X171450000Y-121552560D01*
X171202235Y-121601843D01*
X170992191Y-121742191D01*
X170851843Y-121952235D01*
X170802560Y-122200000D01*
X167385000Y-122200000D01*
X167385000Y-118024132D01*
X167372799Y-117900250D01*
X167296679Y-117517567D01*
X167285000Y-117489372D01*
X167285000Y-117294126D01*
X167127431Y-116913720D01*
X166836280Y-116622569D01*
X166455874Y-116465000D01*
X166193959Y-116465000D01*
X166076943Y-116441724D01*
X175237882Y-116441724D01*
X175385455Y-116750106D01*
X176140031Y-117043405D01*
X176949409Y-117025614D01*
X177614545Y-116750106D01*
X177762118Y-116441724D01*
X176500000Y-115179605D01*
X175237882Y-116441724D01*
X166076943Y-116441724D01*
X165873882Y-116401333D01*
X165750000Y-116389132D01*
X158750000Y-116389132D01*
X158626118Y-116401333D01*
X158306041Y-116465000D01*
X158044126Y-116465000D01*
X157663720Y-116622569D01*
X157372569Y-116913720D01*
X157215000Y-117294126D01*
X157215000Y-117489372D01*
X157203321Y-117517567D01*
X157127201Y-117900250D01*
X157115000Y-118024132D01*
X150673165Y-118024132D01*
X150663169Y-118000000D01*
X150785000Y-117705874D01*
X150785000Y-117294126D01*
X150627431Y-116913720D01*
X150336280Y-116622569D01*
X149955874Y-116465000D01*
X149544126Y-116465000D01*
X149250000Y-116586831D01*
X148955874Y-116465000D01*
X148544126Y-116465000D01*
X148250000Y-116586831D01*
X147955874Y-116465000D01*
X147544126Y-116465000D01*
X147250000Y-116586831D01*
X146955874Y-116465000D01*
X146544126Y-116465000D01*
X146250000Y-116586831D01*
X145955874Y-116465000D01*
X145544126Y-116465000D01*
X145250000Y-116586831D01*
X144955874Y-116465000D01*
X144544126Y-116465000D01*
X144250000Y-116586831D01*
X143955874Y-116465000D01*
X143544126Y-116465000D01*
X143250000Y-116586831D01*
X142955874Y-116465000D01*
X142544126Y-116465000D01*
X142250000Y-116586831D01*
X141955874Y-116465000D01*
X141544126Y-116465000D01*
X141163720Y-116622569D01*
X140872569Y-116913720D01*
X140715000Y-117294126D01*
X110127000Y-117294126D01*
X110127000Y-114640031D01*
X174456595Y-114640031D01*
X174474386Y-115449409D01*
X174749894Y-116114545D01*
X175058276Y-116262118D01*
X176320395Y-115000000D01*
X176679605Y-115000000D01*
X177941724Y-116262118D01*
X178250106Y-116114545D01*
X178543405Y-115359969D01*
X178525614Y-114550591D01*
X178250106Y-113885455D01*
X177941724Y-113737882D01*
X176679605Y-115000000D01*
X176320395Y-115000000D01*
X175058276Y-113737882D01*
X174749894Y-113885455D01*
X174456595Y-114640031D01*
X110127000Y-114640031D01*
X110127000Y-113558276D01*
X175237882Y-113558276D01*
X176500000Y-114820395D01*
X177762118Y-113558276D01*
X177614545Y-113249894D01*
X176859969Y-112956595D01*
X176050591Y-112974386D01*
X175385455Y-113249894D01*
X175237882Y-113558276D01*
X110127000Y-113558276D01*
X110127000Y-108450000D01*
X160052560Y-108450000D01*
X160052560Y-110050000D01*
X160101843Y-110297765D01*
X160242191Y-110507809D01*
X160452235Y-110648157D01*
X160700000Y-110697440D01*
X162300000Y-110697440D01*
X162547765Y-110648157D01*
X162757809Y-110507809D01*
X162898157Y-110297765D01*
X162906117Y-110257745D01*
X164171861Y-110257745D01*
X164245995Y-110503864D01*
X164783223Y-110696965D01*
X165353454Y-110669778D01*
X165754005Y-110503864D01*
X165828139Y-110257745D01*
X165000000Y-109429605D01*
X164171861Y-110257745D01*
X162906117Y-110257745D01*
X162947440Y-110050000D01*
X162947440Y-109033223D01*
X163553035Y-109033223D01*
X163580222Y-109603454D01*
X163746136Y-110004005D01*
X163992255Y-110078139D01*
X164820395Y-109250000D01*
X165179605Y-109250000D01*
X166007745Y-110078139D01*
X166253864Y-110004005D01*
X166446965Y-109466777D01*
X166419778Y-108896546D01*
X166253864Y-108495995D01*
X166007745Y-108421861D01*
X165179605Y-109250000D01*
X164820395Y-109250000D01*
X163992255Y-108421861D01*
X163746136Y-108495995D01*
X163553035Y-109033223D01*
X162947440Y-109033223D01*
X162947440Y-108450000D01*
X162906118Y-108242255D01*
X164171861Y-108242255D01*
X165000000Y-109070395D01*
X165828139Y-108242255D01*
X165754005Y-107996136D01*
X165216777Y-107803035D01*
X164646546Y-107830222D01*
X164245995Y-107996136D01*
X164171861Y-108242255D01*
X162906118Y-108242255D01*
X162898157Y-108202235D01*
X162757809Y-107992191D01*
X162547765Y-107851843D01*
X162300000Y-107802560D01*
X160700000Y-107802560D01*
X160452235Y-107851843D01*
X160242191Y-107992191D01*
X160101843Y-108202235D01*
X160052560Y-108450000D01*
X110127000Y-108450000D01*
X110127000Y-97285750D01*
X111865000Y-97285750D01*
X111865000Y-97626310D01*
X111961673Y-97859699D01*
X112140302Y-98038327D01*
X112373691Y-98135000D01*
X112714250Y-98135000D01*
X112873000Y-97976250D01*
X112873000Y-97127000D01*
X113127000Y-97127000D01*
X113127000Y-97976250D01*
X113285750Y-98135000D01*
X113626309Y-98135000D01*
X113859698Y-98038327D01*
X114038327Y-97859699D01*
X114135000Y-97626310D01*
X114135000Y-97285750D01*
X113976250Y-97127000D01*
X113127000Y-97127000D01*
X112873000Y-97127000D01*
X112023750Y-97127000D01*
X111865000Y-97285750D01*
X110127000Y-97285750D01*
X110127000Y-79220000D01*
X111842765Y-79220000D01*
X111930854Y-79662855D01*
X112059241Y-79855000D01*
X111930854Y-80047145D01*
X111842765Y-80490000D01*
X111930854Y-80932855D01*
X112059241Y-81125000D01*
X111930854Y-81317145D01*
X111842765Y-81760000D01*
X111930854Y-82202855D01*
X112059241Y-82395000D01*
X111930854Y-82587145D01*
X111842765Y-83030000D01*
X111930854Y-83472855D01*
X112059241Y-83665000D01*
X111930854Y-83857145D01*
X111842765Y-84300000D01*
X111930854Y-84742855D01*
X112059241Y-84935000D01*
X111930854Y-85127145D01*
X111842765Y-85570000D01*
X111930854Y-86012855D01*
X112059241Y-86205000D01*
X111930854Y-86397145D01*
X111842765Y-86840000D01*
X111930854Y-87282855D01*
X112059241Y-87475000D01*
X111930854Y-87667145D01*
X111842765Y-88110000D01*
X111930854Y-88552855D01*
X112059241Y-88745000D01*
X111930854Y-88937145D01*
X111842765Y-89380000D01*
X111930854Y-89822855D01*
X112059241Y-90015000D01*
X111930854Y-90207145D01*
X111842765Y-90650000D01*
X111930854Y-91092855D01*
X112059241Y-91285000D01*
X111930854Y-91477145D01*
X111842765Y-91920000D01*
X111930854Y-92362855D01*
X112059241Y-92555000D01*
X111930854Y-92747145D01*
X111842765Y-93190000D01*
X111930854Y-93632855D01*
X112059241Y-93825000D01*
X111930854Y-94017145D01*
X111842765Y-94460000D01*
X111930854Y-94902855D01*
X112059241Y-95095000D01*
X111930854Y-95287145D01*
X111842765Y-95730000D01*
X111930854Y-96172855D01*
X111941555Y-96188870D01*
X111865000Y-96373690D01*
X111865000Y-96714250D01*
X112023750Y-96873000D01*
X112873000Y-96873000D01*
X112873000Y-96861973D01*
X112888217Y-96865000D01*
X113111783Y-96865000D01*
X113127000Y-96861973D01*
X113127000Y-96873000D01*
X113976250Y-96873000D01*
X114135000Y-96714250D01*
X114135000Y-96373690D01*
X114058445Y-96188870D01*
X114069146Y-96172855D01*
X114157235Y-95730000D01*
X114069146Y-95287145D01*
X113940759Y-95095000D01*
X114069146Y-94902855D01*
X114157235Y-94460000D01*
X114069146Y-94017145D01*
X113940759Y-93825000D01*
X114069146Y-93632855D01*
X114157235Y-93190000D01*
X114078492Y-92794126D01*
X140715000Y-92794126D01*
X140715000Y-93205874D01*
X140872569Y-93586280D01*
X141163720Y-93877431D01*
X141544126Y-94035000D01*
X141955874Y-94035000D01*
X142250000Y-93913169D01*
X142544126Y-94035000D01*
X142955874Y-94035000D01*
X143250000Y-93913169D01*
X143544126Y-94035000D01*
X143955874Y-94035000D01*
X144250000Y-93913169D01*
X144544126Y-94035000D01*
X144955874Y-94035000D01*
X145250000Y-93913169D01*
X145544126Y-94035000D01*
X145955874Y-94035000D01*
X146250000Y-93913169D01*
X146544126Y-94035000D01*
X146955874Y-94035000D01*
X147250000Y-93913169D01*
X147544126Y-94035000D01*
X147955874Y-94035000D01*
X148250000Y-93913169D01*
X148544126Y-94035000D01*
X148715000Y-94035000D01*
X148715000Y-94205874D01*
X148836831Y-94500000D01*
X148715000Y-94794126D01*
X148715000Y-95205874D01*
X148836831Y-95500000D01*
X148715000Y-95794126D01*
X148715000Y-96205874D01*
X148836831Y-96500000D01*
X148715000Y-96794126D01*
X148715000Y-97205874D01*
X148836831Y-97500000D01*
X148715000Y-97794126D01*
X148715000Y-98205874D01*
X148836831Y-98500000D01*
X148715000Y-98794126D01*
X148715000Y-99205874D01*
X148836831Y-99500000D01*
X148715000Y-99794126D01*
X148715000Y-99965000D01*
X148544126Y-99965000D01*
X148250000Y-100086831D01*
X147955874Y-99965000D01*
X147544126Y-99965000D01*
X147250000Y-100086831D01*
X146955874Y-99965000D01*
X146544126Y-99965000D01*
X146250000Y-100086831D01*
X145955874Y-99965000D01*
X145544126Y-99965000D01*
X145250000Y-100086831D01*
X144955874Y-99965000D01*
X144544126Y-99965000D01*
X144250000Y-100086831D01*
X143955874Y-99965000D01*
X143544126Y-99965000D01*
X143250000Y-100086831D01*
X142955874Y-99965000D01*
X142544126Y-99965000D01*
X142250000Y-100086831D01*
X141955874Y-99965000D01*
X141544126Y-99965000D01*
X141163720Y-100122569D01*
X140872569Y-100413720D01*
X140715000Y-100794126D01*
X140715000Y-101205874D01*
X140872569Y-101586280D01*
X141163720Y-101877431D01*
X141544126Y-102035000D01*
X141955874Y-102035000D01*
X142250000Y-101913169D01*
X142544126Y-102035000D01*
X142955874Y-102035000D01*
X143250000Y-101913169D01*
X143544126Y-102035000D01*
X143955874Y-102035000D01*
X144250000Y-101913169D01*
X144544126Y-102035000D01*
X144955874Y-102035000D01*
X145250000Y-101913169D01*
X145544126Y-102035000D01*
X145955874Y-102035000D01*
X146250000Y-101913169D01*
X146544126Y-102035000D01*
X146955874Y-102035000D01*
X147250000Y-101913169D01*
X147544126Y-102035000D01*
X147955874Y-102035000D01*
X148250000Y-101913169D01*
X148544126Y-102035000D01*
X148955874Y-102035000D01*
X149250000Y-101913169D01*
X149544126Y-102035000D01*
X149955874Y-102035000D01*
X150336280Y-101877431D01*
X150627431Y-101586280D01*
X150785000Y-101205874D01*
X150785000Y-100794126D01*
X150663169Y-100500000D01*
X150785000Y-100205874D01*
X150785000Y-99794126D01*
X150663169Y-99500000D01*
X150785000Y-99205874D01*
X150785000Y-98794126D01*
X150663169Y-98500000D01*
X150785000Y-98205874D01*
X150785000Y-97794126D01*
X150663169Y-97500000D01*
X150785000Y-97205874D01*
X150785000Y-96794126D01*
X150663169Y-96500000D01*
X150785000Y-96205874D01*
X150785000Y-95794126D01*
X150663169Y-95500000D01*
X150785000Y-95205874D01*
X150785000Y-94794126D01*
X150663169Y-94500000D01*
X150785000Y-94205874D01*
X150785000Y-93794126D01*
X150663169Y-93500000D01*
X150766722Y-93250000D01*
X157615000Y-93250000D01*
X157615000Y-100500000D01*
X157627201Y-100623882D01*
X157703321Y-101006565D01*
X157715000Y-101034760D01*
X157715000Y-101205874D01*
X157872569Y-101586280D01*
X158163720Y-101877431D01*
X158544126Y-102035000D01*
X158715240Y-102035000D01*
X158743435Y-102046679D01*
X159126118Y-102122799D01*
X159250000Y-102135000D01*
X166250000Y-102135000D01*
X166373882Y-102122799D01*
X166756565Y-102046679D01*
X166784760Y-102035000D01*
X166955874Y-102035000D01*
X167336280Y-101877431D01*
X167627431Y-101586280D01*
X167785000Y-101205874D01*
X167785000Y-101034760D01*
X167796679Y-101006565D01*
X167872799Y-100623882D01*
X167885000Y-100500000D01*
X167885000Y-98015322D01*
X171065000Y-98015322D01*
X171065000Y-98864678D01*
X171390034Y-99649380D01*
X171990620Y-100249966D01*
X172775322Y-100575000D01*
X173624678Y-100575000D01*
X174409380Y-100249966D01*
X175009966Y-99649380D01*
X175335000Y-98864678D01*
X175335000Y-98015322D01*
X175009966Y-97230620D01*
X174409380Y-96630034D01*
X173624678Y-96305000D01*
X172775322Y-96305000D01*
X171990620Y-96630034D01*
X171390034Y-97230620D01*
X171065000Y-98015322D01*
X167885000Y-98015322D01*
X167885000Y-93250000D01*
X167872799Y-93126118D01*
X167834848Y-92935322D01*
X171065000Y-92935322D01*
X171065000Y-93784678D01*
X171390034Y-94569380D01*
X171990620Y-95169966D01*
X172775322Y-95495000D01*
X173624678Y-95495000D01*
X174409380Y-95169966D01*
X175009966Y-94569380D01*
X175335000Y-93784678D01*
X175335000Y-92935322D01*
X175009966Y-92150620D01*
X174409380Y-91550034D01*
X173624678Y-91225000D01*
X172775322Y-91225000D01*
X171990620Y-91550034D01*
X171390034Y-92150620D01*
X171065000Y-92935322D01*
X167834848Y-92935322D01*
X167796679Y-92743435D01*
X167785000Y-92715240D01*
X167785000Y-92544126D01*
X167627431Y-92163720D01*
X167336280Y-91872569D01*
X166955874Y-91715000D01*
X166784760Y-91715000D01*
X166756565Y-91703321D01*
X166373882Y-91627201D01*
X166250000Y-91615000D01*
X159250000Y-91615000D01*
X159126118Y-91627201D01*
X158743435Y-91703321D01*
X158715240Y-91715000D01*
X158544126Y-91715000D01*
X158163720Y-91872569D01*
X157872569Y-92163720D01*
X157715000Y-92544126D01*
X157715000Y-92715240D01*
X157703321Y-92743435D01*
X157627201Y-93126118D01*
X157615000Y-93250000D01*
X150766722Y-93250000D01*
X150785000Y-93205874D01*
X150785000Y-92794126D01*
X150627431Y-92413720D01*
X150336280Y-92122569D01*
X149955874Y-91965000D01*
X149544126Y-91965000D01*
X149250000Y-92086831D01*
X148955874Y-91965000D01*
X148544126Y-91965000D01*
X148250000Y-92086831D01*
X147955874Y-91965000D01*
X147544126Y-91965000D01*
X147250000Y-92086831D01*
X146955874Y-91965000D01*
X146544126Y-91965000D01*
X146250000Y-92086831D01*
X145955874Y-91965000D01*
X145544126Y-91965000D01*
X145250000Y-92086831D01*
X144955874Y-91965000D01*
X144544126Y-91965000D01*
X144250000Y-92086831D01*
X143955874Y-91965000D01*
X143544126Y-91965000D01*
X143250000Y-92086831D01*
X142955874Y-91965000D01*
X142544126Y-91965000D01*
X142250000Y-92086831D01*
X141955874Y-91965000D01*
X141544126Y-91965000D01*
X141163720Y-92122569D01*
X140872569Y-92413720D01*
X140715000Y-92794126D01*
X114078492Y-92794126D01*
X114069146Y-92747145D01*
X113940759Y-92555000D01*
X114069146Y-92362855D01*
X114157235Y-91920000D01*
X114069146Y-91477145D01*
X113940759Y-91285000D01*
X114069146Y-91092855D01*
X114157235Y-90650000D01*
X114069146Y-90207145D01*
X113940759Y-90015000D01*
X114069146Y-89822855D01*
X114157235Y-89380000D01*
X114069146Y-88937145D01*
X113940759Y-88745000D01*
X114069146Y-88552855D01*
X114157235Y-88110000D01*
X114106577Y-87855322D01*
X171065000Y-87855322D01*
X171065000Y-88704678D01*
X171390034Y-89489380D01*
X171990620Y-90089966D01*
X172775322Y-90415000D01*
X173624678Y-90415000D01*
X174409380Y-90089966D01*
X175009966Y-89489380D01*
X175335000Y-88704678D01*
X175335000Y-87855322D01*
X175009966Y-87070620D01*
X174409380Y-86470034D01*
X173624678Y-86145000D01*
X172775322Y-86145000D01*
X171990620Y-86470034D01*
X171390034Y-87070620D01*
X171065000Y-87855322D01*
X114106577Y-87855322D01*
X114069146Y-87667145D01*
X113940759Y-87475000D01*
X114069146Y-87282855D01*
X114157235Y-86840000D01*
X114069146Y-86397145D01*
X113940759Y-86205000D01*
X114069146Y-86012855D01*
X114157235Y-85570000D01*
X114069146Y-85127145D01*
X113940759Y-84935000D01*
X114069146Y-84742855D01*
X114157235Y-84300000D01*
X114069146Y-83857145D01*
X113940759Y-83665000D01*
X114069146Y-83472855D01*
X114157235Y-83030000D01*
X114150100Y-82994126D01*
X120015000Y-82994126D01*
X120015000Y-83405874D01*
X120172569Y-83786280D01*
X120463720Y-84077431D01*
X120844126Y-84235000D01*
X121255874Y-84235000D01*
X121636280Y-84077431D01*
X121927431Y-83786280D01*
X122085000Y-83405874D01*
X122085000Y-82994126D01*
X121927431Y-82613720D01*
X121636280Y-82322569D01*
X121255874Y-82165000D01*
X120844126Y-82165000D01*
X120463720Y-82322569D01*
X120172569Y-82613720D01*
X120015000Y-82994126D01*
X114150100Y-82994126D01*
X114069146Y-82587145D01*
X113940759Y-82395000D01*
X114069146Y-82202855D01*
X114157235Y-81760000D01*
X114069146Y-81317145D01*
X113940759Y-81125000D01*
X114069146Y-80932855D01*
X114157235Y-80490000D01*
X114069146Y-80047145D01*
X113940759Y-79855000D01*
X114069146Y-79662855D01*
X114157235Y-79220000D01*
X114069146Y-78777145D01*
X113818289Y-78401711D01*
X113442855Y-78150854D01*
X113111783Y-78085000D01*
X112888217Y-78085000D01*
X112557145Y-78150854D01*
X112181711Y-78401711D01*
X111930854Y-78777145D01*
X111842765Y-79220000D01*
X110127000Y-79220000D01*
X110127000Y-77794126D01*
X140715000Y-77794126D01*
X140715000Y-78205874D01*
X140872569Y-78586280D01*
X141163720Y-78877431D01*
X141544126Y-79035000D01*
X141955874Y-79035000D01*
X142250000Y-78913169D01*
X142544126Y-79035000D01*
X142955874Y-79035000D01*
X143250000Y-78913169D01*
X143544126Y-79035000D01*
X143955874Y-79035000D01*
X144250000Y-78913169D01*
X144544126Y-79035000D01*
X144955874Y-79035000D01*
X145250000Y-78913169D01*
X145544126Y-79035000D01*
X145955874Y-79035000D01*
X146250000Y-78913169D01*
X146544126Y-79035000D01*
X146955874Y-79035000D01*
X147250000Y-78913169D01*
X147544126Y-79035000D01*
X147955874Y-79035000D01*
X148250000Y-78913169D01*
X148544126Y-79035000D01*
X148715000Y-79035000D01*
X148715000Y-79205874D01*
X148836831Y-79500000D01*
X148715000Y-79794126D01*
X148715000Y-80205874D01*
X148836831Y-80500000D01*
X148715000Y-80794126D01*
X148715000Y-81205874D01*
X148836831Y-81500000D01*
X148715000Y-81794126D01*
X148715000Y-82205874D01*
X148836831Y-82500000D01*
X148715000Y-82794126D01*
X148715000Y-83205874D01*
X148836831Y-83500000D01*
X148715000Y-83794126D01*
X148715000Y-84205874D01*
X148836831Y-84500000D01*
X148715000Y-84794126D01*
X148715000Y-84965000D01*
X148544126Y-84965000D01*
X148250000Y-85086831D01*
X147955874Y-84965000D01*
X147544126Y-84965000D01*
X147250000Y-85086831D01*
X146955874Y-84965000D01*
X146544126Y-84965000D01*
X146250000Y-85086831D01*
X145955874Y-84965000D01*
X145544126Y-84965000D01*
X145250000Y-85086831D01*
X144955874Y-84965000D01*
X144544126Y-84965000D01*
X144250000Y-85086831D01*
X143955874Y-84965000D01*
X143544126Y-84965000D01*
X143250000Y-85086831D01*
X142955874Y-84965000D01*
X142544126Y-84965000D01*
X142250000Y-85086831D01*
X141955874Y-84965000D01*
X141544126Y-84965000D01*
X141163720Y-85122569D01*
X140872569Y-85413720D01*
X140715000Y-85794126D01*
X140715000Y-86205874D01*
X140872569Y-86586280D01*
X141163720Y-86877431D01*
X141544126Y-87035000D01*
X141955874Y-87035000D01*
X142250000Y-86913169D01*
X142544126Y-87035000D01*
X142955874Y-87035000D01*
X143250000Y-86913169D01*
X143544126Y-87035000D01*
X143955874Y-87035000D01*
X144250000Y-86913169D01*
X144544126Y-87035000D01*
X144955874Y-87035000D01*
X145250000Y-86913169D01*
X145544126Y-87035000D01*
X145955874Y-87035000D01*
X146250000Y-86913169D01*
X146544126Y-87035000D01*
X146955874Y-87035000D01*
X147250000Y-86913169D01*
X147544126Y-87035000D01*
X147955874Y-87035000D01*
X148250000Y-86913169D01*
X148544126Y-87035000D01*
X148955874Y-87035000D01*
X149250000Y-86913169D01*
X149544126Y-87035000D01*
X149955874Y-87035000D01*
X150336280Y-86877431D01*
X150627431Y-86586280D01*
X150785000Y-86205874D01*
X150785000Y-85794126D01*
X150663169Y-85500000D01*
X150785000Y-85205874D01*
X150785000Y-84794126D01*
X150663169Y-84500000D01*
X150785000Y-84205874D01*
X150785000Y-83794126D01*
X150663169Y-83500000D01*
X150785000Y-83205874D01*
X150785000Y-82794126D01*
X150663169Y-82500000D01*
X150785000Y-82205874D01*
X150785000Y-81794126D01*
X150663169Y-81500000D01*
X150785000Y-81205874D01*
X150785000Y-80794126D01*
X150663169Y-80500000D01*
X150785000Y-80205874D01*
X150785000Y-79794126D01*
X150663169Y-79500000D01*
X150785000Y-79205874D01*
X150785000Y-78794126D01*
X150663169Y-78500000D01*
X157615000Y-78500000D01*
X157615000Y-85750000D01*
X157627201Y-85873882D01*
X157703321Y-86256565D01*
X157798137Y-86485470D01*
X158014910Y-86809894D01*
X158190106Y-86985090D01*
X158514530Y-87201863D01*
X158743435Y-87296679D01*
X159126118Y-87372799D01*
X159250000Y-87385000D01*
X166250000Y-87385000D01*
X166373882Y-87372799D01*
X166756565Y-87296679D01*
X166985470Y-87201863D01*
X167309894Y-86985090D01*
X167485090Y-86809894D01*
X167701863Y-86485470D01*
X167796679Y-86256565D01*
X167872799Y-85873882D01*
X167885000Y-85750000D01*
X167885000Y-81700000D01*
X171052560Y-81700000D01*
X171052560Y-84700000D01*
X171101843Y-84947765D01*
X171242191Y-85157809D01*
X171452235Y-85298157D01*
X171700000Y-85347440D01*
X174700000Y-85347440D01*
X174947765Y-85298157D01*
X175157809Y-85157809D01*
X175298157Y-84947765D01*
X175347440Y-84700000D01*
X175347440Y-81700000D01*
X175298157Y-81452235D01*
X175157809Y-81242191D01*
X174947765Y-81101843D01*
X174700000Y-81052560D01*
X171700000Y-81052560D01*
X171452235Y-81101843D01*
X171242191Y-81242191D01*
X171101843Y-81452235D01*
X171052560Y-81700000D01*
X167885000Y-81700000D01*
X167885000Y-78500000D01*
X167872799Y-78376118D01*
X167796679Y-77993435D01*
X167785000Y-77965240D01*
X167785000Y-77794126D01*
X167627431Y-77413720D01*
X167336280Y-77122569D01*
X166955874Y-76965000D01*
X166784760Y-76965000D01*
X166756565Y-76953321D01*
X166373882Y-76877201D01*
X166250000Y-76865000D01*
X159250000Y-76865000D01*
X159126118Y-76877201D01*
X158743435Y-76953321D01*
X158715240Y-76965000D01*
X158544126Y-76965000D01*
X158163720Y-77122569D01*
X157872569Y-77413720D01*
X157715000Y-77794126D01*
X157715000Y-77965240D01*
X157703321Y-77993435D01*
X157627201Y-78376118D01*
X157615000Y-78500000D01*
X150663169Y-78500000D01*
X150785000Y-78205874D01*
X150785000Y-77794126D01*
X150627431Y-77413720D01*
X150336280Y-77122569D01*
X149955874Y-76965000D01*
X149544126Y-76965000D01*
X149250000Y-77086831D01*
X148955874Y-76965000D01*
X148544126Y-76965000D01*
X148250000Y-77086831D01*
X147955874Y-76965000D01*
X147544126Y-76965000D01*
X147250000Y-77086831D01*
X146955874Y-76965000D01*
X146544126Y-76965000D01*
X146250000Y-77086831D01*
X145955874Y-76965000D01*
X145544126Y-76965000D01*
X145250000Y-77086831D01*
X144955874Y-76965000D01*
X144544126Y-76965000D01*
X144250000Y-77086831D01*
X143955874Y-76965000D01*
X143544126Y-76965000D01*
X143250000Y-77086831D01*
X142955874Y-76965000D01*
X142544126Y-76965000D01*
X142250000Y-77086831D01*
X141955874Y-76965000D01*
X141544126Y-76965000D01*
X141163720Y-77122569D01*
X140872569Y-77413720D01*
X140715000Y-77794126D01*
X110127000Y-77794126D01*
X110127000Y-71655322D01*
X171865000Y-71655322D01*
X171865000Y-72504678D01*
X172190034Y-73289380D01*
X172790620Y-73889966D01*
X173575322Y-74215000D01*
X174424678Y-74215000D01*
X175209380Y-73889966D01*
X175809966Y-73289380D01*
X176135000Y-72504678D01*
X176135000Y-71655322D01*
X175809966Y-70870620D01*
X175209380Y-70270034D01*
X174424678Y-69945000D01*
X173575322Y-69945000D01*
X172790620Y-70270034D01*
X172190034Y-70870620D01*
X171865000Y-71655322D01*
X110127000Y-71655322D01*
X110127000Y-68700000D01*
X160052560Y-68700000D01*
X160052560Y-70300000D01*
X160101843Y-70547765D01*
X160242191Y-70757809D01*
X160452235Y-70898157D01*
X160700000Y-70947440D01*
X162300000Y-70947440D01*
X162547765Y-70898157D01*
X162757809Y-70757809D01*
X162898157Y-70547765D01*
X162906117Y-70507745D01*
X164171861Y-70507745D01*
X164245995Y-70753864D01*
X164783223Y-70946965D01*
X165353454Y-70919778D01*
X165754005Y-70753864D01*
X165828139Y-70507745D01*
X165000000Y-69679605D01*
X164171861Y-70507745D01*
X162906117Y-70507745D01*
X162947440Y-70300000D01*
X162947440Y-69283223D01*
X163553035Y-69283223D01*
X163580222Y-69853454D01*
X163746136Y-70254005D01*
X163992255Y-70328139D01*
X164820395Y-69500000D01*
X165179605Y-69500000D01*
X166007745Y-70328139D01*
X166253864Y-70254005D01*
X166446965Y-69716777D01*
X166419778Y-69146546D01*
X166253864Y-68745995D01*
X166007745Y-68671861D01*
X165179605Y-69500000D01*
X164820395Y-69500000D01*
X163992255Y-68671861D01*
X163746136Y-68745995D01*
X163553035Y-69283223D01*
X162947440Y-69283223D01*
X162947440Y-68700000D01*
X162906118Y-68492255D01*
X164171861Y-68492255D01*
X165000000Y-69320395D01*
X165828139Y-68492255D01*
X165754005Y-68246136D01*
X165216777Y-68053035D01*
X164646546Y-68080222D01*
X164245995Y-68246136D01*
X164171861Y-68492255D01*
X162906118Y-68492255D01*
X162898157Y-68452235D01*
X162757809Y-68242191D01*
X162547765Y-68101843D01*
X162300000Y-68052560D01*
X160700000Y-68052560D01*
X160452235Y-68101843D01*
X160242191Y-68242191D01*
X160101843Y-68452235D01*
X160052560Y-68700000D01*
X110127000Y-68700000D01*
X110127000Y-67285750D01*
X171865000Y-67285750D01*
X171865000Y-68626309D01*
X171961673Y-68859698D01*
X172140301Y-69038327D01*
X172373690Y-69135000D01*
X173714250Y-69135000D01*
X173873000Y-68976250D01*
X173873000Y-67127000D01*
X174127000Y-67127000D01*
X174127000Y-68976250D01*
X174285750Y-69135000D01*
X175626310Y-69135000D01*
X175859699Y-69038327D01*
X176038327Y-68859698D01*
X176135000Y-68626309D01*
X176135000Y-67285750D01*
X175976250Y-67127000D01*
X174127000Y-67127000D01*
X173873000Y-67127000D01*
X172023750Y-67127000D01*
X171865000Y-67285750D01*
X110127000Y-67285750D01*
X110127000Y-65373691D01*
X171865000Y-65373691D01*
X171865000Y-66714250D01*
X172023750Y-66873000D01*
X173873000Y-66873000D01*
X173873000Y-65023750D01*
X174127000Y-65023750D01*
X174127000Y-66873000D01*
X175976250Y-66873000D01*
X176135000Y-66714250D01*
X176135000Y-65373691D01*
X176038327Y-65140302D01*
X175859699Y-64961673D01*
X175626310Y-64865000D01*
X174285750Y-64865000D01*
X174127000Y-65023750D01*
X173873000Y-65023750D01*
X173714250Y-64865000D01*
X172373690Y-64865000D01*
X172140301Y-64961673D01*
X171961673Y-65140302D01*
X171865000Y-65373691D01*
X110127000Y-65373691D01*
X110127000Y-57191724D01*
X114237882Y-57191724D01*
X114385455Y-57500106D01*
X115140031Y-57793405D01*
X115949409Y-57775614D01*
X116614545Y-57500106D01*
X116762118Y-57191724D01*
X115500000Y-55929605D01*
X114237882Y-57191724D01*
X110127000Y-57191724D01*
X110127000Y-55390031D01*
X113456595Y-55390031D01*
X113474386Y-56199409D01*
X113749894Y-56864545D01*
X114058276Y-57012118D01*
X115320395Y-55750000D01*
X115679605Y-55750000D01*
X116941724Y-57012118D01*
X117250106Y-56864545D01*
X117543405Y-56109969D01*
X117525614Y-55300591D01*
X117250106Y-54635455D01*
X116941724Y-54487882D01*
X115679605Y-55750000D01*
X115320395Y-55750000D01*
X114058276Y-54487882D01*
X113749894Y-54635455D01*
X113456595Y-55390031D01*
X110127000Y-55390031D01*
X110127000Y-54308276D01*
X114237882Y-54308276D01*
X115500000Y-55570395D01*
X116762118Y-54308276D01*
X116614545Y-53999894D01*
X115859969Y-53706595D01*
X115050591Y-53724386D01*
X114385455Y-53999894D01*
X114237882Y-54308276D01*
X110127000Y-54308276D01*
X110127000Y-53294126D01*
X140215000Y-53294126D01*
X140215000Y-53705874D01*
X140372569Y-54086280D01*
X140663720Y-54377431D01*
X141044126Y-54535000D01*
X141455874Y-54535000D01*
X141750000Y-54413169D01*
X142044126Y-54535000D01*
X142455874Y-54535000D01*
X142750000Y-54413169D01*
X143044126Y-54535000D01*
X143455874Y-54535000D01*
X143750000Y-54413169D01*
X144044126Y-54535000D01*
X144455874Y-54535000D01*
X144750000Y-54413169D01*
X145044126Y-54535000D01*
X145455874Y-54535000D01*
X145750000Y-54413169D01*
X146044126Y-54535000D01*
X146455874Y-54535000D01*
X146750000Y-54413169D01*
X147044126Y-54535000D01*
X147455874Y-54535000D01*
X147750000Y-54413169D01*
X148044126Y-54535000D01*
X148215000Y-54535000D01*
X148215000Y-54705874D01*
X148336831Y-55000000D01*
X148215000Y-55294126D01*
X148215000Y-55705874D01*
X148336831Y-56000000D01*
X148215000Y-56294126D01*
X148215000Y-56705874D01*
X148336831Y-57000000D01*
X148215000Y-57294126D01*
X148215000Y-57705874D01*
X148336831Y-58000000D01*
X148215000Y-58294126D01*
X148215000Y-58705874D01*
X148336831Y-59000000D01*
X148215000Y-59294126D01*
X148215000Y-59705874D01*
X148336831Y-60000000D01*
X148215000Y-60294126D01*
X148215000Y-60465000D01*
X148044126Y-60465000D01*
X147750000Y-60586831D01*
X147455874Y-60465000D01*
X147044126Y-60465000D01*
X146750000Y-60586831D01*
X146455874Y-60465000D01*
X146044126Y-60465000D01*
X145750000Y-60586831D01*
X145455874Y-60465000D01*
X145044126Y-60465000D01*
X144750000Y-60586831D01*
X144455874Y-60465000D01*
X144044126Y-60465000D01*
X143750000Y-60586831D01*
X143455874Y-60465000D01*
X143044126Y-60465000D01*
X142750000Y-60586831D01*
X142455874Y-60465000D01*
X142044126Y-60465000D01*
X141750000Y-60586831D01*
X141455874Y-60465000D01*
X141044126Y-60465000D01*
X140663720Y-60622569D01*
X140372569Y-60913720D01*
X140215000Y-61294126D01*
X140215000Y-61705874D01*
X140372569Y-62086280D01*
X140663720Y-62377431D01*
X141044126Y-62535000D01*
X141455874Y-62535000D01*
X141750000Y-62413169D01*
X142044126Y-62535000D01*
X142455874Y-62535000D01*
X142750000Y-62413169D01*
X143044126Y-62535000D01*
X143455874Y-62535000D01*
X143750000Y-62413169D01*
X144044126Y-62535000D01*
X144455874Y-62535000D01*
X144750000Y-62413169D01*
X145044126Y-62535000D01*
X145455874Y-62535000D01*
X145750000Y-62413169D01*
X146044126Y-62535000D01*
X146455874Y-62535000D01*
X146750000Y-62413169D01*
X147044126Y-62535000D01*
X147455874Y-62535000D01*
X147750000Y-62413169D01*
X148044126Y-62535000D01*
X148455874Y-62535000D01*
X148750000Y-62413169D01*
X149044126Y-62535000D01*
X149455874Y-62535000D01*
X149836280Y-62377431D01*
X150127431Y-62086280D01*
X150285000Y-61705874D01*
X150285000Y-61294126D01*
X150163169Y-61000000D01*
X150285000Y-60705874D01*
X150285000Y-60294126D01*
X150163169Y-60000000D01*
X150285000Y-59705874D01*
X150285000Y-59294126D01*
X150163169Y-59000000D01*
X150285000Y-58705874D01*
X150285000Y-58294126D01*
X150163169Y-58000000D01*
X150285000Y-57705874D01*
X150285000Y-57294126D01*
X150163169Y-57000000D01*
X150285000Y-56705874D01*
X150285000Y-56294126D01*
X150163169Y-56000000D01*
X150285000Y-55705874D01*
X150285000Y-55294126D01*
X150163169Y-55000000D01*
X150285000Y-54705874D01*
X150285000Y-54294126D01*
X150163169Y-54000000D01*
X157615000Y-54000000D01*
X157615000Y-61250000D01*
X157627201Y-61373882D01*
X157703321Y-61756565D01*
X157715000Y-61784760D01*
X157715000Y-61955874D01*
X157872569Y-62336280D01*
X158163720Y-62627431D01*
X158544126Y-62785000D01*
X158715240Y-62785000D01*
X158743435Y-62796679D01*
X159126118Y-62872799D01*
X159250000Y-62885000D01*
X166250000Y-62885000D01*
X166373882Y-62872799D01*
X166756565Y-62796679D01*
X166784760Y-62785000D01*
X166955874Y-62785000D01*
X167336280Y-62627431D01*
X167627431Y-62336280D01*
X167687307Y-62191724D01*
X174737882Y-62191724D01*
X174885455Y-62500106D01*
X175640031Y-62793405D01*
X176449409Y-62775614D01*
X177114545Y-62500106D01*
X177262118Y-62191724D01*
X176000000Y-60929605D01*
X174737882Y-62191724D01*
X167687307Y-62191724D01*
X167785000Y-61955874D01*
X167785000Y-61784760D01*
X167796679Y-61756565D01*
X167872799Y-61373882D01*
X167885000Y-61250000D01*
X167885000Y-60390031D01*
X173956595Y-60390031D01*
X173974386Y-61199409D01*
X174249894Y-61864545D01*
X174558276Y-62012118D01*
X175820395Y-60750000D01*
X176179605Y-60750000D01*
X177441724Y-62012118D01*
X177750106Y-61864545D01*
X178043405Y-61109969D01*
X178025614Y-60300591D01*
X177750106Y-59635455D01*
X177441724Y-59487882D01*
X176179605Y-60750000D01*
X175820395Y-60750000D01*
X174558276Y-59487882D01*
X174249894Y-59635455D01*
X173956595Y-60390031D01*
X167885000Y-60390031D01*
X167885000Y-59308276D01*
X174737882Y-59308276D01*
X176000000Y-60570395D01*
X177262118Y-59308276D01*
X177114545Y-58999894D01*
X176359969Y-58706595D01*
X175550591Y-58724386D01*
X174885455Y-58999894D01*
X174737882Y-59308276D01*
X167885000Y-59308276D01*
X167885000Y-54000000D01*
X167872799Y-53876118D01*
X167796679Y-53493435D01*
X167785000Y-53465240D01*
X167785000Y-53294126D01*
X167627431Y-52913720D01*
X167336280Y-52622569D01*
X166955874Y-52465000D01*
X166784760Y-52465000D01*
X166756565Y-52453321D01*
X166373882Y-52377201D01*
X166250000Y-52365000D01*
X159250000Y-52365000D01*
X159126118Y-52377201D01*
X158743435Y-52453321D01*
X158715240Y-52465000D01*
X158544126Y-52465000D01*
X158163720Y-52622569D01*
X157872569Y-52913720D01*
X157715000Y-53294126D01*
X157715000Y-53465240D01*
X157703321Y-53493435D01*
X157627201Y-53876118D01*
X157615000Y-54000000D01*
X150163169Y-54000000D01*
X150285000Y-53705874D01*
X150285000Y-53294126D01*
X150127431Y-52913720D01*
X149836280Y-52622569D01*
X149455874Y-52465000D01*
X149044126Y-52465000D01*
X148750000Y-52586831D01*
X148455874Y-52465000D01*
X148044126Y-52465000D01*
X147750000Y-52586831D01*
X147455874Y-52465000D01*
X147044126Y-52465000D01*
X146750000Y-52586831D01*
X146455874Y-52465000D01*
X146044126Y-52465000D01*
X145750000Y-52586831D01*
X145455874Y-52465000D01*
X145044126Y-52465000D01*
X144750000Y-52586831D01*
X144455874Y-52465000D01*
X144044126Y-52465000D01*
X143750000Y-52586831D01*
X143455874Y-52465000D01*
X143044126Y-52465000D01*
X142750000Y-52586831D01*
X142455874Y-52465000D01*
X142044126Y-52465000D01*
X141750000Y-52586831D01*
X141455874Y-52465000D01*
X141044126Y-52465000D01*
X140663720Y-52622569D01*
X140372569Y-52913720D01*
X140215000Y-53294126D01*
X110127000Y-53294126D01*
X110127000Y-51127000D01*
X178873000Y-51127000D01*
X178873000Y-127873000D01*
G04 #@! TO.N,Net-(J3-Pad3)*
G36*
X166583130Y-92445752D02*
X166865545Y-92634455D01*
X167054248Y-92916870D01*
X167123000Y-93262509D01*
X167123000Y-100487491D01*
X167054248Y-100833130D01*
X166865545Y-101115545D01*
X166583130Y-101304248D01*
X166237491Y-101373000D01*
X159262509Y-101373000D01*
X158916870Y-101304248D01*
X158634455Y-101115545D01*
X158445752Y-100833130D01*
X158377000Y-100487491D01*
X158377000Y-93262509D01*
X158445752Y-92916870D01*
X158634455Y-92634455D01*
X158916870Y-92445752D01*
X159262509Y-92377000D01*
X166237491Y-92377000D01*
X166583130Y-92445752D01*
X166583130Y-92445752D01*
G37*
X166583130Y-92445752D02*
X166865545Y-92634455D01*
X167054248Y-92916870D01*
X167123000Y-93262509D01*
X167123000Y-100487491D01*
X167054248Y-100833130D01*
X166865545Y-101115545D01*
X166583130Y-101304248D01*
X166237491Y-101373000D01*
X159262509Y-101373000D01*
X158916870Y-101304248D01*
X158634455Y-101115545D01*
X158445752Y-100833130D01*
X158377000Y-100487491D01*
X158377000Y-93262509D01*
X158445752Y-92916870D01*
X158634455Y-92634455D01*
X158916870Y-92445752D01*
X159262509Y-92377000D01*
X166237491Y-92377000D01*
X166583130Y-92445752D01*
G04 #@! TO.N,Net-(J3-Pad4)*
G36*
X166083130Y-117219884D02*
X166365545Y-117408587D01*
X166554248Y-117691002D01*
X166623000Y-118036641D01*
X166623000Y-125011623D01*
X166554248Y-125357262D01*
X166365545Y-125639677D01*
X166083130Y-125828380D01*
X165737491Y-125897132D01*
X158762509Y-125897132D01*
X158416870Y-125828380D01*
X158134455Y-125639677D01*
X157945752Y-125357262D01*
X157877000Y-125011623D01*
X157877000Y-118036641D01*
X157945752Y-117691002D01*
X158134455Y-117408587D01*
X158416870Y-117219884D01*
X158762509Y-117151132D01*
X165737491Y-117151132D01*
X166083130Y-117219884D01*
X166083130Y-117219884D01*
G37*
X166083130Y-117219884D02*
X166365545Y-117408587D01*
X166554248Y-117691002D01*
X166623000Y-118036641D01*
X166623000Y-125011623D01*
X166554248Y-125357262D01*
X166365545Y-125639677D01*
X166083130Y-125828380D01*
X165737491Y-125897132D01*
X158762509Y-125897132D01*
X158416870Y-125828380D01*
X158134455Y-125639677D01*
X157945752Y-125357262D01*
X157877000Y-125011623D01*
X157877000Y-118036641D01*
X157945752Y-117691002D01*
X158134455Y-117408587D01*
X158416870Y-117219884D01*
X158762509Y-117151132D01*
X165737491Y-117151132D01*
X166083130Y-117219884D01*
G04 #@! TO.N,/AOUT2*
G36*
X166583130Y-77695752D02*
X166865545Y-77884455D01*
X167054248Y-78166870D01*
X167123000Y-78512509D01*
X167123000Y-85737491D01*
X167054248Y-86083130D01*
X166865545Y-86365545D01*
X166583130Y-86554248D01*
X166237491Y-86623000D01*
X159262509Y-86623000D01*
X158916870Y-86554248D01*
X158634455Y-86365545D01*
X158445752Y-86083130D01*
X158377000Y-85737491D01*
X158377000Y-78512509D01*
X158445752Y-78166870D01*
X158634455Y-77884455D01*
X158916870Y-77695752D01*
X159262509Y-77627000D01*
X166237491Y-77627000D01*
X166583130Y-77695752D01*
X166583130Y-77695752D01*
G37*
X166583130Y-77695752D02*
X166865545Y-77884455D01*
X167054248Y-78166870D01*
X167123000Y-78512509D01*
X167123000Y-85737491D01*
X167054248Y-86083130D01*
X166865545Y-86365545D01*
X166583130Y-86554248D01*
X166237491Y-86623000D01*
X159262509Y-86623000D01*
X158916870Y-86554248D01*
X158634455Y-86365545D01*
X158445752Y-86083130D01*
X158377000Y-85737491D01*
X158377000Y-78512509D01*
X158445752Y-78166870D01*
X158634455Y-77884455D01*
X158916870Y-77695752D01*
X159262509Y-77627000D01*
X166237491Y-77627000D01*
X166583130Y-77695752D01*
G04 #@! TO.N,/AOUT1*
G36*
X166583130Y-53195752D02*
X166865545Y-53384455D01*
X167054248Y-53666870D01*
X167123000Y-54012509D01*
X167123000Y-61237491D01*
X167054248Y-61583130D01*
X166865545Y-61865545D01*
X166583130Y-62054248D01*
X166237491Y-62123000D01*
X159262509Y-62123000D01*
X158916870Y-62054248D01*
X158634455Y-61865545D01*
X158445752Y-61583130D01*
X158377000Y-61237491D01*
X158377000Y-54012509D01*
X158445752Y-53666870D01*
X158634455Y-53384455D01*
X158916870Y-53195752D01*
X159262509Y-53127000D01*
X166237491Y-53127000D01*
X166583130Y-53195752D01*
X166583130Y-53195752D01*
G37*
X166583130Y-53195752D02*
X166865545Y-53384455D01*
X167054248Y-53666870D01*
X167123000Y-54012509D01*
X167123000Y-61237491D01*
X167054248Y-61583130D01*
X166865545Y-61865545D01*
X166583130Y-62054248D01*
X166237491Y-62123000D01*
X159262509Y-62123000D01*
X158916870Y-62054248D01*
X158634455Y-61865545D01*
X158445752Y-61583130D01*
X158377000Y-61237491D01*
X158377000Y-54012509D01*
X158445752Y-53666870D01*
X158634455Y-53384455D01*
X158916870Y-53195752D01*
X159262509Y-53127000D01*
X166237491Y-53127000D01*
X166583130Y-53195752D01*
G04 #@! TD*
M02*
