M48
;DRILL file {KiCad 5.0.2-bee76a0~70~ubuntu18.04.1} date Wed 27 Feb 2019 08:57:31 PM EST
;FORMAT={-:-/ absolute / inch / decimal}
FMAT,2
INCH,TZ
T1C0.0157
T2C0.0256
T3C0.0315
T4C0.0598
T5C0.0630
%
G90
G05
T1
X4.7657Y-3.2756
X4.9508Y-3.1299
X4.9508Y-3.1693
X4.9508Y-3.2087
X4.9508Y-3.248
X4.9508Y-3.5335
X4.9508Y-3.5728
X4.9508Y-3.6122
X4.9508Y-3.6516
X4.9902Y-3.1299
X4.9902Y-3.1693
X4.9902Y-3.2087
X4.9902Y-3.248
X4.9902Y-3.5335
X4.9902Y-3.5728
X4.9902Y-3.6122
X4.9902Y-3.6516
X5.0295Y-3.1299
X5.0295Y-3.1693
X5.0295Y-3.2087
X5.0295Y-3.248
X5.0295Y-3.5335
X5.0295Y-3.5728
X5.0295Y-3.6122
X5.0295Y-3.6516
X5.1674Y-3.2077
X5.561Y-2.1063
X5.561Y-2.1063
X5.561Y-2.1063
X5.561Y-2.4213
X5.5807Y-3.0709
X5.5807Y-3.0709
X5.5807Y-3.0709
X5.5807Y-3.3858
X5.5807Y-3.6614
X5.5807Y-3.6614
X5.5807Y-3.6614
X5.5807Y-3.9764
X5.5807Y-4.626
X5.5807Y-4.626
X5.5807Y-4.626
X5.5807Y-4.9409
X5.6004Y-2.1063
X5.6004Y-2.4213
X5.6201Y-3.0709
X5.6201Y-3.3858
X5.6201Y-3.6614
X5.6201Y-3.9764
X5.6201Y-4.626
X5.6201Y-4.9409
X5.6398Y-2.1063
X5.6398Y-2.4213
X5.6594Y-3.0709
X5.6594Y-3.3858
X5.6594Y-3.6614
X5.6594Y-3.9764
X5.6594Y-4.626
X5.6594Y-4.9409
X5.6791Y-2.1063
X5.6791Y-2.4213
X5.6988Y-3.0709
X5.6988Y-3.3858
X5.6988Y-3.6614
X5.6988Y-3.9764
X5.6988Y-4.626
X5.6988Y-4.9409
X5.7185Y-2.1063
X5.7185Y-2.4213
X5.7382Y-3.0709
X5.7382Y-3.3858
X5.7382Y-3.6614
X5.7382Y-3.9764
X5.7382Y-4.626
X5.7382Y-4.9409
X5.7579Y-2.1063
X5.7579Y-2.4213
X5.7776Y-3.0709
X5.7776Y-3.3858
X5.7776Y-3.6614
X5.7776Y-3.9764
X5.7776Y-4.626
X5.7776Y-4.9409
X5.7972Y-2.1063
X5.7972Y-2.4213
X5.8071Y-2.7165
X5.8071Y-2.7559
X5.8071Y-2.7953
X5.8071Y-2.8346
X5.8071Y-2.874
X5.8071Y-2.9134
X5.8071Y-4.2815
X5.8071Y-4.3209
X5.8071Y-4.3602
X5.8071Y-4.3996
X5.8071Y-4.439
X5.8071Y-4.4783
X5.8169Y-3.0709
X5.8169Y-3.3858
X5.8169Y-3.6614
X5.8169Y-3.9764
X5.8169Y-4.626
X5.8169Y-4.9409
X5.8366Y-2.1063
X5.8366Y-2.4213
X5.8465Y-2.7165
X5.8465Y-2.7559
X5.8465Y-2.7559
X5.8465Y-2.7559
X5.8465Y-2.7953
X5.8465Y-2.8346
X5.8465Y-2.874
X5.8465Y-2.9134
X5.8465Y-4.2815
X5.8465Y-4.3209
X5.8465Y-4.3209
X5.8465Y-4.3209
X5.8465Y-4.3602
X5.8465Y-4.3996
X5.8465Y-4.439
X5.8465Y-4.4783
X5.8563Y-3.0709
X5.8563Y-3.3858
X5.8563Y-3.6614
X5.8563Y-3.9764
X5.8563Y-4.626
X5.8563Y-4.9409
X5.876Y-2.1063
X5.876Y-2.1457
X5.876Y-2.185
X5.876Y-2.2244
X5.876Y-2.2638
X5.876Y-2.3031
X5.876Y-2.3425
X5.876Y-2.3819
X5.876Y-2.4213
X5.8858Y-2.7165
X5.8858Y-2.7559
X5.8858Y-2.7953
X5.8858Y-2.8346
X5.8858Y-2.874
X5.8858Y-2.9134
X5.8858Y-4.2815
X5.8858Y-4.3209
X5.8858Y-4.3602
X5.8858Y-4.3996
X5.8858Y-4.439
X5.8858Y-4.4783
X5.8898Y-4.937
X5.8957Y-3.0709
X5.8957Y-3.1102
X5.8957Y-3.1496
X5.8957Y-3.189
X5.8957Y-3.2283
X5.8957Y-3.2677
X5.8957Y-3.3071
X5.8957Y-3.3465
X5.8957Y-3.3858
X5.8957Y-3.6614
X5.8957Y-3.7008
X5.8957Y-3.7402
X5.8957Y-3.7795
X5.8957Y-3.8189
X5.8957Y-3.8583
X5.8957Y-3.8976
X5.8957Y-3.937
X5.8957Y-3.9764
X5.8957Y-4.626
X5.8957Y-4.6654
X5.8957Y-4.7047
X5.8957Y-4.7441
X5.8957Y-4.7835
X5.8957Y-4.8228
X5.8957Y-4.8622
X5.8957Y-4.9016
X6.2303Y-4.626
X6.2402Y-4.9409
X6.25Y-2.1063
X6.25Y-2.4311
X6.25Y-3.0709
X6.25Y-3.6516
X6.25Y-3.9764
X6.2697Y-4.626
X6.2795Y-3.3858
X6.2795Y-4.9409
X6.2894Y-2.1063
X6.2894Y-2.4311
X6.2894Y-3.0709
X6.2894Y-3.6516
X6.2894Y-3.9764
X6.3091Y-4.626
X6.3189Y-3.3858
X6.3287Y-2.1063
X6.3287Y-2.4311
X6.3287Y-3.0709
X6.3287Y-3.9764
X6.3484Y-4.626
X6.3681Y-2.1063
X6.3681Y-2.4311
X6.3681Y-3.0709
X6.3681Y-3.9764
X6.3878Y-4.626
X6.4075Y-2.1063
X6.4075Y-2.4311
X6.4075Y-3.0709
X6.4075Y-3.9764
X6.4272Y-4.626
X6.4272Y-4.9409
X6.4469Y-2.1063
X6.4469Y-2.4311
X6.4469Y-3.0709
X6.4469Y-3.3858
X6.4469Y-3.6516
X6.4469Y-3.9764
X6.4665Y-4.626
X6.4665Y-4.9409
X6.4862Y-2.1063
X6.4862Y-2.4311
X6.4862Y-3.0709
X6.4862Y-3.3858
X6.4862Y-3.6516
X6.4862Y-3.9764
X6.5059Y-4.626
X6.5059Y-4.6654
X6.5059Y-4.7047
X6.5059Y-4.8622
X6.5059Y-4.9016
X6.5059Y-4.9409
X6.5256Y-2.1063
X6.5256Y-2.1457
X6.5256Y-2.185
X6.5256Y-2.313
X6.5256Y-2.3524
X6.5256Y-2.3917
X6.5256Y-2.4311
X6.5256Y-2.4311
X6.5256Y-2.4311
X6.5256Y-3.0709
X6.5256Y-3.1102
X6.5256Y-3.1496
X6.5256Y-3.189
X6.5256Y-3.2283
X6.5256Y-3.2677
X6.5256Y-3.3071
X6.5256Y-3.3465
X6.5256Y-3.3858
X6.5256Y-3.6516
X6.5256Y-3.6909
X6.5256Y-3.7303
X6.5256Y-3.7697
X6.5256Y-3.8976
X6.5256Y-3.937
X6.5256Y-3.9764
X6.5453Y-4.626
X6.5453Y-4.6654
X6.5453Y-4.7047
X6.5453Y-4.8622
X6.5453Y-4.9016
X6.5453Y-4.9409
X6.565Y-2.1063
X6.565Y-2.1457
X6.565Y-2.185
X6.565Y-2.313
X6.565Y-2.3524
X6.565Y-2.3917
X6.565Y-2.4311
X6.565Y-3.0709
X6.565Y-3.1102
X6.565Y-3.1496
X6.565Y-3.189
X6.565Y-3.2283
X6.565Y-3.2677
X6.565Y-3.3071
X6.565Y-3.3465
X6.565Y-3.3858
X6.565Y-3.6516
X6.565Y-3.6909
X6.565Y-3.8976
X6.565Y-3.937
X6.565Y-3.9764
T2
X4.4488Y-3.1189
X4.4488Y-3.1689
X4.4488Y-3.2189
X4.4488Y-3.2689
X4.4488Y-3.3189
X4.4488Y-3.3689
X4.4488Y-3.4189
X4.4488Y-3.4689
X4.4488Y-3.5189
X4.4488Y-3.5689
X4.4488Y-3.6189
X4.4488Y-3.6689
X4.4488Y-3.7189
X4.4488Y-3.7689
X4.4488Y-3.8189
T3
X6.3583Y-2.7362
X6.4961Y-2.7362
X6.3583Y-4.3012
X6.4961Y-4.3012
X6.7815Y-4.8425
X6.9193Y-4.8425
T4
X6.8189Y-3.2756
X6.8189Y-3.4756
X6.8189Y-3.6756
X6.8189Y-3.8756
X6.8504Y-2.6378
X6.8504Y-2.8378
T5
X6.9488Y-4.5276
X4.9606Y-4.7933
X6.9291Y-2.3917
X4.5472Y-2.1949
T0
M30
