G04 #@! TF.GenerationSoftware,KiCad,Pcbnew,5.0.2-bee76a0~70~ubuntu18.04.1*
G04 #@! TF.CreationDate,2019-02-27T20:57:34-05:00*
G04 #@! TF.ProjectId,Stepper Motor Prototype,53746570-7065-4722-904d-6f746f722050,rev?*
G04 #@! TF.SameCoordinates,Original*
G04 #@! TF.FileFunction,Legend,Top*
G04 #@! TF.FilePolarity,Positive*
%FSLAX46Y46*%
G04 Gerber Fmt 4.6, Leading zero omitted, Abs format (unit mm)*
G04 Created by KiCad (PCBNEW 5.0.2-bee76a0~70~ubuntu18.04.1) date Wed 27 Feb 2019 08:57:34 PM EST*
%MOMM*%
%LPD*%
G01*
G04 APERTURE LIST*
%ADD10C,0.120000*%
%ADD11C,0.150000*%
G04 APERTURE END LIST*
D10*
G04 #@! TO.C,J2*
X170190000Y-64460000D02*
X170190000Y-74620000D01*
X177810000Y-64460000D02*
X170190000Y-64460000D01*
X177810000Y-74620000D02*
X177810000Y-64460000D01*
X170190000Y-74620000D02*
X177810000Y-74620000D01*
X171460000Y-74620000D02*
X171460000Y-64460000D01*
G04 #@! TO.C,J3*
X169390000Y-80660000D02*
X169390000Y-100980000D01*
X177010000Y-80660000D02*
X177010000Y-100980000D01*
X170660000Y-100980000D02*
X170660000Y-80660000D01*
X169390000Y-100980000D02*
X177010000Y-100980000D01*
X177010000Y-80660000D02*
X169390000Y-80660000D01*
G04 #@! TO.C,Q4*
X141780000Y-78550000D02*
X140280000Y-78550000D01*
X140280000Y-78550000D02*
X140280000Y-78820000D01*
X140280000Y-78820000D02*
X137450000Y-78820000D01*
X141780000Y-85450000D02*
X140280000Y-85450000D01*
X140280000Y-85450000D02*
X140280000Y-85180000D01*
X140280000Y-85180000D02*
X139180000Y-85180000D01*
G04 #@! TO.C,Q3*
X157280000Y-85180000D02*
X156180000Y-85180000D01*
X157280000Y-85450000D02*
X157280000Y-85180000D01*
X158780000Y-85450000D02*
X157280000Y-85450000D01*
X157280000Y-78820000D02*
X154450000Y-78820000D01*
X157280000Y-78550000D02*
X157280000Y-78820000D01*
X158780000Y-78550000D02*
X157280000Y-78550000D01*
G04 #@! TO.C,Q2*
X158780000Y-54050000D02*
X157280000Y-54050000D01*
X157280000Y-54050000D02*
X157280000Y-54320000D01*
X157280000Y-54320000D02*
X154450000Y-54320000D01*
X158780000Y-60950000D02*
X157280000Y-60950000D01*
X157280000Y-60950000D02*
X157280000Y-60680000D01*
X157280000Y-60680000D02*
X156180000Y-60680000D01*
G04 #@! TO.C,Q1*
X140280000Y-60680000D02*
X139180000Y-60680000D01*
X140280000Y-60950000D02*
X140280000Y-60680000D01*
X141780000Y-60950000D02*
X140280000Y-60950000D01*
X140280000Y-54320000D02*
X137450000Y-54320000D01*
X140280000Y-54050000D02*
X140280000Y-54320000D01*
X141780000Y-54050000D02*
X140280000Y-54050000D01*
G04 #@! TO.C,Q5*
X141780000Y-93550000D02*
X140280000Y-93550000D01*
X140280000Y-93550000D02*
X140280000Y-93820000D01*
X140280000Y-93820000D02*
X137450000Y-93820000D01*
X141780000Y-100450000D02*
X140280000Y-100450000D01*
X140280000Y-100450000D02*
X140280000Y-100180000D01*
X140280000Y-100180000D02*
X139180000Y-100180000D01*
G04 #@! TO.C,Q6*
X157280000Y-100180000D02*
X156180000Y-100180000D01*
X157280000Y-100450000D02*
X157280000Y-100180000D01*
X158780000Y-100450000D02*
X157280000Y-100450000D01*
X157280000Y-93820000D02*
X154450000Y-93820000D01*
X157280000Y-93550000D02*
X157280000Y-93820000D01*
X158780000Y-93550000D02*
X157280000Y-93550000D01*
G04 #@! TO.C,Q7*
X158280000Y-118050000D02*
X156780000Y-118050000D01*
X156780000Y-118050000D02*
X156780000Y-118320000D01*
X156780000Y-118320000D02*
X153950000Y-118320000D01*
X158280000Y-124950000D02*
X156780000Y-124950000D01*
X156780000Y-124950000D02*
X156780000Y-124680000D01*
X156780000Y-124680000D02*
X155680000Y-124680000D01*
G04 #@! TO.C,Q8*
X140280000Y-124680000D02*
X139180000Y-124680000D01*
X140280000Y-124950000D02*
X140280000Y-124680000D01*
X141780000Y-124950000D02*
X140280000Y-124950000D01*
X140280000Y-118320000D02*
X137450000Y-118320000D01*
X140280000Y-118050000D02*
X140280000Y-118320000D01*
X141780000Y-118050000D02*
X140280000Y-118050000D01*
G04 #@! TO.C,C3*
X120100000Y-84650000D02*
X120100000Y-85350000D01*
X118900000Y-85350000D02*
X118900000Y-84650000D01*
G04 #@! TO.C,C4*
X118100000Y-88450000D02*
X118100000Y-89150000D01*
X116900000Y-89150000D02*
X116900000Y-88450000D01*
G04 #@! TO.C,C5*
X120100000Y-88450000D02*
X120100000Y-89150000D01*
X118900000Y-89150000D02*
X118900000Y-88450000D01*
G04 #@! TO.C,C6*
X118800000Y-80600000D02*
X118100000Y-80600000D01*
X118100000Y-79400000D02*
X118800000Y-79400000D01*
G04 #@! TO.C,C2*
X116900000Y-85400000D02*
X116900000Y-84700000D01*
X118100000Y-84700000D02*
X118100000Y-85400000D01*
G04 #@! TO.C,R7*
X140400000Y-69680000D02*
X145600000Y-69680000D01*
X145600000Y-73320000D02*
X140400000Y-73320000D01*
G04 #@! TO.C,R8*
X139900000Y-109430000D02*
X145100000Y-109430000D01*
X145100000Y-113070000D02*
X139900000Y-113070000D01*
G04 #@! TO.C,C1*
X170650000Y-122350000D02*
X170650000Y-123650000D01*
X170050000Y-123000000D02*
X171250000Y-123000000D01*
X178081000Y-122754000D02*
X178081000Y-123246000D01*
X178041000Y-122402000D02*
X178041000Y-123598000D01*
X178001000Y-122186000D02*
X178001000Y-123814000D01*
X177961000Y-122017000D02*
X177961000Y-123983000D01*
X177921000Y-121873000D02*
X177921000Y-124127000D01*
X177881000Y-121746000D02*
X177881000Y-124254000D01*
X177841000Y-121631000D02*
X177841000Y-124369000D01*
X177801000Y-121527000D02*
X177801000Y-124473000D01*
X177761000Y-121430000D02*
X177761000Y-124570000D01*
X177721000Y-121340000D02*
X177721000Y-124660000D01*
X177681000Y-121255000D02*
X177681000Y-124745000D01*
X177641000Y-121174000D02*
X177641000Y-124826000D01*
X177601000Y-121098000D02*
X177601000Y-124902000D01*
X177561000Y-121026000D02*
X177561000Y-124974000D01*
X177521000Y-120957000D02*
X177521000Y-125043000D01*
X177481000Y-120891000D02*
X177481000Y-125109000D01*
X177441000Y-120827000D02*
X177441000Y-125173000D01*
X177401000Y-120766000D02*
X177401000Y-125234000D01*
X177361000Y-120707000D02*
X177361000Y-125293000D01*
X177321000Y-120651000D02*
X177321000Y-125349000D01*
X177281000Y-120596000D02*
X177281000Y-125404000D01*
X177241000Y-120543000D02*
X177241000Y-125457000D01*
X177201000Y-120492000D02*
X177201000Y-125508000D01*
X177161000Y-120443000D02*
X177161000Y-125557000D01*
X177121000Y-120395000D02*
X177121000Y-125605000D01*
X177081000Y-120348000D02*
X177081000Y-125652000D01*
X177041000Y-120303000D02*
X177041000Y-125697000D01*
X177001000Y-120260000D02*
X177001000Y-125740000D01*
X176961000Y-120217000D02*
X176961000Y-125783000D01*
X176921000Y-120176000D02*
X176921000Y-125824000D01*
X176881000Y-120135000D02*
X176881000Y-125865000D01*
X176841000Y-120096000D02*
X176841000Y-125904000D01*
X176801000Y-120058000D02*
X176801000Y-125942000D01*
X176761000Y-120021000D02*
X176761000Y-125979000D01*
X176721000Y-123980000D02*
X176721000Y-126015000D01*
X176721000Y-119985000D02*
X176721000Y-122020000D01*
X176681000Y-123980000D02*
X176681000Y-126050000D01*
X176681000Y-119950000D02*
X176681000Y-122020000D01*
X176641000Y-123980000D02*
X176641000Y-126084000D01*
X176641000Y-119916000D02*
X176641000Y-122020000D01*
X176601000Y-123980000D02*
X176601000Y-126118000D01*
X176601000Y-119882000D02*
X176601000Y-122020000D01*
X176561000Y-123980000D02*
X176561000Y-126150000D01*
X176561000Y-119850000D02*
X176561000Y-122020000D01*
X176521000Y-123980000D02*
X176521000Y-126182000D01*
X176521000Y-119818000D02*
X176521000Y-122020000D01*
X176481000Y-123980000D02*
X176481000Y-126213000D01*
X176481000Y-119787000D02*
X176481000Y-122020000D01*
X176441000Y-123980000D02*
X176441000Y-126243000D01*
X176441000Y-119757000D02*
X176441000Y-122020000D01*
X176401000Y-123980000D02*
X176401000Y-126272000D01*
X176401000Y-119728000D02*
X176401000Y-122020000D01*
X176361000Y-123980000D02*
X176361000Y-126301000D01*
X176361000Y-119699000D02*
X176361000Y-122020000D01*
X176321000Y-123980000D02*
X176321000Y-126329000D01*
X176321000Y-119671000D02*
X176321000Y-122020000D01*
X176281000Y-123980000D02*
X176281000Y-126356000D01*
X176281000Y-119644000D02*
X176281000Y-122020000D01*
X176241000Y-123980000D02*
X176241000Y-126383000D01*
X176241000Y-119617000D02*
X176241000Y-122020000D01*
X176201000Y-123980000D02*
X176201000Y-126408000D01*
X176201000Y-119592000D02*
X176201000Y-122020000D01*
X176161000Y-123980000D02*
X176161000Y-126434000D01*
X176161000Y-119566000D02*
X176161000Y-122020000D01*
X176121000Y-123980000D02*
X176121000Y-126458000D01*
X176121000Y-119542000D02*
X176121000Y-122020000D01*
X176081000Y-123980000D02*
X176081000Y-126482000D01*
X176081000Y-119518000D02*
X176081000Y-122020000D01*
X176041000Y-123980000D02*
X176041000Y-126505000D01*
X176041000Y-119495000D02*
X176041000Y-122020000D01*
X176001000Y-123980000D02*
X176001000Y-126528000D01*
X176001000Y-119472000D02*
X176001000Y-122020000D01*
X175961000Y-123980000D02*
X175961000Y-126550000D01*
X175961000Y-119450000D02*
X175961000Y-122020000D01*
X175921000Y-123980000D02*
X175921000Y-126572000D01*
X175921000Y-119428000D02*
X175921000Y-122020000D01*
X175881000Y-123980000D02*
X175881000Y-126593000D01*
X175881000Y-119407000D02*
X175881000Y-122020000D01*
X175841000Y-123980000D02*
X175841000Y-126613000D01*
X175841000Y-119387000D02*
X175841000Y-122020000D01*
X175801000Y-123980000D02*
X175801000Y-126633000D01*
X175801000Y-119367000D02*
X175801000Y-122020000D01*
X175761000Y-123980000D02*
X175761000Y-126652000D01*
X175761000Y-119348000D02*
X175761000Y-122020000D01*
X175721000Y-123980000D02*
X175721000Y-126671000D01*
X175721000Y-119329000D02*
X175721000Y-122020000D01*
X175681000Y-123980000D02*
X175681000Y-126690000D01*
X175681000Y-119310000D02*
X175681000Y-122020000D01*
X175641000Y-123980000D02*
X175641000Y-126707000D01*
X175641000Y-119293000D02*
X175641000Y-122020000D01*
X175601000Y-123980000D02*
X175601000Y-126725000D01*
X175601000Y-119275000D02*
X175601000Y-122020000D01*
X175561000Y-123980000D02*
X175561000Y-126741000D01*
X175561000Y-119259000D02*
X175561000Y-122020000D01*
X175521000Y-123980000D02*
X175521000Y-126758000D01*
X175521000Y-119242000D02*
X175521000Y-122020000D01*
X175481000Y-123980000D02*
X175481000Y-126773000D01*
X175481000Y-119227000D02*
X175481000Y-122020000D01*
X175441000Y-123980000D02*
X175441000Y-126789000D01*
X175441000Y-119211000D02*
X175441000Y-122020000D01*
X175401000Y-123980000D02*
X175401000Y-126803000D01*
X175401000Y-119197000D02*
X175401000Y-122020000D01*
X175361000Y-123980000D02*
X175361000Y-126818000D01*
X175361000Y-119182000D02*
X175361000Y-122020000D01*
X175321000Y-123980000D02*
X175321000Y-126832000D01*
X175321000Y-119168000D02*
X175321000Y-122020000D01*
X175281000Y-123980000D02*
X175281000Y-126845000D01*
X175281000Y-119155000D02*
X175281000Y-122020000D01*
X175241000Y-123980000D02*
X175241000Y-126858000D01*
X175241000Y-119142000D02*
X175241000Y-122020000D01*
X175201000Y-123980000D02*
X175201000Y-126870000D01*
X175201000Y-119130000D02*
X175201000Y-122020000D01*
X175161000Y-123980000D02*
X175161000Y-126883000D01*
X175161000Y-119117000D02*
X175161000Y-122020000D01*
X175121000Y-123980000D02*
X175121000Y-126894000D01*
X175121000Y-119106000D02*
X175121000Y-122020000D01*
X175081000Y-123980000D02*
X175081000Y-126905000D01*
X175081000Y-119095000D02*
X175081000Y-122020000D01*
X175041000Y-123980000D02*
X175041000Y-126916000D01*
X175041000Y-119084000D02*
X175041000Y-122020000D01*
X175001000Y-123980000D02*
X175001000Y-126926000D01*
X175001000Y-119074000D02*
X175001000Y-122020000D01*
X174961000Y-123980000D02*
X174961000Y-126936000D01*
X174961000Y-119064000D02*
X174961000Y-122020000D01*
X174921000Y-123980000D02*
X174921000Y-126946000D01*
X174921000Y-119054000D02*
X174921000Y-122020000D01*
X174881000Y-123980000D02*
X174881000Y-126955000D01*
X174881000Y-119045000D02*
X174881000Y-122020000D01*
X174841000Y-123980000D02*
X174841000Y-126963000D01*
X174841000Y-119037000D02*
X174841000Y-122020000D01*
X174801000Y-123980000D02*
X174801000Y-126971000D01*
X174801000Y-119029000D02*
X174801000Y-122020000D01*
X174761000Y-119021000D02*
X174761000Y-126979000D01*
X174721000Y-119013000D02*
X174721000Y-126987000D01*
X174680000Y-119006000D02*
X174680000Y-126994000D01*
X174640000Y-119000000D02*
X174640000Y-127000000D01*
X174600000Y-118994000D02*
X174600000Y-127006000D01*
X174560000Y-118988000D02*
X174560000Y-127012000D01*
X174520000Y-118983000D02*
X174520000Y-127017000D01*
X174480000Y-118978000D02*
X174480000Y-127022000D01*
X174440000Y-118973000D02*
X174440000Y-127027000D01*
X174400000Y-118969000D02*
X174400000Y-127031000D01*
X174360000Y-118965000D02*
X174360000Y-127035000D01*
X174320000Y-118962000D02*
X174320000Y-127038000D01*
X174280000Y-118959000D02*
X174280000Y-127041000D01*
X174240000Y-118957000D02*
X174240000Y-127043000D01*
X174200000Y-118954000D02*
X174200000Y-127046000D01*
X174160000Y-118953000D02*
X174160000Y-127047000D01*
X174120000Y-118951000D02*
X174120000Y-127049000D01*
X174080000Y-118950000D02*
X174080000Y-127050000D01*
X174040000Y-118950000D02*
X174040000Y-127050000D01*
X174000000Y-118950000D02*
X174000000Y-127050000D01*
X178090000Y-123000000D02*
G75*
G03X178090000Y-123000000I-4090000J0D01*
G01*
D11*
G04 #@! TO.C,TP1*
X117250000Y-55750000D02*
G75*
G03X117250000Y-55750000I-1750000J0D01*
G01*
G04 #@! TO.C,TP2*
X177750000Y-60750000D02*
G75*
G03X177750000Y-60750000I-1750000J0D01*
G01*
G04 #@! TO.C,TP3*
X127750000Y-121750000D02*
G75*
G03X127750000Y-121750000I-1750000J0D01*
G01*
G04 #@! TO.C,TP4*
X178250000Y-115000000D02*
G75*
G03X178250000Y-115000000I-1750000J0D01*
G01*
G04 #@! TO.C,U7*
X124375000Y-91175000D02*
X129025000Y-91175000D01*
X123300000Y-81175000D02*
X129025000Y-81175000D01*
X124375000Y-91175000D02*
X124375000Y-91067500D01*
X129025000Y-91175000D02*
X129025000Y-91067500D01*
X129025000Y-81225000D02*
X129025000Y-81332500D01*
D10*
G04 #@! TO.C,J1*
X114110000Y-97760000D02*
X113000000Y-97760000D01*
X114110000Y-97000000D02*
X114110000Y-97760000D01*
X112436529Y-96240000D02*
X111890000Y-96240000D01*
X114110000Y-96240000D02*
X113563471Y-96240000D01*
X111890000Y-96240000D02*
X111890000Y-78525000D01*
X114110000Y-96240000D02*
X114110000Y-78525000D01*
X112692470Y-78525000D02*
X111890000Y-78525000D01*
X114110000Y-78525000D02*
X113307530Y-78525000D01*
G04 #@! TO.C,C7*
X119600000Y-63350000D02*
X118900000Y-63350000D01*
X118900000Y-62150000D02*
X119600000Y-62150000D01*
G04 #@! TO.C,C8*
X116800000Y-101850000D02*
X116100000Y-101850000D01*
X116100000Y-100650000D02*
X116800000Y-100650000D01*
G04 #@! TO.C,C9*
X167340000Y-69500000D02*
G75*
G03X167340000Y-69500000I-4090000J0D01*
G01*
X163250000Y-65450000D02*
X163250000Y-73550000D01*
X163290000Y-65450000D02*
X163290000Y-73550000D01*
X163330000Y-65450000D02*
X163330000Y-73550000D01*
X163370000Y-65451000D02*
X163370000Y-73549000D01*
X163410000Y-65453000D02*
X163410000Y-73547000D01*
X163450000Y-65454000D02*
X163450000Y-73546000D01*
X163490000Y-65457000D02*
X163490000Y-73543000D01*
X163530000Y-65459000D02*
X163530000Y-73541000D01*
X163570000Y-65462000D02*
X163570000Y-73538000D01*
X163610000Y-65465000D02*
X163610000Y-73535000D01*
X163650000Y-65469000D02*
X163650000Y-73531000D01*
X163690000Y-65473000D02*
X163690000Y-73527000D01*
X163730000Y-65478000D02*
X163730000Y-73522000D01*
X163770000Y-65483000D02*
X163770000Y-73517000D01*
X163810000Y-65488000D02*
X163810000Y-73512000D01*
X163850000Y-65494000D02*
X163850000Y-73506000D01*
X163890000Y-65500000D02*
X163890000Y-73500000D01*
X163930000Y-65506000D02*
X163930000Y-73494000D01*
X163971000Y-65513000D02*
X163971000Y-73487000D01*
X164011000Y-65521000D02*
X164011000Y-73479000D01*
X164051000Y-65529000D02*
X164051000Y-68520000D01*
X164051000Y-70480000D02*
X164051000Y-73471000D01*
X164091000Y-65537000D02*
X164091000Y-68520000D01*
X164091000Y-70480000D02*
X164091000Y-73463000D01*
X164131000Y-65545000D02*
X164131000Y-68520000D01*
X164131000Y-70480000D02*
X164131000Y-73455000D01*
X164171000Y-65554000D02*
X164171000Y-68520000D01*
X164171000Y-70480000D02*
X164171000Y-73446000D01*
X164211000Y-65564000D02*
X164211000Y-68520000D01*
X164211000Y-70480000D02*
X164211000Y-73436000D01*
X164251000Y-65574000D02*
X164251000Y-68520000D01*
X164251000Y-70480000D02*
X164251000Y-73426000D01*
X164291000Y-65584000D02*
X164291000Y-68520000D01*
X164291000Y-70480000D02*
X164291000Y-73416000D01*
X164331000Y-65595000D02*
X164331000Y-68520000D01*
X164331000Y-70480000D02*
X164331000Y-73405000D01*
X164371000Y-65606000D02*
X164371000Y-68520000D01*
X164371000Y-70480000D02*
X164371000Y-73394000D01*
X164411000Y-65617000D02*
X164411000Y-68520000D01*
X164411000Y-70480000D02*
X164411000Y-73383000D01*
X164451000Y-65630000D02*
X164451000Y-68520000D01*
X164451000Y-70480000D02*
X164451000Y-73370000D01*
X164491000Y-65642000D02*
X164491000Y-68520000D01*
X164491000Y-70480000D02*
X164491000Y-73358000D01*
X164531000Y-65655000D02*
X164531000Y-68520000D01*
X164531000Y-70480000D02*
X164531000Y-73345000D01*
X164571000Y-65668000D02*
X164571000Y-68520000D01*
X164571000Y-70480000D02*
X164571000Y-73332000D01*
X164611000Y-65682000D02*
X164611000Y-68520000D01*
X164611000Y-70480000D02*
X164611000Y-73318000D01*
X164651000Y-65697000D02*
X164651000Y-68520000D01*
X164651000Y-70480000D02*
X164651000Y-73303000D01*
X164691000Y-65711000D02*
X164691000Y-68520000D01*
X164691000Y-70480000D02*
X164691000Y-73289000D01*
X164731000Y-65727000D02*
X164731000Y-68520000D01*
X164731000Y-70480000D02*
X164731000Y-73273000D01*
X164771000Y-65742000D02*
X164771000Y-68520000D01*
X164771000Y-70480000D02*
X164771000Y-73258000D01*
X164811000Y-65759000D02*
X164811000Y-68520000D01*
X164811000Y-70480000D02*
X164811000Y-73241000D01*
X164851000Y-65775000D02*
X164851000Y-68520000D01*
X164851000Y-70480000D02*
X164851000Y-73225000D01*
X164891000Y-65793000D02*
X164891000Y-68520000D01*
X164891000Y-70480000D02*
X164891000Y-73207000D01*
X164931000Y-65810000D02*
X164931000Y-68520000D01*
X164931000Y-70480000D02*
X164931000Y-73190000D01*
X164971000Y-65829000D02*
X164971000Y-68520000D01*
X164971000Y-70480000D02*
X164971000Y-73171000D01*
X165011000Y-65848000D02*
X165011000Y-68520000D01*
X165011000Y-70480000D02*
X165011000Y-73152000D01*
X165051000Y-65867000D02*
X165051000Y-68520000D01*
X165051000Y-70480000D02*
X165051000Y-73133000D01*
X165091000Y-65887000D02*
X165091000Y-68520000D01*
X165091000Y-70480000D02*
X165091000Y-73113000D01*
X165131000Y-65907000D02*
X165131000Y-68520000D01*
X165131000Y-70480000D02*
X165131000Y-73093000D01*
X165171000Y-65928000D02*
X165171000Y-68520000D01*
X165171000Y-70480000D02*
X165171000Y-73072000D01*
X165211000Y-65950000D02*
X165211000Y-68520000D01*
X165211000Y-70480000D02*
X165211000Y-73050000D01*
X165251000Y-65972000D02*
X165251000Y-68520000D01*
X165251000Y-70480000D02*
X165251000Y-73028000D01*
X165291000Y-65995000D02*
X165291000Y-68520000D01*
X165291000Y-70480000D02*
X165291000Y-73005000D01*
X165331000Y-66018000D02*
X165331000Y-68520000D01*
X165331000Y-70480000D02*
X165331000Y-72982000D01*
X165371000Y-66042000D02*
X165371000Y-68520000D01*
X165371000Y-70480000D02*
X165371000Y-72958000D01*
X165411000Y-66066000D02*
X165411000Y-68520000D01*
X165411000Y-70480000D02*
X165411000Y-72934000D01*
X165451000Y-66092000D02*
X165451000Y-68520000D01*
X165451000Y-70480000D02*
X165451000Y-72908000D01*
X165491000Y-66117000D02*
X165491000Y-68520000D01*
X165491000Y-70480000D02*
X165491000Y-72883000D01*
X165531000Y-66144000D02*
X165531000Y-68520000D01*
X165531000Y-70480000D02*
X165531000Y-72856000D01*
X165571000Y-66171000D02*
X165571000Y-68520000D01*
X165571000Y-70480000D02*
X165571000Y-72829000D01*
X165611000Y-66199000D02*
X165611000Y-68520000D01*
X165611000Y-70480000D02*
X165611000Y-72801000D01*
X165651000Y-66228000D02*
X165651000Y-68520000D01*
X165651000Y-70480000D02*
X165651000Y-72772000D01*
X165691000Y-66257000D02*
X165691000Y-68520000D01*
X165691000Y-70480000D02*
X165691000Y-72743000D01*
X165731000Y-66287000D02*
X165731000Y-68520000D01*
X165731000Y-70480000D02*
X165731000Y-72713000D01*
X165771000Y-66318000D02*
X165771000Y-68520000D01*
X165771000Y-70480000D02*
X165771000Y-72682000D01*
X165811000Y-66350000D02*
X165811000Y-68520000D01*
X165811000Y-70480000D02*
X165811000Y-72650000D01*
X165851000Y-66382000D02*
X165851000Y-68520000D01*
X165851000Y-70480000D02*
X165851000Y-72618000D01*
X165891000Y-66416000D02*
X165891000Y-68520000D01*
X165891000Y-70480000D02*
X165891000Y-72584000D01*
X165931000Y-66450000D02*
X165931000Y-68520000D01*
X165931000Y-70480000D02*
X165931000Y-72550000D01*
X165971000Y-66485000D02*
X165971000Y-68520000D01*
X165971000Y-70480000D02*
X165971000Y-72515000D01*
X166011000Y-66521000D02*
X166011000Y-72479000D01*
X166051000Y-66558000D02*
X166051000Y-72442000D01*
X166091000Y-66596000D02*
X166091000Y-72404000D01*
X166131000Y-66635000D02*
X166131000Y-72365000D01*
X166171000Y-66676000D02*
X166171000Y-72324000D01*
X166211000Y-66717000D02*
X166211000Y-72283000D01*
X166251000Y-66760000D02*
X166251000Y-72240000D01*
X166291000Y-66803000D02*
X166291000Y-72197000D01*
X166331000Y-66848000D02*
X166331000Y-72152000D01*
X166371000Y-66895000D02*
X166371000Y-72105000D01*
X166411000Y-66943000D02*
X166411000Y-72057000D01*
X166451000Y-66992000D02*
X166451000Y-72008000D01*
X166491000Y-67043000D02*
X166491000Y-71957000D01*
X166531000Y-67096000D02*
X166531000Y-71904000D01*
X166571000Y-67151000D02*
X166571000Y-71849000D01*
X166611000Y-67207000D02*
X166611000Y-71793000D01*
X166651000Y-67266000D02*
X166651000Y-71734000D01*
X166691000Y-67327000D02*
X166691000Y-71673000D01*
X166731000Y-67391000D02*
X166731000Y-71609000D01*
X166771000Y-67457000D02*
X166771000Y-71543000D01*
X166811000Y-67526000D02*
X166811000Y-71474000D01*
X166851000Y-67598000D02*
X166851000Y-71402000D01*
X166891000Y-67674000D02*
X166891000Y-71326000D01*
X166931000Y-67755000D02*
X166931000Y-71245000D01*
X166971000Y-67840000D02*
X166971000Y-71160000D01*
X167011000Y-67930000D02*
X167011000Y-71070000D01*
X167051000Y-68027000D02*
X167051000Y-70973000D01*
X167091000Y-68131000D02*
X167091000Y-70869000D01*
X167131000Y-68246000D02*
X167131000Y-70754000D01*
X167171000Y-68373000D02*
X167171000Y-70627000D01*
X167211000Y-68517000D02*
X167211000Y-70483000D01*
X167251000Y-68686000D02*
X167251000Y-70314000D01*
X167291000Y-68902000D02*
X167291000Y-70098000D01*
X167331000Y-69254000D02*
X167331000Y-69746000D01*
X159300000Y-69500000D02*
X160500000Y-69500000D01*
X159900000Y-68850000D02*
X159900000Y-70150000D01*
G04 #@! TO.C,C10*
X127100000Y-63350000D02*
X126400000Y-63350000D01*
X126400000Y-62150000D02*
X127100000Y-62150000D01*
G04 #@! TO.C,C11*
X122400000Y-101850000D02*
X121700000Y-101850000D01*
X121700000Y-100650000D02*
X122400000Y-100650000D01*
G04 #@! TO.C,C12*
X159900000Y-108600000D02*
X159900000Y-109900000D01*
X159300000Y-109250000D02*
X160500000Y-109250000D01*
X167331000Y-109004000D02*
X167331000Y-109496000D01*
X167291000Y-108652000D02*
X167291000Y-109848000D01*
X167251000Y-108436000D02*
X167251000Y-110064000D01*
X167211000Y-108267000D02*
X167211000Y-110233000D01*
X167171000Y-108123000D02*
X167171000Y-110377000D01*
X167131000Y-107996000D02*
X167131000Y-110504000D01*
X167091000Y-107881000D02*
X167091000Y-110619000D01*
X167051000Y-107777000D02*
X167051000Y-110723000D01*
X167011000Y-107680000D02*
X167011000Y-110820000D01*
X166971000Y-107590000D02*
X166971000Y-110910000D01*
X166931000Y-107505000D02*
X166931000Y-110995000D01*
X166891000Y-107424000D02*
X166891000Y-111076000D01*
X166851000Y-107348000D02*
X166851000Y-111152000D01*
X166811000Y-107276000D02*
X166811000Y-111224000D01*
X166771000Y-107207000D02*
X166771000Y-111293000D01*
X166731000Y-107141000D02*
X166731000Y-111359000D01*
X166691000Y-107077000D02*
X166691000Y-111423000D01*
X166651000Y-107016000D02*
X166651000Y-111484000D01*
X166611000Y-106957000D02*
X166611000Y-111543000D01*
X166571000Y-106901000D02*
X166571000Y-111599000D01*
X166531000Y-106846000D02*
X166531000Y-111654000D01*
X166491000Y-106793000D02*
X166491000Y-111707000D01*
X166451000Y-106742000D02*
X166451000Y-111758000D01*
X166411000Y-106693000D02*
X166411000Y-111807000D01*
X166371000Y-106645000D02*
X166371000Y-111855000D01*
X166331000Y-106598000D02*
X166331000Y-111902000D01*
X166291000Y-106553000D02*
X166291000Y-111947000D01*
X166251000Y-106510000D02*
X166251000Y-111990000D01*
X166211000Y-106467000D02*
X166211000Y-112033000D01*
X166171000Y-106426000D02*
X166171000Y-112074000D01*
X166131000Y-106385000D02*
X166131000Y-112115000D01*
X166091000Y-106346000D02*
X166091000Y-112154000D01*
X166051000Y-106308000D02*
X166051000Y-112192000D01*
X166011000Y-106271000D02*
X166011000Y-112229000D01*
X165971000Y-110230000D02*
X165971000Y-112265000D01*
X165971000Y-106235000D02*
X165971000Y-108270000D01*
X165931000Y-110230000D02*
X165931000Y-112300000D01*
X165931000Y-106200000D02*
X165931000Y-108270000D01*
X165891000Y-110230000D02*
X165891000Y-112334000D01*
X165891000Y-106166000D02*
X165891000Y-108270000D01*
X165851000Y-110230000D02*
X165851000Y-112368000D01*
X165851000Y-106132000D02*
X165851000Y-108270000D01*
X165811000Y-110230000D02*
X165811000Y-112400000D01*
X165811000Y-106100000D02*
X165811000Y-108270000D01*
X165771000Y-110230000D02*
X165771000Y-112432000D01*
X165771000Y-106068000D02*
X165771000Y-108270000D01*
X165731000Y-110230000D02*
X165731000Y-112463000D01*
X165731000Y-106037000D02*
X165731000Y-108270000D01*
X165691000Y-110230000D02*
X165691000Y-112493000D01*
X165691000Y-106007000D02*
X165691000Y-108270000D01*
X165651000Y-110230000D02*
X165651000Y-112522000D01*
X165651000Y-105978000D02*
X165651000Y-108270000D01*
X165611000Y-110230000D02*
X165611000Y-112551000D01*
X165611000Y-105949000D02*
X165611000Y-108270000D01*
X165571000Y-110230000D02*
X165571000Y-112579000D01*
X165571000Y-105921000D02*
X165571000Y-108270000D01*
X165531000Y-110230000D02*
X165531000Y-112606000D01*
X165531000Y-105894000D02*
X165531000Y-108270000D01*
X165491000Y-110230000D02*
X165491000Y-112633000D01*
X165491000Y-105867000D02*
X165491000Y-108270000D01*
X165451000Y-110230000D02*
X165451000Y-112658000D01*
X165451000Y-105842000D02*
X165451000Y-108270000D01*
X165411000Y-110230000D02*
X165411000Y-112684000D01*
X165411000Y-105816000D02*
X165411000Y-108270000D01*
X165371000Y-110230000D02*
X165371000Y-112708000D01*
X165371000Y-105792000D02*
X165371000Y-108270000D01*
X165331000Y-110230000D02*
X165331000Y-112732000D01*
X165331000Y-105768000D02*
X165331000Y-108270000D01*
X165291000Y-110230000D02*
X165291000Y-112755000D01*
X165291000Y-105745000D02*
X165291000Y-108270000D01*
X165251000Y-110230000D02*
X165251000Y-112778000D01*
X165251000Y-105722000D02*
X165251000Y-108270000D01*
X165211000Y-110230000D02*
X165211000Y-112800000D01*
X165211000Y-105700000D02*
X165211000Y-108270000D01*
X165171000Y-110230000D02*
X165171000Y-112822000D01*
X165171000Y-105678000D02*
X165171000Y-108270000D01*
X165131000Y-110230000D02*
X165131000Y-112843000D01*
X165131000Y-105657000D02*
X165131000Y-108270000D01*
X165091000Y-110230000D02*
X165091000Y-112863000D01*
X165091000Y-105637000D02*
X165091000Y-108270000D01*
X165051000Y-110230000D02*
X165051000Y-112883000D01*
X165051000Y-105617000D02*
X165051000Y-108270000D01*
X165011000Y-110230000D02*
X165011000Y-112902000D01*
X165011000Y-105598000D02*
X165011000Y-108270000D01*
X164971000Y-110230000D02*
X164971000Y-112921000D01*
X164971000Y-105579000D02*
X164971000Y-108270000D01*
X164931000Y-110230000D02*
X164931000Y-112940000D01*
X164931000Y-105560000D02*
X164931000Y-108270000D01*
X164891000Y-110230000D02*
X164891000Y-112957000D01*
X164891000Y-105543000D02*
X164891000Y-108270000D01*
X164851000Y-110230000D02*
X164851000Y-112975000D01*
X164851000Y-105525000D02*
X164851000Y-108270000D01*
X164811000Y-110230000D02*
X164811000Y-112991000D01*
X164811000Y-105509000D02*
X164811000Y-108270000D01*
X164771000Y-110230000D02*
X164771000Y-113008000D01*
X164771000Y-105492000D02*
X164771000Y-108270000D01*
X164731000Y-110230000D02*
X164731000Y-113023000D01*
X164731000Y-105477000D02*
X164731000Y-108270000D01*
X164691000Y-110230000D02*
X164691000Y-113039000D01*
X164691000Y-105461000D02*
X164691000Y-108270000D01*
X164651000Y-110230000D02*
X164651000Y-113053000D01*
X164651000Y-105447000D02*
X164651000Y-108270000D01*
X164611000Y-110230000D02*
X164611000Y-113068000D01*
X164611000Y-105432000D02*
X164611000Y-108270000D01*
X164571000Y-110230000D02*
X164571000Y-113082000D01*
X164571000Y-105418000D02*
X164571000Y-108270000D01*
X164531000Y-110230000D02*
X164531000Y-113095000D01*
X164531000Y-105405000D02*
X164531000Y-108270000D01*
X164491000Y-110230000D02*
X164491000Y-113108000D01*
X164491000Y-105392000D02*
X164491000Y-108270000D01*
X164451000Y-110230000D02*
X164451000Y-113120000D01*
X164451000Y-105380000D02*
X164451000Y-108270000D01*
X164411000Y-110230000D02*
X164411000Y-113133000D01*
X164411000Y-105367000D02*
X164411000Y-108270000D01*
X164371000Y-110230000D02*
X164371000Y-113144000D01*
X164371000Y-105356000D02*
X164371000Y-108270000D01*
X164331000Y-110230000D02*
X164331000Y-113155000D01*
X164331000Y-105345000D02*
X164331000Y-108270000D01*
X164291000Y-110230000D02*
X164291000Y-113166000D01*
X164291000Y-105334000D02*
X164291000Y-108270000D01*
X164251000Y-110230000D02*
X164251000Y-113176000D01*
X164251000Y-105324000D02*
X164251000Y-108270000D01*
X164211000Y-110230000D02*
X164211000Y-113186000D01*
X164211000Y-105314000D02*
X164211000Y-108270000D01*
X164171000Y-110230000D02*
X164171000Y-113196000D01*
X164171000Y-105304000D02*
X164171000Y-108270000D01*
X164131000Y-110230000D02*
X164131000Y-113205000D01*
X164131000Y-105295000D02*
X164131000Y-108270000D01*
X164091000Y-110230000D02*
X164091000Y-113213000D01*
X164091000Y-105287000D02*
X164091000Y-108270000D01*
X164051000Y-110230000D02*
X164051000Y-113221000D01*
X164051000Y-105279000D02*
X164051000Y-108270000D01*
X164011000Y-105271000D02*
X164011000Y-113229000D01*
X163971000Y-105263000D02*
X163971000Y-113237000D01*
X163930000Y-105256000D02*
X163930000Y-113244000D01*
X163890000Y-105250000D02*
X163890000Y-113250000D01*
X163850000Y-105244000D02*
X163850000Y-113256000D01*
X163810000Y-105238000D02*
X163810000Y-113262000D01*
X163770000Y-105233000D02*
X163770000Y-113267000D01*
X163730000Y-105228000D02*
X163730000Y-113272000D01*
X163690000Y-105223000D02*
X163690000Y-113277000D01*
X163650000Y-105219000D02*
X163650000Y-113281000D01*
X163610000Y-105215000D02*
X163610000Y-113285000D01*
X163570000Y-105212000D02*
X163570000Y-113288000D01*
X163530000Y-105209000D02*
X163530000Y-113291000D01*
X163490000Y-105207000D02*
X163490000Y-113293000D01*
X163450000Y-105204000D02*
X163450000Y-113296000D01*
X163410000Y-105203000D02*
X163410000Y-113297000D01*
X163370000Y-105201000D02*
X163370000Y-113299000D01*
X163330000Y-105200000D02*
X163330000Y-113300000D01*
X163290000Y-105200000D02*
X163290000Y-113300000D01*
X163250000Y-105200000D02*
X163250000Y-113300000D01*
X167340000Y-109250000D02*
G75*
G03X167340000Y-109250000I-4090000J0D01*
G01*
G04 #@! TO.C,C15*
X130350000Y-92150000D02*
X131050000Y-92150000D01*
X131050000Y-93350000D02*
X130350000Y-93350000D01*
G04 #@! TO.C,R1*
X115570000Y-65100000D02*
X115570000Y-64100000D01*
X116930000Y-64100000D02*
X116930000Y-65100000D01*
G04 #@! TO.C,R3*
X112570000Y-103250000D02*
X112570000Y-102250000D01*
X113930000Y-102250000D02*
X113930000Y-103250000D01*
G04 #@! TO.C,R4*
X131930000Y-63900000D02*
X131930000Y-64900000D01*
X130570000Y-64900000D02*
X130570000Y-63900000D01*
G04 #@! TO.C,R5*
X127930000Y-102350000D02*
X127930000Y-103350000D01*
X126570000Y-103350000D02*
X126570000Y-102350000D01*
G04 #@! TO.C,R6*
X131930000Y-102350000D02*
X131930000Y-103350000D01*
X130570000Y-103350000D02*
X130570000Y-102350000D01*
G04 #@! TO.C,R9*
X128570000Y-103350000D02*
X128570000Y-102350000D01*
X129930000Y-102350000D02*
X129930000Y-103350000D01*
D11*
G04 #@! TO.C,U2*
X120775000Y-72500000D02*
X125425000Y-72500000D01*
X119700000Y-64400000D02*
X125425000Y-64400000D01*
X120775000Y-72500000D02*
X120775000Y-72475000D01*
X125425000Y-72500000D02*
X125425000Y-72475000D01*
X125425000Y-64450000D02*
X125425000Y-64475000D01*
G04 #@! TO.C,U3*
X121425000Y-102700000D02*
X121425000Y-102725000D01*
X121425000Y-110750000D02*
X121425000Y-110725000D01*
X116775000Y-110750000D02*
X116775000Y-110725000D01*
X115700000Y-102650000D02*
X121425000Y-102650000D01*
X116775000Y-110750000D02*
X121425000Y-110750000D01*
G04 #@! TO.C,J2*
X178532380Y-69873333D02*
X179246666Y-69873333D01*
X179389523Y-69920952D01*
X179484761Y-70016190D01*
X179532380Y-70159047D01*
X179532380Y-70254285D01*
X178627619Y-69444761D02*
X178580000Y-69397142D01*
X178532380Y-69301904D01*
X178532380Y-69063809D01*
X178580000Y-68968571D01*
X178627619Y-68920952D01*
X178722857Y-68873333D01*
X178818095Y-68873333D01*
X178960952Y-68920952D01*
X179532380Y-69492380D01*
X179532380Y-68873333D01*
G04 #@! TO.C,J3*
X177452380Y-91133333D02*
X178166666Y-91133333D01*
X178309523Y-91180952D01*
X178404761Y-91276190D01*
X178452380Y-91419047D01*
X178452380Y-91514285D01*
X177452380Y-90752380D02*
X177452380Y-90133333D01*
X177833333Y-90466666D01*
X177833333Y-90323809D01*
X177880952Y-90228571D01*
X177928571Y-90180952D01*
X178023809Y-90133333D01*
X178261904Y-90133333D01*
X178357142Y-90180952D01*
X178404761Y-90228571D01*
X178452380Y-90323809D01*
X178452380Y-90609523D01*
X178404761Y-90704761D01*
X178357142Y-90752380D01*
G04 #@! TO.C,Q4*
X142654761Y-78047619D02*
X142559523Y-78000000D01*
X142464285Y-77904761D01*
X142321428Y-77761904D01*
X142226190Y-77714285D01*
X142130952Y-77714285D01*
X142178571Y-77952380D02*
X142083333Y-77904761D01*
X141988095Y-77809523D01*
X141940476Y-77619047D01*
X141940476Y-77285714D01*
X141988095Y-77095238D01*
X142083333Y-77000000D01*
X142178571Y-76952380D01*
X142369047Y-76952380D01*
X142464285Y-77000000D01*
X142559523Y-77095238D01*
X142607142Y-77285714D01*
X142607142Y-77619047D01*
X142559523Y-77809523D01*
X142464285Y-77904761D01*
X142369047Y-77952380D01*
X142178571Y-77952380D01*
X143464285Y-77285714D02*
X143464285Y-77952380D01*
X143226190Y-76904761D02*
X142988095Y-77619047D01*
X143607142Y-77619047D01*
G04 #@! TO.C,Q3*
X159654761Y-78047619D02*
X159559523Y-78000000D01*
X159464285Y-77904761D01*
X159321428Y-77761904D01*
X159226190Y-77714285D01*
X159130952Y-77714285D01*
X159178571Y-77952380D02*
X159083333Y-77904761D01*
X158988095Y-77809523D01*
X158940476Y-77619047D01*
X158940476Y-77285714D01*
X158988095Y-77095238D01*
X159083333Y-77000000D01*
X159178571Y-76952380D01*
X159369047Y-76952380D01*
X159464285Y-77000000D01*
X159559523Y-77095238D01*
X159607142Y-77285714D01*
X159607142Y-77619047D01*
X159559523Y-77809523D01*
X159464285Y-77904761D01*
X159369047Y-77952380D01*
X159178571Y-77952380D01*
X159940476Y-76952380D02*
X160559523Y-76952380D01*
X160226190Y-77333333D01*
X160369047Y-77333333D01*
X160464285Y-77380952D01*
X160511904Y-77428571D01*
X160559523Y-77523809D01*
X160559523Y-77761904D01*
X160511904Y-77857142D01*
X160464285Y-77904761D01*
X160369047Y-77952380D01*
X160083333Y-77952380D01*
X159988095Y-77904761D01*
X159940476Y-77857142D01*
G04 #@! TO.C,Q2*
X159654761Y-53547619D02*
X159559523Y-53500000D01*
X159464285Y-53404761D01*
X159321428Y-53261904D01*
X159226190Y-53214285D01*
X159130952Y-53214285D01*
X159178571Y-53452380D02*
X159083333Y-53404761D01*
X158988095Y-53309523D01*
X158940476Y-53119047D01*
X158940476Y-52785714D01*
X158988095Y-52595238D01*
X159083333Y-52500000D01*
X159178571Y-52452380D01*
X159369047Y-52452380D01*
X159464285Y-52500000D01*
X159559523Y-52595238D01*
X159607142Y-52785714D01*
X159607142Y-53119047D01*
X159559523Y-53309523D01*
X159464285Y-53404761D01*
X159369047Y-53452380D01*
X159178571Y-53452380D01*
X159988095Y-52547619D02*
X160035714Y-52500000D01*
X160130952Y-52452380D01*
X160369047Y-52452380D01*
X160464285Y-52500000D01*
X160511904Y-52547619D01*
X160559523Y-52642857D01*
X160559523Y-52738095D01*
X160511904Y-52880952D01*
X159940476Y-53452380D01*
X160559523Y-53452380D01*
G04 #@! TO.C,Q1*
X142654761Y-53547619D02*
X142559523Y-53500000D01*
X142464285Y-53404761D01*
X142321428Y-53261904D01*
X142226190Y-53214285D01*
X142130952Y-53214285D01*
X142178571Y-53452380D02*
X142083333Y-53404761D01*
X141988095Y-53309523D01*
X141940476Y-53119047D01*
X141940476Y-52785714D01*
X141988095Y-52595238D01*
X142083333Y-52500000D01*
X142178571Y-52452380D01*
X142369047Y-52452380D01*
X142464285Y-52500000D01*
X142559523Y-52595238D01*
X142607142Y-52785714D01*
X142607142Y-53119047D01*
X142559523Y-53309523D01*
X142464285Y-53404761D01*
X142369047Y-53452380D01*
X142178571Y-53452380D01*
X143559523Y-53452380D02*
X142988095Y-53452380D01*
X143273809Y-53452380D02*
X143273809Y-52452380D01*
X143178571Y-52595238D01*
X143083333Y-52690476D01*
X142988095Y-52738095D01*
G04 #@! TO.C,Q5*
X142654761Y-93047619D02*
X142559523Y-93000000D01*
X142464285Y-92904761D01*
X142321428Y-92761904D01*
X142226190Y-92714285D01*
X142130952Y-92714285D01*
X142178571Y-92952380D02*
X142083333Y-92904761D01*
X141988095Y-92809523D01*
X141940476Y-92619047D01*
X141940476Y-92285714D01*
X141988095Y-92095238D01*
X142083333Y-92000000D01*
X142178571Y-91952380D01*
X142369047Y-91952380D01*
X142464285Y-92000000D01*
X142559523Y-92095238D01*
X142607142Y-92285714D01*
X142607142Y-92619047D01*
X142559523Y-92809523D01*
X142464285Y-92904761D01*
X142369047Y-92952380D01*
X142178571Y-92952380D01*
X143511904Y-91952380D02*
X143035714Y-91952380D01*
X142988095Y-92428571D01*
X143035714Y-92380952D01*
X143130952Y-92333333D01*
X143369047Y-92333333D01*
X143464285Y-92380952D01*
X143511904Y-92428571D01*
X143559523Y-92523809D01*
X143559523Y-92761904D01*
X143511904Y-92857142D01*
X143464285Y-92904761D01*
X143369047Y-92952380D01*
X143130952Y-92952380D01*
X143035714Y-92904761D01*
X142988095Y-92857142D01*
G04 #@! TO.C,Q6*
X159654761Y-93047619D02*
X159559523Y-93000000D01*
X159464285Y-92904761D01*
X159321428Y-92761904D01*
X159226190Y-92714285D01*
X159130952Y-92714285D01*
X159178571Y-92952380D02*
X159083333Y-92904761D01*
X158988095Y-92809523D01*
X158940476Y-92619047D01*
X158940476Y-92285714D01*
X158988095Y-92095238D01*
X159083333Y-92000000D01*
X159178571Y-91952380D01*
X159369047Y-91952380D01*
X159464285Y-92000000D01*
X159559523Y-92095238D01*
X159607142Y-92285714D01*
X159607142Y-92619047D01*
X159559523Y-92809523D01*
X159464285Y-92904761D01*
X159369047Y-92952380D01*
X159178571Y-92952380D01*
X160464285Y-91952380D02*
X160273809Y-91952380D01*
X160178571Y-92000000D01*
X160130952Y-92047619D01*
X160035714Y-92190476D01*
X159988095Y-92380952D01*
X159988095Y-92761904D01*
X160035714Y-92857142D01*
X160083333Y-92904761D01*
X160178571Y-92952380D01*
X160369047Y-92952380D01*
X160464285Y-92904761D01*
X160511904Y-92857142D01*
X160559523Y-92761904D01*
X160559523Y-92523809D01*
X160511904Y-92428571D01*
X160464285Y-92380952D01*
X160369047Y-92333333D01*
X160178571Y-92333333D01*
X160083333Y-92380952D01*
X160035714Y-92428571D01*
X159988095Y-92523809D01*
G04 #@! TO.C,Q7*
X159154761Y-117547619D02*
X159059523Y-117500000D01*
X158964285Y-117404761D01*
X158821428Y-117261904D01*
X158726190Y-117214285D01*
X158630952Y-117214285D01*
X158678571Y-117452380D02*
X158583333Y-117404761D01*
X158488095Y-117309523D01*
X158440476Y-117119047D01*
X158440476Y-116785714D01*
X158488095Y-116595238D01*
X158583333Y-116500000D01*
X158678571Y-116452380D01*
X158869047Y-116452380D01*
X158964285Y-116500000D01*
X159059523Y-116595238D01*
X159107142Y-116785714D01*
X159107142Y-117119047D01*
X159059523Y-117309523D01*
X158964285Y-117404761D01*
X158869047Y-117452380D01*
X158678571Y-117452380D01*
X159440476Y-116452380D02*
X160107142Y-116452380D01*
X159678571Y-117452380D01*
G04 #@! TO.C,Q8*
X142654761Y-117547619D02*
X142559523Y-117500000D01*
X142464285Y-117404761D01*
X142321428Y-117261904D01*
X142226190Y-117214285D01*
X142130952Y-117214285D01*
X142178571Y-117452380D02*
X142083333Y-117404761D01*
X141988095Y-117309523D01*
X141940476Y-117119047D01*
X141940476Y-116785714D01*
X141988095Y-116595238D01*
X142083333Y-116500000D01*
X142178571Y-116452380D01*
X142369047Y-116452380D01*
X142464285Y-116500000D01*
X142559523Y-116595238D01*
X142607142Y-116785714D01*
X142607142Y-117119047D01*
X142559523Y-117309523D01*
X142464285Y-117404761D01*
X142369047Y-117452380D01*
X142178571Y-117452380D01*
X143178571Y-116880952D02*
X143083333Y-116833333D01*
X143035714Y-116785714D01*
X142988095Y-116690476D01*
X142988095Y-116642857D01*
X143035714Y-116547619D01*
X143083333Y-116500000D01*
X143178571Y-116452380D01*
X143369047Y-116452380D01*
X143464285Y-116500000D01*
X143511904Y-116547619D01*
X143559523Y-116642857D01*
X143559523Y-116690476D01*
X143511904Y-116785714D01*
X143464285Y-116833333D01*
X143369047Y-116880952D01*
X143178571Y-116880952D01*
X143083333Y-116928571D01*
X143035714Y-116976190D01*
X142988095Y-117071428D01*
X142988095Y-117261904D01*
X143035714Y-117357142D01*
X143083333Y-117404761D01*
X143178571Y-117452380D01*
X143369047Y-117452380D01*
X143464285Y-117404761D01*
X143511904Y-117357142D01*
X143559523Y-117261904D01*
X143559523Y-117071428D01*
X143511904Y-116976190D01*
X143464285Y-116928571D01*
X143369047Y-116880952D01*
G04 #@! TO.C,C3*
X118607142Y-85166666D02*
X118654761Y-85214285D01*
X118702380Y-85357142D01*
X118702380Y-85452380D01*
X118654761Y-85595238D01*
X118559523Y-85690476D01*
X118464285Y-85738095D01*
X118273809Y-85785714D01*
X118130952Y-85785714D01*
X117940476Y-85738095D01*
X117845238Y-85690476D01*
X117750000Y-85595238D01*
X117702380Y-85452380D01*
X117702380Y-85357142D01*
X117750000Y-85214285D01*
X117797619Y-85166666D01*
X117702380Y-84833333D02*
X117702380Y-84214285D01*
X118083333Y-84547619D01*
X118083333Y-84404761D01*
X118130952Y-84309523D01*
X118178571Y-84261904D01*
X118273809Y-84214285D01*
X118511904Y-84214285D01*
X118607142Y-84261904D01*
X118654761Y-84309523D01*
X118702380Y-84404761D01*
X118702380Y-84690476D01*
X118654761Y-84785714D01*
X118607142Y-84833333D01*
G04 #@! TO.C,C4*
X119107142Y-88966666D02*
X119154761Y-89014285D01*
X119202380Y-89157142D01*
X119202380Y-89252380D01*
X119154761Y-89395238D01*
X119059523Y-89490476D01*
X118964285Y-89538095D01*
X118773809Y-89585714D01*
X118630952Y-89585714D01*
X118440476Y-89538095D01*
X118345238Y-89490476D01*
X118250000Y-89395238D01*
X118202380Y-89252380D01*
X118202380Y-89157142D01*
X118250000Y-89014285D01*
X118297619Y-88966666D01*
X118535714Y-88109523D02*
X119202380Y-88109523D01*
X118154761Y-88347619D02*
X118869047Y-88585714D01*
X118869047Y-87966666D01*
G04 #@! TO.C,C5*
X118607142Y-88966666D02*
X118654761Y-89014285D01*
X118702380Y-89157142D01*
X118702380Y-89252380D01*
X118654761Y-89395238D01*
X118559523Y-89490476D01*
X118464285Y-89538095D01*
X118273809Y-89585714D01*
X118130952Y-89585714D01*
X117940476Y-89538095D01*
X117845238Y-89490476D01*
X117750000Y-89395238D01*
X117702380Y-89252380D01*
X117702380Y-89157142D01*
X117750000Y-89014285D01*
X117797619Y-88966666D01*
X117702380Y-88061904D02*
X117702380Y-88538095D01*
X118178571Y-88585714D01*
X118130952Y-88538095D01*
X118083333Y-88442857D01*
X118083333Y-88204761D01*
X118130952Y-88109523D01*
X118178571Y-88061904D01*
X118273809Y-88014285D01*
X118511904Y-88014285D01*
X118607142Y-88061904D01*
X118654761Y-88109523D01*
X118702380Y-88204761D01*
X118702380Y-88442857D01*
X118654761Y-88538095D01*
X118607142Y-88585714D01*
G04 #@! TO.C,C6*
X118283333Y-81607142D02*
X118235714Y-81654761D01*
X118092857Y-81702380D01*
X117997619Y-81702380D01*
X117854761Y-81654761D01*
X117759523Y-81559523D01*
X117711904Y-81464285D01*
X117664285Y-81273809D01*
X117664285Y-81130952D01*
X117711904Y-80940476D01*
X117759523Y-80845238D01*
X117854761Y-80750000D01*
X117997619Y-80702380D01*
X118092857Y-80702380D01*
X118235714Y-80750000D01*
X118283333Y-80797619D01*
X119140476Y-80702380D02*
X118950000Y-80702380D01*
X118854761Y-80750000D01*
X118807142Y-80797619D01*
X118711904Y-80940476D01*
X118664285Y-81130952D01*
X118664285Y-81511904D01*
X118711904Y-81607142D01*
X118759523Y-81654761D01*
X118854761Y-81702380D01*
X119045238Y-81702380D01*
X119140476Y-81654761D01*
X119188095Y-81607142D01*
X119235714Y-81511904D01*
X119235714Y-81273809D01*
X119188095Y-81178571D01*
X119140476Y-81130952D01*
X119045238Y-81083333D01*
X118854761Y-81083333D01*
X118759523Y-81130952D01*
X118711904Y-81178571D01*
X118664285Y-81273809D01*
G04 #@! TO.C,C2*
X119107142Y-85216666D02*
X119154761Y-85264285D01*
X119202380Y-85407142D01*
X119202380Y-85502380D01*
X119154761Y-85645238D01*
X119059523Y-85740476D01*
X118964285Y-85788095D01*
X118773809Y-85835714D01*
X118630952Y-85835714D01*
X118440476Y-85788095D01*
X118345238Y-85740476D01*
X118250000Y-85645238D01*
X118202380Y-85502380D01*
X118202380Y-85407142D01*
X118250000Y-85264285D01*
X118297619Y-85216666D01*
X118297619Y-84835714D02*
X118250000Y-84788095D01*
X118202380Y-84692857D01*
X118202380Y-84454761D01*
X118250000Y-84359523D01*
X118297619Y-84311904D01*
X118392857Y-84264285D01*
X118488095Y-84264285D01*
X118630952Y-84311904D01*
X119202380Y-84883333D01*
X119202380Y-84264285D01*
G04 #@! TO.C,R7*
X142833333Y-69352380D02*
X142500000Y-68876190D01*
X142261904Y-69352380D02*
X142261904Y-68352380D01*
X142642857Y-68352380D01*
X142738095Y-68400000D01*
X142785714Y-68447619D01*
X142833333Y-68542857D01*
X142833333Y-68685714D01*
X142785714Y-68780952D01*
X142738095Y-68828571D01*
X142642857Y-68876190D01*
X142261904Y-68876190D01*
X143166666Y-68352380D02*
X143833333Y-68352380D01*
X143404761Y-69352380D01*
G04 #@! TO.C,R8*
X142333333Y-109102380D02*
X142000000Y-108626190D01*
X141761904Y-109102380D02*
X141761904Y-108102380D01*
X142142857Y-108102380D01*
X142238095Y-108150000D01*
X142285714Y-108197619D01*
X142333333Y-108292857D01*
X142333333Y-108435714D01*
X142285714Y-108530952D01*
X142238095Y-108578571D01*
X142142857Y-108626190D01*
X141761904Y-108626190D01*
X142904761Y-108530952D02*
X142809523Y-108483333D01*
X142761904Y-108435714D01*
X142714285Y-108340476D01*
X142714285Y-108292857D01*
X142761904Y-108197619D01*
X142809523Y-108150000D01*
X142904761Y-108102380D01*
X143095238Y-108102380D01*
X143190476Y-108150000D01*
X143238095Y-108197619D01*
X143285714Y-108292857D01*
X143285714Y-108340476D01*
X143238095Y-108435714D01*
X143190476Y-108483333D01*
X143095238Y-108530952D01*
X142904761Y-108530952D01*
X142809523Y-108578571D01*
X142761904Y-108626190D01*
X142714285Y-108721428D01*
X142714285Y-108911904D01*
X142761904Y-109007142D01*
X142809523Y-109054761D01*
X142904761Y-109102380D01*
X143095238Y-109102380D01*
X143190476Y-109054761D01*
X143238095Y-109007142D01*
X143285714Y-108911904D01*
X143285714Y-108721428D01*
X143238095Y-108626190D01*
X143190476Y-108578571D01*
X143095238Y-108530952D01*
G04 #@! TO.C,C1*
X173833333Y-118047142D02*
X173785714Y-118094761D01*
X173642857Y-118142380D01*
X173547619Y-118142380D01*
X173404761Y-118094761D01*
X173309523Y-117999523D01*
X173261904Y-117904285D01*
X173214285Y-117713809D01*
X173214285Y-117570952D01*
X173261904Y-117380476D01*
X173309523Y-117285238D01*
X173404761Y-117190000D01*
X173547619Y-117142380D01*
X173642857Y-117142380D01*
X173785714Y-117190000D01*
X173833333Y-117237619D01*
X174785714Y-118142380D02*
X174214285Y-118142380D01*
X174500000Y-118142380D02*
X174500000Y-117142380D01*
X174404761Y-117285238D01*
X174309523Y-117380476D01*
X174214285Y-117428095D01*
G04 #@! TO.C,TP1*
X114238095Y-52452380D02*
X114809523Y-52452380D01*
X114523809Y-53452380D02*
X114523809Y-52452380D01*
X115142857Y-53452380D02*
X115142857Y-52452380D01*
X115523809Y-52452380D01*
X115619047Y-52500000D01*
X115666666Y-52547619D01*
X115714285Y-52642857D01*
X115714285Y-52785714D01*
X115666666Y-52880952D01*
X115619047Y-52928571D01*
X115523809Y-52976190D01*
X115142857Y-52976190D01*
X116666666Y-53452380D02*
X116095238Y-53452380D01*
X116380952Y-53452380D02*
X116380952Y-52452380D01*
X116285714Y-52595238D01*
X116190476Y-52690476D01*
X116095238Y-52738095D01*
G04 #@! TO.C,TP2*
X174738095Y-57452380D02*
X175309523Y-57452380D01*
X175023809Y-58452380D02*
X175023809Y-57452380D01*
X175642857Y-58452380D02*
X175642857Y-57452380D01*
X176023809Y-57452380D01*
X176119047Y-57500000D01*
X176166666Y-57547619D01*
X176214285Y-57642857D01*
X176214285Y-57785714D01*
X176166666Y-57880952D01*
X176119047Y-57928571D01*
X176023809Y-57976190D01*
X175642857Y-57976190D01*
X176595238Y-57547619D02*
X176642857Y-57500000D01*
X176738095Y-57452380D01*
X176976190Y-57452380D01*
X177071428Y-57500000D01*
X177119047Y-57547619D01*
X177166666Y-57642857D01*
X177166666Y-57738095D01*
X177119047Y-57880952D01*
X176547619Y-58452380D01*
X177166666Y-58452380D01*
G04 #@! TO.C,TP3*
X124738095Y-118452380D02*
X125309523Y-118452380D01*
X125023809Y-119452380D02*
X125023809Y-118452380D01*
X125642857Y-119452380D02*
X125642857Y-118452380D01*
X126023809Y-118452380D01*
X126119047Y-118500000D01*
X126166666Y-118547619D01*
X126214285Y-118642857D01*
X126214285Y-118785714D01*
X126166666Y-118880952D01*
X126119047Y-118928571D01*
X126023809Y-118976190D01*
X125642857Y-118976190D01*
X126547619Y-118452380D02*
X127166666Y-118452380D01*
X126833333Y-118833333D01*
X126976190Y-118833333D01*
X127071428Y-118880952D01*
X127119047Y-118928571D01*
X127166666Y-119023809D01*
X127166666Y-119261904D01*
X127119047Y-119357142D01*
X127071428Y-119404761D01*
X126976190Y-119452380D01*
X126690476Y-119452380D01*
X126595238Y-119404761D01*
X126547619Y-119357142D01*
G04 #@! TO.C,TP4*
X175238095Y-111702380D02*
X175809523Y-111702380D01*
X175523809Y-112702380D02*
X175523809Y-111702380D01*
X176142857Y-112702380D02*
X176142857Y-111702380D01*
X176523809Y-111702380D01*
X176619047Y-111750000D01*
X176666666Y-111797619D01*
X176714285Y-111892857D01*
X176714285Y-112035714D01*
X176666666Y-112130952D01*
X176619047Y-112178571D01*
X176523809Y-112226190D01*
X176142857Y-112226190D01*
X177571428Y-112035714D02*
X177571428Y-112702380D01*
X177333333Y-111654761D02*
X177095238Y-112369047D01*
X177714285Y-112369047D01*
G04 #@! TO.C,U7*
X125938095Y-79752380D02*
X125938095Y-80561904D01*
X125985714Y-80657142D01*
X126033333Y-80704761D01*
X126128571Y-80752380D01*
X126319047Y-80752380D01*
X126414285Y-80704761D01*
X126461904Y-80657142D01*
X126509523Y-80561904D01*
X126509523Y-79752380D01*
X126890476Y-79752380D02*
X127557142Y-79752380D01*
X127128571Y-80752380D01*
G04 #@! TO.C,J1*
X112666666Y-98147380D02*
X112666666Y-98861666D01*
X112619047Y-99004523D01*
X112523809Y-99099761D01*
X112380952Y-99147380D01*
X112285714Y-99147380D01*
X113666666Y-99147380D02*
X113095238Y-99147380D01*
X113380952Y-99147380D02*
X113380952Y-98147380D01*
X113285714Y-98290238D01*
X113190476Y-98385476D01*
X113095238Y-98433095D01*
G04 #@! TO.C,C7*
X119083333Y-64357142D02*
X119035714Y-64404761D01*
X118892857Y-64452380D01*
X118797619Y-64452380D01*
X118654761Y-64404761D01*
X118559523Y-64309523D01*
X118511904Y-64214285D01*
X118464285Y-64023809D01*
X118464285Y-63880952D01*
X118511904Y-63690476D01*
X118559523Y-63595238D01*
X118654761Y-63500000D01*
X118797619Y-63452380D01*
X118892857Y-63452380D01*
X119035714Y-63500000D01*
X119083333Y-63547619D01*
X119416666Y-63452380D02*
X120083333Y-63452380D01*
X119654761Y-64452380D01*
G04 #@! TO.C,C8*
X116283333Y-102857142D02*
X116235714Y-102904761D01*
X116092857Y-102952380D01*
X115997619Y-102952380D01*
X115854761Y-102904761D01*
X115759523Y-102809523D01*
X115711904Y-102714285D01*
X115664285Y-102523809D01*
X115664285Y-102380952D01*
X115711904Y-102190476D01*
X115759523Y-102095238D01*
X115854761Y-102000000D01*
X115997619Y-101952380D01*
X116092857Y-101952380D01*
X116235714Y-102000000D01*
X116283333Y-102047619D01*
X116854761Y-102380952D02*
X116759523Y-102333333D01*
X116711904Y-102285714D01*
X116664285Y-102190476D01*
X116664285Y-102142857D01*
X116711904Y-102047619D01*
X116759523Y-102000000D01*
X116854761Y-101952380D01*
X117045238Y-101952380D01*
X117140476Y-102000000D01*
X117188095Y-102047619D01*
X117235714Y-102142857D01*
X117235714Y-102190476D01*
X117188095Y-102285714D01*
X117140476Y-102333333D01*
X117045238Y-102380952D01*
X116854761Y-102380952D01*
X116759523Y-102428571D01*
X116711904Y-102476190D01*
X116664285Y-102571428D01*
X116664285Y-102761904D01*
X116711904Y-102857142D01*
X116759523Y-102904761D01*
X116854761Y-102952380D01*
X117045238Y-102952380D01*
X117140476Y-102904761D01*
X117188095Y-102857142D01*
X117235714Y-102761904D01*
X117235714Y-102571428D01*
X117188095Y-102476190D01*
X117140476Y-102428571D01*
X117045238Y-102380952D01*
G04 #@! TO.C,C9*
X163083333Y-64547142D02*
X163035714Y-64594761D01*
X162892857Y-64642380D01*
X162797619Y-64642380D01*
X162654761Y-64594761D01*
X162559523Y-64499523D01*
X162511904Y-64404285D01*
X162464285Y-64213809D01*
X162464285Y-64070952D01*
X162511904Y-63880476D01*
X162559523Y-63785238D01*
X162654761Y-63690000D01*
X162797619Y-63642380D01*
X162892857Y-63642380D01*
X163035714Y-63690000D01*
X163083333Y-63737619D01*
X163559523Y-64642380D02*
X163750000Y-64642380D01*
X163845238Y-64594761D01*
X163892857Y-64547142D01*
X163988095Y-64404285D01*
X164035714Y-64213809D01*
X164035714Y-63832857D01*
X163988095Y-63737619D01*
X163940476Y-63690000D01*
X163845238Y-63642380D01*
X163654761Y-63642380D01*
X163559523Y-63690000D01*
X163511904Y-63737619D01*
X163464285Y-63832857D01*
X163464285Y-64070952D01*
X163511904Y-64166190D01*
X163559523Y-64213809D01*
X163654761Y-64261428D01*
X163845238Y-64261428D01*
X163940476Y-64213809D01*
X163988095Y-64166190D01*
X164035714Y-64070952D01*
G04 #@! TO.C,C10*
X126107142Y-61857142D02*
X126059523Y-61904761D01*
X125916666Y-61952380D01*
X125821428Y-61952380D01*
X125678571Y-61904761D01*
X125583333Y-61809523D01*
X125535714Y-61714285D01*
X125488095Y-61523809D01*
X125488095Y-61380952D01*
X125535714Y-61190476D01*
X125583333Y-61095238D01*
X125678571Y-61000000D01*
X125821428Y-60952380D01*
X125916666Y-60952380D01*
X126059523Y-61000000D01*
X126107142Y-61047619D01*
X127059523Y-61952380D02*
X126488095Y-61952380D01*
X126773809Y-61952380D02*
X126773809Y-60952380D01*
X126678571Y-61095238D01*
X126583333Y-61190476D01*
X126488095Y-61238095D01*
X127678571Y-60952380D02*
X127773809Y-60952380D01*
X127869047Y-61000000D01*
X127916666Y-61047619D01*
X127964285Y-61142857D01*
X128011904Y-61333333D01*
X128011904Y-61571428D01*
X127964285Y-61761904D01*
X127916666Y-61857142D01*
X127869047Y-61904761D01*
X127773809Y-61952380D01*
X127678571Y-61952380D01*
X127583333Y-61904761D01*
X127535714Y-61857142D01*
X127488095Y-61761904D01*
X127440476Y-61571428D01*
X127440476Y-61333333D01*
X127488095Y-61142857D01*
X127535714Y-61047619D01*
X127583333Y-61000000D01*
X127678571Y-60952380D01*
G04 #@! TO.C,C11*
X121407142Y-100357142D02*
X121359523Y-100404761D01*
X121216666Y-100452380D01*
X121121428Y-100452380D01*
X120978571Y-100404761D01*
X120883333Y-100309523D01*
X120835714Y-100214285D01*
X120788095Y-100023809D01*
X120788095Y-99880952D01*
X120835714Y-99690476D01*
X120883333Y-99595238D01*
X120978571Y-99500000D01*
X121121428Y-99452380D01*
X121216666Y-99452380D01*
X121359523Y-99500000D01*
X121407142Y-99547619D01*
X122359523Y-100452380D02*
X121788095Y-100452380D01*
X122073809Y-100452380D02*
X122073809Y-99452380D01*
X121978571Y-99595238D01*
X121883333Y-99690476D01*
X121788095Y-99738095D01*
X123311904Y-100452380D02*
X122740476Y-100452380D01*
X123026190Y-100452380D02*
X123026190Y-99452380D01*
X122930952Y-99595238D01*
X122835714Y-99690476D01*
X122740476Y-99738095D01*
G04 #@! TO.C,C12*
X162607142Y-104297142D02*
X162559523Y-104344761D01*
X162416666Y-104392380D01*
X162321428Y-104392380D01*
X162178571Y-104344761D01*
X162083333Y-104249523D01*
X162035714Y-104154285D01*
X161988095Y-103963809D01*
X161988095Y-103820952D01*
X162035714Y-103630476D01*
X162083333Y-103535238D01*
X162178571Y-103440000D01*
X162321428Y-103392380D01*
X162416666Y-103392380D01*
X162559523Y-103440000D01*
X162607142Y-103487619D01*
X163559523Y-104392380D02*
X162988095Y-104392380D01*
X163273809Y-104392380D02*
X163273809Y-103392380D01*
X163178571Y-103535238D01*
X163083333Y-103630476D01*
X162988095Y-103678095D01*
X163940476Y-103487619D02*
X163988095Y-103440000D01*
X164083333Y-103392380D01*
X164321428Y-103392380D01*
X164416666Y-103440000D01*
X164464285Y-103487619D01*
X164511904Y-103582857D01*
X164511904Y-103678095D01*
X164464285Y-103820952D01*
X163892857Y-104392380D01*
X164511904Y-104392380D01*
G04 #@! TO.C,C15*
X130057142Y-94357142D02*
X130009523Y-94404761D01*
X129866666Y-94452380D01*
X129771428Y-94452380D01*
X129628571Y-94404761D01*
X129533333Y-94309523D01*
X129485714Y-94214285D01*
X129438095Y-94023809D01*
X129438095Y-93880952D01*
X129485714Y-93690476D01*
X129533333Y-93595238D01*
X129628571Y-93500000D01*
X129771428Y-93452380D01*
X129866666Y-93452380D01*
X130009523Y-93500000D01*
X130057142Y-93547619D01*
X131009523Y-94452380D02*
X130438095Y-94452380D01*
X130723809Y-94452380D02*
X130723809Y-93452380D01*
X130628571Y-93595238D01*
X130533333Y-93690476D01*
X130438095Y-93738095D01*
X131914285Y-93452380D02*
X131438095Y-93452380D01*
X131390476Y-93928571D01*
X131438095Y-93880952D01*
X131533333Y-93833333D01*
X131771428Y-93833333D01*
X131866666Y-93880952D01*
X131914285Y-93928571D01*
X131961904Y-94023809D01*
X131961904Y-94261904D01*
X131914285Y-94357142D01*
X131866666Y-94404761D01*
X131771428Y-94452380D01*
X131533333Y-94452380D01*
X131438095Y-94404761D01*
X131390476Y-94357142D01*
G04 #@! TO.C,R1*
X115252380Y-64766666D02*
X114776190Y-65100000D01*
X115252380Y-65338095D02*
X114252380Y-65338095D01*
X114252380Y-64957142D01*
X114300000Y-64861904D01*
X114347619Y-64814285D01*
X114442857Y-64766666D01*
X114585714Y-64766666D01*
X114680952Y-64814285D01*
X114728571Y-64861904D01*
X114776190Y-64957142D01*
X114776190Y-65338095D01*
X115252380Y-63814285D02*
X115252380Y-64385714D01*
X115252380Y-64100000D02*
X114252380Y-64100000D01*
X114395238Y-64195238D01*
X114490476Y-64290476D01*
X114538095Y-64385714D01*
G04 #@! TO.C,R3*
X112252380Y-102916666D02*
X111776190Y-103250000D01*
X112252380Y-103488095D02*
X111252380Y-103488095D01*
X111252380Y-103107142D01*
X111300000Y-103011904D01*
X111347619Y-102964285D01*
X111442857Y-102916666D01*
X111585714Y-102916666D01*
X111680952Y-102964285D01*
X111728571Y-103011904D01*
X111776190Y-103107142D01*
X111776190Y-103488095D01*
X111252380Y-102583333D02*
X111252380Y-101964285D01*
X111633333Y-102297619D01*
X111633333Y-102154761D01*
X111680952Y-102059523D01*
X111728571Y-102011904D01*
X111823809Y-101964285D01*
X112061904Y-101964285D01*
X112157142Y-102011904D01*
X112204761Y-102059523D01*
X112252380Y-102154761D01*
X112252380Y-102440476D01*
X112204761Y-102535714D01*
X112157142Y-102583333D01*
G04 #@! TO.C,R4*
X130252380Y-64566666D02*
X129776190Y-64900000D01*
X130252380Y-65138095D02*
X129252380Y-65138095D01*
X129252380Y-64757142D01*
X129300000Y-64661904D01*
X129347619Y-64614285D01*
X129442857Y-64566666D01*
X129585714Y-64566666D01*
X129680952Y-64614285D01*
X129728571Y-64661904D01*
X129776190Y-64757142D01*
X129776190Y-65138095D01*
X129585714Y-63709523D02*
X130252380Y-63709523D01*
X129204761Y-63947619D02*
X129919047Y-64185714D01*
X129919047Y-63566666D01*
G04 #@! TO.C,R5*
X126252380Y-103016666D02*
X125776190Y-103350000D01*
X126252380Y-103588095D02*
X125252380Y-103588095D01*
X125252380Y-103207142D01*
X125300000Y-103111904D01*
X125347619Y-103064285D01*
X125442857Y-103016666D01*
X125585714Y-103016666D01*
X125680952Y-103064285D01*
X125728571Y-103111904D01*
X125776190Y-103207142D01*
X125776190Y-103588095D01*
X125252380Y-102111904D02*
X125252380Y-102588095D01*
X125728571Y-102635714D01*
X125680952Y-102588095D01*
X125633333Y-102492857D01*
X125633333Y-102254761D01*
X125680952Y-102159523D01*
X125728571Y-102111904D01*
X125823809Y-102064285D01*
X126061904Y-102064285D01*
X126157142Y-102111904D01*
X126204761Y-102159523D01*
X126252380Y-102254761D01*
X126252380Y-102492857D01*
X126204761Y-102588095D01*
X126157142Y-102635714D01*
G04 #@! TO.C,R6*
X133152380Y-103016666D02*
X132676190Y-103350000D01*
X133152380Y-103588095D02*
X132152380Y-103588095D01*
X132152380Y-103207142D01*
X132200000Y-103111904D01*
X132247619Y-103064285D01*
X132342857Y-103016666D01*
X132485714Y-103016666D01*
X132580952Y-103064285D01*
X132628571Y-103111904D01*
X132676190Y-103207142D01*
X132676190Y-103588095D01*
X132152380Y-102159523D02*
X132152380Y-102350000D01*
X132200000Y-102445238D01*
X132247619Y-102492857D01*
X132390476Y-102588095D01*
X132580952Y-102635714D01*
X132961904Y-102635714D01*
X133057142Y-102588095D01*
X133104761Y-102540476D01*
X133152380Y-102445238D01*
X133152380Y-102254761D01*
X133104761Y-102159523D01*
X133057142Y-102111904D01*
X132961904Y-102064285D01*
X132723809Y-102064285D01*
X132628571Y-102111904D01*
X132580952Y-102159523D01*
X132533333Y-102254761D01*
X132533333Y-102445238D01*
X132580952Y-102540476D01*
X132628571Y-102588095D01*
X132723809Y-102635714D01*
G04 #@! TO.C,R9*
X131152380Y-103016666D02*
X130676190Y-103350000D01*
X131152380Y-103588095D02*
X130152380Y-103588095D01*
X130152380Y-103207142D01*
X130200000Y-103111904D01*
X130247619Y-103064285D01*
X130342857Y-103016666D01*
X130485714Y-103016666D01*
X130580952Y-103064285D01*
X130628571Y-103111904D01*
X130676190Y-103207142D01*
X130676190Y-103588095D01*
X131152380Y-102540476D02*
X131152380Y-102350000D01*
X131104761Y-102254761D01*
X131057142Y-102207142D01*
X130914285Y-102111904D01*
X130723809Y-102064285D01*
X130342857Y-102064285D01*
X130247619Y-102111904D01*
X130200000Y-102159523D01*
X130152380Y-102254761D01*
X130152380Y-102445238D01*
X130200000Y-102540476D01*
X130247619Y-102588095D01*
X130342857Y-102635714D01*
X130580952Y-102635714D01*
X130676190Y-102588095D01*
X130723809Y-102540476D01*
X130771428Y-102445238D01*
X130771428Y-102254761D01*
X130723809Y-102159523D01*
X130676190Y-102111904D01*
X130580952Y-102064285D01*
G04 #@! TO.C,U2*
X122338095Y-62977380D02*
X122338095Y-63786904D01*
X122385714Y-63882142D01*
X122433333Y-63929761D01*
X122528571Y-63977380D01*
X122719047Y-63977380D01*
X122814285Y-63929761D01*
X122861904Y-63882142D01*
X122909523Y-63786904D01*
X122909523Y-62977380D01*
X123338095Y-63072619D02*
X123385714Y-63025000D01*
X123480952Y-62977380D01*
X123719047Y-62977380D01*
X123814285Y-63025000D01*
X123861904Y-63072619D01*
X123909523Y-63167857D01*
X123909523Y-63263095D01*
X123861904Y-63405952D01*
X123290476Y-63977380D01*
X123909523Y-63977380D01*
G04 #@! TO.C,U3*
X118338095Y-101227380D02*
X118338095Y-102036904D01*
X118385714Y-102132142D01*
X118433333Y-102179761D01*
X118528571Y-102227380D01*
X118719047Y-102227380D01*
X118814285Y-102179761D01*
X118861904Y-102132142D01*
X118909523Y-102036904D01*
X118909523Y-101227380D01*
X119290476Y-101227380D02*
X119909523Y-101227380D01*
X119576190Y-101608333D01*
X119719047Y-101608333D01*
X119814285Y-101655952D01*
X119861904Y-101703571D01*
X119909523Y-101798809D01*
X119909523Y-102036904D01*
X119861904Y-102132142D01*
X119814285Y-102179761D01*
X119719047Y-102227380D01*
X119433333Y-102227380D01*
X119338095Y-102179761D01*
X119290476Y-102132142D01*
G04 #@! TD*
M02*
