G04 #@! TF.GenerationSoftware,KiCad,Pcbnew,5.0.2-bee76a0~70~ubuntu18.04.1*
G04 #@! TF.CreationDate,2019-02-27T20:57:34-05:00*
G04 #@! TF.ProjectId,Stepper Motor Prototype,53746570-7065-4722-904d-6f746f722050,rev?*
G04 #@! TF.SameCoordinates,Original*
G04 #@! TF.FileFunction,Paste,Top*
G04 #@! TF.FilePolarity,Positive*
%FSLAX46Y46*%
G04 Gerber Fmt 4.6, Leading zero omitted, Abs format (unit mm)*
G04 Created by KiCad (PCBNEW 5.0.2-bee76a0~70~ubuntu18.04.1) date Wed 27 Feb 2019 08:57:34 PM EST*
%MOMM*%
%LPD*%
G01*
G04 APERTURE LIST*
%ADD10R,2.200000X1.200000*%
%ADD11R,3.050000X2.750000*%
%ADD12R,0.750000X1.200000*%
%ADD13R,1.200000X0.750000*%
%ADD14R,1.000000X3.200000*%
%ADD15R,1.100000X0.285000*%
%ADD16R,2.900000X4.480000*%
%ADD17R,0.900000X1.200000*%
%ADD18R,1.100000X0.400000*%
G04 APERTURE END LIST*
D10*
G04 #@! TO.C,Q4*
X138550000Y-79720000D03*
X138550000Y-84280000D03*
D11*
X146525000Y-83525000D03*
X143175000Y-80475000D03*
X146525000Y-80475000D03*
X143175000Y-83525000D03*
G04 #@! TD*
G04 #@! TO.C,Q3*
X160175000Y-83525000D03*
X163525000Y-80475000D03*
X160175000Y-80475000D03*
X163525000Y-83525000D03*
D10*
X155550000Y-84280000D03*
X155550000Y-79720000D03*
G04 #@! TD*
G04 #@! TO.C,Q2*
X155550000Y-55220000D03*
X155550000Y-59780000D03*
D11*
X163525000Y-59025000D03*
X160175000Y-55975000D03*
X163525000Y-55975000D03*
X160175000Y-59025000D03*
G04 #@! TD*
G04 #@! TO.C,Q1*
X143175000Y-59025000D03*
X146525000Y-55975000D03*
X143175000Y-55975000D03*
X146525000Y-59025000D03*
D10*
X138550000Y-59780000D03*
X138550000Y-55220000D03*
G04 #@! TD*
G04 #@! TO.C,Q5*
X138550000Y-94720000D03*
X138550000Y-99280000D03*
D11*
X146525000Y-98525000D03*
X143175000Y-95475000D03*
X146525000Y-95475000D03*
X143175000Y-98525000D03*
G04 #@! TD*
G04 #@! TO.C,Q6*
X160175000Y-98525000D03*
X163525000Y-95475000D03*
X160175000Y-95475000D03*
X163525000Y-98525000D03*
D10*
X155550000Y-99280000D03*
X155550000Y-94720000D03*
G04 #@! TD*
G04 #@! TO.C,Q7*
X155050000Y-119220000D03*
X155050000Y-123780000D03*
D11*
X163025000Y-123025000D03*
X159675000Y-119975000D03*
X163025000Y-119975000D03*
X159675000Y-123025000D03*
G04 #@! TD*
G04 #@! TO.C,Q8*
X143175000Y-123025000D03*
X146525000Y-119975000D03*
X143175000Y-119975000D03*
X146525000Y-123025000D03*
D10*
X138550000Y-123780000D03*
X138550000Y-119220000D03*
G04 #@! TD*
D12*
G04 #@! TO.C,C3*
X119500000Y-84050000D03*
X119500000Y-85950000D03*
G04 #@! TD*
G04 #@! TO.C,C4*
X117500000Y-87850000D03*
X117500000Y-89750000D03*
G04 #@! TD*
G04 #@! TO.C,C5*
X119500000Y-87850000D03*
X119500000Y-89750000D03*
G04 #@! TD*
D13*
G04 #@! TO.C,C6*
X119400000Y-80000000D03*
X117500000Y-80000000D03*
G04 #@! TD*
D12*
G04 #@! TO.C,C2*
X117500000Y-86000000D03*
X117500000Y-84100000D03*
G04 #@! TD*
D14*
G04 #@! TO.C,R7*
X146100000Y-71500000D03*
X139900000Y-71500000D03*
G04 #@! TD*
G04 #@! TO.C,R8*
X145600000Y-111250000D03*
X139400000Y-111250000D03*
G04 #@! TD*
D15*
G04 #@! TO.C,U7*
X129550000Y-81700000D03*
X129550000Y-82200000D03*
X129550000Y-82700000D03*
X129550000Y-83200000D03*
X129550000Y-83700000D03*
X129550000Y-84200000D03*
X129550000Y-84700000D03*
X129550000Y-85200000D03*
X129550000Y-85700000D03*
X129550000Y-86200000D03*
X129550000Y-86700000D03*
X129550000Y-87200000D03*
X129550000Y-87700000D03*
X129550000Y-88200000D03*
X129550000Y-88700000D03*
X129550000Y-89200000D03*
X129550000Y-89700000D03*
X129550000Y-90200000D03*
X129550000Y-90700000D03*
X123850000Y-90700000D03*
X123850000Y-90200000D03*
X123850000Y-89700000D03*
X123850000Y-89200000D03*
X123850000Y-88700000D03*
X123850000Y-88200000D03*
X123850000Y-87700000D03*
X123850000Y-87200000D03*
X123850000Y-86700000D03*
X123850000Y-86200000D03*
X123850000Y-85700000D03*
X123850000Y-85200000D03*
X123850000Y-84700000D03*
X123850000Y-84200000D03*
X123850000Y-83700000D03*
X123850000Y-83200000D03*
X123850000Y-82700000D03*
X123850000Y-82200000D03*
X123850000Y-81700000D03*
D16*
X126700000Y-86200000D03*
G04 #@! TD*
D13*
G04 #@! TO.C,C7*
X120200000Y-62750000D03*
X118300000Y-62750000D03*
G04 #@! TD*
G04 #@! TO.C,C8*
X117400000Y-101250000D03*
X115500000Y-101250000D03*
G04 #@! TD*
G04 #@! TO.C,C10*
X127700000Y-62750000D03*
X125800000Y-62750000D03*
G04 #@! TD*
G04 #@! TO.C,C11*
X123000000Y-101250000D03*
X121100000Y-101250000D03*
G04 #@! TD*
G04 #@! TO.C,C15*
X129750000Y-92750000D03*
X131650000Y-92750000D03*
G04 #@! TD*
D17*
G04 #@! TO.C,R1*
X116250000Y-63500000D03*
X116250000Y-65700000D03*
G04 #@! TD*
G04 #@! TO.C,R3*
X113250000Y-101650000D03*
X113250000Y-103850000D03*
G04 #@! TD*
G04 #@! TO.C,R4*
X131250000Y-65500000D03*
X131250000Y-63300000D03*
G04 #@! TD*
G04 #@! TO.C,R5*
X127250000Y-103950000D03*
X127250000Y-101750000D03*
G04 #@! TD*
G04 #@! TO.C,R6*
X131250000Y-103950000D03*
X131250000Y-101750000D03*
G04 #@! TD*
G04 #@! TO.C,R9*
X129250000Y-101750000D03*
X129250000Y-103950000D03*
G04 #@! TD*
D18*
G04 #@! TO.C,U2*
X125950000Y-64900000D03*
X125950000Y-65550000D03*
X125950000Y-66200000D03*
X125950000Y-66850000D03*
X125950000Y-67500000D03*
X125950000Y-68150000D03*
X125950000Y-68800000D03*
X125950000Y-69450000D03*
X125950000Y-70100000D03*
X125950000Y-70750000D03*
X125950000Y-71400000D03*
X125950000Y-72050000D03*
X120250000Y-72050000D03*
X120250000Y-71400000D03*
X120250000Y-70750000D03*
X120250000Y-70100000D03*
X120250000Y-69450000D03*
X120250000Y-68800000D03*
X120250000Y-68150000D03*
X120250000Y-67500000D03*
X120250000Y-66850000D03*
X120250000Y-66200000D03*
X120250000Y-65550000D03*
X120250000Y-64900000D03*
G04 #@! TD*
G04 #@! TO.C,U3*
X116250000Y-103150000D03*
X116250000Y-103800000D03*
X116250000Y-104450000D03*
X116250000Y-105100000D03*
X116250000Y-105750000D03*
X116250000Y-106400000D03*
X116250000Y-107050000D03*
X116250000Y-107700000D03*
X116250000Y-108350000D03*
X116250000Y-109000000D03*
X116250000Y-109650000D03*
X116250000Y-110300000D03*
X121950000Y-110300000D03*
X121950000Y-109650000D03*
X121950000Y-109000000D03*
X121950000Y-108350000D03*
X121950000Y-107700000D03*
X121950000Y-107050000D03*
X121950000Y-106400000D03*
X121950000Y-105750000D03*
X121950000Y-105100000D03*
X121950000Y-104450000D03*
X121950000Y-103800000D03*
X121950000Y-103150000D03*
G04 #@! TD*
M02*
