G04 #@! TF.GenerationSoftware,KiCad,Pcbnew,5.0.2-bee76a0~70~ubuntu18.04.1*
G04 #@! TF.CreationDate,2019-02-27T20:57:34-05:00*
G04 #@! TF.ProjectId,Stepper Motor Prototype,53746570-7065-4722-904d-6f746f722050,rev?*
G04 #@! TF.SameCoordinates,Original*
G04 #@! TF.FileFunction,Copper,L3,Inr*
G04 #@! TF.FilePolarity,Positive*
%FSLAX46Y46*%
G04 Gerber Fmt 4.6, Leading zero omitted, Abs format (unit mm)*
G04 Created by KiCad (PCBNEW 5.0.2-bee76a0~70~ubuntu18.04.1) date Wed 27 Feb 2019 08:57:34 PM EST*
%MOMM*%
%LPD*%
G01*
G04 APERTURE LIST*
G04 #@! TA.AperFunction,ViaPad*
%ADD10C,3.000000*%
G04 #@! TD*
G04 #@! TA.AperFunction,ViaPad*
%ADD11R,3.000000X3.000000*%
G04 #@! TD*
G04 #@! TA.AperFunction,ViaPad*
%ADD12C,1.600000*%
G04 #@! TD*
G04 #@! TA.AperFunction,ViaPad*
%ADD13R,1.600000X1.600000*%
G04 #@! TD*
G04 #@! TA.AperFunction,ViaPad*
%ADD14C,2.800000*%
G04 #@! TD*
G04 #@! TA.AperFunction,ViaPad*
%ADD15O,1.000000X1.000000*%
G04 #@! TD*
G04 #@! TA.AperFunction,ViaPad*
%ADD16R,1.000000X1.000000*%
G04 #@! TD*
G04 #@! TA.AperFunction,ViaPad*
%ADD17C,0.800000*%
G04 #@! TD*
G04 #@! TA.AperFunction,Conductor*
%ADD18C,0.254000*%
G04 #@! TD*
G04 APERTURE END LIST*
D10*
G04 #@! TO.N,+24V*
G04 #@! TO.C,J2*
X174000000Y-72080000D03*
D11*
G04 #@! TO.N,GND*
X174000000Y-67000000D03*
G04 #@! TD*
D10*
G04 #@! TO.N,Net-(J3-Pad4)*
G04 #@! TO.C,J3*
X173200000Y-98440000D03*
D11*
G04 #@! TO.N,/AOUT1*
X173200000Y-83200000D03*
D10*
G04 #@! TO.N,Net-(J3-Pad3)*
X173200000Y-93360000D03*
G04 #@! TO.N,/AOUT2*
X173200000Y-88280000D03*
G04 #@! TD*
D12*
G04 #@! TO.N,GND*
G04 #@! TO.C,C1*
X175750000Y-123000000D03*
D13*
G04 #@! TO.N,+24V*
X172250000Y-123000000D03*
G04 #@! TD*
D14*
G04 #@! TO.N,GND*
G04 #@! TO.C,TP1*
X115500000Y-55750000D03*
G04 #@! TD*
G04 #@! TO.N,GND*
G04 #@! TO.C,TP2*
X176000000Y-60750000D03*
G04 #@! TD*
G04 #@! TO.N,GND*
G04 #@! TO.C,TP3*
X126000000Y-121750000D03*
G04 #@! TD*
G04 #@! TO.N,GND*
G04 #@! TO.C,TP4*
X176500000Y-115000000D03*
G04 #@! TD*
D15*
G04 #@! TO.N,Net-(J1-Pad15)*
G04 #@! TO.C,J1*
X113000000Y-79220000D03*
G04 #@! TO.N,Net-(J1-Pad14)*
X113000000Y-80490000D03*
G04 #@! TO.N,Net-(J1-Pad13)*
X113000000Y-81760000D03*
G04 #@! TO.N,Net-(J1-Pad12)*
X113000000Y-83030000D03*
G04 #@! TO.N,Net-(J1-Pad11)*
X113000000Y-84300000D03*
G04 #@! TO.N,Net-(J1-Pad10)*
X113000000Y-85570000D03*
G04 #@! TO.N,Net-(J1-Pad9)*
X113000000Y-86840000D03*
G04 #@! TO.N,Net-(J1-Pad8)*
X113000000Y-88110000D03*
G04 #@! TO.N,Net-(J1-Pad7)*
X113000000Y-89380000D03*
G04 #@! TO.N,Net-(J1-Pad6)*
X113000000Y-90650000D03*
G04 #@! TO.N,Net-(J1-Pad5)*
X113000000Y-91920000D03*
G04 #@! TO.N,Net-(J1-Pad4)*
X113000000Y-93190000D03*
G04 #@! TO.N,+3V3*
X113000000Y-94460000D03*
G04 #@! TO.N,+1V8*
X113000000Y-95730000D03*
D16*
G04 #@! TO.N,GND*
X113000000Y-97000000D03*
G04 #@! TD*
D13*
G04 #@! TO.N,+24V*
G04 #@! TO.C,C9*
X161500000Y-69500000D03*
D12*
G04 #@! TO.N,GND*
X165000000Y-69500000D03*
G04 #@! TD*
G04 #@! TO.N,GND*
G04 #@! TO.C,C12*
X165000000Y-109250000D03*
D13*
G04 #@! TO.N,+24V*
X161500000Y-109250000D03*
G04 #@! TD*
D17*
G04 #@! TO.N,GND*
X125750000Y-92750000D03*
X126750000Y-92750000D03*
X125750000Y-91750000D03*
X126750000Y-91750000D03*
X127750000Y-91750000D03*
X127750000Y-92750000D03*
X127750000Y-90750000D03*
X126750000Y-90750000D03*
X125750000Y-90750000D03*
X125750000Y-89750000D03*
X126750000Y-89750000D03*
X127750000Y-89750000D03*
X125750000Y-79500000D03*
X127750000Y-82500000D03*
X127750000Y-81500000D03*
X126750000Y-82500000D03*
X125750000Y-81500000D03*
X125750000Y-80500000D03*
X126750000Y-81500000D03*
X127750000Y-80500000D03*
X127750000Y-79500000D03*
X125750000Y-82500000D03*
X126750000Y-80500000D03*
X126750000Y-79500000D03*
X131251654Y-81474990D03*
X147500000Y-69000000D03*
X148500000Y-69000000D03*
X149500000Y-69000000D03*
X149500000Y-70000000D03*
X148500000Y-70000000D03*
X147500000Y-70000000D03*
X147500000Y-71000000D03*
X148500000Y-70000000D03*
X148500000Y-70000000D03*
X148500000Y-71000000D03*
X149500000Y-71000000D03*
X149500000Y-72000000D03*
X148500000Y-72000000D03*
X147500000Y-72000000D03*
X147500000Y-73000000D03*
X148500000Y-73000000D03*
X149500000Y-73000000D03*
X148500000Y-74000000D03*
X147500000Y-74000000D03*
X149500000Y-74000000D03*
X147500000Y-110750000D03*
X148500000Y-113750000D03*
X149500000Y-113750000D03*
X149500000Y-108750000D03*
X147500000Y-112750000D03*
X149500000Y-111750000D03*
X147500000Y-113750000D03*
X148500000Y-111750000D03*
X148500000Y-108750000D03*
X147500000Y-108750000D03*
X148500000Y-109750000D03*
X147500000Y-111750000D03*
X149500000Y-110750000D03*
X148500000Y-110750000D03*
X147500000Y-109750000D03*
X148500000Y-112750000D03*
X148500000Y-109750000D03*
X149500000Y-112750000D03*
X148500000Y-109750000D03*
X149500000Y-109750000D03*
G04 #@! TO.N,+24V*
X141750000Y-117500000D03*
X141750000Y-117500000D03*
X141750000Y-117500000D03*
X142750000Y-117500000D03*
X143750000Y-117500000D03*
X144750000Y-117500000D03*
X145750000Y-117500000D03*
X146750000Y-117500000D03*
X147750000Y-117500000D03*
X148750000Y-117500000D03*
X149750000Y-118500000D03*
X149750000Y-119500000D03*
X149750000Y-120500000D03*
X149750000Y-121500000D03*
X149750000Y-122500000D03*
X149750000Y-123500000D03*
X149750000Y-124500000D03*
X149600000Y-125400000D03*
X148750000Y-125500000D03*
X147750000Y-125500000D03*
X146750000Y-125500000D03*
X145750000Y-125500000D03*
X144750000Y-125500000D03*
X143750000Y-125500000D03*
X142750000Y-125500000D03*
X141750000Y-125500000D03*
X149750000Y-117500000D03*
X149750000Y-97000000D03*
X149750000Y-99000000D03*
X147750000Y-93000000D03*
X141750000Y-93000000D03*
X149750000Y-95000000D03*
X149750000Y-94000000D03*
X141750000Y-93000000D03*
X149750000Y-101000000D03*
X146750000Y-93000000D03*
X142750000Y-93000000D03*
X146750000Y-101000000D03*
X147750000Y-101000000D03*
X149750000Y-100000000D03*
X148750000Y-93000000D03*
X144750000Y-101000000D03*
X149750000Y-96000000D03*
X141750000Y-93000000D03*
X143750000Y-101000000D03*
X142750000Y-101000000D03*
X149750000Y-98000000D03*
X145750000Y-101000000D03*
X148750000Y-101000000D03*
X145750000Y-93000000D03*
X144750000Y-93000000D03*
X141750000Y-101000000D03*
X143750000Y-93000000D03*
X149750000Y-93000000D03*
X148750000Y-86000000D03*
X144750000Y-78000000D03*
X141750000Y-86000000D03*
X141750000Y-78000000D03*
X147750000Y-86000000D03*
X149750000Y-82000000D03*
X149750000Y-79000000D03*
X149750000Y-80000000D03*
X143750000Y-86000000D03*
X148750000Y-78000000D03*
X144750000Y-86000000D03*
X145750000Y-86000000D03*
X149750000Y-78000000D03*
X149750000Y-86000000D03*
X141750000Y-78000000D03*
X146750000Y-86000000D03*
X149750000Y-85000000D03*
X141750000Y-78000000D03*
X149750000Y-81000000D03*
X149750000Y-83000000D03*
X149750000Y-84000000D03*
X143750000Y-78000000D03*
X147750000Y-78000000D03*
X146750000Y-78000000D03*
X142750000Y-86000000D03*
X142750000Y-78000000D03*
X145750000Y-78000000D03*
X149250000Y-53500000D03*
X149250000Y-55500000D03*
X147250000Y-61500000D03*
X143250000Y-61500000D03*
X146250000Y-61500000D03*
X148250000Y-53500000D03*
X144250000Y-61500000D03*
X149250000Y-58500000D03*
X142250000Y-53500000D03*
X149250000Y-54500000D03*
X144250000Y-53500000D03*
X149250000Y-61500000D03*
X149250000Y-60500000D03*
X145250000Y-61500000D03*
X149250000Y-59500000D03*
X147250000Y-53500000D03*
X141250000Y-53500000D03*
X141250000Y-53500000D03*
X149250000Y-57500000D03*
X145250000Y-53500000D03*
X148250000Y-61500000D03*
X142250000Y-61500000D03*
X141250000Y-53500000D03*
X141250000Y-61500000D03*
X149250000Y-56500000D03*
X146250000Y-53500000D03*
X143250000Y-53500000D03*
X121050000Y-83200000D03*
G04 #@! TO.N,Net-(J3-Pad4)*
X158250000Y-117500000D03*
X159250000Y-117500000D03*
X160250000Y-117500000D03*
X161250000Y-117500000D03*
X162250000Y-117500000D03*
X163250000Y-117500000D03*
X164250000Y-117500000D03*
X165250000Y-117500000D03*
X166250000Y-117500000D03*
X166250000Y-118500000D03*
X165250000Y-118500000D03*
X165250000Y-119500000D03*
X166250000Y-119500000D03*
X166250000Y-123500000D03*
X165250000Y-123500000D03*
X165250000Y-124500000D03*
X166250000Y-124500000D03*
X166250000Y-125500000D03*
X165250000Y-125500000D03*
X164250000Y-125500000D03*
X163250000Y-125500000D03*
X159500000Y-125500000D03*
X158500000Y-125500000D03*
G04 #@! TO.N,Net-(J3-Pad3)*
X158750000Y-92750000D03*
X159750000Y-92750000D03*
X166750000Y-92750000D03*
X165750000Y-92750000D03*
X165750000Y-93750000D03*
X166750000Y-93750000D03*
X165750000Y-94750000D03*
X165750000Y-95750000D03*
X164750000Y-92750000D03*
X163750000Y-92750000D03*
X166750000Y-101000000D03*
X165750000Y-101000000D03*
X164750000Y-101000000D03*
X163750000Y-101000000D03*
X162750000Y-101000000D03*
X161750000Y-101000000D03*
X160750000Y-101000000D03*
X159750000Y-101000000D03*
X158750000Y-101000000D03*
X165750000Y-100000000D03*
X166750000Y-100000000D03*
X166750000Y-99000000D03*
X165750000Y-99000000D03*
G04 #@! TO.N,/AOUT1*
X158750000Y-53500000D03*
X159750000Y-53500000D03*
X160750000Y-53500000D03*
X161750000Y-53500000D03*
X162750000Y-53500000D03*
X163750000Y-53500000D03*
X164750000Y-53500000D03*
X165750000Y-53500000D03*
X166750000Y-53500000D03*
X166750000Y-54500000D03*
X165750000Y-54500000D03*
X165750000Y-55500000D03*
X166750000Y-55500000D03*
X166750000Y-61750000D03*
X165750000Y-61750000D03*
X165750000Y-61750000D03*
X165750000Y-61750000D03*
X165750000Y-60750000D03*
X166750000Y-60750000D03*
X166750000Y-59750000D03*
X165750000Y-59750000D03*
X165750000Y-58750000D03*
X166750000Y-58750000D03*
X164750000Y-61750000D03*
X163750000Y-61750000D03*
X162750000Y-61750000D03*
X161750000Y-61750000D03*
X160750000Y-61750000D03*
X159750000Y-61750000D03*
X158750000Y-61750000D03*
G04 #@! TO.N,/AOUT2*
X158750000Y-78000000D03*
X159750000Y-78000000D03*
X160750000Y-78000000D03*
X161750000Y-78000000D03*
X162750000Y-78000000D03*
X163750000Y-78000000D03*
X164750000Y-78000000D03*
X165750000Y-78000000D03*
X166750000Y-78000000D03*
X166750000Y-79000000D03*
X165750000Y-79000000D03*
X165750000Y-80000000D03*
X166750000Y-80000000D03*
X166750000Y-81000000D03*
X165750000Y-81000000D03*
X165750000Y-82000000D03*
X166750000Y-82000000D03*
X166750000Y-83000000D03*
X165750000Y-83000000D03*
X165750000Y-84000000D03*
X166750000Y-84000000D03*
X166750000Y-85000000D03*
X165750000Y-85000000D03*
X165750000Y-86000000D03*
X166750000Y-86000000D03*
X164750000Y-86000000D03*
X163750000Y-86000000D03*
X160500000Y-86000000D03*
X159500000Y-86000000D03*
G04 #@! TD*
D18*
G04 #@! TO.N,+24V*
G36*
X178333130Y-51195752D02*
X178615545Y-51384455D01*
X178804248Y-51666870D01*
X178873000Y-52012509D01*
X178873000Y-126987491D01*
X178804248Y-127333130D01*
X178615545Y-127615545D01*
X178333130Y-127804248D01*
X177987491Y-127873000D01*
X136012509Y-127873000D01*
X135666870Y-127804248D01*
X135384455Y-127615545D01*
X135195752Y-127333130D01*
X135127000Y-126987491D01*
X135127000Y-125294126D01*
X157465000Y-125294126D01*
X157465000Y-125705874D01*
X157622569Y-126086280D01*
X157913720Y-126377431D01*
X158294126Y-126535000D01*
X158705874Y-126535000D01*
X159000000Y-126413169D01*
X159294126Y-126535000D01*
X159705874Y-126535000D01*
X160086280Y-126377431D01*
X160377431Y-126086280D01*
X160535000Y-125705874D01*
X160535000Y-125294126D01*
X162215000Y-125294126D01*
X162215000Y-125705874D01*
X162372569Y-126086280D01*
X162663720Y-126377431D01*
X163044126Y-126535000D01*
X163455874Y-126535000D01*
X163750000Y-126413169D01*
X164044126Y-126535000D01*
X164455874Y-126535000D01*
X164750000Y-126413169D01*
X165044126Y-126535000D01*
X165455874Y-126535000D01*
X165750000Y-126413169D01*
X166044126Y-126535000D01*
X166455874Y-126535000D01*
X166836280Y-126377431D01*
X167127431Y-126086280D01*
X167285000Y-125705874D01*
X167285000Y-125294126D01*
X167163169Y-125000000D01*
X167285000Y-124705874D01*
X167285000Y-124294126D01*
X167163169Y-124000000D01*
X167285000Y-123705874D01*
X167285000Y-123294126D01*
X167281531Y-123285750D01*
X170815000Y-123285750D01*
X170815000Y-123926310D01*
X170911673Y-124159699D01*
X171090302Y-124338327D01*
X171323691Y-124435000D01*
X171964250Y-124435000D01*
X172123000Y-124276250D01*
X172123000Y-123127000D01*
X172377000Y-123127000D01*
X172377000Y-124276250D01*
X172535750Y-124435000D01*
X173176309Y-124435000D01*
X173409698Y-124338327D01*
X173588327Y-124159699D01*
X173685000Y-123926310D01*
X173685000Y-123285750D01*
X173526250Y-123127000D01*
X172377000Y-123127000D01*
X172123000Y-123127000D01*
X170973750Y-123127000D01*
X170815000Y-123285750D01*
X167281531Y-123285750D01*
X167127431Y-122913720D01*
X166836280Y-122622569D01*
X166455874Y-122465000D01*
X166044126Y-122465000D01*
X165750000Y-122586831D01*
X165455874Y-122465000D01*
X165044126Y-122465000D01*
X164663720Y-122622569D01*
X164372569Y-122913720D01*
X164215000Y-123294126D01*
X164215000Y-123705874D01*
X164336831Y-124000000D01*
X164215000Y-124294126D01*
X164215000Y-124465000D01*
X164044126Y-124465000D01*
X163750000Y-124586831D01*
X163455874Y-124465000D01*
X163044126Y-124465000D01*
X162663720Y-124622569D01*
X162372569Y-124913720D01*
X162215000Y-125294126D01*
X160535000Y-125294126D01*
X160377431Y-124913720D01*
X160086280Y-124622569D01*
X159705874Y-124465000D01*
X159294126Y-124465000D01*
X159000000Y-124586831D01*
X158705874Y-124465000D01*
X158294126Y-124465000D01*
X157913720Y-124622569D01*
X157622569Y-124913720D01*
X157465000Y-125294126D01*
X135127000Y-125294126D01*
X135127000Y-122073690D01*
X170815000Y-122073690D01*
X170815000Y-122714250D01*
X170973750Y-122873000D01*
X172123000Y-122873000D01*
X172123000Y-121723750D01*
X172377000Y-121723750D01*
X172377000Y-122873000D01*
X173526250Y-122873000D01*
X173684689Y-122714561D01*
X174315000Y-122714561D01*
X174315000Y-123285439D01*
X174533466Y-123812862D01*
X174937138Y-124216534D01*
X175464561Y-124435000D01*
X176035439Y-124435000D01*
X176562862Y-124216534D01*
X176966534Y-123812862D01*
X177185000Y-123285439D01*
X177185000Y-122714561D01*
X176966534Y-122187138D01*
X176562862Y-121783466D01*
X176035439Y-121565000D01*
X175464561Y-121565000D01*
X174937138Y-121783466D01*
X174533466Y-122187138D01*
X174315000Y-122714561D01*
X173684689Y-122714561D01*
X173685000Y-122714250D01*
X173685000Y-122073690D01*
X173588327Y-121840301D01*
X173409698Y-121661673D01*
X173176309Y-121565000D01*
X172535750Y-121565000D01*
X172377000Y-121723750D01*
X172123000Y-121723750D01*
X171964250Y-121565000D01*
X171323691Y-121565000D01*
X171090302Y-121661673D01*
X170911673Y-121840301D01*
X170815000Y-122073690D01*
X135127000Y-122073690D01*
X135127000Y-117294126D01*
X157215000Y-117294126D01*
X157215000Y-117705874D01*
X157372569Y-118086280D01*
X157663720Y-118377431D01*
X158044126Y-118535000D01*
X158455874Y-118535000D01*
X158750000Y-118413169D01*
X159044126Y-118535000D01*
X159455874Y-118535000D01*
X159750000Y-118413169D01*
X160044126Y-118535000D01*
X160455874Y-118535000D01*
X160750000Y-118413169D01*
X161044126Y-118535000D01*
X161455874Y-118535000D01*
X161750000Y-118413169D01*
X162044126Y-118535000D01*
X162455874Y-118535000D01*
X162750000Y-118413169D01*
X163044126Y-118535000D01*
X163455874Y-118535000D01*
X163750000Y-118413169D01*
X164044126Y-118535000D01*
X164215000Y-118535000D01*
X164215000Y-118705874D01*
X164336831Y-119000000D01*
X164215000Y-119294126D01*
X164215000Y-119705874D01*
X164372569Y-120086280D01*
X164663720Y-120377431D01*
X165044126Y-120535000D01*
X165455874Y-120535000D01*
X165750000Y-120413169D01*
X166044126Y-120535000D01*
X166455874Y-120535000D01*
X166836280Y-120377431D01*
X167127431Y-120086280D01*
X167285000Y-119705874D01*
X167285000Y-119294126D01*
X167163169Y-119000000D01*
X167285000Y-118705874D01*
X167285000Y-118294126D01*
X167163169Y-118000000D01*
X167285000Y-117705874D01*
X167285000Y-117294126D01*
X167127431Y-116913720D01*
X166836280Y-116622569D01*
X166455874Y-116465000D01*
X166044126Y-116465000D01*
X165750000Y-116586831D01*
X165455874Y-116465000D01*
X165044126Y-116465000D01*
X164750000Y-116586831D01*
X164455874Y-116465000D01*
X164044126Y-116465000D01*
X163750000Y-116586831D01*
X163455874Y-116465000D01*
X163044126Y-116465000D01*
X162750000Y-116586831D01*
X162455874Y-116465000D01*
X162044126Y-116465000D01*
X161750000Y-116586831D01*
X161455874Y-116465000D01*
X161044126Y-116465000D01*
X160750000Y-116586831D01*
X160455874Y-116465000D01*
X160044126Y-116465000D01*
X159750000Y-116586831D01*
X159455874Y-116465000D01*
X159044126Y-116465000D01*
X158750000Y-116586831D01*
X158455874Y-116465000D01*
X158044126Y-116465000D01*
X157663720Y-116622569D01*
X157372569Y-116913720D01*
X157215000Y-117294126D01*
X135127000Y-117294126D01*
X135127000Y-108544126D01*
X146465000Y-108544126D01*
X146465000Y-108955874D01*
X146586831Y-109250000D01*
X146465000Y-109544126D01*
X146465000Y-109955874D01*
X146586831Y-110250000D01*
X146465000Y-110544126D01*
X146465000Y-110955874D01*
X146586831Y-111250000D01*
X146465000Y-111544126D01*
X146465000Y-111955874D01*
X146586831Y-112250000D01*
X146465000Y-112544126D01*
X146465000Y-112955874D01*
X146586831Y-113250000D01*
X146465000Y-113544126D01*
X146465000Y-113955874D01*
X146622569Y-114336280D01*
X146913720Y-114627431D01*
X147294126Y-114785000D01*
X147705874Y-114785000D01*
X148000000Y-114663169D01*
X148294126Y-114785000D01*
X148705874Y-114785000D01*
X149000000Y-114663169D01*
X149294126Y-114785000D01*
X149705874Y-114785000D01*
X150086280Y-114627431D01*
X150118498Y-114595213D01*
X174465000Y-114595213D01*
X174465000Y-115404787D01*
X174774810Y-116152735D01*
X175347265Y-116725190D01*
X176095213Y-117035000D01*
X176904787Y-117035000D01*
X177652735Y-116725190D01*
X178225190Y-116152735D01*
X178535000Y-115404787D01*
X178535000Y-114595213D01*
X178225190Y-113847265D01*
X177652735Y-113274810D01*
X176904787Y-112965000D01*
X176095213Y-112965000D01*
X175347265Y-113274810D01*
X174774810Y-113847265D01*
X174465000Y-114595213D01*
X150118498Y-114595213D01*
X150377431Y-114336280D01*
X150535000Y-113955874D01*
X150535000Y-113544126D01*
X150413169Y-113250000D01*
X150535000Y-112955874D01*
X150535000Y-112544126D01*
X150413169Y-112250000D01*
X150535000Y-111955874D01*
X150535000Y-111544126D01*
X150413169Y-111250000D01*
X150535000Y-110955874D01*
X150535000Y-110544126D01*
X150413169Y-110250000D01*
X150535000Y-109955874D01*
X150535000Y-109544126D01*
X150531531Y-109535750D01*
X160065000Y-109535750D01*
X160065000Y-110176310D01*
X160161673Y-110409699D01*
X160340302Y-110588327D01*
X160573691Y-110685000D01*
X161214250Y-110685000D01*
X161373000Y-110526250D01*
X161373000Y-109377000D01*
X161627000Y-109377000D01*
X161627000Y-110526250D01*
X161785750Y-110685000D01*
X162426309Y-110685000D01*
X162659698Y-110588327D01*
X162838327Y-110409699D01*
X162935000Y-110176310D01*
X162935000Y-109535750D01*
X162776250Y-109377000D01*
X161627000Y-109377000D01*
X161373000Y-109377000D01*
X160223750Y-109377000D01*
X160065000Y-109535750D01*
X150531531Y-109535750D01*
X150413169Y-109250000D01*
X150535000Y-108955874D01*
X150535000Y-108544126D01*
X150443693Y-108323690D01*
X160065000Y-108323690D01*
X160065000Y-108964250D01*
X160223750Y-109123000D01*
X161373000Y-109123000D01*
X161373000Y-107973750D01*
X161627000Y-107973750D01*
X161627000Y-109123000D01*
X162776250Y-109123000D01*
X162934689Y-108964561D01*
X163565000Y-108964561D01*
X163565000Y-109535439D01*
X163783466Y-110062862D01*
X164187138Y-110466534D01*
X164714561Y-110685000D01*
X165285439Y-110685000D01*
X165812862Y-110466534D01*
X166216534Y-110062862D01*
X166435000Y-109535439D01*
X166435000Y-108964561D01*
X166216534Y-108437138D01*
X165812862Y-108033466D01*
X165285439Y-107815000D01*
X164714561Y-107815000D01*
X164187138Y-108033466D01*
X163783466Y-108437138D01*
X163565000Y-108964561D01*
X162934689Y-108964561D01*
X162935000Y-108964250D01*
X162935000Y-108323690D01*
X162838327Y-108090301D01*
X162659698Y-107911673D01*
X162426309Y-107815000D01*
X161785750Y-107815000D01*
X161627000Y-107973750D01*
X161373000Y-107973750D01*
X161214250Y-107815000D01*
X160573691Y-107815000D01*
X160340302Y-107911673D01*
X160161673Y-108090301D01*
X160065000Y-108323690D01*
X150443693Y-108323690D01*
X150377431Y-108163720D01*
X150086280Y-107872569D01*
X149705874Y-107715000D01*
X149294126Y-107715000D01*
X149000000Y-107836831D01*
X148705874Y-107715000D01*
X148294126Y-107715000D01*
X148000000Y-107836831D01*
X147705874Y-107715000D01*
X147294126Y-107715000D01*
X146913720Y-107872569D01*
X146622569Y-108163720D01*
X146465000Y-108544126D01*
X135127000Y-108544126D01*
X135127000Y-100794126D01*
X157715000Y-100794126D01*
X157715000Y-101205874D01*
X157872569Y-101586280D01*
X158163720Y-101877431D01*
X158544126Y-102035000D01*
X158955874Y-102035000D01*
X159250000Y-101913169D01*
X159544126Y-102035000D01*
X159955874Y-102035000D01*
X160250000Y-101913169D01*
X160544126Y-102035000D01*
X160955874Y-102035000D01*
X161250000Y-101913169D01*
X161544126Y-102035000D01*
X161955874Y-102035000D01*
X162250000Y-101913169D01*
X162544126Y-102035000D01*
X162955874Y-102035000D01*
X163250000Y-101913169D01*
X163544126Y-102035000D01*
X163955874Y-102035000D01*
X164250000Y-101913169D01*
X164544126Y-102035000D01*
X164955874Y-102035000D01*
X165250000Y-101913169D01*
X165544126Y-102035000D01*
X165955874Y-102035000D01*
X166250000Y-101913169D01*
X166544126Y-102035000D01*
X166955874Y-102035000D01*
X167336280Y-101877431D01*
X167627431Y-101586280D01*
X167785000Y-101205874D01*
X167785000Y-100794126D01*
X167663169Y-100500000D01*
X167785000Y-100205874D01*
X167785000Y-99794126D01*
X167663169Y-99500000D01*
X167785000Y-99205874D01*
X167785000Y-98794126D01*
X167627431Y-98413720D01*
X167336280Y-98122569D01*
X167077363Y-98015322D01*
X171065000Y-98015322D01*
X171065000Y-98864678D01*
X171390034Y-99649380D01*
X171990620Y-100249966D01*
X172775322Y-100575000D01*
X173624678Y-100575000D01*
X174409380Y-100249966D01*
X175009966Y-99649380D01*
X175335000Y-98864678D01*
X175335000Y-98015322D01*
X175009966Y-97230620D01*
X174409380Y-96630034D01*
X173624678Y-96305000D01*
X172775322Y-96305000D01*
X171990620Y-96630034D01*
X171390034Y-97230620D01*
X171065000Y-98015322D01*
X167077363Y-98015322D01*
X166955874Y-97965000D01*
X166544126Y-97965000D01*
X166250000Y-98086831D01*
X165955874Y-97965000D01*
X165544126Y-97965000D01*
X165163720Y-98122569D01*
X164872569Y-98413720D01*
X164715000Y-98794126D01*
X164715000Y-99205874D01*
X164836831Y-99500000D01*
X164715000Y-99794126D01*
X164715000Y-99965000D01*
X164544126Y-99965000D01*
X164250000Y-100086831D01*
X163955874Y-99965000D01*
X163544126Y-99965000D01*
X163250000Y-100086831D01*
X162955874Y-99965000D01*
X162544126Y-99965000D01*
X162250000Y-100086831D01*
X161955874Y-99965000D01*
X161544126Y-99965000D01*
X161250000Y-100086831D01*
X160955874Y-99965000D01*
X160544126Y-99965000D01*
X160250000Y-100086831D01*
X159955874Y-99965000D01*
X159544126Y-99965000D01*
X159250000Y-100086831D01*
X158955874Y-99965000D01*
X158544126Y-99965000D01*
X158163720Y-100122569D01*
X157872569Y-100413720D01*
X157715000Y-100794126D01*
X135127000Y-100794126D01*
X135127000Y-93000000D01*
X135124560Y-92975224D01*
X135048440Y-92592541D01*
X135029477Y-92546760D01*
X135027718Y-92544126D01*
X157715000Y-92544126D01*
X157715000Y-92955874D01*
X157872569Y-93336280D01*
X158163720Y-93627431D01*
X158544126Y-93785000D01*
X158955874Y-93785000D01*
X159250000Y-93663169D01*
X159544126Y-93785000D01*
X159955874Y-93785000D01*
X160336280Y-93627431D01*
X160627431Y-93336280D01*
X160785000Y-92955874D01*
X160785000Y-92544126D01*
X162715000Y-92544126D01*
X162715000Y-92955874D01*
X162872569Y-93336280D01*
X163163720Y-93627431D01*
X163544126Y-93785000D01*
X163955874Y-93785000D01*
X164250000Y-93663169D01*
X164544126Y-93785000D01*
X164715000Y-93785000D01*
X164715000Y-93955874D01*
X164836831Y-94250000D01*
X164715000Y-94544126D01*
X164715000Y-94955874D01*
X164836831Y-95250000D01*
X164715000Y-95544126D01*
X164715000Y-95955874D01*
X164872569Y-96336280D01*
X165163720Y-96627431D01*
X165544126Y-96785000D01*
X165955874Y-96785000D01*
X166336280Y-96627431D01*
X166627431Y-96336280D01*
X166785000Y-95955874D01*
X166785000Y-95544126D01*
X166663169Y-95250000D01*
X166785000Y-94955874D01*
X166785000Y-94785000D01*
X166955874Y-94785000D01*
X167336280Y-94627431D01*
X167627431Y-94336280D01*
X167785000Y-93955874D01*
X167785000Y-93544126D01*
X167663169Y-93250000D01*
X167785000Y-92955874D01*
X167785000Y-92935322D01*
X171065000Y-92935322D01*
X171065000Y-93784678D01*
X171390034Y-94569380D01*
X171990620Y-95169966D01*
X172775322Y-95495000D01*
X173624678Y-95495000D01*
X174409380Y-95169966D01*
X175009966Y-94569380D01*
X175335000Y-93784678D01*
X175335000Y-92935322D01*
X175009966Y-92150620D01*
X174409380Y-91550034D01*
X173624678Y-91225000D01*
X172775322Y-91225000D01*
X171990620Y-91550034D01*
X171390034Y-92150620D01*
X171065000Y-92935322D01*
X167785000Y-92935322D01*
X167785000Y-92544126D01*
X167627431Y-92163720D01*
X167336280Y-91872569D01*
X166955874Y-91715000D01*
X166544126Y-91715000D01*
X166250000Y-91836831D01*
X165955874Y-91715000D01*
X165544126Y-91715000D01*
X165250000Y-91836831D01*
X164955874Y-91715000D01*
X164544126Y-91715000D01*
X164250000Y-91836831D01*
X163955874Y-91715000D01*
X163544126Y-91715000D01*
X163163720Y-91872569D01*
X162872569Y-92163720D01*
X162715000Y-92544126D01*
X160785000Y-92544126D01*
X160627431Y-92163720D01*
X160336280Y-91872569D01*
X159955874Y-91715000D01*
X159544126Y-91715000D01*
X159250000Y-91836831D01*
X158955874Y-91715000D01*
X158544126Y-91715000D01*
X158163720Y-91872569D01*
X157872569Y-92163720D01*
X157715000Y-92544126D01*
X135027718Y-92544126D01*
X134812704Y-92222336D01*
X134777664Y-92187296D01*
X134453240Y-91970523D01*
X134407459Y-91951560D01*
X134024776Y-91875440D01*
X134000000Y-91873000D01*
X128785000Y-91873000D01*
X128785000Y-91544126D01*
X128663169Y-91250000D01*
X128785000Y-90955874D01*
X128785000Y-90544126D01*
X128663169Y-90250000D01*
X128785000Y-89955874D01*
X128785000Y-89544126D01*
X128627431Y-89163720D01*
X128336280Y-88872569D01*
X127955874Y-88715000D01*
X127544126Y-88715000D01*
X127250000Y-88836831D01*
X126955874Y-88715000D01*
X126544126Y-88715000D01*
X126250000Y-88836831D01*
X125955874Y-88715000D01*
X125544126Y-88715000D01*
X125163720Y-88872569D01*
X124872569Y-89163720D01*
X124715000Y-89544126D01*
X124715000Y-89955874D01*
X124836831Y-90250000D01*
X124715000Y-90544126D01*
X124715000Y-90955874D01*
X124836831Y-91250000D01*
X124715000Y-91544126D01*
X124715000Y-91873000D01*
X115012509Y-91873000D01*
X114666870Y-91804248D01*
X114384455Y-91615545D01*
X114195752Y-91333130D01*
X114127000Y-90987491D01*
X114127000Y-90802002D01*
X114157235Y-90650000D01*
X114127000Y-90497998D01*
X114127000Y-89532002D01*
X114157235Y-89380000D01*
X114127000Y-89227998D01*
X114127000Y-88262002D01*
X114157235Y-88110000D01*
X114127000Y-87957998D01*
X114127000Y-87855322D01*
X171065000Y-87855322D01*
X171065000Y-88704678D01*
X171390034Y-89489380D01*
X171990620Y-90089966D01*
X172775322Y-90415000D01*
X173624678Y-90415000D01*
X174409380Y-90089966D01*
X175009966Y-89489380D01*
X175335000Y-88704678D01*
X175335000Y-87855322D01*
X175009966Y-87070620D01*
X174409380Y-86470034D01*
X173624678Y-86145000D01*
X172775322Y-86145000D01*
X171990620Y-86470034D01*
X171390034Y-87070620D01*
X171065000Y-87855322D01*
X114127000Y-87855322D01*
X114127000Y-86992002D01*
X114157235Y-86840000D01*
X114127000Y-86687998D01*
X114127000Y-85794126D01*
X158465000Y-85794126D01*
X158465000Y-86205874D01*
X158622569Y-86586280D01*
X158913720Y-86877431D01*
X159294126Y-87035000D01*
X159705874Y-87035000D01*
X160000000Y-86913169D01*
X160294126Y-87035000D01*
X160705874Y-87035000D01*
X161086280Y-86877431D01*
X161377431Y-86586280D01*
X161535000Y-86205874D01*
X161535000Y-85794126D01*
X161377431Y-85413720D01*
X161086280Y-85122569D01*
X160705874Y-84965000D01*
X160294126Y-84965000D01*
X160000000Y-85086831D01*
X159705874Y-84965000D01*
X159294126Y-84965000D01*
X158913720Y-85122569D01*
X158622569Y-85413720D01*
X158465000Y-85794126D01*
X114127000Y-85794126D01*
X114127000Y-85722002D01*
X114157235Y-85570000D01*
X114127000Y-85417998D01*
X114127000Y-84452002D01*
X114157235Y-84300000D01*
X114127000Y-84147998D01*
X114127000Y-83182002D01*
X114157235Y-83030000D01*
X114127000Y-82877998D01*
X114127000Y-82012509D01*
X114195752Y-81666870D01*
X114384455Y-81384455D01*
X114666870Y-81195752D01*
X115012509Y-81127000D01*
X124784226Y-81127000D01*
X124715000Y-81294126D01*
X124715000Y-81705874D01*
X124836831Y-82000000D01*
X124715000Y-82294126D01*
X124715000Y-82705874D01*
X124872569Y-83086280D01*
X125163720Y-83377431D01*
X125544126Y-83535000D01*
X125955874Y-83535000D01*
X126250000Y-83413169D01*
X126544126Y-83535000D01*
X126955874Y-83535000D01*
X127250000Y-83413169D01*
X127544126Y-83535000D01*
X127955874Y-83535000D01*
X128336280Y-83377431D01*
X128627431Y-83086280D01*
X128785000Y-82705874D01*
X128785000Y-82294126D01*
X128663169Y-82000000D01*
X128785000Y-81705874D01*
X128785000Y-81294126D01*
X128715774Y-81127000D01*
X130275520Y-81127000D01*
X130216654Y-81269116D01*
X130216654Y-81680864D01*
X130374223Y-82061270D01*
X130665374Y-82352421D01*
X131045780Y-82509990D01*
X131457528Y-82509990D01*
X131837934Y-82352421D01*
X132129085Y-82061270D01*
X132286654Y-81680864D01*
X132286654Y-81269116D01*
X132227788Y-81127000D01*
X134000000Y-81127000D01*
X134024776Y-81124560D01*
X134407459Y-81048440D01*
X134453240Y-81029477D01*
X134777664Y-80812704D01*
X134812704Y-80777664D01*
X135029477Y-80453240D01*
X135048440Y-80407459D01*
X135124560Y-80024776D01*
X135127000Y-80000000D01*
X135127000Y-77794126D01*
X157715000Y-77794126D01*
X157715000Y-78205874D01*
X157872569Y-78586280D01*
X158163720Y-78877431D01*
X158544126Y-79035000D01*
X158955874Y-79035000D01*
X159250000Y-78913169D01*
X159544126Y-79035000D01*
X159955874Y-79035000D01*
X160250000Y-78913169D01*
X160544126Y-79035000D01*
X160955874Y-79035000D01*
X161250000Y-78913169D01*
X161544126Y-79035000D01*
X161955874Y-79035000D01*
X162250000Y-78913169D01*
X162544126Y-79035000D01*
X162955874Y-79035000D01*
X163250000Y-78913169D01*
X163544126Y-79035000D01*
X163955874Y-79035000D01*
X164250000Y-78913169D01*
X164544126Y-79035000D01*
X164715000Y-79035000D01*
X164715000Y-79205874D01*
X164836831Y-79500000D01*
X164715000Y-79794126D01*
X164715000Y-80205874D01*
X164836831Y-80500000D01*
X164715000Y-80794126D01*
X164715000Y-81205874D01*
X164836831Y-81500000D01*
X164715000Y-81794126D01*
X164715000Y-82205874D01*
X164836831Y-82500000D01*
X164715000Y-82794126D01*
X164715000Y-83205874D01*
X164836831Y-83500000D01*
X164715000Y-83794126D01*
X164715000Y-84205874D01*
X164836831Y-84500000D01*
X164715000Y-84794126D01*
X164715000Y-84965000D01*
X164544126Y-84965000D01*
X164250000Y-85086831D01*
X163955874Y-84965000D01*
X163544126Y-84965000D01*
X163163720Y-85122569D01*
X162872569Y-85413720D01*
X162715000Y-85794126D01*
X162715000Y-86205874D01*
X162872569Y-86586280D01*
X163163720Y-86877431D01*
X163544126Y-87035000D01*
X163955874Y-87035000D01*
X164250000Y-86913169D01*
X164544126Y-87035000D01*
X164955874Y-87035000D01*
X165250000Y-86913169D01*
X165544126Y-87035000D01*
X165955874Y-87035000D01*
X166250000Y-86913169D01*
X166544126Y-87035000D01*
X166955874Y-87035000D01*
X167336280Y-86877431D01*
X167627431Y-86586280D01*
X167785000Y-86205874D01*
X167785000Y-85794126D01*
X167663169Y-85500000D01*
X167785000Y-85205874D01*
X167785000Y-84794126D01*
X167663169Y-84500000D01*
X167785000Y-84205874D01*
X167785000Y-83794126D01*
X167663169Y-83500000D01*
X167785000Y-83205874D01*
X167785000Y-82794126D01*
X167663169Y-82500000D01*
X167785000Y-82205874D01*
X167785000Y-81794126D01*
X167746012Y-81700000D01*
X171052560Y-81700000D01*
X171052560Y-84700000D01*
X171101843Y-84947765D01*
X171242191Y-85157809D01*
X171452235Y-85298157D01*
X171700000Y-85347440D01*
X174700000Y-85347440D01*
X174947765Y-85298157D01*
X175157809Y-85157809D01*
X175298157Y-84947765D01*
X175347440Y-84700000D01*
X175347440Y-81700000D01*
X175298157Y-81452235D01*
X175157809Y-81242191D01*
X174947765Y-81101843D01*
X174700000Y-81052560D01*
X171700000Y-81052560D01*
X171452235Y-81101843D01*
X171242191Y-81242191D01*
X171101843Y-81452235D01*
X171052560Y-81700000D01*
X167746012Y-81700000D01*
X167663169Y-81500000D01*
X167785000Y-81205874D01*
X167785000Y-80794126D01*
X167663169Y-80500000D01*
X167785000Y-80205874D01*
X167785000Y-79794126D01*
X167663169Y-79500000D01*
X167785000Y-79205874D01*
X167785000Y-78794126D01*
X167663169Y-78500000D01*
X167785000Y-78205874D01*
X167785000Y-77794126D01*
X167627431Y-77413720D01*
X167336280Y-77122569D01*
X166955874Y-76965000D01*
X166544126Y-76965000D01*
X166250000Y-77086831D01*
X165955874Y-76965000D01*
X165544126Y-76965000D01*
X165250000Y-77086831D01*
X164955874Y-76965000D01*
X164544126Y-76965000D01*
X164250000Y-77086831D01*
X163955874Y-76965000D01*
X163544126Y-76965000D01*
X163250000Y-77086831D01*
X162955874Y-76965000D01*
X162544126Y-76965000D01*
X162250000Y-77086831D01*
X161955874Y-76965000D01*
X161544126Y-76965000D01*
X161250000Y-77086831D01*
X160955874Y-76965000D01*
X160544126Y-76965000D01*
X160250000Y-77086831D01*
X159955874Y-76965000D01*
X159544126Y-76965000D01*
X159250000Y-77086831D01*
X158955874Y-76965000D01*
X158544126Y-76965000D01*
X158163720Y-77122569D01*
X157872569Y-77413720D01*
X157715000Y-77794126D01*
X135127000Y-77794126D01*
X135127000Y-68794126D01*
X146465000Y-68794126D01*
X146465000Y-69205874D01*
X146586831Y-69500000D01*
X146465000Y-69794126D01*
X146465000Y-70205874D01*
X146586831Y-70500000D01*
X146465000Y-70794126D01*
X146465000Y-71205874D01*
X146586831Y-71500000D01*
X146465000Y-71794126D01*
X146465000Y-72205874D01*
X146586831Y-72500000D01*
X146465000Y-72794126D01*
X146465000Y-73205874D01*
X146586831Y-73500000D01*
X146465000Y-73794126D01*
X146465000Y-74205874D01*
X146622569Y-74586280D01*
X146913720Y-74877431D01*
X147294126Y-75035000D01*
X147705874Y-75035000D01*
X148000000Y-74913169D01*
X148294126Y-75035000D01*
X148705874Y-75035000D01*
X149000000Y-74913169D01*
X149294126Y-75035000D01*
X149705874Y-75035000D01*
X150086280Y-74877431D01*
X150377431Y-74586280D01*
X150535000Y-74205874D01*
X150535000Y-73794126D01*
X150452093Y-73593970D01*
X172665635Y-73593970D01*
X172825418Y-73912739D01*
X173616187Y-74222723D01*
X174465387Y-74206497D01*
X175174582Y-73912739D01*
X175334365Y-73593970D01*
X174000000Y-72259605D01*
X172665635Y-73593970D01*
X150452093Y-73593970D01*
X150413169Y-73500000D01*
X150535000Y-73205874D01*
X150535000Y-72794126D01*
X150413169Y-72500000D01*
X150535000Y-72205874D01*
X150535000Y-71794126D01*
X150494433Y-71696187D01*
X171857277Y-71696187D01*
X171873503Y-72545387D01*
X172167261Y-73254582D01*
X172486030Y-73414365D01*
X173820395Y-72080000D01*
X174179605Y-72080000D01*
X175513970Y-73414365D01*
X175832739Y-73254582D01*
X176142723Y-72463813D01*
X176126497Y-71614613D01*
X175832739Y-70905418D01*
X175513970Y-70745635D01*
X174179605Y-72080000D01*
X173820395Y-72080000D01*
X172486030Y-70745635D01*
X172167261Y-70905418D01*
X171857277Y-71696187D01*
X150494433Y-71696187D01*
X150413169Y-71500000D01*
X150535000Y-71205874D01*
X150535000Y-70794126D01*
X150413169Y-70500000D01*
X150535000Y-70205874D01*
X150535000Y-69794126D01*
X150531531Y-69785750D01*
X160065000Y-69785750D01*
X160065000Y-70426310D01*
X160161673Y-70659699D01*
X160340302Y-70838327D01*
X160573691Y-70935000D01*
X161214250Y-70935000D01*
X161373000Y-70776250D01*
X161373000Y-69627000D01*
X161627000Y-69627000D01*
X161627000Y-70776250D01*
X161785750Y-70935000D01*
X162426309Y-70935000D01*
X162659698Y-70838327D01*
X162838327Y-70659699D01*
X162935000Y-70426310D01*
X162935000Y-69785750D01*
X162776250Y-69627000D01*
X161627000Y-69627000D01*
X161373000Y-69627000D01*
X160223750Y-69627000D01*
X160065000Y-69785750D01*
X150531531Y-69785750D01*
X150413169Y-69500000D01*
X150535000Y-69205874D01*
X150535000Y-68794126D01*
X150443693Y-68573690D01*
X160065000Y-68573690D01*
X160065000Y-69214250D01*
X160223750Y-69373000D01*
X161373000Y-69373000D01*
X161373000Y-68223750D01*
X161627000Y-68223750D01*
X161627000Y-69373000D01*
X162776250Y-69373000D01*
X162934689Y-69214561D01*
X163565000Y-69214561D01*
X163565000Y-69785439D01*
X163783466Y-70312862D01*
X164187138Y-70716534D01*
X164714561Y-70935000D01*
X165285439Y-70935000D01*
X165812862Y-70716534D01*
X165963366Y-70566030D01*
X172665635Y-70566030D01*
X174000000Y-71900395D01*
X175334365Y-70566030D01*
X175174582Y-70247261D01*
X174383813Y-69937277D01*
X173534613Y-69953503D01*
X172825418Y-70247261D01*
X172665635Y-70566030D01*
X165963366Y-70566030D01*
X166216534Y-70312862D01*
X166435000Y-69785439D01*
X166435000Y-69214561D01*
X166216534Y-68687138D01*
X165812862Y-68283466D01*
X165285439Y-68065000D01*
X164714561Y-68065000D01*
X164187138Y-68283466D01*
X163783466Y-68687138D01*
X163565000Y-69214561D01*
X162934689Y-69214561D01*
X162935000Y-69214250D01*
X162935000Y-68573690D01*
X162838327Y-68340301D01*
X162659698Y-68161673D01*
X162426309Y-68065000D01*
X161785750Y-68065000D01*
X161627000Y-68223750D01*
X161373000Y-68223750D01*
X161214250Y-68065000D01*
X160573691Y-68065000D01*
X160340302Y-68161673D01*
X160161673Y-68340301D01*
X160065000Y-68573690D01*
X150443693Y-68573690D01*
X150377431Y-68413720D01*
X150086280Y-68122569D01*
X149705874Y-67965000D01*
X149294126Y-67965000D01*
X149000000Y-68086831D01*
X148705874Y-67965000D01*
X148294126Y-67965000D01*
X148000000Y-68086831D01*
X147705874Y-67965000D01*
X147294126Y-67965000D01*
X146913720Y-68122569D01*
X146622569Y-68413720D01*
X146465000Y-68794126D01*
X135127000Y-68794126D01*
X135127000Y-65500000D01*
X171852560Y-65500000D01*
X171852560Y-68500000D01*
X171901843Y-68747765D01*
X172042191Y-68957809D01*
X172252235Y-69098157D01*
X172500000Y-69147440D01*
X175500000Y-69147440D01*
X175747765Y-69098157D01*
X175957809Y-68957809D01*
X176098157Y-68747765D01*
X176147440Y-68500000D01*
X176147440Y-65500000D01*
X176098157Y-65252235D01*
X175957809Y-65042191D01*
X175747765Y-64901843D01*
X175500000Y-64852560D01*
X172500000Y-64852560D01*
X172252235Y-64901843D01*
X172042191Y-65042191D01*
X171901843Y-65252235D01*
X171852560Y-65500000D01*
X135127000Y-65500000D01*
X135127000Y-61544126D01*
X157715000Y-61544126D01*
X157715000Y-61955874D01*
X157872569Y-62336280D01*
X158163720Y-62627431D01*
X158544126Y-62785000D01*
X158955874Y-62785000D01*
X159250000Y-62663169D01*
X159544126Y-62785000D01*
X159955874Y-62785000D01*
X160250000Y-62663169D01*
X160544126Y-62785000D01*
X160955874Y-62785000D01*
X161250000Y-62663169D01*
X161544126Y-62785000D01*
X161955874Y-62785000D01*
X162250000Y-62663169D01*
X162544126Y-62785000D01*
X162955874Y-62785000D01*
X163250000Y-62663169D01*
X163544126Y-62785000D01*
X163955874Y-62785000D01*
X164250000Y-62663169D01*
X164544126Y-62785000D01*
X164955874Y-62785000D01*
X165250000Y-62663169D01*
X165544126Y-62785000D01*
X165955874Y-62785000D01*
X166250000Y-62663169D01*
X166544126Y-62785000D01*
X166955874Y-62785000D01*
X167336280Y-62627431D01*
X167627431Y-62336280D01*
X167785000Y-61955874D01*
X167785000Y-61544126D01*
X167663169Y-61250000D01*
X167785000Y-60955874D01*
X167785000Y-60544126D01*
X167702608Y-60345213D01*
X173965000Y-60345213D01*
X173965000Y-61154787D01*
X174274810Y-61902735D01*
X174847265Y-62475190D01*
X175595213Y-62785000D01*
X176404787Y-62785000D01*
X177152735Y-62475190D01*
X177725190Y-61902735D01*
X178035000Y-61154787D01*
X178035000Y-60345213D01*
X177725190Y-59597265D01*
X177152735Y-59024810D01*
X176404787Y-58715000D01*
X175595213Y-58715000D01*
X174847265Y-59024810D01*
X174274810Y-59597265D01*
X173965000Y-60345213D01*
X167702608Y-60345213D01*
X167663169Y-60250000D01*
X167785000Y-59955874D01*
X167785000Y-59544126D01*
X167663169Y-59250000D01*
X167785000Y-58955874D01*
X167785000Y-58544126D01*
X167627431Y-58163720D01*
X167336280Y-57872569D01*
X166955874Y-57715000D01*
X166544126Y-57715000D01*
X166250000Y-57836831D01*
X165955874Y-57715000D01*
X165544126Y-57715000D01*
X165163720Y-57872569D01*
X164872569Y-58163720D01*
X164715000Y-58544126D01*
X164715000Y-58955874D01*
X164836831Y-59250000D01*
X164715000Y-59544126D01*
X164715000Y-59955874D01*
X164836831Y-60250000D01*
X164715000Y-60544126D01*
X164715000Y-60715000D01*
X164544126Y-60715000D01*
X164250000Y-60836831D01*
X163955874Y-60715000D01*
X163544126Y-60715000D01*
X163250000Y-60836831D01*
X162955874Y-60715000D01*
X162544126Y-60715000D01*
X162250000Y-60836831D01*
X161955874Y-60715000D01*
X161544126Y-60715000D01*
X161250000Y-60836831D01*
X160955874Y-60715000D01*
X160544126Y-60715000D01*
X160250000Y-60836831D01*
X159955874Y-60715000D01*
X159544126Y-60715000D01*
X159250000Y-60836831D01*
X158955874Y-60715000D01*
X158544126Y-60715000D01*
X158163720Y-60872569D01*
X157872569Y-61163720D01*
X157715000Y-61544126D01*
X135127000Y-61544126D01*
X135127000Y-53294126D01*
X157715000Y-53294126D01*
X157715000Y-53705874D01*
X157872569Y-54086280D01*
X158163720Y-54377431D01*
X158544126Y-54535000D01*
X158955874Y-54535000D01*
X159250000Y-54413169D01*
X159544126Y-54535000D01*
X159955874Y-54535000D01*
X160250000Y-54413169D01*
X160544126Y-54535000D01*
X160955874Y-54535000D01*
X161250000Y-54413169D01*
X161544126Y-54535000D01*
X161955874Y-54535000D01*
X162250000Y-54413169D01*
X162544126Y-54535000D01*
X162955874Y-54535000D01*
X163250000Y-54413169D01*
X163544126Y-54535000D01*
X163955874Y-54535000D01*
X164250000Y-54413169D01*
X164544126Y-54535000D01*
X164715000Y-54535000D01*
X164715000Y-54705874D01*
X164836831Y-55000000D01*
X164715000Y-55294126D01*
X164715000Y-55705874D01*
X164872569Y-56086280D01*
X165163720Y-56377431D01*
X165544126Y-56535000D01*
X165955874Y-56535000D01*
X166250000Y-56413169D01*
X166544126Y-56535000D01*
X166955874Y-56535000D01*
X167336280Y-56377431D01*
X167627431Y-56086280D01*
X167785000Y-55705874D01*
X167785000Y-55294126D01*
X167663169Y-55000000D01*
X167785000Y-54705874D01*
X167785000Y-54294126D01*
X167663169Y-54000000D01*
X167785000Y-53705874D01*
X167785000Y-53294126D01*
X167627431Y-52913720D01*
X167336280Y-52622569D01*
X166955874Y-52465000D01*
X166544126Y-52465000D01*
X166250000Y-52586831D01*
X165955874Y-52465000D01*
X165544126Y-52465000D01*
X165250000Y-52586831D01*
X164955874Y-52465000D01*
X164544126Y-52465000D01*
X164250000Y-52586831D01*
X163955874Y-52465000D01*
X163544126Y-52465000D01*
X163250000Y-52586831D01*
X162955874Y-52465000D01*
X162544126Y-52465000D01*
X162250000Y-52586831D01*
X161955874Y-52465000D01*
X161544126Y-52465000D01*
X161250000Y-52586831D01*
X160955874Y-52465000D01*
X160544126Y-52465000D01*
X160250000Y-52586831D01*
X159955874Y-52465000D01*
X159544126Y-52465000D01*
X159250000Y-52586831D01*
X158955874Y-52465000D01*
X158544126Y-52465000D01*
X158163720Y-52622569D01*
X157872569Y-52913720D01*
X157715000Y-53294126D01*
X135127000Y-53294126D01*
X135127000Y-52012509D01*
X135195752Y-51666870D01*
X135384455Y-51384455D01*
X135666870Y-51195752D01*
X136012509Y-51127000D01*
X177987491Y-51127000D01*
X178333130Y-51195752D01*
X178333130Y-51195752D01*
G37*
X178333130Y-51195752D02*
X178615545Y-51384455D01*
X178804248Y-51666870D01*
X178873000Y-52012509D01*
X178873000Y-126987491D01*
X178804248Y-127333130D01*
X178615545Y-127615545D01*
X178333130Y-127804248D01*
X177987491Y-127873000D01*
X136012509Y-127873000D01*
X135666870Y-127804248D01*
X135384455Y-127615545D01*
X135195752Y-127333130D01*
X135127000Y-126987491D01*
X135127000Y-125294126D01*
X157465000Y-125294126D01*
X157465000Y-125705874D01*
X157622569Y-126086280D01*
X157913720Y-126377431D01*
X158294126Y-126535000D01*
X158705874Y-126535000D01*
X159000000Y-126413169D01*
X159294126Y-126535000D01*
X159705874Y-126535000D01*
X160086280Y-126377431D01*
X160377431Y-126086280D01*
X160535000Y-125705874D01*
X160535000Y-125294126D01*
X162215000Y-125294126D01*
X162215000Y-125705874D01*
X162372569Y-126086280D01*
X162663720Y-126377431D01*
X163044126Y-126535000D01*
X163455874Y-126535000D01*
X163750000Y-126413169D01*
X164044126Y-126535000D01*
X164455874Y-126535000D01*
X164750000Y-126413169D01*
X165044126Y-126535000D01*
X165455874Y-126535000D01*
X165750000Y-126413169D01*
X166044126Y-126535000D01*
X166455874Y-126535000D01*
X166836280Y-126377431D01*
X167127431Y-126086280D01*
X167285000Y-125705874D01*
X167285000Y-125294126D01*
X167163169Y-125000000D01*
X167285000Y-124705874D01*
X167285000Y-124294126D01*
X167163169Y-124000000D01*
X167285000Y-123705874D01*
X167285000Y-123294126D01*
X167281531Y-123285750D01*
X170815000Y-123285750D01*
X170815000Y-123926310D01*
X170911673Y-124159699D01*
X171090302Y-124338327D01*
X171323691Y-124435000D01*
X171964250Y-124435000D01*
X172123000Y-124276250D01*
X172123000Y-123127000D01*
X172377000Y-123127000D01*
X172377000Y-124276250D01*
X172535750Y-124435000D01*
X173176309Y-124435000D01*
X173409698Y-124338327D01*
X173588327Y-124159699D01*
X173685000Y-123926310D01*
X173685000Y-123285750D01*
X173526250Y-123127000D01*
X172377000Y-123127000D01*
X172123000Y-123127000D01*
X170973750Y-123127000D01*
X170815000Y-123285750D01*
X167281531Y-123285750D01*
X167127431Y-122913720D01*
X166836280Y-122622569D01*
X166455874Y-122465000D01*
X166044126Y-122465000D01*
X165750000Y-122586831D01*
X165455874Y-122465000D01*
X165044126Y-122465000D01*
X164663720Y-122622569D01*
X164372569Y-122913720D01*
X164215000Y-123294126D01*
X164215000Y-123705874D01*
X164336831Y-124000000D01*
X164215000Y-124294126D01*
X164215000Y-124465000D01*
X164044126Y-124465000D01*
X163750000Y-124586831D01*
X163455874Y-124465000D01*
X163044126Y-124465000D01*
X162663720Y-124622569D01*
X162372569Y-124913720D01*
X162215000Y-125294126D01*
X160535000Y-125294126D01*
X160377431Y-124913720D01*
X160086280Y-124622569D01*
X159705874Y-124465000D01*
X159294126Y-124465000D01*
X159000000Y-124586831D01*
X158705874Y-124465000D01*
X158294126Y-124465000D01*
X157913720Y-124622569D01*
X157622569Y-124913720D01*
X157465000Y-125294126D01*
X135127000Y-125294126D01*
X135127000Y-122073690D01*
X170815000Y-122073690D01*
X170815000Y-122714250D01*
X170973750Y-122873000D01*
X172123000Y-122873000D01*
X172123000Y-121723750D01*
X172377000Y-121723750D01*
X172377000Y-122873000D01*
X173526250Y-122873000D01*
X173684689Y-122714561D01*
X174315000Y-122714561D01*
X174315000Y-123285439D01*
X174533466Y-123812862D01*
X174937138Y-124216534D01*
X175464561Y-124435000D01*
X176035439Y-124435000D01*
X176562862Y-124216534D01*
X176966534Y-123812862D01*
X177185000Y-123285439D01*
X177185000Y-122714561D01*
X176966534Y-122187138D01*
X176562862Y-121783466D01*
X176035439Y-121565000D01*
X175464561Y-121565000D01*
X174937138Y-121783466D01*
X174533466Y-122187138D01*
X174315000Y-122714561D01*
X173684689Y-122714561D01*
X173685000Y-122714250D01*
X173685000Y-122073690D01*
X173588327Y-121840301D01*
X173409698Y-121661673D01*
X173176309Y-121565000D01*
X172535750Y-121565000D01*
X172377000Y-121723750D01*
X172123000Y-121723750D01*
X171964250Y-121565000D01*
X171323691Y-121565000D01*
X171090302Y-121661673D01*
X170911673Y-121840301D01*
X170815000Y-122073690D01*
X135127000Y-122073690D01*
X135127000Y-117294126D01*
X157215000Y-117294126D01*
X157215000Y-117705874D01*
X157372569Y-118086280D01*
X157663720Y-118377431D01*
X158044126Y-118535000D01*
X158455874Y-118535000D01*
X158750000Y-118413169D01*
X159044126Y-118535000D01*
X159455874Y-118535000D01*
X159750000Y-118413169D01*
X160044126Y-118535000D01*
X160455874Y-118535000D01*
X160750000Y-118413169D01*
X161044126Y-118535000D01*
X161455874Y-118535000D01*
X161750000Y-118413169D01*
X162044126Y-118535000D01*
X162455874Y-118535000D01*
X162750000Y-118413169D01*
X163044126Y-118535000D01*
X163455874Y-118535000D01*
X163750000Y-118413169D01*
X164044126Y-118535000D01*
X164215000Y-118535000D01*
X164215000Y-118705874D01*
X164336831Y-119000000D01*
X164215000Y-119294126D01*
X164215000Y-119705874D01*
X164372569Y-120086280D01*
X164663720Y-120377431D01*
X165044126Y-120535000D01*
X165455874Y-120535000D01*
X165750000Y-120413169D01*
X166044126Y-120535000D01*
X166455874Y-120535000D01*
X166836280Y-120377431D01*
X167127431Y-120086280D01*
X167285000Y-119705874D01*
X167285000Y-119294126D01*
X167163169Y-119000000D01*
X167285000Y-118705874D01*
X167285000Y-118294126D01*
X167163169Y-118000000D01*
X167285000Y-117705874D01*
X167285000Y-117294126D01*
X167127431Y-116913720D01*
X166836280Y-116622569D01*
X166455874Y-116465000D01*
X166044126Y-116465000D01*
X165750000Y-116586831D01*
X165455874Y-116465000D01*
X165044126Y-116465000D01*
X164750000Y-116586831D01*
X164455874Y-116465000D01*
X164044126Y-116465000D01*
X163750000Y-116586831D01*
X163455874Y-116465000D01*
X163044126Y-116465000D01*
X162750000Y-116586831D01*
X162455874Y-116465000D01*
X162044126Y-116465000D01*
X161750000Y-116586831D01*
X161455874Y-116465000D01*
X161044126Y-116465000D01*
X160750000Y-116586831D01*
X160455874Y-116465000D01*
X160044126Y-116465000D01*
X159750000Y-116586831D01*
X159455874Y-116465000D01*
X159044126Y-116465000D01*
X158750000Y-116586831D01*
X158455874Y-116465000D01*
X158044126Y-116465000D01*
X157663720Y-116622569D01*
X157372569Y-116913720D01*
X157215000Y-117294126D01*
X135127000Y-117294126D01*
X135127000Y-108544126D01*
X146465000Y-108544126D01*
X146465000Y-108955874D01*
X146586831Y-109250000D01*
X146465000Y-109544126D01*
X146465000Y-109955874D01*
X146586831Y-110250000D01*
X146465000Y-110544126D01*
X146465000Y-110955874D01*
X146586831Y-111250000D01*
X146465000Y-111544126D01*
X146465000Y-111955874D01*
X146586831Y-112250000D01*
X146465000Y-112544126D01*
X146465000Y-112955874D01*
X146586831Y-113250000D01*
X146465000Y-113544126D01*
X146465000Y-113955874D01*
X146622569Y-114336280D01*
X146913720Y-114627431D01*
X147294126Y-114785000D01*
X147705874Y-114785000D01*
X148000000Y-114663169D01*
X148294126Y-114785000D01*
X148705874Y-114785000D01*
X149000000Y-114663169D01*
X149294126Y-114785000D01*
X149705874Y-114785000D01*
X150086280Y-114627431D01*
X150118498Y-114595213D01*
X174465000Y-114595213D01*
X174465000Y-115404787D01*
X174774810Y-116152735D01*
X175347265Y-116725190D01*
X176095213Y-117035000D01*
X176904787Y-117035000D01*
X177652735Y-116725190D01*
X178225190Y-116152735D01*
X178535000Y-115404787D01*
X178535000Y-114595213D01*
X178225190Y-113847265D01*
X177652735Y-113274810D01*
X176904787Y-112965000D01*
X176095213Y-112965000D01*
X175347265Y-113274810D01*
X174774810Y-113847265D01*
X174465000Y-114595213D01*
X150118498Y-114595213D01*
X150377431Y-114336280D01*
X150535000Y-113955874D01*
X150535000Y-113544126D01*
X150413169Y-113250000D01*
X150535000Y-112955874D01*
X150535000Y-112544126D01*
X150413169Y-112250000D01*
X150535000Y-111955874D01*
X150535000Y-111544126D01*
X150413169Y-111250000D01*
X150535000Y-110955874D01*
X150535000Y-110544126D01*
X150413169Y-110250000D01*
X150535000Y-109955874D01*
X150535000Y-109544126D01*
X150531531Y-109535750D01*
X160065000Y-109535750D01*
X160065000Y-110176310D01*
X160161673Y-110409699D01*
X160340302Y-110588327D01*
X160573691Y-110685000D01*
X161214250Y-110685000D01*
X161373000Y-110526250D01*
X161373000Y-109377000D01*
X161627000Y-109377000D01*
X161627000Y-110526250D01*
X161785750Y-110685000D01*
X162426309Y-110685000D01*
X162659698Y-110588327D01*
X162838327Y-110409699D01*
X162935000Y-110176310D01*
X162935000Y-109535750D01*
X162776250Y-109377000D01*
X161627000Y-109377000D01*
X161373000Y-109377000D01*
X160223750Y-109377000D01*
X160065000Y-109535750D01*
X150531531Y-109535750D01*
X150413169Y-109250000D01*
X150535000Y-108955874D01*
X150535000Y-108544126D01*
X150443693Y-108323690D01*
X160065000Y-108323690D01*
X160065000Y-108964250D01*
X160223750Y-109123000D01*
X161373000Y-109123000D01*
X161373000Y-107973750D01*
X161627000Y-107973750D01*
X161627000Y-109123000D01*
X162776250Y-109123000D01*
X162934689Y-108964561D01*
X163565000Y-108964561D01*
X163565000Y-109535439D01*
X163783466Y-110062862D01*
X164187138Y-110466534D01*
X164714561Y-110685000D01*
X165285439Y-110685000D01*
X165812862Y-110466534D01*
X166216534Y-110062862D01*
X166435000Y-109535439D01*
X166435000Y-108964561D01*
X166216534Y-108437138D01*
X165812862Y-108033466D01*
X165285439Y-107815000D01*
X164714561Y-107815000D01*
X164187138Y-108033466D01*
X163783466Y-108437138D01*
X163565000Y-108964561D01*
X162934689Y-108964561D01*
X162935000Y-108964250D01*
X162935000Y-108323690D01*
X162838327Y-108090301D01*
X162659698Y-107911673D01*
X162426309Y-107815000D01*
X161785750Y-107815000D01*
X161627000Y-107973750D01*
X161373000Y-107973750D01*
X161214250Y-107815000D01*
X160573691Y-107815000D01*
X160340302Y-107911673D01*
X160161673Y-108090301D01*
X160065000Y-108323690D01*
X150443693Y-108323690D01*
X150377431Y-108163720D01*
X150086280Y-107872569D01*
X149705874Y-107715000D01*
X149294126Y-107715000D01*
X149000000Y-107836831D01*
X148705874Y-107715000D01*
X148294126Y-107715000D01*
X148000000Y-107836831D01*
X147705874Y-107715000D01*
X147294126Y-107715000D01*
X146913720Y-107872569D01*
X146622569Y-108163720D01*
X146465000Y-108544126D01*
X135127000Y-108544126D01*
X135127000Y-100794126D01*
X157715000Y-100794126D01*
X157715000Y-101205874D01*
X157872569Y-101586280D01*
X158163720Y-101877431D01*
X158544126Y-102035000D01*
X158955874Y-102035000D01*
X159250000Y-101913169D01*
X159544126Y-102035000D01*
X159955874Y-102035000D01*
X160250000Y-101913169D01*
X160544126Y-102035000D01*
X160955874Y-102035000D01*
X161250000Y-101913169D01*
X161544126Y-102035000D01*
X161955874Y-102035000D01*
X162250000Y-101913169D01*
X162544126Y-102035000D01*
X162955874Y-102035000D01*
X163250000Y-101913169D01*
X163544126Y-102035000D01*
X163955874Y-102035000D01*
X164250000Y-101913169D01*
X164544126Y-102035000D01*
X164955874Y-102035000D01*
X165250000Y-101913169D01*
X165544126Y-102035000D01*
X165955874Y-102035000D01*
X166250000Y-101913169D01*
X166544126Y-102035000D01*
X166955874Y-102035000D01*
X167336280Y-101877431D01*
X167627431Y-101586280D01*
X167785000Y-101205874D01*
X167785000Y-100794126D01*
X167663169Y-100500000D01*
X167785000Y-100205874D01*
X167785000Y-99794126D01*
X167663169Y-99500000D01*
X167785000Y-99205874D01*
X167785000Y-98794126D01*
X167627431Y-98413720D01*
X167336280Y-98122569D01*
X167077363Y-98015322D01*
X171065000Y-98015322D01*
X171065000Y-98864678D01*
X171390034Y-99649380D01*
X171990620Y-100249966D01*
X172775322Y-100575000D01*
X173624678Y-100575000D01*
X174409380Y-100249966D01*
X175009966Y-99649380D01*
X175335000Y-98864678D01*
X175335000Y-98015322D01*
X175009966Y-97230620D01*
X174409380Y-96630034D01*
X173624678Y-96305000D01*
X172775322Y-96305000D01*
X171990620Y-96630034D01*
X171390034Y-97230620D01*
X171065000Y-98015322D01*
X167077363Y-98015322D01*
X166955874Y-97965000D01*
X166544126Y-97965000D01*
X166250000Y-98086831D01*
X165955874Y-97965000D01*
X165544126Y-97965000D01*
X165163720Y-98122569D01*
X164872569Y-98413720D01*
X164715000Y-98794126D01*
X164715000Y-99205874D01*
X164836831Y-99500000D01*
X164715000Y-99794126D01*
X164715000Y-99965000D01*
X164544126Y-99965000D01*
X164250000Y-100086831D01*
X163955874Y-99965000D01*
X163544126Y-99965000D01*
X163250000Y-100086831D01*
X162955874Y-99965000D01*
X162544126Y-99965000D01*
X162250000Y-100086831D01*
X161955874Y-99965000D01*
X161544126Y-99965000D01*
X161250000Y-100086831D01*
X160955874Y-99965000D01*
X160544126Y-99965000D01*
X160250000Y-100086831D01*
X159955874Y-99965000D01*
X159544126Y-99965000D01*
X159250000Y-100086831D01*
X158955874Y-99965000D01*
X158544126Y-99965000D01*
X158163720Y-100122569D01*
X157872569Y-100413720D01*
X157715000Y-100794126D01*
X135127000Y-100794126D01*
X135127000Y-93000000D01*
X135124560Y-92975224D01*
X135048440Y-92592541D01*
X135029477Y-92546760D01*
X135027718Y-92544126D01*
X157715000Y-92544126D01*
X157715000Y-92955874D01*
X157872569Y-93336280D01*
X158163720Y-93627431D01*
X158544126Y-93785000D01*
X158955874Y-93785000D01*
X159250000Y-93663169D01*
X159544126Y-93785000D01*
X159955874Y-93785000D01*
X160336280Y-93627431D01*
X160627431Y-93336280D01*
X160785000Y-92955874D01*
X160785000Y-92544126D01*
X162715000Y-92544126D01*
X162715000Y-92955874D01*
X162872569Y-93336280D01*
X163163720Y-93627431D01*
X163544126Y-93785000D01*
X163955874Y-93785000D01*
X164250000Y-93663169D01*
X164544126Y-93785000D01*
X164715000Y-93785000D01*
X164715000Y-93955874D01*
X164836831Y-94250000D01*
X164715000Y-94544126D01*
X164715000Y-94955874D01*
X164836831Y-95250000D01*
X164715000Y-95544126D01*
X164715000Y-95955874D01*
X164872569Y-96336280D01*
X165163720Y-96627431D01*
X165544126Y-96785000D01*
X165955874Y-96785000D01*
X166336280Y-96627431D01*
X166627431Y-96336280D01*
X166785000Y-95955874D01*
X166785000Y-95544126D01*
X166663169Y-95250000D01*
X166785000Y-94955874D01*
X166785000Y-94785000D01*
X166955874Y-94785000D01*
X167336280Y-94627431D01*
X167627431Y-94336280D01*
X167785000Y-93955874D01*
X167785000Y-93544126D01*
X167663169Y-93250000D01*
X167785000Y-92955874D01*
X167785000Y-92935322D01*
X171065000Y-92935322D01*
X171065000Y-93784678D01*
X171390034Y-94569380D01*
X171990620Y-95169966D01*
X172775322Y-95495000D01*
X173624678Y-95495000D01*
X174409380Y-95169966D01*
X175009966Y-94569380D01*
X175335000Y-93784678D01*
X175335000Y-92935322D01*
X175009966Y-92150620D01*
X174409380Y-91550034D01*
X173624678Y-91225000D01*
X172775322Y-91225000D01*
X171990620Y-91550034D01*
X171390034Y-92150620D01*
X171065000Y-92935322D01*
X167785000Y-92935322D01*
X167785000Y-92544126D01*
X167627431Y-92163720D01*
X167336280Y-91872569D01*
X166955874Y-91715000D01*
X166544126Y-91715000D01*
X166250000Y-91836831D01*
X165955874Y-91715000D01*
X165544126Y-91715000D01*
X165250000Y-91836831D01*
X164955874Y-91715000D01*
X164544126Y-91715000D01*
X164250000Y-91836831D01*
X163955874Y-91715000D01*
X163544126Y-91715000D01*
X163163720Y-91872569D01*
X162872569Y-92163720D01*
X162715000Y-92544126D01*
X160785000Y-92544126D01*
X160627431Y-92163720D01*
X160336280Y-91872569D01*
X159955874Y-91715000D01*
X159544126Y-91715000D01*
X159250000Y-91836831D01*
X158955874Y-91715000D01*
X158544126Y-91715000D01*
X158163720Y-91872569D01*
X157872569Y-92163720D01*
X157715000Y-92544126D01*
X135027718Y-92544126D01*
X134812704Y-92222336D01*
X134777664Y-92187296D01*
X134453240Y-91970523D01*
X134407459Y-91951560D01*
X134024776Y-91875440D01*
X134000000Y-91873000D01*
X128785000Y-91873000D01*
X128785000Y-91544126D01*
X128663169Y-91250000D01*
X128785000Y-90955874D01*
X128785000Y-90544126D01*
X128663169Y-90250000D01*
X128785000Y-89955874D01*
X128785000Y-89544126D01*
X128627431Y-89163720D01*
X128336280Y-88872569D01*
X127955874Y-88715000D01*
X127544126Y-88715000D01*
X127250000Y-88836831D01*
X126955874Y-88715000D01*
X126544126Y-88715000D01*
X126250000Y-88836831D01*
X125955874Y-88715000D01*
X125544126Y-88715000D01*
X125163720Y-88872569D01*
X124872569Y-89163720D01*
X124715000Y-89544126D01*
X124715000Y-89955874D01*
X124836831Y-90250000D01*
X124715000Y-90544126D01*
X124715000Y-90955874D01*
X124836831Y-91250000D01*
X124715000Y-91544126D01*
X124715000Y-91873000D01*
X115012509Y-91873000D01*
X114666870Y-91804248D01*
X114384455Y-91615545D01*
X114195752Y-91333130D01*
X114127000Y-90987491D01*
X114127000Y-90802002D01*
X114157235Y-90650000D01*
X114127000Y-90497998D01*
X114127000Y-89532002D01*
X114157235Y-89380000D01*
X114127000Y-89227998D01*
X114127000Y-88262002D01*
X114157235Y-88110000D01*
X114127000Y-87957998D01*
X114127000Y-87855322D01*
X171065000Y-87855322D01*
X171065000Y-88704678D01*
X171390034Y-89489380D01*
X171990620Y-90089966D01*
X172775322Y-90415000D01*
X173624678Y-90415000D01*
X174409380Y-90089966D01*
X175009966Y-89489380D01*
X175335000Y-88704678D01*
X175335000Y-87855322D01*
X175009966Y-87070620D01*
X174409380Y-86470034D01*
X173624678Y-86145000D01*
X172775322Y-86145000D01*
X171990620Y-86470034D01*
X171390034Y-87070620D01*
X171065000Y-87855322D01*
X114127000Y-87855322D01*
X114127000Y-86992002D01*
X114157235Y-86840000D01*
X114127000Y-86687998D01*
X114127000Y-85794126D01*
X158465000Y-85794126D01*
X158465000Y-86205874D01*
X158622569Y-86586280D01*
X158913720Y-86877431D01*
X159294126Y-87035000D01*
X159705874Y-87035000D01*
X160000000Y-86913169D01*
X160294126Y-87035000D01*
X160705874Y-87035000D01*
X161086280Y-86877431D01*
X161377431Y-86586280D01*
X161535000Y-86205874D01*
X161535000Y-85794126D01*
X161377431Y-85413720D01*
X161086280Y-85122569D01*
X160705874Y-84965000D01*
X160294126Y-84965000D01*
X160000000Y-85086831D01*
X159705874Y-84965000D01*
X159294126Y-84965000D01*
X158913720Y-85122569D01*
X158622569Y-85413720D01*
X158465000Y-85794126D01*
X114127000Y-85794126D01*
X114127000Y-85722002D01*
X114157235Y-85570000D01*
X114127000Y-85417998D01*
X114127000Y-84452002D01*
X114157235Y-84300000D01*
X114127000Y-84147998D01*
X114127000Y-83182002D01*
X114157235Y-83030000D01*
X114127000Y-82877998D01*
X114127000Y-82012509D01*
X114195752Y-81666870D01*
X114384455Y-81384455D01*
X114666870Y-81195752D01*
X115012509Y-81127000D01*
X124784226Y-81127000D01*
X124715000Y-81294126D01*
X124715000Y-81705874D01*
X124836831Y-82000000D01*
X124715000Y-82294126D01*
X124715000Y-82705874D01*
X124872569Y-83086280D01*
X125163720Y-83377431D01*
X125544126Y-83535000D01*
X125955874Y-83535000D01*
X126250000Y-83413169D01*
X126544126Y-83535000D01*
X126955874Y-83535000D01*
X127250000Y-83413169D01*
X127544126Y-83535000D01*
X127955874Y-83535000D01*
X128336280Y-83377431D01*
X128627431Y-83086280D01*
X128785000Y-82705874D01*
X128785000Y-82294126D01*
X128663169Y-82000000D01*
X128785000Y-81705874D01*
X128785000Y-81294126D01*
X128715774Y-81127000D01*
X130275520Y-81127000D01*
X130216654Y-81269116D01*
X130216654Y-81680864D01*
X130374223Y-82061270D01*
X130665374Y-82352421D01*
X131045780Y-82509990D01*
X131457528Y-82509990D01*
X131837934Y-82352421D01*
X132129085Y-82061270D01*
X132286654Y-81680864D01*
X132286654Y-81269116D01*
X132227788Y-81127000D01*
X134000000Y-81127000D01*
X134024776Y-81124560D01*
X134407459Y-81048440D01*
X134453240Y-81029477D01*
X134777664Y-80812704D01*
X134812704Y-80777664D01*
X135029477Y-80453240D01*
X135048440Y-80407459D01*
X135124560Y-80024776D01*
X135127000Y-80000000D01*
X135127000Y-77794126D01*
X157715000Y-77794126D01*
X157715000Y-78205874D01*
X157872569Y-78586280D01*
X158163720Y-78877431D01*
X158544126Y-79035000D01*
X158955874Y-79035000D01*
X159250000Y-78913169D01*
X159544126Y-79035000D01*
X159955874Y-79035000D01*
X160250000Y-78913169D01*
X160544126Y-79035000D01*
X160955874Y-79035000D01*
X161250000Y-78913169D01*
X161544126Y-79035000D01*
X161955874Y-79035000D01*
X162250000Y-78913169D01*
X162544126Y-79035000D01*
X162955874Y-79035000D01*
X163250000Y-78913169D01*
X163544126Y-79035000D01*
X163955874Y-79035000D01*
X164250000Y-78913169D01*
X164544126Y-79035000D01*
X164715000Y-79035000D01*
X164715000Y-79205874D01*
X164836831Y-79500000D01*
X164715000Y-79794126D01*
X164715000Y-80205874D01*
X164836831Y-80500000D01*
X164715000Y-80794126D01*
X164715000Y-81205874D01*
X164836831Y-81500000D01*
X164715000Y-81794126D01*
X164715000Y-82205874D01*
X164836831Y-82500000D01*
X164715000Y-82794126D01*
X164715000Y-83205874D01*
X164836831Y-83500000D01*
X164715000Y-83794126D01*
X164715000Y-84205874D01*
X164836831Y-84500000D01*
X164715000Y-84794126D01*
X164715000Y-84965000D01*
X164544126Y-84965000D01*
X164250000Y-85086831D01*
X163955874Y-84965000D01*
X163544126Y-84965000D01*
X163163720Y-85122569D01*
X162872569Y-85413720D01*
X162715000Y-85794126D01*
X162715000Y-86205874D01*
X162872569Y-86586280D01*
X163163720Y-86877431D01*
X163544126Y-87035000D01*
X163955874Y-87035000D01*
X164250000Y-86913169D01*
X164544126Y-87035000D01*
X164955874Y-87035000D01*
X165250000Y-86913169D01*
X165544126Y-87035000D01*
X165955874Y-87035000D01*
X166250000Y-86913169D01*
X166544126Y-87035000D01*
X166955874Y-87035000D01*
X167336280Y-86877431D01*
X167627431Y-86586280D01*
X167785000Y-86205874D01*
X167785000Y-85794126D01*
X167663169Y-85500000D01*
X167785000Y-85205874D01*
X167785000Y-84794126D01*
X167663169Y-84500000D01*
X167785000Y-84205874D01*
X167785000Y-83794126D01*
X167663169Y-83500000D01*
X167785000Y-83205874D01*
X167785000Y-82794126D01*
X167663169Y-82500000D01*
X167785000Y-82205874D01*
X167785000Y-81794126D01*
X167746012Y-81700000D01*
X171052560Y-81700000D01*
X171052560Y-84700000D01*
X171101843Y-84947765D01*
X171242191Y-85157809D01*
X171452235Y-85298157D01*
X171700000Y-85347440D01*
X174700000Y-85347440D01*
X174947765Y-85298157D01*
X175157809Y-85157809D01*
X175298157Y-84947765D01*
X175347440Y-84700000D01*
X175347440Y-81700000D01*
X175298157Y-81452235D01*
X175157809Y-81242191D01*
X174947765Y-81101843D01*
X174700000Y-81052560D01*
X171700000Y-81052560D01*
X171452235Y-81101843D01*
X171242191Y-81242191D01*
X171101843Y-81452235D01*
X171052560Y-81700000D01*
X167746012Y-81700000D01*
X167663169Y-81500000D01*
X167785000Y-81205874D01*
X167785000Y-80794126D01*
X167663169Y-80500000D01*
X167785000Y-80205874D01*
X167785000Y-79794126D01*
X167663169Y-79500000D01*
X167785000Y-79205874D01*
X167785000Y-78794126D01*
X167663169Y-78500000D01*
X167785000Y-78205874D01*
X167785000Y-77794126D01*
X167627431Y-77413720D01*
X167336280Y-77122569D01*
X166955874Y-76965000D01*
X166544126Y-76965000D01*
X166250000Y-77086831D01*
X165955874Y-76965000D01*
X165544126Y-76965000D01*
X165250000Y-77086831D01*
X164955874Y-76965000D01*
X164544126Y-76965000D01*
X164250000Y-77086831D01*
X163955874Y-76965000D01*
X163544126Y-76965000D01*
X163250000Y-77086831D01*
X162955874Y-76965000D01*
X162544126Y-76965000D01*
X162250000Y-77086831D01*
X161955874Y-76965000D01*
X161544126Y-76965000D01*
X161250000Y-77086831D01*
X160955874Y-76965000D01*
X160544126Y-76965000D01*
X160250000Y-77086831D01*
X159955874Y-76965000D01*
X159544126Y-76965000D01*
X159250000Y-77086831D01*
X158955874Y-76965000D01*
X158544126Y-76965000D01*
X158163720Y-77122569D01*
X157872569Y-77413720D01*
X157715000Y-77794126D01*
X135127000Y-77794126D01*
X135127000Y-68794126D01*
X146465000Y-68794126D01*
X146465000Y-69205874D01*
X146586831Y-69500000D01*
X146465000Y-69794126D01*
X146465000Y-70205874D01*
X146586831Y-70500000D01*
X146465000Y-70794126D01*
X146465000Y-71205874D01*
X146586831Y-71500000D01*
X146465000Y-71794126D01*
X146465000Y-72205874D01*
X146586831Y-72500000D01*
X146465000Y-72794126D01*
X146465000Y-73205874D01*
X146586831Y-73500000D01*
X146465000Y-73794126D01*
X146465000Y-74205874D01*
X146622569Y-74586280D01*
X146913720Y-74877431D01*
X147294126Y-75035000D01*
X147705874Y-75035000D01*
X148000000Y-74913169D01*
X148294126Y-75035000D01*
X148705874Y-75035000D01*
X149000000Y-74913169D01*
X149294126Y-75035000D01*
X149705874Y-75035000D01*
X150086280Y-74877431D01*
X150377431Y-74586280D01*
X150535000Y-74205874D01*
X150535000Y-73794126D01*
X150452093Y-73593970D01*
X172665635Y-73593970D01*
X172825418Y-73912739D01*
X173616187Y-74222723D01*
X174465387Y-74206497D01*
X175174582Y-73912739D01*
X175334365Y-73593970D01*
X174000000Y-72259605D01*
X172665635Y-73593970D01*
X150452093Y-73593970D01*
X150413169Y-73500000D01*
X150535000Y-73205874D01*
X150535000Y-72794126D01*
X150413169Y-72500000D01*
X150535000Y-72205874D01*
X150535000Y-71794126D01*
X150494433Y-71696187D01*
X171857277Y-71696187D01*
X171873503Y-72545387D01*
X172167261Y-73254582D01*
X172486030Y-73414365D01*
X173820395Y-72080000D01*
X174179605Y-72080000D01*
X175513970Y-73414365D01*
X175832739Y-73254582D01*
X176142723Y-72463813D01*
X176126497Y-71614613D01*
X175832739Y-70905418D01*
X175513970Y-70745635D01*
X174179605Y-72080000D01*
X173820395Y-72080000D01*
X172486030Y-70745635D01*
X172167261Y-70905418D01*
X171857277Y-71696187D01*
X150494433Y-71696187D01*
X150413169Y-71500000D01*
X150535000Y-71205874D01*
X150535000Y-70794126D01*
X150413169Y-70500000D01*
X150535000Y-70205874D01*
X150535000Y-69794126D01*
X150531531Y-69785750D01*
X160065000Y-69785750D01*
X160065000Y-70426310D01*
X160161673Y-70659699D01*
X160340302Y-70838327D01*
X160573691Y-70935000D01*
X161214250Y-70935000D01*
X161373000Y-70776250D01*
X161373000Y-69627000D01*
X161627000Y-69627000D01*
X161627000Y-70776250D01*
X161785750Y-70935000D01*
X162426309Y-70935000D01*
X162659698Y-70838327D01*
X162838327Y-70659699D01*
X162935000Y-70426310D01*
X162935000Y-69785750D01*
X162776250Y-69627000D01*
X161627000Y-69627000D01*
X161373000Y-69627000D01*
X160223750Y-69627000D01*
X160065000Y-69785750D01*
X150531531Y-69785750D01*
X150413169Y-69500000D01*
X150535000Y-69205874D01*
X150535000Y-68794126D01*
X150443693Y-68573690D01*
X160065000Y-68573690D01*
X160065000Y-69214250D01*
X160223750Y-69373000D01*
X161373000Y-69373000D01*
X161373000Y-68223750D01*
X161627000Y-68223750D01*
X161627000Y-69373000D01*
X162776250Y-69373000D01*
X162934689Y-69214561D01*
X163565000Y-69214561D01*
X163565000Y-69785439D01*
X163783466Y-70312862D01*
X164187138Y-70716534D01*
X164714561Y-70935000D01*
X165285439Y-70935000D01*
X165812862Y-70716534D01*
X165963366Y-70566030D01*
X172665635Y-70566030D01*
X174000000Y-71900395D01*
X175334365Y-70566030D01*
X175174582Y-70247261D01*
X174383813Y-69937277D01*
X173534613Y-69953503D01*
X172825418Y-70247261D01*
X172665635Y-70566030D01*
X165963366Y-70566030D01*
X166216534Y-70312862D01*
X166435000Y-69785439D01*
X166435000Y-69214561D01*
X166216534Y-68687138D01*
X165812862Y-68283466D01*
X165285439Y-68065000D01*
X164714561Y-68065000D01*
X164187138Y-68283466D01*
X163783466Y-68687138D01*
X163565000Y-69214561D01*
X162934689Y-69214561D01*
X162935000Y-69214250D01*
X162935000Y-68573690D01*
X162838327Y-68340301D01*
X162659698Y-68161673D01*
X162426309Y-68065000D01*
X161785750Y-68065000D01*
X161627000Y-68223750D01*
X161373000Y-68223750D01*
X161214250Y-68065000D01*
X160573691Y-68065000D01*
X160340302Y-68161673D01*
X160161673Y-68340301D01*
X160065000Y-68573690D01*
X150443693Y-68573690D01*
X150377431Y-68413720D01*
X150086280Y-68122569D01*
X149705874Y-67965000D01*
X149294126Y-67965000D01*
X149000000Y-68086831D01*
X148705874Y-67965000D01*
X148294126Y-67965000D01*
X148000000Y-68086831D01*
X147705874Y-67965000D01*
X147294126Y-67965000D01*
X146913720Y-68122569D01*
X146622569Y-68413720D01*
X146465000Y-68794126D01*
X135127000Y-68794126D01*
X135127000Y-65500000D01*
X171852560Y-65500000D01*
X171852560Y-68500000D01*
X171901843Y-68747765D01*
X172042191Y-68957809D01*
X172252235Y-69098157D01*
X172500000Y-69147440D01*
X175500000Y-69147440D01*
X175747765Y-69098157D01*
X175957809Y-68957809D01*
X176098157Y-68747765D01*
X176147440Y-68500000D01*
X176147440Y-65500000D01*
X176098157Y-65252235D01*
X175957809Y-65042191D01*
X175747765Y-64901843D01*
X175500000Y-64852560D01*
X172500000Y-64852560D01*
X172252235Y-64901843D01*
X172042191Y-65042191D01*
X171901843Y-65252235D01*
X171852560Y-65500000D01*
X135127000Y-65500000D01*
X135127000Y-61544126D01*
X157715000Y-61544126D01*
X157715000Y-61955874D01*
X157872569Y-62336280D01*
X158163720Y-62627431D01*
X158544126Y-62785000D01*
X158955874Y-62785000D01*
X159250000Y-62663169D01*
X159544126Y-62785000D01*
X159955874Y-62785000D01*
X160250000Y-62663169D01*
X160544126Y-62785000D01*
X160955874Y-62785000D01*
X161250000Y-62663169D01*
X161544126Y-62785000D01*
X161955874Y-62785000D01*
X162250000Y-62663169D01*
X162544126Y-62785000D01*
X162955874Y-62785000D01*
X163250000Y-62663169D01*
X163544126Y-62785000D01*
X163955874Y-62785000D01*
X164250000Y-62663169D01*
X164544126Y-62785000D01*
X164955874Y-62785000D01*
X165250000Y-62663169D01*
X165544126Y-62785000D01*
X165955874Y-62785000D01*
X166250000Y-62663169D01*
X166544126Y-62785000D01*
X166955874Y-62785000D01*
X167336280Y-62627431D01*
X167627431Y-62336280D01*
X167785000Y-61955874D01*
X167785000Y-61544126D01*
X167663169Y-61250000D01*
X167785000Y-60955874D01*
X167785000Y-60544126D01*
X167702608Y-60345213D01*
X173965000Y-60345213D01*
X173965000Y-61154787D01*
X174274810Y-61902735D01*
X174847265Y-62475190D01*
X175595213Y-62785000D01*
X176404787Y-62785000D01*
X177152735Y-62475190D01*
X177725190Y-61902735D01*
X178035000Y-61154787D01*
X178035000Y-60345213D01*
X177725190Y-59597265D01*
X177152735Y-59024810D01*
X176404787Y-58715000D01*
X175595213Y-58715000D01*
X174847265Y-59024810D01*
X174274810Y-59597265D01*
X173965000Y-60345213D01*
X167702608Y-60345213D01*
X167663169Y-60250000D01*
X167785000Y-59955874D01*
X167785000Y-59544126D01*
X167663169Y-59250000D01*
X167785000Y-58955874D01*
X167785000Y-58544126D01*
X167627431Y-58163720D01*
X167336280Y-57872569D01*
X166955874Y-57715000D01*
X166544126Y-57715000D01*
X166250000Y-57836831D01*
X165955874Y-57715000D01*
X165544126Y-57715000D01*
X165163720Y-57872569D01*
X164872569Y-58163720D01*
X164715000Y-58544126D01*
X164715000Y-58955874D01*
X164836831Y-59250000D01*
X164715000Y-59544126D01*
X164715000Y-59955874D01*
X164836831Y-60250000D01*
X164715000Y-60544126D01*
X164715000Y-60715000D01*
X164544126Y-60715000D01*
X164250000Y-60836831D01*
X163955874Y-60715000D01*
X163544126Y-60715000D01*
X163250000Y-60836831D01*
X162955874Y-60715000D01*
X162544126Y-60715000D01*
X162250000Y-60836831D01*
X161955874Y-60715000D01*
X161544126Y-60715000D01*
X161250000Y-60836831D01*
X160955874Y-60715000D01*
X160544126Y-60715000D01*
X160250000Y-60836831D01*
X159955874Y-60715000D01*
X159544126Y-60715000D01*
X159250000Y-60836831D01*
X158955874Y-60715000D01*
X158544126Y-60715000D01*
X158163720Y-60872569D01*
X157872569Y-61163720D01*
X157715000Y-61544126D01*
X135127000Y-61544126D01*
X135127000Y-53294126D01*
X157715000Y-53294126D01*
X157715000Y-53705874D01*
X157872569Y-54086280D01*
X158163720Y-54377431D01*
X158544126Y-54535000D01*
X158955874Y-54535000D01*
X159250000Y-54413169D01*
X159544126Y-54535000D01*
X159955874Y-54535000D01*
X160250000Y-54413169D01*
X160544126Y-54535000D01*
X160955874Y-54535000D01*
X161250000Y-54413169D01*
X161544126Y-54535000D01*
X161955874Y-54535000D01*
X162250000Y-54413169D01*
X162544126Y-54535000D01*
X162955874Y-54535000D01*
X163250000Y-54413169D01*
X163544126Y-54535000D01*
X163955874Y-54535000D01*
X164250000Y-54413169D01*
X164544126Y-54535000D01*
X164715000Y-54535000D01*
X164715000Y-54705874D01*
X164836831Y-55000000D01*
X164715000Y-55294126D01*
X164715000Y-55705874D01*
X164872569Y-56086280D01*
X165163720Y-56377431D01*
X165544126Y-56535000D01*
X165955874Y-56535000D01*
X166250000Y-56413169D01*
X166544126Y-56535000D01*
X166955874Y-56535000D01*
X167336280Y-56377431D01*
X167627431Y-56086280D01*
X167785000Y-55705874D01*
X167785000Y-55294126D01*
X167663169Y-55000000D01*
X167785000Y-54705874D01*
X167785000Y-54294126D01*
X167663169Y-54000000D01*
X167785000Y-53705874D01*
X167785000Y-53294126D01*
X167627431Y-52913720D01*
X167336280Y-52622569D01*
X166955874Y-52465000D01*
X166544126Y-52465000D01*
X166250000Y-52586831D01*
X165955874Y-52465000D01*
X165544126Y-52465000D01*
X165250000Y-52586831D01*
X164955874Y-52465000D01*
X164544126Y-52465000D01*
X164250000Y-52586831D01*
X163955874Y-52465000D01*
X163544126Y-52465000D01*
X163250000Y-52586831D01*
X162955874Y-52465000D01*
X162544126Y-52465000D01*
X162250000Y-52586831D01*
X161955874Y-52465000D01*
X161544126Y-52465000D01*
X161250000Y-52586831D01*
X160955874Y-52465000D01*
X160544126Y-52465000D01*
X160250000Y-52586831D01*
X159955874Y-52465000D01*
X159544126Y-52465000D01*
X159250000Y-52586831D01*
X158955874Y-52465000D01*
X158544126Y-52465000D01*
X158163720Y-52622569D01*
X157872569Y-52913720D01*
X157715000Y-53294126D01*
X135127000Y-53294126D01*
X135127000Y-52012509D01*
X135195752Y-51666870D01*
X135384455Y-51384455D01*
X135666870Y-51195752D01*
X136012509Y-51127000D01*
X177987491Y-51127000D01*
X178333130Y-51195752D01*
G04 #@! TD*
M02*
