G04 #@! TF.GenerationSoftware,KiCad,Pcbnew,5.0.2-bee76a0~70~ubuntu18.04.1*
G04 #@! TF.CreationDate,2019-02-27T20:57:34-05:00*
G04 #@! TF.ProjectId,Stepper Motor Prototype,53746570-7065-4722-904d-6f746f722050,rev?*
G04 #@! TF.SameCoordinates,Original*
G04 #@! TF.FileFunction,Copper,L2,Inr*
G04 #@! TF.FilePolarity,Positive*
%FSLAX46Y46*%
G04 Gerber Fmt 4.6, Leading zero omitted, Abs format (unit mm)*
G04 Created by KiCad (PCBNEW 5.0.2-bee76a0~70~ubuntu18.04.1) date Wed 27 Feb 2019 08:57:34 PM EST*
%MOMM*%
%LPD*%
G01*
G04 APERTURE LIST*
G04 #@! TA.AperFunction,ViaPad*
%ADD10C,3.000000*%
G04 #@! TD*
G04 #@! TA.AperFunction,ViaPad*
%ADD11R,3.000000X3.000000*%
G04 #@! TD*
G04 #@! TA.AperFunction,ViaPad*
%ADD12C,1.600000*%
G04 #@! TD*
G04 #@! TA.AperFunction,ViaPad*
%ADD13R,1.600000X1.600000*%
G04 #@! TD*
G04 #@! TA.AperFunction,ViaPad*
%ADD14C,2.800000*%
G04 #@! TD*
G04 #@! TA.AperFunction,ViaPad*
%ADD15O,1.000000X1.000000*%
G04 #@! TD*
G04 #@! TA.AperFunction,ViaPad*
%ADD16R,1.000000X1.000000*%
G04 #@! TD*
G04 #@! TA.AperFunction,ViaPad*
%ADD17C,0.800000*%
G04 #@! TD*
G04 APERTURE END LIST*
D10*
G04 #@! TO.N,+24V*
G04 #@! TO.C,J2*
X174000000Y-72080000D03*
D11*
G04 #@! TO.N,GND*
X174000000Y-67000000D03*
G04 #@! TD*
D10*
G04 #@! TO.N,Net-(J3-Pad4)*
G04 #@! TO.C,J3*
X173200000Y-98440000D03*
D11*
G04 #@! TO.N,/AOUT1*
X173200000Y-83200000D03*
D10*
G04 #@! TO.N,Net-(J3-Pad3)*
X173200000Y-93360000D03*
G04 #@! TO.N,/AOUT2*
X173200000Y-88280000D03*
G04 #@! TD*
D12*
G04 #@! TO.N,GND*
G04 #@! TO.C,C1*
X175750000Y-123000000D03*
D13*
G04 #@! TO.N,+24V*
X172250000Y-123000000D03*
G04 #@! TD*
D14*
G04 #@! TO.N,GND*
G04 #@! TO.C,TP1*
X115500000Y-55750000D03*
G04 #@! TD*
G04 #@! TO.N,GND*
G04 #@! TO.C,TP2*
X176000000Y-60750000D03*
G04 #@! TD*
G04 #@! TO.N,GND*
G04 #@! TO.C,TP3*
X126000000Y-121750000D03*
G04 #@! TD*
G04 #@! TO.N,GND*
G04 #@! TO.C,TP4*
X176500000Y-115000000D03*
G04 #@! TD*
D15*
G04 #@! TO.N,Net-(J1-Pad15)*
G04 #@! TO.C,J1*
X113000000Y-79220000D03*
G04 #@! TO.N,Net-(J1-Pad14)*
X113000000Y-80490000D03*
G04 #@! TO.N,Net-(J1-Pad13)*
X113000000Y-81760000D03*
G04 #@! TO.N,Net-(J1-Pad12)*
X113000000Y-83030000D03*
G04 #@! TO.N,Net-(J1-Pad11)*
X113000000Y-84300000D03*
G04 #@! TO.N,Net-(J1-Pad10)*
X113000000Y-85570000D03*
G04 #@! TO.N,Net-(J1-Pad9)*
X113000000Y-86840000D03*
G04 #@! TO.N,Net-(J1-Pad8)*
X113000000Y-88110000D03*
G04 #@! TO.N,Net-(J1-Pad7)*
X113000000Y-89380000D03*
G04 #@! TO.N,Net-(J1-Pad6)*
X113000000Y-90650000D03*
G04 #@! TO.N,Net-(J1-Pad5)*
X113000000Y-91920000D03*
G04 #@! TO.N,Net-(J1-Pad4)*
X113000000Y-93190000D03*
G04 #@! TO.N,+3V3*
X113000000Y-94460000D03*
G04 #@! TO.N,+1V8*
X113000000Y-95730000D03*
D16*
G04 #@! TO.N,GND*
X113000000Y-97000000D03*
G04 #@! TD*
D13*
G04 #@! TO.N,+24V*
G04 #@! TO.C,C9*
X161500000Y-69500000D03*
D12*
G04 #@! TO.N,GND*
X165000000Y-69500000D03*
G04 #@! TD*
G04 #@! TO.N,GND*
G04 #@! TO.C,C12*
X165000000Y-109250000D03*
D13*
G04 #@! TO.N,+24V*
X161500000Y-109250000D03*
G04 #@! TD*
D17*
G04 #@! TO.N,GND*
X125750000Y-92750000D03*
X126750000Y-92750000D03*
X125750000Y-91750000D03*
X126750000Y-91750000D03*
X127750000Y-91750000D03*
X127750000Y-92750000D03*
X127750000Y-90750000D03*
X126750000Y-90750000D03*
X125750000Y-90750000D03*
X125750000Y-89750000D03*
X126750000Y-89750000D03*
X127750000Y-89750000D03*
X125750000Y-79500000D03*
X127750000Y-82500000D03*
X127750000Y-81500000D03*
X126750000Y-82500000D03*
X125750000Y-81500000D03*
X125750000Y-80500000D03*
X126750000Y-81500000D03*
X127750000Y-80500000D03*
X127750000Y-79500000D03*
X125750000Y-82500000D03*
X126750000Y-80500000D03*
X126750000Y-79500000D03*
X131251654Y-81474990D03*
X147500000Y-69000000D03*
X148500000Y-69000000D03*
X149500000Y-69000000D03*
X149500000Y-70000000D03*
X148500000Y-70000000D03*
X147500000Y-70000000D03*
X147500000Y-71000000D03*
X148500000Y-70000000D03*
X148500000Y-70000000D03*
X148500000Y-71000000D03*
X149500000Y-71000000D03*
X149500000Y-72000000D03*
X148500000Y-72000000D03*
X147500000Y-72000000D03*
X147500000Y-73000000D03*
X148500000Y-73000000D03*
X149500000Y-73000000D03*
X148500000Y-74000000D03*
X147500000Y-74000000D03*
X149500000Y-74000000D03*
X147500000Y-110750000D03*
X148500000Y-113750000D03*
X149500000Y-113750000D03*
X149500000Y-108750000D03*
X147500000Y-112750000D03*
X149500000Y-111750000D03*
X147500000Y-113750000D03*
X148500000Y-111750000D03*
X148500000Y-108750000D03*
X147500000Y-108750000D03*
X148500000Y-109750000D03*
X147500000Y-111750000D03*
X149500000Y-110750000D03*
X148500000Y-110750000D03*
X147500000Y-109750000D03*
X148500000Y-112750000D03*
X148500000Y-109750000D03*
X149500000Y-112750000D03*
X148500000Y-109750000D03*
X149500000Y-109750000D03*
G04 #@! TO.N,+24V*
X141750000Y-117500000D03*
X141750000Y-117500000D03*
X141750000Y-117500000D03*
X142750000Y-117500000D03*
X143750000Y-117500000D03*
X144750000Y-117500000D03*
X145750000Y-117500000D03*
X146750000Y-117500000D03*
X147750000Y-117500000D03*
X148750000Y-117500000D03*
X149750000Y-118500000D03*
X149750000Y-119500000D03*
X149750000Y-120500000D03*
X149750000Y-121500000D03*
X149750000Y-122500000D03*
X149750000Y-123500000D03*
X149750000Y-124500000D03*
X149600000Y-125400000D03*
X148750000Y-125500000D03*
X147750000Y-125500000D03*
X146750000Y-125500000D03*
X145750000Y-125500000D03*
X144750000Y-125500000D03*
X143750000Y-125500000D03*
X142750000Y-125500000D03*
X141750000Y-125500000D03*
X149750000Y-117500000D03*
X149750000Y-97000000D03*
X149750000Y-99000000D03*
X147750000Y-93000000D03*
X141750000Y-93000000D03*
X149750000Y-95000000D03*
X149750000Y-94000000D03*
X141750000Y-93000000D03*
X149750000Y-101000000D03*
X146750000Y-93000000D03*
X142750000Y-93000000D03*
X146750000Y-101000000D03*
X147750000Y-101000000D03*
X149750000Y-100000000D03*
X148750000Y-93000000D03*
X144750000Y-101000000D03*
X149750000Y-96000000D03*
X141750000Y-93000000D03*
X143750000Y-101000000D03*
X142750000Y-101000000D03*
X149750000Y-98000000D03*
X145750000Y-101000000D03*
X148750000Y-101000000D03*
X145750000Y-93000000D03*
X144750000Y-93000000D03*
X141750000Y-101000000D03*
X143750000Y-93000000D03*
X149750000Y-93000000D03*
X148750000Y-86000000D03*
X144750000Y-78000000D03*
X141750000Y-86000000D03*
X141750000Y-78000000D03*
X147750000Y-86000000D03*
X149750000Y-82000000D03*
X149750000Y-79000000D03*
X149750000Y-80000000D03*
X143750000Y-86000000D03*
X148750000Y-78000000D03*
X144750000Y-86000000D03*
X145750000Y-86000000D03*
X149750000Y-78000000D03*
X149750000Y-86000000D03*
X141750000Y-78000000D03*
X146750000Y-86000000D03*
X149750000Y-85000000D03*
X141750000Y-78000000D03*
X149750000Y-81000000D03*
X149750000Y-83000000D03*
X149750000Y-84000000D03*
X143750000Y-78000000D03*
X147750000Y-78000000D03*
X146750000Y-78000000D03*
X142750000Y-86000000D03*
X142750000Y-78000000D03*
X145750000Y-78000000D03*
X149250000Y-53500000D03*
X149250000Y-55500000D03*
X147250000Y-61500000D03*
X143250000Y-61500000D03*
X146250000Y-61500000D03*
X148250000Y-53500000D03*
X144250000Y-61500000D03*
X149250000Y-58500000D03*
X142250000Y-53500000D03*
X149250000Y-54500000D03*
X144250000Y-53500000D03*
X149250000Y-61500000D03*
X149250000Y-60500000D03*
X145250000Y-61500000D03*
X149250000Y-59500000D03*
X147250000Y-53500000D03*
X141250000Y-53500000D03*
X141250000Y-53500000D03*
X149250000Y-57500000D03*
X145250000Y-53500000D03*
X148250000Y-61500000D03*
X142250000Y-61500000D03*
X141250000Y-53500000D03*
X141250000Y-61500000D03*
X149250000Y-56500000D03*
X146250000Y-53500000D03*
X143250000Y-53500000D03*
X121050000Y-83200000D03*
G04 #@! TO.N,Net-(J3-Pad4)*
X158250000Y-117500000D03*
X159250000Y-117500000D03*
X160250000Y-117500000D03*
X161250000Y-117500000D03*
X162250000Y-117500000D03*
X163250000Y-117500000D03*
X164250000Y-117500000D03*
X165250000Y-117500000D03*
X166250000Y-117500000D03*
X166250000Y-118500000D03*
X165250000Y-118500000D03*
X165250000Y-119500000D03*
X166250000Y-119500000D03*
X166250000Y-123500000D03*
X165250000Y-123500000D03*
X165250000Y-124500000D03*
X166250000Y-124500000D03*
X166250000Y-125500000D03*
X165250000Y-125500000D03*
X164250000Y-125500000D03*
X163250000Y-125500000D03*
X159500000Y-125500000D03*
X158500000Y-125500000D03*
G04 #@! TO.N,Net-(J3-Pad3)*
X158750000Y-92750000D03*
X159750000Y-92750000D03*
X166750000Y-92750000D03*
X165750000Y-92750000D03*
X165750000Y-93750000D03*
X166750000Y-93750000D03*
X165750000Y-94750000D03*
X165750000Y-95750000D03*
X164750000Y-92750000D03*
X163750000Y-92750000D03*
X166750000Y-101000000D03*
X165750000Y-101000000D03*
X164750000Y-101000000D03*
X163750000Y-101000000D03*
X162750000Y-101000000D03*
X161750000Y-101000000D03*
X160750000Y-101000000D03*
X159750000Y-101000000D03*
X158750000Y-101000000D03*
X165750000Y-100000000D03*
X166750000Y-100000000D03*
X166750000Y-99000000D03*
X165750000Y-99000000D03*
G04 #@! TO.N,/AOUT1*
X158750000Y-53500000D03*
X159750000Y-53500000D03*
X160750000Y-53500000D03*
X161750000Y-53500000D03*
X162750000Y-53500000D03*
X163750000Y-53500000D03*
X164750000Y-53500000D03*
X165750000Y-53500000D03*
X166750000Y-53500000D03*
X166750000Y-54500000D03*
X165750000Y-54500000D03*
X165750000Y-55500000D03*
X166750000Y-55500000D03*
X166750000Y-61750000D03*
X165750000Y-61750000D03*
X165750000Y-61750000D03*
X165750000Y-61750000D03*
X165750000Y-60750000D03*
X166750000Y-60750000D03*
X166750000Y-59750000D03*
X165750000Y-59750000D03*
X165750000Y-58750000D03*
X166750000Y-58750000D03*
X164750000Y-61750000D03*
X163750000Y-61750000D03*
X162750000Y-61750000D03*
X161750000Y-61750000D03*
X160750000Y-61750000D03*
X159750000Y-61750000D03*
X158750000Y-61750000D03*
G04 #@! TO.N,/AOUT2*
X158750000Y-78000000D03*
X159750000Y-78000000D03*
X160750000Y-78000000D03*
X161750000Y-78000000D03*
X162750000Y-78000000D03*
X163750000Y-78000000D03*
X164750000Y-78000000D03*
X165750000Y-78000000D03*
X166750000Y-78000000D03*
X166750000Y-79000000D03*
X165750000Y-79000000D03*
X165750000Y-80000000D03*
X166750000Y-80000000D03*
X166750000Y-81000000D03*
X165750000Y-81000000D03*
X165750000Y-82000000D03*
X166750000Y-82000000D03*
X166750000Y-83000000D03*
X165750000Y-83000000D03*
X165750000Y-84000000D03*
X166750000Y-84000000D03*
X166750000Y-85000000D03*
X165750000Y-85000000D03*
X165750000Y-86000000D03*
X166750000Y-86000000D03*
X164750000Y-86000000D03*
X163750000Y-86000000D03*
X160500000Y-86000000D03*
X159500000Y-86000000D03*
G04 #@! TD*
M02*
